# Blender v2.80 (sub 60) OBJ File: 'rockyboi.blend'
# www.blender.org
mtllib AngledSpire.mtl
o lowpoly1
v 2.200850 1.857334 0.211309
v 2.113948 2.032429 0.697979
v 1.912908 1.812884 0.679733
v 1.960807 2.325011 -0.402134
v 2.266706 2.276909 -0.180013
v 1.913259 2.014778 -0.593297
v -0.033969 -0.330886 -0.225491
v 0.290628 0.193690 -0.648626
v 0.765058 0.432887 -0.335658
v 1.683588 1.335890 0.466081
v 1.507240 1.394396 -0.041322
v 0.621433 0.338453 0.042807
v 0.270763 0.040145 0.081003
v 2.542566 2.507664 -0.168249
v 2.615350 2.470113 0.068196
v 2.589080 2.818573 -0.004890
v 2.292217 2.968159 0.160126
v 2.238450 2.657737 0.642824
v 0.320526 0.240325 -1.126689
v -0.023114 -0.174221 -0.547106
v 1.955057 1.942182 -0.248852
v 1.513229 1.695222 -0.569732
v 1.358504 1.836843 -0.782348
v -0.769897 -0.995195 -0.757170
v -0.699513 -0.756895 -1.229357
v -0.523524 -0.761821 -0.979657
v 0.671426 2.111683 0.897517
v 0.702225 1.919535 1.020930
v 1.046887 2.250659 0.877077
v 0.231891 1.541936 0.942477
v 1.070008 1.730054 0.820282
v 1.756052 2.258494 -0.628358
v 1.415807 2.702528 -0.303408
v 1.667342 2.970751 0.121216
v 1.631365 2.881666 0.395333
v 2.094143 2.920693 0.534064
v 1.881803 2.702470 0.703626
v 1.357280 2.141451 0.889213
v 2.245237 2.676309 -0.142663
v -0.060027 -0.001015 -1.362474
v -0.422288 -0.466630 -1.360079
v -0.462351 -0.158689 -1.533206
v -0.433516 -0.681843 -0.363768
v -0.238734 -0.296244 -1.248014
v -0.874034 -0.419577 -1.509192
v -0.355321 -0.589228 -0.121762
v -0.361982 1.700903 0.024030
v 0.111308 2.029127 -0.312746
v -0.469363 1.935836 -0.234462
v 1.123602 2.048469 -0.746275
v 0.256555 2.106627 0.245991
v 0.357450 2.199392 0.143967
v 0.040207 1.840568 0.266136
v -0.182363 1.497304 0.744646
v 0.533029 2.515249 -0.284344
v 0.762520 2.220922 0.431798
v 0.807693 2.760298 0.113774
v 1.238910 2.962835 0.146381
v 1.301183 3.012295 -0.037937
v 1.106583 1.452055 0.559569
v 0.101337 1.774797 0.867828
v -0.504572 0.071897 0.407733
v -0.861909 0.534237 0.637889
v -0.940817 0.175486 0.498412
v -1.672719 -0.488695 -0.363205
v -0.788113 -0.781024 -0.407256
v -0.709200 -0.189409 0.242851
v -1.079979 -1.062365 -0.928635
v -0.316216 0.324027 0.384943
v -0.656956 0.886998 0.707422
v -1.559577 -0.153754 -1.506439
v -0.929201 -0.096990 -1.536960
v -1.886691 -0.308248 -0.433683
v -1.830202 -0.312546 -0.863622
v -1.645115 -0.861893 -0.737865
v -1.694370 -0.470426 -1.203580
v 0.566981 1.169472 -1.068808
v 0.355716 0.916933 -1.279015
v -0.145766 0.900997 -1.064986
v -0.222806 0.501232 -1.499041
v 0.205753 0.548459 -1.393588
v -1.736128 0.182372 -1.266971
v -0.731289 0.563060 -1.268149
v -1.454707 -1.021832 -0.866991
v -1.383486 0.956375 -0.827462
v -0.901274 1.586541 -0.683156
v -1.196082 1.030485 -0.959460
v -1.684422 -0.066465 0.085198
v -1.131174 -0.062941 0.275382
v -0.399821 1.401686 0.571215
v -0.661469 1.538791 0.323310
v -1.581283 0.064824 0.208489
v -1.616274 0.216576 0.003681
v -1.039718 1.306806 0.439456
v -0.955545 1.276314 0.574351
v -0.035949 1.506801 -0.683706
v 0.644430 2.034523 -0.651025
v -0.032469 1.950747 -0.572923
v -0.791853 1.562698 0.052710
v -1.216430 0.791819 -0.088480
v -1.143991 0.914604 -0.429641
v -0.653830 1.912009 -0.344697
v -1.569653 0.678047 -1.026961
v -1.210320 0.718395 0.519950
v -1.637512 0.195455 -0.774910
v 1.137005 1.032004 -0.221088
v 1.331925 1.103787 0.361658
v 1.165016 0.959519 0.318848
v 0.941519 1.140967 -0.977470
v 1.010399 1.121587 -0.595753
v 0.518176 0.592734 -0.789442
v 0.309239 2.115036 -0.517224
v 0.801114 1.129938 -1.104457
v 1.192716 1.590362 -0.861044
v 0.581228 0.716328 -1.222170
v -0.157917 -0.131131 0.287397
v 0.371025 0.273388 0.161290
v 0.375958 0.848682 0.411974
v 0.910836 1.145283 0.380044
v 0.536918 1.501859 0.701283
v -0.338095 1.011788 0.744244
v 0.823319 0.585451 0.298962
v 0.218793 0.478658 0.244188
v 0.036446 1.063308 0.690409
v -1.346044 0.197221 0.406747
v -0.234156 0.874338 0.560438
v -1.261768 -1.061098 -0.702104
vt -0.777616 1.895682
vt -0.862934 2.234615
vt -1.065498 2.120202
vt -0.430378 1.684057
vt -0.518294 1.816926
vt -0.519752 1.570598
vt -1.602644 -0.146954
vt -1.157844 0.171749
vt -1.268659 0.583358
vt -1.263988 1.717955
vt -1.008967 1.416039
vt 2.474432 -0.508028
vt 2.626767 0.127479
vt 2.452203 -0.143749
vt -0.456175 1.913785
vt -0.488850 1.965091
vt -0.412373 1.960982
vt -0.325541 1.987176
vt -0.378235 2.287558
vt -0.851943 0.096631
vt -1.333855 -0.129656
vt -0.646339 1.654023
vt -0.624044 1.349051
vt -0.463638 1.274931
vt -1.283931 -0.985346
vt -0.937147 -0.802008
vt -1.125534 -0.715669
vt 1.612283 1.165780
vt 1.742854 1.100291
vt 1.694224 1.438618
vt 1.727215 0.731241
vt 2.034693 1.201666
vt -0.405665 1.563249
vt -0.167571 1.645828
vt -0.114509 1.876390
vt -0.023572 2.001537
vt -0.236243 2.130759
vt 2.374472 1.959219
vt 1.855765 2.165280
vt 1.914009 1.561484
vt 2.410435 1.729406
vt 2.626767 1.333845
vt -0.378409 1.868869
vt -0.764511 -0.202853
vt -0.852847 -0.555276
vt -0.660785 -0.463189
vt -1.578598 -0.586392
vt -0.892784 -0.390211
vt -0.643716 -0.753094
vt 2.336803 -0.829213
vt 2.284349 -0.670574
vt 1.051736 0.435734
vt 0.755200 0.773941
vt 0.837404 0.391643
vt -0.282034 1.257975
vt 1.131706 0.947821
vt 1.050811 1.039157
vt 1.182637 0.722035
vt 1.536440 0.509760
vt 0.416931 0.996197
vt 0.570091 1.392353
vt 0.195923 1.365252
vt 1.305269 1.313097
vt 0.201233 1.652559
vt 0.033317 1.778671
vt -0.030715 1.736695
vt 0.573336 1.769246
vt 2.268053 1.058308
vt 1.563448 0.767936
vt 2.067690 2.358716
vt -0.078746 2.286289
vt 0.552429 2.114934
vt 1.975750 -0.296339
vt 1.667720 -0.182590
vt 1.742675 -0.359693
vt 1.598367 -0.989218
vt 2.141671 -0.987178
vt 1.963828 -0.501534
vt -1.071787 -1.206640
vt 2.004696 -0.126540
vt 1.631654 0.034906
vt -0.296339 -0.998601
vt -0.457758 -0.665401
vt 1.445934 -0.980469
vt 1.317344 -1.184479
vt 1.653911 -1.274338
vt 1.306696 -1.460740
vt -0.421714 0.585545
vt -0.474772 0.342531
vt -0.193508 0.150490
vt -0.450864 -0.110729
vt -0.594178 0.117270
vt 0.876494 -1.221459
vt -0.149177 -0.303186
vt -0.902936 -1.460740
vt -0.413561 -1.265188
vt 0.488934 -0.476535
vt 0.573336 0.122644
vt 0.365417 -0.340063
vt 1.512655 -0.706695
vt -0.011065 -1.028034
vt 1.734500 -0.544290
vt 1.442673 0.342584
vt 1.224628 0.223945
vt 1.516268 -0.613894
vt 1.388761 -0.628473
vt -1.562256 0.585922
vt 1.302041 -0.001776
vt 1.371167 0.034343
vt 0.113772 0.534406
vt -0.037791 1.090637
vt 0.329287 0.784784
vt 1.062279 0.141977
vt 1.166363 -0.345908
vt 0.951656 -0.363978
vt 0.597290 -0.003384
vt 0.712778 -0.558674
vt 0.784172 0.281248
vt 0.328173 -0.742052
vt 1.481086 -0.232647
vt 0.723244 -0.825319
vt 1.073286 -0.935483
vt -1.086287 1.047582
vt -1.392851 1.398411
vt -1.450935 1.235873
vt -0.630173 0.763484
vt -0.846776 0.902917
vt -0.946843 0.418557
vt 0.201333 1.035021
vt -0.556429 0.666549
vt -0.518856 1.085957
vt 0.574470 0.640676
vt -0.661466 0.378846
vt 2.195689 -0.313515
vt 2.442722 0.036654
vt 2.198191 0.390403
vt 2.361081 0.787624
vt 1.955250 0.815792
vt 1.698209 0.225370
vt 2.577008 0.427426
vt 2.273049 0.110841
vt 1.869068 0.398699
vt 1.581385 -0.468715
vt 1.845848 0.178443
vt -1.626767 0.888642
vt 1.781929 -1.404130
vt 2.598575 0.811280
vt 2.608075 0.988155
vt 1.913605 -1.301035
vt 2.047882 -1.432408
vt 2.243824 -1.252843
vn 0.7503 -0.6538 -0.0980
vn 0.5593 -0.2606 0.7870
vn 0.4335 -0.4810 0.7620
vn 0.5025 0.4156 -0.7581
vn 0.6551 -0.3258 -0.6817
vn 0.6625 -0.2501 -0.7061
vn 0.6808 -0.7306 -0.0529
vn 0.7330 -0.6301 -0.2563
vn 0.7543 -0.6182 -0.2210
vn 0.4449 -0.7599 0.4739
vn 0.6602 -0.6660 -0.3472
vn 0.6174 -0.7102 0.3383
vn 0.5847 -0.6352 0.5045
vn 0.5680 -0.0611 -0.8207
vn 0.9392 -0.3381 0.0596
vn 0.7610 0.5926 -0.2641
vn 0.3377 0.9371 -0.0882
vn 0.6185 0.3320 0.7122
vn 0.7676 -0.5644 -0.3037
vn 0.7402 -0.6556 -0.1490
vn 0.6609 -0.6626 -0.3524
vn 0.6130 -0.6177 -0.4926
vn 0.3512 -0.0562 -0.9346
vn 0.3707 -0.9251 0.0818
vn 0.3265 -0.7590 -0.5634
vn 0.6862 -0.6973 -0.2070
vn -0.3416 0.7978 0.4968
vn -0.0263 0.1215 0.9922
vn -0.2197 0.6598 0.7186
vn -0.0005 -0.3443 0.9389
vn 0.1868 -0.5591 0.8078
vn 0.3026 0.4169 -0.8571
vn 0.1486 0.6648 -0.7321
vn 0.0604 0.9862 -0.1545
vn -0.2885 0.7815 0.5532
vn 0.1095 0.8403 0.5310
vn 0.0321 0.4195 0.9072
vn 0.1870 -0.0404 0.9815
vn 0.1650 0.5134 -0.8421
vn 0.6195 -0.4477 -0.6448
vn 0.5265 -0.5859 -0.6161
vn 0.2495 -0.2052 -0.9464
vn 0.5694 -0.8161 0.0992
vn 0.7380 -0.6193 -0.2679
vn -0.0137 -0.4590 -0.8883
vn 0.3500 -0.8166 0.4590
vn -0.1615 0.8483 0.5042
vn -0.5367 0.8395 0.0847
vn -0.1976 0.9160 0.3490
vn -0.0274 0.4349 -0.9001
vn -0.5929 0.7806 0.1979
vn -0.6386 0.7014 0.3166
vn -0.6213 0.7500 0.2270
vn -0.6755 0.4625 0.5742
vn -0.5701 0.7395 -0.3579
vn -0.4238 0.7846 0.4525
vn -0.5373 0.7290 0.4241
vn -0.2039 0.9068 0.3690
vn -0.1720 0.8647 -0.4718
vn 0.0588 -0.5837 0.8099
vn -0.5095 0.4842 0.7113
vn 0.1758 -0.3619 0.9155
vn -0.1261 -0.2282 0.9654
vn -0.0857 -0.4971 0.8635
vn -0.3594 -0.6674 0.6522
vn 0.0152 -0.7997 0.6003
vn -0.0848 -0.6574 0.7488
vn 0.0338 -0.9110 -0.4111
vn 0.3118 -0.2569 0.9148
vn 0.0471 -0.2120 0.9761
vn -0.3468 -0.0789 -0.9346
vn -0.1113 0.2129 -0.9707
vn -0.9769 -0.0708 0.2017
vn -0.9916 -0.0203 -0.1281
vn -0.7696 -0.6216 0.1461
vn -0.8064 -0.3644 -0.4657
vn -0.1803 0.5429 -0.8202
vn 0.0172 0.5197 -0.8542
vn -0.1620 0.6439 -0.7477
vn -0.0190 0.2891 -0.9571
vn 0.4291 -0.1303 -0.8938
vn -0.9293 0.2000 -0.3105
vn -0.2115 0.5563 -0.8036
vn -0.3896 -0.7967 -0.4620
vn -0.8208 0.5709 0.0154
vn -0.6351 0.6485 -0.4196
vn -0.2462 0.5625 -0.7893
vn -0.7167 -0.2942 0.6323
vn -0.2160 -0.6368 0.7402
vn -0.3629 0.6948 0.6210
vn -0.2350 0.8455 0.4795
vn -0.7392 -0.0406 0.6723
vn -0.8954 0.4252 0.1323
vn -0.7835 0.5695 0.2487
vn -0.3549 0.4677 0.8095
vn -0.1031 0.4122 -0.9052
vn -0.1830 0.5030 -0.8447
vn -0.2042 0.7817 -0.5893
vn -0.7436 0.6426 0.1849
vn -0.8422 0.5322 -0.0865
vn -0.8649 0.4165 0.2802
vn -0.4682 0.8836 0.0081
vn -0.6746 0.5619 -0.4787
vn -0.5885 0.1004 0.8022
vn -0.9026 0.4171 0.1068
vn 0.7722 -0.5893 -0.2376
vn 0.4508 -0.7591 0.4696
vn 0.5616 -0.5593 0.6097
vn 0.8047 -0.4384 -0.4002
vn 0.7822 -0.5162 -0.3490
vn 0.7964 -0.5602 -0.2278
vn -0.3975 0.7345 -0.5500
vn 0.3376 0.1953 -0.9208
vn 0.6514 -0.2639 -0.7113
vn 0.6913 -0.2841 -0.6644
vn 0.2878 -0.4564 0.8419
vn 0.3543 -0.4208 0.8351
vn 0.2115 -0.4041 0.8899
vn 0.1196 -0.3985 0.9093
vn 0.2870 -0.6048 0.7429
vn -0.1348 -0.1794 0.9745
vn 0.3911 -0.6194 0.6808
vn 0.1594 -0.3748 0.9133
vn 0.2799 -0.5984 0.7507
vn -0.3633 -0.3343 0.8696
vn 0.2171 -0.5754 0.7885
vn -0.1504 -0.8926 0.4251
usemtl material_0
s 1
f 1/1/1 2/2/2 3/3/3
f 4/4/4 5/5/5 6/6/6
f 7/7/7 8/8/8 9/9/9
f 10/10/10 11/11/11 1/1/1
f 7/12/7 12/13/12 13/14/13
f 5/5/5 14/15/14 15/16/15
f 16/17/16 17/18/17 18/19/18
f 19/20/19 8/8/8 20/21/20
f 21/22/21 22/23/22 6/6/6
f 6/6/6 5/5/5 21/22/21
f 22/23/22 23/24/23 6/6/6
f 24/25/24 25/26/25 26/27/26
f 27/28/27 28/29/28 29/30/29
f 30/31/30 31/32/31 28/29/28
f 15/16/15 14/15/14 16/17/16
f 18/19/18 2/2/2 15/16/15
f 1/1/1 15/16/15 2/2/2
f 10/10/10 1/1/1 3/3/3
f 32/33/32 33/34/33 4/4/4
f 34/35/34 35/36/35 36/37/36
f 2/38/2 37/39/37 38/40/38
f 38/40/38 31/32/31 3/41/3
f 10/42/10 3/41/3 31/32/31
f 7/7/7 20/21/20 8/8/8
f 39/43/39 14/15/14 5/5/5
f 40/44/40 41/45/41 42/46/42
f 15/16/15 16/17/16 18/19/18
f 21/22/21 5/5/5 1/1/1
f 2/38/2 38/40/38 3/41/3
f 16/17/16 14/15/14 39/43/39
f 26/27/26 43/47/43 24/25/24
f 41/45/41 44/48/44 26/27/26
f 41/45/41 25/26/25 45/49/45
f 43/50/43 7/12/7 46/51/46
f 44/48/44 20/21/20 26/27/26
f 26/27/26 25/26/25 41/45/41
f 13/14/13 46/51/46 7/12/7
f 47/52/47 48/53/48 49/54/49
f 36/37/36 18/19/18 17/18/17
f 33/34/33 39/43/39 4/4/4
f 17/18/17 16/17/16 39/43/39
f 50/55/50 32/33/32 23/24/23
f 48/53/48 51/56/51 52/57/52
f 53/58/53 54/59/54 51/56/51
f 48/60/48 52/61/52 55/62/55
f 17/18/17 39/43/39 34/35/34
f 51/56/51 27/28/27 56/63/56
f 57/64/57 58/65/58 59/66/59
f 34/35/34 36/37/36 17/18/17
f 57/64/57 52/61/52 56/67/56
f 10/42/10 31/32/31 60/68/60
f 39/43/39 33/34/33 34/35/34
f 48/53/48 47/52/47 53/58/53
f 34/35/34 59/66/59 58/65/58
f 38/40/38 28/29/28 31/32/31
f 51/56/51 48/53/48 53/58/53
f 51/56/51 54/59/54 61/69/61
f 38/40/38 29/30/29 28/29/28
f 56/63/56 27/28/27 29/30/29
f 18/70/18 37/39/37 2/38/2
f 33/34/33 59/66/59 34/35/34
f 6/6/6 32/33/32 4/4/4
f 4/4/4 39/43/39 5/5/5
f 18/19/18 36/37/36 37/71/37
f 37/71/37 36/37/36 35/36/35
f 19/20/19 20/21/20 44/48/44
f 32/33/32 6/6/6 23/24/23
f 21/22/21 11/11/11 22/23/22
f 1/1/1 5/5/5 15/16/15
f 35/36/35 56/67/56 29/72/29
f 52/57/52 51/56/51 56/63/56
f 34/35/34 58/65/58 35/36/35
f 41/45/41 45/49/45 42/46/42
f 41/45/41 40/44/40 44/48/44
f 62/73/62 63/74/63 64/75/64
f 65/76/65 66/77/66 67/78/67
f 25/26/25 24/25/24 68/79/68
f 69/80/69 70/81/70 62/73/62
f 45/49/45 71/82/71 72/83/72
f 73/84/73 74/85/74 75/86/75
f 75/86/75 74/85/74 76/87/76
f 77/88/77 78/89/78 79/90/79
f 80/91/80 81/92/81 42/46/42
f 76/87/76 74/85/74 82/93/82
f 78/89/78 80/91/80 83/94/83
f 71/82/71 84/95/84 76/96/76
f 85/97/85 86/98/86 87/99/87
f 73/84/73 65/76/65 88/100/88
f 76/96/76 82/101/82 71/82/71
f 89/102/89 88/100/88 65/76/65
f 75/86/75 65/76/65 73/84/73
f 53/58/53 47/52/47 90/103/90
f 90/103/90 47/52/47 91/104/91
f 78/89/78 83/94/83 79/90/79
f 92/105/92 93/106/93 88/100/88
f 67/78/67 89/102/89 65/76/65
f 33/34/33 50/55/50 59/66/59
f 50/55/50 33/34/33 32/33/32
f 51/56/51 61/69/61 27/28/27
f 61/69/61 28/29/28 27/28/27
f 29/30/29 38/40/38 37/39/37
f 12/107/12 7/7/7 9/9/9
f 91/104/91 94/108/94 95/109/95
f 77/88/77 96/110/96 97/111/97
f 59/66/59 50/55/50 97/111/97
f 96/110/96 87/99/87 86/98/86
f 86/98/86 98/112/98 96/110/96
f 87/99/87 79/90/79 83/94/83
f 77/88/77 79/90/79 96/110/96
f 96/110/96 79/90/79 87/99/87
f 44/48/44 40/44/40 19/20/19
f 97/111/97 96/110/96 98/112/98
f 94/108/94 91/104/91 99/113/99
f 93/106/93 94/108/94 100/114/100
f 49/54/49 91/104/91 47/52/47
f 99/113/99 91/104/91 49/54/49
f 101/115/101 86/116/86 85/117/85
f 100/114/100 94/108/94 99/113/99
f 86/116/86 99/113/99 102/118/102
f 85/97/85 87/99/87 103/119/103
f 104/120/104 95/109/95 94/108/94
f 100/114/100 99/113/99 101/115/101
f 85/117/85 103/121/103 101/115/101
f 73/84/73 88/100/88 93/106/93
f 103/119/103 87/99/87 83/94/83
f 93/106/93 100/114/100 105/122/105
f 73/84/73 105/122/105 74/85/74
f 71/82/71 82/101/82 103/119/103
f 105/122/105 103/121/103 82/93/82
f 103/121/103 105/122/105 101/115/101
f 83/94/83 72/83/72 103/119/103
f 105/122/105 73/84/73 93/106/93
f 103/119/103 72/83/72 71/82/71
f 74/85/74 105/122/105 82/93/82
f 101/115/101 105/122/105 100/114/100
f 59/66/59 97/111/97 55/62/55
f 106/123/106 11/11/11 107/124/107
f 9/9/9 106/123/106 108/125/108
f 56/67/56 35/36/35 57/64/57
f 109/126/109 110/127/110 111/128/111
f 40/44/40 81/92/81 19/20/19
f 58/65/58 57/64/57 35/36/35
f 55/62/55 97/111/97 112/129/112
f 55/62/55 112/129/112 48/60/48
f 102/118/102 99/113/99 49/54/49
f 113/130/113 50/55/50 114/131/114
f 57/64/57 55/62/55 52/61/52
f 113/130/113 77/88/77 50/55/50
f 78/89/78 77/88/77 113/130/113
f 113/130/113 114/131/114 109/126/109
f 97/111/97 98/112/98 112/129/112
f 97/111/97 50/55/50 77/88/77
f 114/131/114 50/55/50 23/24/23
f 49/54/49 48/53/48 98/132/98
f 48/60/48 112/129/112 98/112/98
f 49/54/49 98/132/98 102/118/102
f 98/132/98 86/116/86 102/118/102
f 110/127/110 9/9/9 111/128/111
f 109/126/109 114/131/114 110/127/110
f 11/11/11 110/127/110 114/131/114
f 9/9/9 110/127/110 106/123/106
f 106/123/106 110/127/110 11/11/11
f 22/23/22 11/11/11 114/131/114
f 86/116/86 101/115/101 99/113/99
f 29/72/29 37/71/37 35/36/35
f 111/128/111 115/133/115 109/126/109
f 26/27/26 20/21/20 43/47/43
f 8/8/8 19/20/19 111/128/111
f 116/134/116 46/51/46 13/14/13
f 113/130/113 115/133/115 78/89/78
f 59/66/59 55/62/55 57/64/57
f 9/9/9 8/8/8 111/128/111
f 19/20/19 115/133/115 111/128/111
f 19/20/19 81/92/81 115/133/115
f 116/134/116 13/14/13 117/135/117
f 30/31/30 28/29/28 61/69/61
f 113/130/113 109/126/109 115/133/115
f 13/14/13 12/13/12 117/135/117
f 43/47/43 20/21/20 7/7/7
f 117/135/117 69/80/69 116/134/116
f 95/109/95 90/103/90 91/104/91
f 54/59/54 53/58/53 90/103/90
f 62/73/62 70/81/70 63/74/63
f 118/136/118 119/137/119 120/138/120
f 54/59/54 90/103/90 121/139/121
f 80/91/80 42/46/42 72/83/72
f 78/89/78 81/92/81 80/91/80
f 120/138/120 119/137/119 60/68/60
f 122/140/122 118/136/118 123/141/123
f 30/31/30 124/142/124 120/138/120
f 62/73/62 116/134/116 69/80/69
f 83/94/83 80/91/80 72/83/72
f 125/143/125 89/102/89 64/75/64
f 104/120/104 125/143/125 63/74/63
f 126/144/126 118/136/118 124/142/124
f 108/125/108 122/145/122 9/9/9
f 117/135/117 123/141/123 69/80/69
f 114/131/114 23/24/23 22/23/22
f 120/138/120 124/142/124 118/136/118
f 45/49/45 72/83/72 42/46/42
f 69/80/69 118/136/118 126/144/126
f 84/146/84 75/86/75 76/87/76
f 104/120/104 63/74/63 70/81/70
f 67/78/67 62/73/62 64/75/64
f 70/81/70 121/139/121 95/109/95
f 92/105/92 89/102/89 125/143/125
f 90/103/90 95/109/95 121/139/121
f 30/31/30 61/69/61 54/59/54
f 121/139/121 126/144/126 124/142/124
f 67/78/67 46/51/46 116/134/116
f 69/80/69 123/141/123 118/136/118
f 70/81/70 69/80/69 126/144/126
f 84/95/84 71/82/71 45/49/45
f 120/138/120 31/32/31 30/31/30
f 30/31/30 121/139/121 124/142/124
f 70/81/70 126/144/126 121/139/121
f 54/59/54 121/139/121 30/31/30
f 122/140/122 117/135/117 12/13/12
f 125/143/125 64/75/64 63/74/63
f 89/102/89 92/105/92 88/100/88
f 120/138/120 60/68/60 31/32/31
f 122/140/122 108/147/108 118/136/118
f 119/137/119 107/148/107 60/68/60
f 116/134/116 62/73/62 67/78/67
f 10/42/10 60/68/60 107/148/107
f 127/149/127 68/150/68 24/151/24
f 10/10/10 107/124/107 11/11/11
f 127/149/127 84/146/84 68/150/68
f 68/79/68 45/49/45 25/26/25
f 104/120/104 70/81/70 95/109/95
f 81/92/81 78/89/78 115/133/115
f 66/77/66 24/151/24 43/50/43
f 84/146/84 127/149/127 75/86/75
f 122/140/122 123/141/123 117/135/117
f 66/77/66 127/149/127 24/151/24
f 108/147/108 119/137/119 118/136/118
f 89/102/89 67/78/67 64/75/64
f 94/108/94 93/106/93 92/105/92
f 108/147/108 107/148/107 119/137/119
f 75/86/75 127/149/127 65/76/65
f 106/123/106 107/124/107 108/125/108
f 46/51/46 67/78/67 66/77/66
f 66/77/66 43/50/43 46/51/46
f 45/49/45 68/79/68 84/95/84
f 92/105/92 104/120/104 94/108/94
f 66/77/66 65/76/65 127/149/127
f 11/11/11 21/22/21 1/1/1
f 104/120/104 92/105/92 125/143/125
f 122/145/122 12/107/12 9/9/9
f 40/44/40 42/46/42 81/92/81
