# Blender v2.80 (sub 60) OBJ File: ''
# www.blender.org
mtllib floatyboi05-inv.mtl
o Cube.001
v 0.801406 4.150229 -2.188951
v 0.943566 4.244403 -1.702505
v 1.284264 4.134142 -1.562946
v 0.734805 4.309820 -1.313602
v 0.553137 4.274992 -1.561758
v 0.388870 4.287753 -1.376111
v 0.047508 4.415745 -0.542125
v -0.524723 2.658985 -3.873682
v 3.391053 2.718936 -2.345634
v -1.462966 2.684607 -3.234997
v 1.129259 3.140518 3.798623
v 1.018589 2.874849 3.610443
v 1.273371 2.825185 3.428833
v 1.080365 4.174323 1.121465
v 2.077872 3.862839 0.524389
v 1.438693 4.169888 0.282327
v 1.147492 4.230821 0.611428
v -1.716746 4.226861 -0.064935
v -1.458585 4.266639 0.008323
v -1.310139 4.268050 -0.194152
v -3.184819 2.698401 -1.996105
v -4.006908 2.824363 0.677972
v -4.011926 2.728655 0.616243
v -0.649046 4.378979 -0.072341
v -4.013589 2.904079 -0.081112
v -3.833139 3.177620 0.848745
v 3.651550 2.921162 -1.964944
v 3.844285 2.976127 -1.442634
v 3.897978 2.730769 -0.732170
v 0.530001 4.121795 -1.941967
v 0.243271 3.168279 -4.211885
v 1.150257 2.885543 -3.841395
v 0.119748 2.806120 -4.156686
v -1.136451 2.858512 3.457690
v -3.567592 2.660370 1.422150
v 0.940869 2.745946 3.277095
v 0.658545 4.098005 1.914892
v 0.966314 4.249933 0.451884
v 0.600854 4.226700 1.048725
v 3.321577 3.087773 -2.324848
v -0.959242 3.164628 3.772085
v -0.166074 3.149708 3.970496
v 1.159334 4.250912 -0.258463
v 0.740156 4.321314 -0.574598
v 0.326935 4.368051 -0.129349
v 0.165517 4.281658 0.833232
v -0.530549 2.877692 -3.965647
v -1.700318 2.765142 -3.164757
v 2.066306 3.328801 3.049657
v 1.441419 3.476215 3.555701
v 1.613862 3.318384 3.551224
v -3.857055 2.675168 1.078017
v 0.944299 3.338130 -3.957778
v 2.044348 3.217546 -3.352705
v 1.818066 3.156477 -3.166626
v 1.223860 3.616376 3.414685
v 3.943427 2.924326 0.062511
v 3.926600 2.718109 -0.494985
v 4.049551 2.839518 -0.251705
v 3.227412 2.769013 -2.617143
v -0.381978 3.510626 3.888432
v -0.614647 3.579893 3.811196
v -0.651740 3.329501 3.913376
v -0.395160 3.276511 3.987498
v -1.996716 4.089868 0.320836
v -1.418901 4.233110 0.308413
v 1.469143 4.130767 -1.154356
v -3.757145 2.955950 1.358719
v 1.116982 3.197148 -3.966402
v 2.154330 2.939187 -3.372259
v 1.504358 3.007800 3.556070
v -3.455287 2.765825 -1.568391
v -3.216027 2.964776 -2.165632
v -2.629982 2.883319 -2.632746
v -3.199110 3.200620 -1.954255
v -3.613919 3.087801 -1.353130
v -3.487540 3.229454 -1.473948
v -2.302552 3.101793 2.692791
v -0.267597 3.055376 -4.130538
v -0.494574 4.147295 1.644365
v -3.772326 2.735833 1.341447
v 2.031737 3.089191 3.132468
v 1.940392 3.230414 3.279223
v -0.806702 3.690405 3.473273
v -0.851868 4.286418 0.627321
v 3.170053 3.224023 -2.479507
v 2.295336 3.264470 2.647902
v -0.630970 3.693953 3.622678
v -0.021863 3.078516 -4.198833
v -3.694356 3.139481 1.232715
v -1.862836 4.088624 -0.520889
v -3.627982 3.315112 0.763959
v 2.028224 3.876504 -1.618037
v 0.673977 3.490280 -3.854208
v 3.654710 2.699036 -0.716788
v 1.441139 4.019639 -1.834701
v -0.823509 3.624602 -2.812238
v -0.825925 3.388339 -3.289178
v -2.698272 2.700861 -2.433624
v 0.776339 3.809782 -2.997131
v 1.007816 4.039711 -2.350757
vt 0.617693 0.240775
vt 0.637555 0.273419
vt 0.629241 0.299252
vt 0.667966 0.280704
vt 0.662808 0.257799
vt 0.680181 0.257390
vt 0.740551 0.279107
vt 0.077453 0.085456
vt 0.363488 0.010355
vt 0.049221 0.166253
vt 0.104759 0.619856
vt 0.094724 0.602374
vt 0.104759 0.582209
vt 0.781873 0.418555
vt 0.703888 0.445239
vt 0.720880 0.398444
vt 0.751808 0.397990
vt 0.845080 0.198475
vt 0.837463 0.217336
vt 0.819954 0.216104
vt 0.715820 0.563915
vt 0.715820 0.766157
vt 0.709371 0.762335
vt 0.796968 0.261257
vt 0.538596 0.563915
vt 0.556967 0.616030
vt 0.535187 0.638047
vt 0.621973 0.805242
vt 0.632178 0.844932
vt 0.628027 0.890530
vt 0.643041 0.236837
vt 0.641635 0.617701
vt 0.674917 0.566065
vt 0.665856 0.628830
vt 0.336179 0.570360
vt 0.114712 0.549089
vt 0.447907 0.468594
vt 0.843020 0.432176
vt 0.751541 0.379813
vt 0.799829 0.387502
vt 0.631362 0.767307
vt 0.359677 0.582209
vt 0.480550 0.492880
vt 0.413103 0.560059
vt 0.704909 0.356410
vt 0.707208 0.317125
vt 0.749799 0.315139
vt 0.808178 0.352075
vt 0.724997 0.563915
vt 0.724997 0.815336
vt 0.720990 0.707609
vt 0.394165 0.022748
vt 0.457171 0.089128
vt 0.601574 0.833889
vt 0.605616 0.894008
vt 0.595130 0.884553
vt 0.720485 0.839434
vt 0.715820 0.805833
vt 0.720485 0.563915
vt 0.038376 0.582209
vt 0.038376 0.677494
vt 0.019327 0.669062
vt 0.895907 0.534764
vt 0.591784 0.524556
vt 0.468274 0.102712
vt 0.485361 0.112530
vt 0.605616 0.771367
vt 0.606443 0.747262
vt 0.549252 0.943231
vt 0.544278 0.933085
vt 0.563154 0.935293
vt 0.566865 0.946084
vt 0.877855 0.200041
vt 0.851574 0.234036
vt 0.642687 0.329896
vt 0.573254 0.645448
vt 0.558596 0.672153
vt 0.641635 0.563915
vt 0.619953 0.650229
vt 0.622837 0.574491
vt 0.492049 0.136773
vt 0.492049 0.461411
vt 0.518248 0.854426
vt 0.513840 0.885714
vt 0.531865 0.994591
vt 0.511936 0.969865
vt 0.094724 0.639108
vt 0.083796 0.592364
vt 0.094724 0.582209
vt 0.497957 0.847597
vt 0.508633 0.793834
vt 0.111171 0.582209
vt 0.111171 0.631812
vt 0.104759 0.616250
vt 0.565059 0.804580
vt 0.573278 0.915013
vt 0.558643 0.076249
vt 0.796408 0.000000
vt 0.807725 0.012952
vt 0.000000 0.589225
vt 0.019327 0.582209
vt 0.019327 0.666762
vt 0.011573 0.676438
vt 0.579336 0.919473
vt 0.573278 0.886701
vt 0.175434 0.014434
vt 0.251965 0.000000
vt 0.343354 0.000498
vt 0.880838 0.352299
vt 0.573278 0.667023
vt 0.584109 0.838169
vt 0.592329 0.852569
vt 0.991013 0.420096
vt 0.843162 0.282924
vt 0.639807 0.750199
vt 0.601372 0.798523
vt 0.991061 0.437622
vt 0.651566 0.563915
vt 0.531605 0.102779
vt 0.543975 0.087369
vt 0.531865 0.608534
vt 0.522933 0.583075
vt 0.525105 0.563915
vt 1.000000 0.446957
vt 0.993378 0.463760
vt 0.667947 0.786127
vt 0.658164 0.679912
vt 0.674462 0.682775
vt 0.562415 0.610037
vt 0.543726 0.667845
vt 0.826874 0.166779
vt 0.846489 0.019804
vt 0.972575 0.121348
vt 0.640307 0.644614
vt 0.496271 0.249719
vt 0.591821 0.337999
vt 0.492049 0.357778
vt 0.600506 0.995622
vt 0.893132 0.553298
vt 0.837393 0.563915
vt 0.514076 0.157119
vt 0.532330 0.147526
vt 0.443747 0.100698
vt 0.858167 0.017348
vt 0.943496 0.054833
vt 0.985903 0.112586
vt 0.691062 0.833480
vt 0.674917 0.595330
vt 0.691062 0.563915
vt 0.607261 0.294315
vt 0.492049 0.899247
vt 0.656049 0.112217
vt 0.629901 0.087158
vt 0.083796 0.631818
vt 0.068704 0.598811
vt 0.083796 0.582209
vt 0.641635 0.925494
vt 0.516098 0.445777
vt 0.569931 0.514809
vt 0.691062 0.582450
vt 0.700511 0.563915
vt 0.700511 0.866503
vt 0.049656 0.741135
vt 0.038376 0.735171
vt 0.049656 0.582209
vt 0.084365 0.540184
vt 0.060121 0.521664
vt 0.000000 0.318716
vt 0.674422 0.767592
vt 0.674917 0.878112
vt 0.010425 0.270166
vt 0.049656 0.622624
vt 0.057756 0.582209
vt 0.057756 0.721747
vt 0.575242 0.987565
vt 0.068704 0.582209
vt 0.068704 0.685127
vt 0.057756 0.632164
vt 0.574536 0.197515
vt 0.115924 0.582209
vt 0.115924 0.644603
vt 0.111171 0.601965
vt 0.400944 0.571067
vt 1.000000 0.139104
vt 0.473255 0.463571
vt 0.583323 1.000000
vt 0.466020 0.486011
vt 0.599358 0.244106
vt 0.700511 0.601241
vt 0.709370 0.563915
vt 0.709371 0.772723
vt 0.103478 0.039645
vt 0.720485 0.613495
vt 0.533397 0.921289
vt 0.531865 0.906341
vt 0.605616 0.563915
vn 0.0812 0.9591 -0.2710
vn 0.1604 0.9619 -0.2212
vn 0.3257 0.9353 -0.1383
vn 0.1310 0.9854 -0.1085
vn 0.0142 0.9452 -0.3262
vn -0.1233 0.9648 -0.2325
vn -0.0253 0.9977 -0.0636
vn -0.2332 -0.8203 -0.5222
vn 0.6207 -0.6599 -0.4233
vn -0.2191 -0.9263 -0.3066
vn 0.2058 0.0094 0.9785
vn 0.0992 -0.8030 0.5877
vn 0.2288 -0.8909 0.3924
vn 0.2690 0.9370 0.2227
vn 0.4604 0.8701 0.1761
vn 0.3451 0.9372 0.0497
vn 0.1983 0.9761 0.0885
vn -0.3113 0.9491 -0.0480
vn -0.1630 0.9860 0.0356
vn -0.1556 0.9738 -0.1660
vn -0.5133 -0.8029 -0.3031
vn 0.5501 -0.8075 -0.2131
vn -0.2629 -0.7414 0.6174
vn -0.0795 0.9967 0.0151
vn -0.9709 0.1205 -0.2072
vn -0.9717 0.1473 0.1847
vn -0.7386 0.6438 0.1999
vn 0.9191 0.0604 -0.3893
vn 0.9190 0.3368 -0.2048
vn 0.5999 -0.7878 -0.1393
vn -0.1591 0.9384 -0.3068
vn -0.0340 0.3563 -0.9337
vn 0.2800 -0.6789 -0.6788
vn 0.0166 -0.6179 -0.7861
vn -0.2979 -0.7821 0.5474
vn -0.7180 -0.2971 0.6294
vn 0.0196 -0.9723 0.2330
vn 0.1347 0.9719 0.1931
vn 0.1175 0.9914 0.0572
vn 0.0973 0.9846 0.1451
vn 0.8056 0.3240 -0.4960
vn -0.4489 -0.2013 0.8706
vn 0.1070 -0.5964 0.7955
vn 0.2652 0.9642 0.0074
vn 0.1613 0.9869 -0.0012
vn 0.0757 0.9944 0.0743
vn 0.0020 0.9929 0.1187
vn -0.4452 -0.2107 -0.8703
vn -0.5953 0.1255 -0.7936
vn 0.7157 0.5833 0.3842
vn 0.3377 0.6202 0.7081
vn 0.6077 0.1656 0.7767
vn -0.6566 -0.7190 0.2277
vn 0.2685 0.7173 -0.6429
vn 0.4654 0.5992 -0.6514
vn 0.4857 0.0523 -0.8726
vn 0.2300 0.9026 0.3640
vn 0.9210 0.0619 0.3846
vn 0.4939 -0.8691 0.0256
vn 0.9594 -0.1544 0.2360
vn 0.5968 -0.4469 -0.6664
vn 0.0454 0.6086 0.7922
vn -0.2741 0.6583 0.7010
vn -0.3844 0.1665 0.9081
vn -0.0663 -0.0059 0.9978
vn -0.3581 0.9278 0.1048
vn -0.1901 0.9688 0.1591
vn 0.3296 0.9416 -0.0690
vn -0.7981 0.3031 0.5208
vn 0.3713 0.3818 -0.8464
vn 0.5176 -0.2368 -0.8222
vn 0.4970 -0.5911 0.6352
vn -0.6224 -0.7598 -0.1882
vn -0.7458 0.0708 -0.6624
vn -0.5557 -0.1723 -0.8133
vn -0.5307 0.7195 -0.4479
vn -0.9480 0.1057 -0.3003
vn -0.6665 0.6767 -0.3128
vn -0.6520 0.1437 0.7445
vn -0.3510 0.2641 -0.8983
vn -0.0690 0.9760 0.2066
vn -0.6552 -0.5657 0.5006
vn 0.7922 -0.2760 0.5443
vn 0.6951 0.0400 0.7178
vn -0.3620 0.8549 0.3715
vn -0.1060 0.9826 0.1527
vn 0.5895 0.6703 -0.4508
vn 0.8179 -0.2434 0.5213
vn -0.2033 0.8832 0.4227
vn 0.0307 -0.3288 -0.9439
vn -0.6174 0.7070 0.3450
vn -0.3134 0.9293 -0.1953
vn -0.3726 0.8341 0.4068
vn 0.3761 0.9126 -0.1602
vn 0.0613 0.8658 -0.4967
vn 0.0630 -0.9980 0.0042
vn 0.3405 0.9013 -0.2677
vn -0.2347 0.9076 -0.3481
vn -0.3141 0.8091 -0.4967
vn -0.6490 -0.2238 -0.7271
vn 0.0833 0.9337 -0.3483
vn 0.2838 0.8878 -0.3624
vn 0.2233 -0.9488 -0.2234
usemtl Material.001
s 1
f 1/1/1 2/2/2 3/3/3
f 4/4/4 5/5/5 6/6/6 7/7/7
f 8/8/8 9/9/9 10/10/10
f 11/11/11 12/12/12 13/13/13
f 14/14/14 15/15/15 16/16/16 17/17/17
f 18/18/18 19/19/19 20/20/20
f 21/21/21 22/22/22 23/23/23
f 7/7/7 20/20/20 24/24/24
f 25/25/25 22/26/26 26/27/27
f 27/28/28 28/29/29 29/30/30
f 4/4/4 30/31/31 5/5/5
f 31/32/32 32/33/33 33/34/34
f 34/35/35 35/36/36 36/37/37
f 37/38/38 38/39/39 39/40/40
f 28/29/29 27/28/28 40/41/41
f 41/42/42 11/43/11 42/44/43
f 43/45/44 44/46/45 45/47/46 46/48/47 39/40/40 38/39/39
f 21/49/21 47/50/48 48/51/49
f 9/9/9 27/52/28 29/53/30
f 49/54/50 50/55/51 51/56/52
f 52/57/53 35/58/36 34/59/35
f 53/60/54 54/61/55 55/62/56
f 37/38/38 56/63/57 57/64/58
f 58/65/59 29/53/30 59/66/60
f 9/67/9 60/68/61 40/41/41 27/28/28
f 30/31/31 6/6/6 5/5/5
f 61/69/62 62/70/63 63/71/64 64/72/65
f 65/73/66 66/74/67 19/19/19 18/18/18
f 44/46/45 43/45/44 67/75/68 3/3/3
f 22/26/26 52/76/53 68/77/69
f 69/78/70 70/79/71 32/80/33
f 58/65/59 57/81/58 71/82/72
f 21/83/21 72/84/73 23/85/23 25/86/25
f 31/87/32 53/88/54 69/89/70
f 21/83/21 73/90/74 74/91/75
f 38/39/39 17/17/17 16/16/16
f 75/92/76 76/93/77 77/94/78
f 78/95/79 41/96/42 63/71/64 62/70/63
f 79/97/80 73/98/74 75/99/76
f 55/100/56 54/101/55 69/102/70 53/103/54
f 51/56/52 11/104/11 71/105/72
f 32/106/33 70/107/71 60/108/61
f 45/47/46 80/109/81 46/48/47
f 73/90/74 21/83/21 25/86/25
f 68/77/69 52/76/53 81/110/82
f 82/111/83 49/54/50 83/112/84
f 65/73/66 84/113/85 80/109/81 85/114/86 66/74/67
f 86/115/87 40/41/41 60/68/61
f 19/19/19 66/74/67 85/114/86 24/24/24
f 82/111/83 87/116/88 49/54/50
f 37/38/38 88/117/89 56/63/57
f 31/32/32 69/118/70 32/33/33
f 31/119/32 89/120/90 79/97/80
f 64/72/65 63/71/64 41/96/42
f 47/121/48 79/122/80 89/123/90
f 56/63/57 88/117/89 62/124/63 61/125/62
f 48/126/49 47/127/48 8/128/8
f 33/34/34 8/128/8 47/127/48
f 22/26/26 25/25/25 23/129/23
f 90/130/91 26/27/27 22/26/26
f 91/131/92 77/132/78 92/133/93 65/73/66
f 69/78/70 54/134/55 70/79/71
f 54/135/55 93/136/94 86/137/87
f 51/56/52 50/55/51 61/138/62
f 56/63/57 50/139/51 49/140/50
f 83/112/84 49/54/50 51/56/52
f 53/141/54 31/119/32 94/142/95
f 36/37/37 9/9/9 95/143/96
f 76/144/77 25/145/25 26/146/27 92/133/93
f 52/147/53 34/148/35 41/149/42
f 96/150/97 3/3/3 67/75/68
f 86/137/87 93/136/94 67/75/68 43/45/44 16/16/16 15/15/15 57/64/58
f 73/90/74 25/86/25 76/151/77
f 75/99/76 97/152/98 98/153/99
f 79/122/80 74/91/75 73/90/74
f 41/96/42 78/95/79 81/110/82
f 76/154/77 75/155/76 73/156/74
f 29/30/30 28/29/29 59/157/60
f 28/29/29 40/41/41 86/115/87
f 28/158/29 86/137/87 57/64/58
f 59/159/60 28/158/29 57/64/58
f 31/119/32 75/99/76 98/153/99
f 93/136/94 96/150/97 67/75/68
f 81/160/82 52/161/53 41/162/42
f 77/163/78 76/164/77 92/165/93
f 52/166/53 22/167/22 21/168/21
f 10/169/10 99/170/100 48/126/49
f 52/166/53 21/168/21 99/171/100 10/10/10 9/9/9 36/37/37
f 35/36/36 52/166/53 36/37/37
f 57/64/58 56/63/57 49/140/50
f 11/172/11 51/173/52 42/174/43
f 42/175/43 51/56/52 61/138/62
f 96/176/97 100/177/101 101/178/102
f 54/135/55 53/141/54 93/136/94
f 53/141/54 94/142/95 100/179/101 96/150/97 93/136/94
f 18/18/18 91/131/92 65/73/66
f 68/77/69 90/130/91 22/26/26
f 52/76/103 22/26/26 23/129/23
f 31/32/32 33/34/34 47/127/48
f 10/169/10 48/126/49 8/128/8
f 50/139/51 56/63/57 61/125/62
f 31/180/32 47/181/48 89/182/90
f 42/44/43 64/183/65 41/42/42
f 84/113/85 88/117/89 37/38/38 39/40/40
f 80/109/81 84/113/85 39/40/40 46/48/47
f 20/20/20 19/19/19 24/24/24
f 54/134/55 86/115/87 60/68/61
f 70/79/71 54/134/55 60/68/61
f 26/146/27 90/184/91 84/113/85 65/73/66
f 92/133/93 26/146/27 65/73/66
f 51/56/52 82/111/83 83/112/84
f 78/95/79 68/77/69 81/110/82
f 24/24/24 85/114/86 80/109/81 45/47/46 7/7/7
f 31/119/32 79/97/80 75/99/76
f 43/45/44 38/39/39 16/16/16
f 79/122/80 47/121/48 74/91/75
f 47/121/48 21/83/21 74/91/75
f 95/143/96 58/65/59 13/185/13 36/37/37
f 13/185/13 58/65/59 71/82/72
f 4/4/4 44/46/45 3/3/3 2/2/2
f 42/175/43 61/138/62 64/186/65
f 57/81/58 58/65/59 59/66/60
f 14/14/14 37/38/38 57/64/58 15/15/15
f 95/143/96 9/9/9 29/53/30 58/65/59
f 12/187/12 11/43/11 41/42/42
f 34/35/35 12/187/12 41/42/42
f 14/14/14 17/17/17 38/39/39 37/38/38
f 34/35/35 36/37/37 13/185/13
f 12/187/12 34/35/35 13/185/13
f 1/1/1 101/188/102 100/179/101 30/31/31 4/4/4 2/2/2
f 91/131/92 75/99/76 77/132/78
f 97/152/98 75/99/76 91/131/92
f 31/119/32 98/153/99 94/142/95
f 98/153/99 97/152/98 91/131/92 6/6/6 30/31/31 100/179/101 94/142/95
f 6/6/6 91/131/92 20/20/20 7/7/7
f 72/189/73 21/190/21 23/191/23
f 91/131/92 18/18/18 20/20/20
f 71/82/72 11/43/11 13/185/13
f 60/108/61 9/9/9 8/8/8
f 32/106/33 60/108/61 8/8/8
f 33/192/34 32/106/33 8/8/8
f 44/46/45 4/4/4 7/7/7 45/47/46
f 101/188/102 1/1/1 3/3/3 96/150/97
f 48/51/49 99/193/100 21/49/21
f 62/70/63 88/194/89 84/195/85 90/130/91 68/77/69 78/95/79
f 49/54/50 87/116/88 82/111/83 51/56/52 71/105/72 57/196/58
