# Blender v2.79 (sub 0) OBJ File: 'combinedbois.blend'
# www.blender.org
mtllib lightemitter2.mtl
o Cylinder.001
v -0.008742 -0.057078 -0.687593
v -0.008742 154.791687 -0.687593
v 0.268716 -0.057078 -0.632404
v 0.268716 154.791687 -0.632404
v 0.503934 -0.057078 -0.475236
v 0.503934 154.791687 -0.475236
v 0.661101 -0.057078 -0.240019
v 0.661101 154.791687 -0.240019
v 0.716291 -0.057078 0.037439
v 0.716291 154.791687 0.037439
v 0.594101 -0.057078 0.440245
v 0.594101 154.791687 0.440245
v 0.268716 -0.057078 0.707281
v 0.268716 154.791687 0.707281
v -0.008742 -0.057078 0.762471
v -0.008742 154.791687 0.762471
v -0.286200 -0.057078 0.707281
v -0.286200 154.791687 0.707281
v -0.611584 -0.057078 0.440245
v -0.611584 154.791687 0.440245
v -0.678584 -0.057078 0.314896
v -0.678584 154.791687 0.314896
v -0.719842 -0.057078 -0.104009
v -0.719842 154.791687 -0.104009
v -0.611583 -0.057078 -0.365368
v -0.611583 154.791687 -0.365368
v -0.411547 -0.057078 -0.565404
v -0.411547 154.791687 -0.565404
v -0.019056 156.145386 -0.627528
v -0.017082 154.922531 -0.670584
v -0.019658 154.781708 -0.683613
v -0.016686 154.639084 -0.670127
v 0.059004 157.765640 -0.355974
v 0.083733 157.060135 -0.461385
v 0.099878 156.271973 -0.552440
v 0.116096 156.149216 -0.619140
v 0.120031 154.923080 -0.655199
v 0.097652 34.305233 -0.551372
v 0.034108 158.033585 -0.088948
v 0.087962 157.829346 -0.214774
v 0.260605 154.780853 -0.628800
v 0.252685 154.641586 -0.612586
v 0.349224 156.140701 -0.507982
v 0.385335 154.783081 -0.562003
v 0.353922 34.432888 -0.515026
v 0.316873 34.306629 -0.462688
v 0.343939 157.061752 -0.315622
v 0.488366 154.780991 -0.466320
v 0.458548 154.504501 -0.433691
v 0.346064 34.198257 -0.320110
v 0.177268 34.036663 -0.154934
v 0.407964 157.059891 -0.243358
v 0.538376 156.148132 -0.330925
v 0.536999 154.503677 -0.329972
v 0.481846 34.309059 -0.292140
v 0.314720 34.108982 -0.182157
v 0.606010 156.146362 -0.217908
v 0.640559 154.923462 -0.232161
v 0.480250 157.051926 -0.057670
v 0.638079 156.146713 -0.088910
v 0.696333 154.780518 -0.099659
v 0.680274 154.639893 -0.097113
v 0.650682 156.144653 0.042139
v 0.702099 154.782578 0.041037
v 0.651793 154.502838 0.042340
v 0.582567 34.309799 0.041816
v 0.482585 157.055527 0.142287
v 0.639264 156.147781 0.173222
v 0.639852 154.504501 0.174867
v 0.486198 34.194511 0.142813
v 0.375936 34.111282 0.118401
v 0.598293 156.143234 0.296371
v 0.651352 154.781631 0.317932
v 0.599643 154.502151 0.298867
v 0.453401 34.201664 0.235970
v 0.113934 34.000977 0.097111
v 0.408342 157.066284 0.325020
v 0.266776 157.764542 0.325457
v 0.453797 156.145004 0.512739
v 0.496052 154.782242 0.556789
v 0.451311 154.508545 0.511236
v 0.058835 158.031235 0.159187
v 0.320744 156.273499 0.544928
v 0.212760 156.274384 0.604132
v 0.258490 154.780457 0.708077
v 0.252890 154.640396 0.702758
v 0.242703 154.500565 0.663478
v 0.211932 34.303669 0.603978
v 0.178922 34.196842 0.515288
v 0.133316 34.109432 0.413372
v 0.037947 34.002087 0.173376
v 0.060458 157.763901 0.437643
v 0.080290 157.063110 0.545590
v 0.112611 156.145920 0.699896
v -0.018290 156.142868 0.709654
v -0.019815 154.639526 0.751432
v -0.021222 34.310322 0.646450
v -0.072099 157.831497 0.311981
v -0.158721 154.781891 0.748869
v -0.214540 157.054825 0.512789
v -0.277005 156.149414 0.664304
v -0.292756 154.784500 0.705617
v -0.245971 34.307281 0.593236
v -0.172627 34.112793 0.411566
v -0.213242 157.827164 0.237655
v -0.379096 157.061340 0.401443
v -0.486870 156.140869 0.510255
v -0.531878 154.780655 0.557306
v -0.441611 34.312450 0.465230
v -0.302695 34.106178 0.325620
v -0.249176 34.036720 0.195607
v -0.490892 157.056473 0.238497
v -0.639553 156.147980 0.300488
v -0.690224 154.780823 0.320771
v -0.638890 34.431107 0.294914
v -0.581936 34.301952 0.278364
v -0.492917 34.198807 0.238198
v -0.531143 157.058685 0.041461
v -0.687944 156.145569 0.041827
v -0.743306 154.781601 0.041791
v -0.681372 154.508804 0.041905
v -0.294055 34.044056 0.041680
v -0.288949 157.826096 -0.012700
v -0.523520 157.064911 -0.057800
v -0.518278 34.197670 -0.058304
v -0.491163 157.056946 -0.153448
v -0.638681 156.147186 -0.216061
v -0.688127 154.781601 -0.235617
v -0.641427 154.500977 -0.215688
v -0.490695 34.201084 -0.152989
v -0.213291 157.829895 -0.153132
v -0.487330 156.141357 -0.427457
v -0.530784 154.781677 -0.470487
v -0.490234 154.506271 -0.430917
v -0.300586 157.056519 -0.380756
v -0.391679 34.430111 -0.517485
v -0.303393 34.197216 -0.384548
v -0.173628 157.764069 -0.330094
v -0.278762 156.149948 -0.581007
v -0.295400 154.781677 -0.626701
v -0.274526 154.506516 -0.574316
v -0.123969 34.045166 -0.213672
v -0.018931 34.433426 -0.629133
v -0.018197 34.202892 -0.466303
v -0.018215 34.040874 -0.236540
vt 0.139400 0.998985
vt 0.119798 0.999045
vt 0.119797 0.000094
vt 0.139398 0.000033
vt 0.165232 0.998952
vt 0.165231 0.000000
vt 0.367939 0.021530
vt 0.423474 0.796419
vt 0.435708 0.797228
vt 0.424964 0.797867
vt 0.397386 0.797883
vt 0.387468 0.796412
vt 0.628630 0.999298
vt 0.600673 0.999306
vt 0.600671 0.000008
vt 0.628628 0.000000
vt 0.119796 0.997353
vt 0.086346 0.997231
vt 0.086346 0.000021
vt 0.119797 0.000143
vt 0.281139 0.776096
vt 0.255584 0.776055
vt 0.281814 0.000030
vt 0.291191 0.000000
vt 0.320710 0.000017
vt 0.324559 0.000656
vt 0.326102 0.001472
vt 0.756427 0.999988
vt 0.735446 0.999996
vt 0.735444 0.000008
vt 0.756425 0.000000
vt 0.708890 1.000000
vt 0.667527 0.999997
vt 0.667525 0.000009
vt 0.708887 0.000012
vt 0.576051 0.999340
vt 0.576049 0.000041
vt 0.219507 0.000030
vt 0.219508 0.998982
vt 0.206947 0.998962
vt 0.206945 0.000010
vt 0.031210 0.997242
vt 0.000000 0.997378
vt 0.000000 0.000168
vt 0.031210 0.000032
vt 0.058546 0.997210
vt 0.058546 0.000000
vt 0.858564 0.005506
vt 0.862668 0.002800
vt 0.878298 0.001281
vt 0.901689 0.000266
vt 0.943349 0.000000
vt 0.956875 0.000266
vt 0.989234 0.001991
vt 1.000000 0.003679
vt 1.000000 0.005506
vt 0.980267 0.007903
vt 0.943349 0.009185
vt 0.915216 0.009185
vt 0.889224 0.008485
vt 0.869331 0.007194
vt 0.858564 0.012853
vt 0.869308 0.011168
vt 0.889161 0.009880
vt 0.915099 0.009185
vt 0.943174 0.009188
vt 0.980016 0.010474
vt 0.999709 0.012873
vt 0.999709 0.014699
vt 0.988965 0.016384
vt 0.956673 0.018103
vt 0.943174 0.018368
vt 0.901601 0.018096
vt 0.878257 0.017078
vt 0.862659 0.015558
vt 0.392541 0.018870
vt 0.392213 0.019781
vt 0.365363 0.019767
vt 0.367044 0.010926
vt 0.392393 0.010968
vt 0.516091 0.793416
vt 0.515198 0.787561
vt 0.528265 0.787540
vt 0.540995 0.787552
vt 0.535749 0.793391
vt 0.816763 0.790585
vt 0.829867 0.785476
vt 0.840844 0.785499
vt 0.850279 0.790710
vt 0.836047 0.795207
vt 0.815078 0.795150
vt 0.555106 0.779651
vt 0.542829 0.778732
vt 0.542352 0.777823
vt 0.563290 0.776935
vt 0.572415 0.776936
vt 0.576048 0.778723
vt 0.261569 0.792589
vt 0.255280 0.786676
vt 0.280853 0.786652
vt 0.280892 0.792590
vt 0.271032 0.792632
vt 0.932220 0.018698
vt 0.958819 0.020137
vt 0.955572 0.021007
vt 0.944538 0.021257
vt 0.923025 0.019857
vt 0.918690 0.019016
vt 0.430734 0.004979
vt 0.403732 0.005024
vt 0.401981 0.000445
vt 0.406014 0.000000
vt 0.501082 0.778740
vt 0.475405 0.778739
vt 0.479263 0.776969
vt 0.502235 0.776933
vt 0.515004 0.776949
vt 0.920927 0.022061
vt 0.912638 0.020484
vt 0.234399 0.776133
vt 0.245675 0.001534
vt 0.259059 0.000059
vt 0.366321 0.005026
vt 0.379145 0.000448
vt 0.404773 0.010133
vt 0.502502 0.787531
vt 0.497066 0.793484
vt 0.474176 0.788362
vt 0.479189 0.787538
vt 0.420444 0.019775
vt 0.419830 0.020669
vt 0.392657 0.020699
vt 0.406257 0.018863
vt 0.861388 0.020984
vt 0.880571 0.019528
vt 0.892021 0.020742
vt 0.884544 0.021243
vt 0.433362 0.019744
vt 0.444371 0.019735
vt 0.441759 0.021511
vt 0.461375 0.796396
vt 0.461375 0.776910
vt 0.463881 0.000697
vt 0.472154 0.000005
vt 0.503470 0.000046
vt 0.529054 0.778746
vt 0.886213 0.018672
vt 0.909221 0.018368
vt 0.405855 0.010941
vt 0.429887 0.010970
vt 0.868004 0.026475
vt 0.882572 0.026068
vt 0.894374 0.027117
vt 0.890006 0.028702
vt 0.864981 0.028992
vt 0.858564 0.028049
vt 0.553253 0.787547
vt 0.300543 0.792589
vt 0.306643 0.786684
vt 0.327723 0.786685
vt 0.343341 0.786803
vt 0.328216 0.792662
vt 0.316906 0.792654
vt 0.275729 0.797612
vt 0.300732 0.797643
vt 0.834328 0.775805
vt 0.858564 0.775889
vt 0.854228 0.784686
vt 0.819546 0.784603
vt 0.513099 0.000000
vt 0.524385 0.000748
vt 0.528220 0.776938
vt 0.219508 0.786799
vt 0.234478 0.786682
vt 0.239240 0.792642
vt 0.308812 0.777850
vt 0.332560 0.777897
vt 0.437683 0.004974
vt 0.450108 0.010879
vt 0.667525 0.999336
vt 0.667523 0.000038
vt 0.833827 0.774906
vt 0.806528 0.774878
vt 0.835218 0.000023
vt 0.858563 0.000000
vt 0.833012 0.774024
vt 0.563443 0.787555
vt 0.553032 0.793438
vt 0.559259 0.793447
vt 0.545793 0.798394
vt 0.532660 0.799711
vt 0.508568 0.799699
vt 0.495075 0.797987
vt 0.802416 0.795646
vt 0.816017 0.797006
vt 0.894374 0.029539
vt 0.890412 0.030434
vt 0.867547 0.030151
vt 0.343341 0.019728
vt 0.347660 0.010943
vt 0.806500 0.784580
vt 0.792704 0.775797
vt 0.347760 0.021496
vt 0.884412 0.023224
vt 0.861433 0.023507
vt 0.858564 0.022899
vt 0.261873 0.797658
vt 0.244344 0.797244
vt 0.787608 0.790548
vt 0.780981 0.784645
vt 0.458173 0.797198
vt 0.343341 0.000767
vt 0.788704 0.795655
vt 0.771721 0.790645
vt 0.280994 0.777837
vt 0.940562 0.023710
vt 0.918812 0.022743
vt 0.957997 0.021627
vt 0.950507 0.024108
vt 0.760775 0.784666
vt 0.756427 0.775883
vt 0.779566 0.775835
vt 0.896492 0.023891
vt 0.253489 0.777852
vt 0.555873 0.000736
vt 0.556740 0.000015
vt 0.570377 0.000712
vt 0.576049 0.001529
vt 0.854374 0.774148
vt 0.813110 0.000031
vt 0.794205 0.000127
vt 0.879748 0.025012
vt 0.899643 0.024792
vt 0.457754 0.010864
vt 0.461371 0.018759
vt 0.915155 0.024791
vt 0.920344 0.026058
vt 0.897184 0.026068
vt 0.875279 0.025561
vt 0.230360 0.777897
vt 0.941882 0.025544
vt 0.958819 0.024483
vn -0.7071 0.0000 -0.7071
vn -0.9239 0.0000 -0.3827
vn -0.2868 -0.0028 -0.9580
vn 0.1951 0.0000 -0.9808
vn 0.6344 0.0000 0.7730
vn -0.9664 -0.0017 -0.2571
vn 0.8315 0.0000 -0.5556
vn 0.9569 0.0000 0.2903
vn 0.5556 0.0000 -0.8315
vn -0.8819 0.0000 0.4714
vn 0.9808 0.0000 -0.1951
vn -0.6344 0.0000 0.7730
vn -0.1951 0.0000 0.9808
vn -0.9952 0.0000 0.0980
vn 0.0000 1.0000 -0.0000
vn 0.1951 0.0000 0.9808
vn 0.0000 -1.0000 -0.0000
vn -0.1756 0.0379 -0.9837
vn 0.9840 0.1778 -0.0093
vn 0.5280 0.1427 0.8371
vn 0.8566 -0.1088 -0.5044
vn -0.9682 0.1618 -0.1908
vn 0.6696 -0.7170 -0.1937
vn 0.6599 0.2261 -0.7165
vn 0.8397 -0.2043 0.5031
vn 0.4145 -0.9085 -0.0533
vn -0.9179 -0.0015 -0.3968
vn -0.1257 0.1652 -0.9782
vn 0.8196 0.1791 0.5442
vn 0.1855 -0.0459 -0.9816
vn -0.1491 -0.8095 -0.5678
vn 0.6557 -0.0007 -0.7550
vn 0.7744 -0.0014 0.6327
vn 0.9811 0.0336 0.1907
vn 0.2349 -0.7866 -0.5710
vn 0.3909 0.0455 -0.9193
vn -0.5388 0.8330 0.1255
vn 0.9824 0.0390 -0.1826
vn -0.6966 0.1692 0.6973
vn -0.9067 0.3132 0.2825
vn -0.9676 0.1687 0.1881
vn 0.5021 0.0664 0.8623
vn 0.9278 -0.0011 0.3730
vn -0.7216 0.1740 -0.6701
vn -0.8193 0.0429 0.5717
vn 0.5119 0.1742 -0.8412
vn -0.2903 0.0000 -0.9569
vn 0.2542 -0.0009 0.9671
vn 0.9138 0.1806 -0.3637
vn 0.9096 0.3760 -0.1770
vn 0.1143 0.7170 0.6876
vn -0.1191 0.7726 -0.6236
vn -0.5723 0.0392 -0.8191
vn 0.0844 0.0568 -0.9948
vn 0.0960 0.0214 0.9951
vn -0.5536 -0.0008 -0.8328
vn -0.4271 -0.8586 -0.2835
vn -0.8415 0.2649 -0.4708
vn 0.0067 0.1809 0.9835
vn 0.2583 -0.0008 -0.9661
vn -0.7530 -0.0010 0.6580
vn -0.3979 0.2540 0.8816
vn 0.8345 0.0424 0.5494
vn -0.9819 0.0395 0.1852
vn 0.4026 -0.8511 0.3371
vn -0.5589 0.0393 0.8283
vn -0.2190 0.0413 0.9749
vn -0.0703 -0.9946 -0.0764
vn -0.9660 -0.1957 -0.1689
vn 0.8452 -0.0012 -0.5345
vn 0.9565 -0.0008 -0.2919
vn 0.5777 -0.1908 0.7936
vn -0.9808 0.0390 -0.1912
vn -0.3736 -0.0010 0.9276
vn -0.3478 -0.0009 -0.9376
vn -0.5535 -0.8254 0.1112
vn -0.9995 -0.0009 -0.0308
vn 0.7647 0.0373 -0.6434
vn -0.4710 -0.6928 0.5461
vn -0.8093 -0.1866 -0.5570
vn -0.0316 -0.7332 0.6793
vn 0.9835 -0.1502 0.1013
vn -0.8215 0.0411 -0.5688
vn -0.0690 -0.9188 0.3887
usemtl None
s off
f 26/1/1 28/2/1 27/3/1 25/4/1
f 24/5/2 26/1/2 25/4/2 23/6/2
f 141/7/3 143/8/3 38/9/3 144/10/3 137/11/3 136/12/3
f 2/13/4 4/14/4 3/15/4 1/16/4
f 12/17/5 14/18/5 13/19/5 11/20/5
f 121/21/6 129/22/6 130/23/6 125/24/6 117/25/6 116/26/6 115/27/6
f 6/28/7 8/29/7 7/30/7 5/31/7
f 10/32/8 12/33/8 11/34/8 9/35/8
f 4/14/9 6/36/9 5/37/9 3/15/9
f 19/38/10 20/39/10 22/40/10 21/41/10
f 8/29/11 10/32/11 9/35/11 7/30/11
f 18/42/12 20/43/12 19/44/12 17/45/12
f 16/46/13 18/42/13 17/45/13 15/47/13
f 22/40/14 24/5/14 23/6/14 21/41/14
f 2/48/15 28/49/15 26/50/15 24/51/15 22/52/15 20/53/15 18/54/15 16/55/15 14/56/15 12/57/15 10/58/15 8/59/15 6/60/15 4/61/15
f 14/18/16 16/46/16 15/47/16 13/19/16
f 1/62/17 3/63/17 5/64/17 7/65/17 9/66/17 11/67/17 13/68/17 15/69/17 17/70/17 19/71/17 21/72/17 23/73/17 25/74/17 27/75/17
f 30/76/18 31/77/18 140/78/18 139/79/18 29/80/18
f 67/81/19 68/82/19 63/83/19 60/84/19 59/85/19
f 93/86/20 84/87/20 83/88/20 77/89/20 78/90/20 92/91/20
f 58/92/21 61/93/21 62/94/21 54/95/21 49/96/21 48/97/21
f 126/98/22 127/99/22 119/100/22 118/101/22 124/102/22
f 55/103/23 66/104/23 70/105/23 71/106/23 56/107/23 50/108/23
f 47/109/24 34/110/24 33/111/24 40/112/24
f 73/113/25 80/114/25 81/115/25 74/116/25 69/117/25
f 76/118/26 51/119/26 56/107/26 71/106/26
f 129/22/27 134/120/27 136/121/27 137/122/27 130/23/27
f 139/79/28 135/123/28 138/124/28 33/111/28 34/110/28 35/125/28 29/80/28
f 72/126/29 68/82/29 67/81/29 77/127/29 83/128/29 79/129/29
f 41/130/30 42/131/30 32/132/30 31/77/30 30/76/30 37/133/30
f 137/134/31 144/135/31 145/136/31 142/137/31
f 44/138/32 48/139/32 49/140/32 45/141/32 42/131/32 41/130/32
f 81/115/33 87/142/33 88/143/33 89/144/33 75/145/33 74/116/33
f 72/126/34 73/113/34 64/146/34 63/83/34 68/82/34
f 50/108/35 56/107/35 51/119/35 145/136/35 144/135/35 38/147/35 46/148/35
f 36/149/36 43/150/36 44/138/36 41/130/36 37/133/36
f 105/151/37 98/152/37 82/153/37 39/154/37 131/155/37 123/156/37
f 63/83/38 64/146/38 61/93/38 58/92/38 57/157/38 60/84/38
f 112/158/39 113/159/39 107/160/39 101/161/39 100/162/39 106/163/39
f 123/164/40 124/102/40 118/101/40 112/158/40 106/163/40 105/165/40
f 118/101/41 119/100/41 113/159/41 112/158/41
f 85/166/42 80/167/42 79/168/42 83/88/42 84/87/42 94/169/42
f 69/117/43 74/116/43 75/145/43 70/170/43 66/171/43 65/172/43
f 139/173/44 132/174/44 127/99/44 126/98/44 135/175/44
f 113/159/45 114/176/45 108/177/45 107/160/45
f 52/178/46 53/179/46 43/150/46 36/149/46 35/125/46 34/110/46 47/109/46
f 28/180/47 2/13/47 1/16/47 27/181/47
f 86/182/48 96/183/48 97/184/48 88/185/48 87/186/48
f 59/85/49 60/84/49 57/157/49 53/187/49 52/188/49
f 59/85/50 52/188/50 47/189/50 40/190/50 39/191/50 82/192/50 78/193/50 77/127/50 67/81/50
f 98/194/51 92/91/51 78/90/51 82/195/51
f 40/196/52 33/197/52 138/198/52 131/155/52 39/154/52
f 139/79/53 140/78/53 133/199/53 132/200/53
f 30/76/54 29/80/54 35/125/54 36/149/54 37/133/54
f 95/201/55 99/202/55 96/183/55 86/182/55 85/166/55 94/169/55
f 133/199/56 140/78/56 141/7/56 136/12/56 134/203/56
f 137/134/57 142/137/57 122/204/57 125/205/57 130/206/57
f 135/175/58 126/98/58 124/102/58 123/164/58 131/207/58 138/208/58
f 95/201/59 94/169/59 84/87/59 93/86/59 100/209/59 101/210/59
f 42/131/60 45/141/60 46/211/60 38/9/60 143/8/60 32/132/60
f 108/177/61 114/176/61 115/27/61 116/26/61 109/212/61
f 98/194/62 105/213/62 106/214/62 100/209/62 93/86/62 92/91/62
f 79/129/63 80/114/63 73/113/63 72/126/63
f 119/100/64 120/215/64 114/176/64 113/159/64
f 90/216/65 91/217/65 76/118/65 71/106/65 70/105/65 75/218/65 89/219/65
f 107/220/66 108/221/66 102/222/66 101/210/66
f 101/210/67 102/222/67 99/202/67 95/201/67
f 122/204/68 142/137/68 145/136/68 51/119/68 76/118/68 91/217/68 111/223/68
f 120/215/69 128/224/69 129/22/69 121/21/69
f 49/96/70 54/95/70 55/225/70 50/226/70 46/227/70 45/228/70
f 62/94/71 65/172/71 66/171/71 55/225/71 54/95/71
f 80/167/72 85/166/72 86/182/72 87/186/72 81/229/72
f 127/99/73 128/224/73 120/215/73 119/100/73
f 103/230/74 97/184/74 96/183/74 99/202/74 102/222/74 108/221/74 109/231/74
f 140/78/75 31/77/75 32/132/75 143/8/75 141/7/75
f 117/232/76 125/205/76 122/204/76 111/223/76 110/233/76
f 114/176/77 120/215/77 121/21/77 115/27/77
f 48/139/78 44/138/78 43/150/78 53/179/78 57/234/78 58/235/78
f 110/233/79 104/236/79 103/237/79 109/238/79 116/239/79 117/232/79
f 128/224/80 133/240/80 134/120/80 129/22/80
f 97/241/81 103/237/81 104/236/81 90/216/81 89/219/81 88/242/81
f 64/146/82 73/113/82 69/117/82 65/172/82 62/94/82 61/93/82
f 132/174/83 133/240/83 128/224/83 127/99/83
f 110/233/84 111/223/84 91/217/84 90/216/84 104/236/84
