# Blender v2.80 (sub 60) OBJ File: 'Colony device 2.blend'
# www.blender.org
mtllib lightpillar2.mtl
o Circle_Circle.004
v 0.150743 0.000000 1.063570
v 0.457538 0.000000 0.971887
v 0.723680 0.000000 0.793847
v 0.925519 0.000000 0.545270
v 1.045122 0.000000 0.248243
v 1.071862 0.000000 -0.070841
v 1.003361 0.000000 -0.383630
v 0.845708 0.000000 -0.662332
v 0.612909 0.000000 -0.882184
v 0.325651 0.000000 -1.023649
v 0.009458 0.000000 -1.074159
v -0.307576 0.000000 -1.029224
v -0.597281 0.000000 -0.892839
v -0.833915 0.000000 -0.677121
v -0.996451 0.000000 -0.401238
v -1.070448 0.000000 -0.089704
v -1.049332 0.000000 0.229802
v -0.934978 0.000000 0.528888
v -0.737547 0.000000 0.780980
v -0.474582 0.000000 0.963679
v -0.169449 0.000000 1.060751
v 0.074959 -25.927019 0.528879
v 0.227519 -25.927019 0.483288
v 0.359862 -25.927019 0.394754
v 0.460230 -25.927019 0.271145
v 0.519705 -25.927019 0.123443
v 0.533002 -25.927019 -0.035227
v 0.498939 -25.927019 -0.190767
v 0.420543 -25.927019 -0.329356
v 0.304780 -25.927019 -0.438681
v 0.161936 -25.927019 -0.509027
v 0.004703 -25.927019 -0.534144
v -0.152948 -25.927019 -0.511800
v -0.297009 -25.927019 -0.443980
v -0.414679 -25.927019 -0.336710
v -0.495503 -25.927019 -0.199523
v -0.532299 -25.927019 -0.044607
v -0.521799 -25.927019 0.114273
v -0.464934 -25.927019 0.262999
v -0.366758 -25.927019 0.388356
v -0.235994 -25.927019 0.479206
v -0.084261 -25.927019 0.527477
v 0.129451 0.966304 0.913345
v 0.392913 0.966304 0.834611
v 0.621463 0.966304 0.681719
v 0.794793 0.966304 0.468252
v 0.897502 0.966304 0.213180
v 0.920465 0.966304 -0.060835
v 0.861640 0.966304 -0.329444
v 0.726254 0.966304 -0.568780
v 0.526338 0.966304 -0.757578
v 0.279654 0.966304 -0.879062
v 0.008122 0.966304 -0.922437
v -0.264132 0.966304 -0.883850
v -0.512917 0.966304 -0.766729
v -0.716127 0.966304 -0.581480
v -0.855706 0.966304 -0.344565
v -0.919251 0.966304 -0.077033
v -0.901117 0.966304 0.197343
v -0.802916 0.966304 0.454184
v -0.633371 0.966304 0.670669
v -0.407549 0.966304 0.827563
v -0.145515 0.966304 0.910924
vt 0.000000 0.036230
vt 0.045444 0.999650
vt 0.061720 0.999880
vt 0.032731 0.036692
vt 0.695553 0.036537
vt 0.705511 0.999603
vt 0.725210 0.999603
vt 0.735168 0.036537
vt 0.251372 0.963067
vt 0.261330 0.000000
vt 0.242506 0.000120
vt 0.213517 0.963308
vt 0.080544 1.000000
vt 0.070586 0.036933
vt 0.744034 0.999483
vt 0.773023 0.036295
vt 0.226229 0.000350
vt 0.180786 0.963770
vt 0.100243 1.000000
vt 0.110200 0.036933
vt 0.509635 0.963453
vt 0.509636 0.000226
vt 0.490816 0.000054
vt 0.471790 0.963108
vt 0.509636 0.036263
vt 0.584072 0.999520
vt 0.600354 0.999705
vt 0.542379 0.036635
vt 0.119067 0.999880
vt 0.148055 0.036692
vt 0.471118 0.000000
vt 0.432177 0.963000
vt 0.619181 0.999774
vt 0.580240 0.036774
vt 0.135343 0.999650
vt 0.180786 0.036230
vt 0.638879 0.999720
vt 0.619853 0.036665
vt 0.361572 0.963770
vt 0.316129 0.000350
vt 0.299852 0.000120
vt 0.328841 0.963308
vt 0.452291 0.000069
vt 0.394316 0.963138
vt 0.657699 0.999548
vt 0.657699 0.036320
vt 0.281029 0.000000
vt 0.290987 0.963067
vt 0.436009 0.000254
vt 0.361572 0.963511
vt 0.686687 0.999483
vt 0.904456 0.085491
vt 0.898649 0.079818
vt 0.887552 0.074913
vt 0.872151 0.071211
vt 0.853814 0.069042
vt 0.834170 0.068599
vt 0.814964 0.069920
vt 0.797905 0.072888
vt 0.784506 0.077240
vt 0.775959 0.082589
vt 0.773023 0.088460
vt 0.775959 0.094330
vt 0.784506 0.099679
vt 0.797905 0.104031
vt 0.814964 0.107000
vt 0.834170 0.108321
vt 0.853814 0.107877
vt 0.872151 0.105708
vt 0.887552 0.102007
vt 0.898649 0.097101
vt 0.904456 0.091428
vt 0.288189 0.999395
vt 0.320697 0.999603
vt 0.373249 0.999774
vt 0.401368 0.999454
vt 0.698351 0.000208
vt 0.665843 0.000000
vt 0.254170 0.999395
vt 0.040876 0.000397
vt 0.012768 0.000000
vt 0.732370 0.000208
vt 0.221662 0.999603
vt 0.073383 0.000604
vt 0.764878 0.000000
vt 0.193554 1.000000
vt 0.107403 0.000604
vt 0.467899 0.999428
vt 0.500399 0.999724
vt 0.549431 0.000320
vt 0.521313 0.000000
vt 0.139911 0.000397
vt 0.433881 0.999335
vt 0.581944 0.000439
vt 0.168018 0.000000
vt 0.615962 0.000346
vt 0.348805 1.000000
vt 0.648462 0.000049
vt 0.815992 0.061191
vt 0.845454 0.066317
vt 0.878620 0.068599
vt 0.912544 0.067832
vt 0.944212 0.064087
vt 0.970809 0.057694
vt 0.989973 0.049223
vt 1.000000 0.039426
vt 1.000000 0.029173
vt 0.989973 0.019376
vt 0.970809 0.010904
vt 0.944212 0.004512
vt 0.912544 0.000766
vt 0.878620 0.000000
vt 0.845454 0.002281
vt 0.815992 0.007408
vt 0.792853 0.014924
vt 0.778093 0.024161
vt 0.773023 0.034299
vt 0.778093 0.044437
vt 0.792853 0.053675
vn 0.7761 -0.0206 0.6302
vn -0.7871 -0.0206 0.6165
vn -0.1403 -0.0206 -0.9899
vn 0.9274 -0.0206 0.3734
vn -0.5705 -0.0206 0.8211
vn -0.4258 -0.0206 -0.9046
vn 0.9963 -0.0206 0.0835
vn -0.3031 -0.0206 0.9527
vn -0.6735 -0.0206 -0.7389
vn 0.9766 -0.0206 -0.2139
vn -0.0088 -0.0206 0.9997
vn -0.8614 -0.0206 -0.5075
vn 0.8702 -0.0206 -0.4923
vn -0.9727 -0.0206 -0.2310
vn 0.6865 -0.0206 -0.7269
vn 0.2863 -0.0206 0.9579
vn -0.9976 -0.0206 0.0659
vn 0.4417 -0.0206 -0.8969
vn 0.5559 -0.0206 0.8310
vn -0.9339 -0.0206 0.3571
vn 0.1577 -0.0206 -0.9873
vn 0.0000 -1.0000 0.0000
vn 0.4366 0.1534 -0.8865
vn 0.5494 0.1534 0.8213
vn -0.9230 0.1534 0.3529
vn 0.1559 0.1534 -0.9758
vn 0.7671 0.1534 0.6229
vn -0.7780 0.1534 0.6093
vn -0.1387 0.1534 -0.9784
vn 0.9166 0.1534 0.3691
vn -0.5638 0.1534 0.8115
vn -0.4209 0.1534 -0.8940
vn 0.9847 0.1534 0.0825
vn -0.2996 0.1534 0.9417
vn -0.6657 0.1534 -0.7303
vn 0.9653 0.1534 -0.2114
vn -0.0087 0.1534 0.9881
vn -0.8514 0.1534 -0.5016
vn 0.8601 0.1534 -0.4865
vn -0.9614 0.1534 -0.2284
vn 0.6785 0.1534 -0.7184
vn 0.2829 0.1534 0.9468
vn -0.9860 0.1534 0.0652
vn 0.0000 1.0000 -0.0000
usemtl None
s off
f 3/1/1 24/2/1 25/3/1 4/4/1
f 18/5/2 39/6/2 40/7/2 19/8/2
f 11/9/3 32/10/3 33/11/3 12/12/3
f 4/4/4 25/3/4 26/13/4 5/14/4
f 19/8/5 40/7/5 41/15/5 20/16/5
f 12/12/6 33/11/6 34/17/6 13/18/6
f 5/14/7 26/13/7 27/19/7 6/20/7
f 20/21/8 41/22/8 42/23/8 21/24/8
f 13/25/9 34/26/9 35/27/9 14/28/9
f 6/20/10 27/19/10 28/29/10 7/30/10
f 21/24/11 42/23/11 22/31/11 1/32/11
f 14/28/12 35/27/12 36/33/12 15/34/12
f 7/30/13 28/29/13 29/35/13 8/36/13
f 15/34/14 36/33/14 37/37/14 16/38/14
f 8/39/15 29/40/15 30/41/15 9/42/15
f 1/32/16 22/31/16 23/43/16 2/44/16
f 16/38/17 37/37/17 38/45/17 17/46/17
f 9/42/18 30/41/18 31/47/18 10/48/18
f 2/44/19 23/43/19 24/49/19 3/50/19
f 17/46/20 38/51/20 39/6/20 18/5/20
f 10/48/21 31/47/21 32/10/21 11/9/21
f 23/52/22 22/53/22 42/54/22 41/55/22 40/56/22 39/57/22 38/58/22 37/59/22 36/60/22 35/61/22 34/62/22 33/63/22 32/64/22 31/65/22 30/66/22 29/67/22 28/68/22 27/69/22 26/70/22 25/71/22 24/72/22
f 10/48/23 52/73/23 51/74/23 9/42/23
f 3/50/24 45/75/24 44/76/24 2/44/24
f 18/5/25 60/77/25 59/78/25 17/46/25
f 11/9/26 53/79/26 52/73/26 10/48/26
f 4/4/27 46/80/27 45/81/27 3/1/27
f 19/8/28 61/82/28 60/77/28 18/5/28
f 12/12/29 54/83/29 53/79/29 11/9/29
f 5/14/30 47/84/30 46/80/30 4/4/30
f 20/16/31 62/85/31 61/82/31 19/8/31
f 13/18/32 55/86/32 54/83/32 12/12/32
f 6/20/33 48/87/33 47/84/33 5/14/33
f 21/24/34 63/88/34 62/89/34 20/21/34
f 14/28/35 56/90/35 55/91/35 13/25/35
f 7/30/36 49/92/36 48/87/36 6/20/36
f 1/32/37 43/93/37 63/88/37 21/24/37
f 15/34/38 57/94/38 56/90/38 14/28/38
f 8/36/39 50/95/39 49/92/39 7/30/39
f 16/38/40 58/96/40 57/94/40 15/34/40
f 9/42/41 51/74/41 50/97/41 8/39/41
f 2/44/42 44/76/42 43/93/42 1/32/42
f 17/46/43 59/98/43 58/96/43 16/38/43
f 44/99/44 45/100/44 46/101/44 47/102/44 48/103/44 49/104/44 50/105/44 51/106/44 52/107/44 53/108/44 54/109/44 55/110/44 56/111/44 57/112/44 58/113/44 59/114/44 60/115/44 61/116/44 62/117/44 63/118/44 43/119/44
