# Blender v2.80 (sub 60) OBJ File: ''
# www.blender.org
mtllib orb2.mtl
o Circle.000_Circle.003
v -1.373947 1.171409 -0.539234
v -1.471848 1.171409 -0.110300
v -0.869085 2.314614 -0.065129
v -0.811277 2.314614 -0.318403
v 0.831448 1.171409 -1.219507
v 0.435053 1.171409 -1.410401
v 0.256887 2.314614 -0.832803
v 0.490947 2.314614 -0.720085
v 0.640402 1.171409 1.329808
v 1.003919 1.171409 1.081966
v 0.592786 2.314614 0.638871
v 0.378140 2.314614 0.785214
v -1.438970 1.171409 0.328436
v -0.849671 2.314614 0.193932
v 0.000000 1.171409 -1.475975
v 0.000000 2.314614 -0.871522
v 1.278232 1.171409 0.737988
v 0.754761 2.314614 0.435761
v -1.278232 1.171409 0.737988
v -0.754760 2.314614 0.435761
v 1.438970 1.171409 0.328436
v 0.849672 2.314614 0.193932
v -1.003918 1.171409 1.081967
v -0.592786 2.314614 0.638871
v -0.435051 1.171409 -1.410402
v -0.256886 2.314614 -0.832803
v 1.471848 1.171409 -0.110299
v 0.869086 2.314614 -0.065129
v -0.640402 1.171409 1.329808
v -0.378139 2.314614 0.785215
v -0.831447 1.171409 -1.219508
v -0.490946 2.314614 -0.720086
v 1.373947 1.171409 -0.539234
v 0.811278 2.314614 -0.318402
v -0.219982 1.171409 1.459490
v -0.129893 2.314614 0.861788
v -1.153964 1.171409 -0.920256
v -0.681384 2.314614 -0.543385
v 1.153965 1.171409 -0.920255
v 0.681384 2.314614 -0.543385
v 0.219983 1.171409 1.459490
v 0.129894 2.314614 0.861788
v -0.752261 -1.256968 -0.295240
v -0.805863 -1.256968 -0.060391
v 0.455233 -1.256968 -0.667702
v 0.238199 -1.256968 -0.772220
v 0.350632 -1.256968 0.728094
v 0.549664 -1.256968 0.592396
v -0.787862 -1.256968 0.179824
v 0.000000 -1.256968 -0.808123
v 0.699855 -1.256968 0.404062
v -0.699855 -1.256968 0.404062
v 0.787862 -1.256968 0.179824
v -0.549663 -1.256968 0.592396
v -0.238198 -1.256968 -0.772220
v 0.805864 -1.256968 -0.060391
v -0.350631 -1.256968 0.728094
v -0.455232 -1.256968 -0.667703
v 0.752261 -1.256968 -0.295240
v -0.120444 -1.256968 0.799097
v -0.631816 -1.256968 -0.503856
v 0.631817 -1.256968 -0.503856
v 0.120445 -1.256968 0.799097
v 0.000000 -1.690005 -0.229463
v -0.067635 -1.690005 -0.219268
v 0.223710 -1.690005 0.051060
v 0.228822 -1.690005 -0.017148
v -0.156074 -1.690005 0.168208
v -0.099560 -1.690005 0.206739
v -0.129261 -1.690005 -0.189591
v 0.213601 -1.690005 -0.083832
v -0.034199 -1.690005 0.226900
v -0.179401 -1.690005 -0.143068
v 0.179402 -1.690005 -0.143068
v 0.034200 -1.690005 0.226900
v -0.213601 -1.690005 -0.083832
v 0.129261 -1.690005 -0.189591
v 0.099561 -1.690005 0.206739
v -0.228821 -1.690005 -0.017148
v 0.067636 -1.690005 -0.219268
v 0.156075 -1.690005 0.168208
v -0.223710 -1.690005 0.051060
v 0.198721 -1.690005 0.114732
v -0.198721 -1.690005 0.114732
v -0.300125 2.945417 0.068502
v -0.306983 2.945417 -0.023005
v 0.000000 2.945417 -0.307844
v 0.090739 2.945417 -0.294167
v 0.266601 2.945417 0.153922
v 0.209387 2.945417 0.225666
v -0.266600 2.945417 0.153922
v 0.300126 2.945417 0.068502
v -0.209387 2.945417 0.225666
v -0.090738 2.945417 -0.294167
v 0.306983 2.945417 -0.023005
v -0.133568 2.945417 0.277358
v -0.173414 2.945417 -0.254352
v 0.286564 2.945417 -0.112468
v -0.045881 2.945417 0.304406
v -0.240682 2.945417 -0.191937
v 0.240682 2.945417 -0.191937
v 0.045882 2.945417 0.304406
v -0.286564 2.945417 -0.112468
v 0.173415 2.945417 -0.254352
v 0.133569 2.945417 0.277358
vt 0.599716 0.583119
vt 0.515421 0.733700
vt 0.550749 0.562535
vt 0.942031 0.343705
vt 0.796138 0.411653
vt 0.924253 0.299924
vt 0.214194 0.815181
vt 0.272388 0.662240
vt 0.256760 0.833832
vt 0.428799 0.414494
vt 0.445325 0.551765
vt 0.411283 0.543461
vt 0.185275 0.424598
vt 0.103134 0.534382
vt 0.128610 0.406815
vt 0.690902 0.159880
vt 0.631199 0.332218
vt 0.644919 0.165395
vt 0.661583 0.754428
vt 0.730688 0.923040
vt 0.631199 0.790205
vt 0.743311 0.167475
vt 0.658351 0.328962
vt 0.774462 0.883899
vt 0.748628 0.901914
vt 0.329253 0.583119
vt 0.413548 0.733700
vt 0.384634 0.745854
vt 0.797489 0.187506
vt 0.689297 0.333446
vt 0.705334 0.723917
vt 0.805895 0.870594
vt 0.378220 0.562535
vt 0.446987 0.727341
vt 0.848621 0.218193
vt 0.721288 0.345274
vt 0.816551 0.688831
vt 0.758567 0.701384
vt 0.434852 0.551765
vt 0.481982 0.727341
vt 0.892166 0.256809
vt 0.751480 0.363394
vt 0.874133 0.687373
vt 0.840132 0.863181
vt 0.494117 0.551765
vt 0.777192 0.386196
vt 0.303305 0.666932
vt 0.309119 0.841778
vt 0.374801 0.396359
vt 0.520382 0.079947
vt 0.211857 0.067066
vt 0.240747 0.078898
vt 0.097419 0.554523
vt 0.182295 0.799183
vt 0.150258 0.804462
vt 0.551947 0.087647
vt 0.486452 0.428557
vt 0.271772 0.088634
vt 0.120931 0.817695
vt 0.043856 0.578692
vt 0.582709 0.092433
vt 0.542635 0.437299
vt 0.000000 0.615243
vt 0.096919 0.837707
vt 0.592357 0.439943
vt 0.609932 0.093881
vt 0.240803 0.436976
vt 0.302174 0.095411
vt 0.884372 0.000000
vt 0.914035 0.010967
vt 0.631199 0.436254
vt 0.631199 0.091861
vt 0.290260 0.442847
vt 0.329253 0.098626
vt 0.942031 0.027769
vt 0.728742 0.490479
vt 0.760489 0.483606
vt 0.329253 0.375764
vt 0.447784 0.047120
vt 0.465878 0.058742
vt 0.000000 0.338358
vt 0.187668 0.054191
vt 0.031666 0.361690
vt 0.944623 0.873745
vt 0.960653 0.636981
vt 1.000000 0.885435
vt 0.490816 0.070018
vt 0.075845 0.385205
vt 0.155932 0.544883
vt 0.214194 0.802329
vt 0.283214 0.009780
vt 0.291847 0.011704
vt 0.157174 0.916486
vt 0.080356 0.862720
vt 0.885062 0.595181
vt 0.948278 0.532210
vt 0.904367 0.616222
vt 0.299536 0.012617
vt 0.072714 0.890511
vt 0.155004 0.924378
vt 0.930333 0.630580
vt 0.955651 0.536287
vt 0.534040 0.000000
vt 0.155560 0.932357
vt 0.074672 0.918612
vt 0.964260 0.538104
vt 0.541121 0.003202
vt 0.259333 0.000000
vt 0.266202 0.003656
vt 0.186119 0.898445
vt 0.549515 0.006021
vt 0.274405 0.007015
vt 0.177022 0.899944
vt 0.558478 0.008208
vt 0.168695 0.903702
vt 0.567213 0.009567
vt 0.161877 0.909384
vt 0.939693 0.518895
vt 0.942796 0.526235
vt 0.982086 0.534530
vt 0.941489 0.502786
vt 0.566154 0.762723
vt 0.492690 0.849661
vt 0.544335 0.745854
vt 0.362816 0.762723
vt 0.436279 0.849661
vt 0.428573 0.855620
vt 0.651667 0.445266
vt 0.642076 0.446417
vt 0.813782 1.000000
vt 0.662598 0.446850
vt 0.829244 0.986174
vt 0.820119 0.992538
vt 0.446492 0.845368
vt 0.673898 0.451028
vt 0.840347 0.981475
vt 0.470665 0.843122
vt 0.458304 0.843122
vt 0.684562 0.457429
vt 0.874133 0.862321
vt 0.852440 0.978856
vt 0.482477 0.845368
vt 0.700337 0.474475
vt 0.693644 0.465483
vt 0.298199 0.548773
vt 0.309119 0.550430
vt 0.704045 0.483606
vt 0.289321 0.544883
vt 0.251640 0.920910
vt 0.223593 0.917334
vt 0.237293 0.841778
vt 0.806636 0.437505
vt 0.247254 0.651227
vt 0.136593 0.544883
vt 0.329253 0.441691
vt 0.170330 0.041416
vt 0.214194 0.550628
vt 0.305598 0.012437
vt 0.195177 0.899339
vt 0.874133 0.569328
vt 0.961324 0.485414
vt 0.970337 0.483606
vt 0.953043 0.489482
vt 0.979282 0.484220
vt 0.171925 0.950065
vt 0.164414 0.945797
vt 0.158792 0.939714
vt 0.315308 0.561446
vt 0.313998 0.553359
vt 0.315308 0.544883
vt 0.939244 0.510839
vt 0.946229 0.495450
vt 0.313998 0.578132
vt 0.309119 0.562340
vt 0.313998 0.544883
vt 1.000000 0.506801
vt 0.500397 0.855620
vt 0.864450 0.978552
vt 0.257458 0.855242
vt 0.261650 0.865702
vt 0.251640 0.847349
vt 0.263843 0.877800
vt 0.263843 0.890459
vt 0.261650 0.902557
vt 0.257458 0.913016
vt 0.244713 0.925535
vt 0.237292 0.926481
vt 0.230038 0.923664
vt 0.218532 0.908054
vt 0.215303 0.896648
vt 0.214194 0.884129
vt 0.215303 0.871611
vt 0.218532 0.860205
vt 0.223594 0.850925
vt 0.230038 0.844595
vt 0.244713 0.842724
vn -0.9917 0.1052 -0.0743
vn -0.7676 0.5657 -0.3013
vn -0.9257 0.1052 -0.3633
vn 0.2931 0.1052 -0.9503
vn 0.4645 0.5657 -0.6813
vn 0.5602 0.1052 -0.8217
vn 0.6764 0.1052 0.7290
vn 0.3578 0.5657 0.7429
vn 0.4315 0.1052 0.8960
vn -0.8039 0.5657 0.1835
vn -0.8223 0.5657 -0.0616
vn 0.0000 0.1052 -0.9945
vn 0.2431 0.5657 -0.7879
vn 0.8612 0.1052 0.4972
vn 0.5609 0.5657 0.6045
vn -0.8612 0.1052 0.4972
vn -0.9695 0.1052 0.2213
vn 0.9695 0.1052 0.2213
vn 0.7141 0.5657 0.4123
vn -0.5609 0.5657 0.6045
vn -0.7141 0.5657 0.4123
vn -0.2430 0.5657 -0.7879
vn -0.0000 0.5657 -0.8246
vn 0.9917 0.1052 -0.0743
vn 0.8039 0.5657 0.1835
vn -0.6764 0.1052 0.7290
vn -0.3578 0.5657 0.7429
vn -0.2931 0.1052 -0.9503
vn -0.4645 0.5657 -0.6813
vn 0.9257 0.1052 -0.3633
vn 0.8223 0.5657 -0.0616
vn -0.1482 0.1052 0.9833
vn -0.4315 0.1052 0.8960
vn -0.5602 0.1052 -0.8217
vn -0.6447 0.5657 -0.5141
vn 0.7775 0.1052 -0.6200
vn 0.7676 0.5657 -0.3013
vn 0.1482 0.1052 0.9833
vn -0.1229 0.5657 0.8154
vn -0.7775 0.1052 -0.6200
vn 0.6447 0.5657 -0.5141
vn 0.1229 0.5657 0.8154
vn -0.8332 -0.5494 -0.0624
vn 0.4707 -0.5494 -0.6904
vn 0.2463 -0.5494 -0.7984
vn 0.3625 -0.5494 0.7528
vn 0.5683 -0.5494 0.6125
vn -0.8146 -0.5494 0.1859
vn -0.0000 -0.5494 -0.8356
vn 0.7236 -0.5494 0.4178
vn -0.7236 -0.5494 0.4178
vn 0.8146 -0.5494 0.1859
vn -0.5683 -0.5494 0.6125
vn -0.2463 -0.5494 -0.7984
vn 0.8332 -0.5494 -0.0624
vn -0.3625 -0.5494 0.7528
vn -0.4707 -0.5494 -0.6904
vn 0.7778 -0.5494 -0.3053
vn -0.1245 -0.5494 0.8262
vn -0.6533 -0.5494 -0.5210
vn 0.6533 -0.5494 -0.5210
vn 0.1245 -0.5494 0.8262
vn -0.7778 -0.5494 -0.3053
vn -0.0000 -0.9396 -0.3423
vn -0.1009 -0.9396 -0.3271
vn 0.3413 -0.9396 -0.0256
vn -0.1485 -0.9396 0.3084
vn -0.1928 -0.9396 -0.2828
vn 0.3186 -0.9396 -0.1250
vn -0.0510 -0.9396 0.3384
vn -0.2676 -0.9396 -0.2134
vn 0.2676 -0.9396 -0.2134
vn 0.0510 -0.9396 0.3384
vn -0.3186 -0.9396 -0.1250
vn 0.1928 -0.9396 -0.2828
vn 0.1485 -0.9396 0.3084
vn -0.3413 -0.9396 -0.0256
vn 0.1009 -0.9396 -0.3271
vn 0.2328 -0.9396 0.2509
vn -0.3337 -0.9396 0.0762
vn 0.2964 -0.9396 0.1711
vn -0.2964 -0.9396 0.1711
vn 0.3337 -0.9396 0.0762
vn -0.2328 -0.9396 0.2509
vn -0.4386 0.8981 -0.0329
vn -0.0000 0.8981 -0.4398
vn 0.1296 0.8981 -0.4203
vn 0.3809 0.8981 0.2199
vn 0.2992 0.8981 0.3224
vn -0.4288 0.8981 0.0979
vn 0.4288 0.8981 0.0979
vn -0.2992 0.8981 0.3224
vn -0.3809 0.8981 0.2199
vn -0.1296 0.8981 -0.4203
vn 0.4386 0.8981 -0.0329
vn -0.1908 0.8981 0.3963
vn -0.3439 0.8981 -0.2742
vn -0.2478 0.8981 -0.3634
vn 0.4094 0.8981 -0.1607
vn -0.0656 0.8981 0.4349
vn -0.4094 0.8981 -0.1607
vn 0.2478 0.8981 -0.3634
vn 0.3439 0.8981 -0.2742
vn 0.1908 0.8981 0.3963
vn 0.0656 0.8981 0.4349
usemtl Explode_Fade
s 1
f 2/1/1 4/2/2 1/3/3
f 6/4/4 8/5/5 5/6/6
f 10/7/7 12/8/8 9/9/9
f 2/10/1 14/11/10 3/12/11
f 15/13/12 7/14/13 6/15/4
f 17/16/14 11/17/15 10/18/7
f 19/19/16 14/20/10 13/21/17
f 21/22/18 18/23/19 17/16/14
f 19/19/16 24/24/20 20/25/21
f 15/26/12 26/27/22 16/28/23
f 27/29/24 22/30/25 21/22/18
f 23/31/26 30/32/27 24/24/20
f 25/33/28 32/34/29 26/27/22
f 33/35/30 28/36/31 27/29/24
f 35/37/32 30/32/27 29/38/33
f 31/39/34 38/40/35 32/34/29
f 39/41/36 34/42/37 33/35/30
f 41/43/38 36/44/39 35/37/32
f 1/3/3 38/40/35 37/45/40
f 5/6/6 40/46/41 39/41/36
f 9/9/9 42/47/42 41/48/38
f 1/49/3 44/50/43 2/10/1
f 6/15/4 45/51/44 46/52/45
f 10/53/7 47/54/46 48/55/47
f 2/10/1 49/56/48 13/57/17
f 6/15/4 50/58/49 15/13/12
f 10/53/7 51/59/50 17/60/14
f 13/57/17 52/61/51 19/62/16
f 21/63/18 51/59/50 53/64/52
f 23/65/26 52/61/51 54/66/53
f 25/67/28 50/58/49 55/68/54
f 27/29/24 53/69/52 56/70/55
f 29/71/33 54/66/53 57/72/56
f 31/73/34 55/68/54 58/74/57
f 33/35/30 56/70/55 59/75/58
f 35/37/32 57/76/56 60/77/59
f 37/78/40 58/79/57 61/80/60
f 33/81/30 62/82/61 39/83/36
f 35/84/32 63/85/62 41/86/38
f 37/78/40 43/87/63 1/49/3
f 39/83/36 45/51/44 5/88/6
f 9/89/9 63/90/62 47/54/46
f 55/68/54 64/91/64 65/92/65
f 53/64/52 67/93/66 56/94/55
f 54/95/53 69/96/67 57/97/56
f 55/68/54 70/98/68 58/74/57
f 59/99/58 67/93/66 71/100/69
f 60/101/59 69/96/67 72/102/70
f 58/79/57 73/103/71 61/80/60
f 59/99/58 74/104/72 62/105/61
f 60/101/59 75/106/73 63/85/62
f 61/80/60 76/107/74 43/87/63
f 45/51/44 74/108/72 77/109/75
f 63/90/62 78/110/76 47/54/46
f 44/50/43 76/107/74 79/111/77
f 46/52/45 77/109/75 80/112/78
f 48/55/47 78/110/76 81/113/79
f 44/50/43 82/114/80 49/56/48
f 46/52/45 64/91/64 50/58/49
f 48/55/47 83/115/81 51/59/50
f 49/56/48 84/116/82 52/61/51
f 53/64/52 83/115/81 66/117/83
f 54/95/53 84/118/82 68/119/84
f 81/120/79 69/96/67 79/121/77
f 14/122/10 86/123/85 3/124/11
f 7/125/13 87/126/86 88/127/87
f 11/17/15 89/128/88 90/129/89
f 20/25/21 85/130/90 14/20/10
f 18/23/19 92/131/91 89/128/88
f 20/25/21 93/132/92 91/133/93
f 26/27/22 87/126/86 16/28/23
f 28/36/31 92/131/91 22/30/25
f 30/32/27 93/132/92 24/24/20
f 32/34/29 94/134/94 26/27/22
f 34/42/37 95/135/95 28/36/31
f 36/44/39 96/136/96 30/32/27
f 32/34/29 100/137/97 97/138/98
f 40/46/41 98/139/99 34/42/37
f 42/140/42 99/141/100 36/44/39
f 38/40/35 103/142/101 100/137/97
f 40/46/41 104/143/102 101/144/103
f 42/47/42 105/145/104 102/146/105
f 3/124/11 103/142/101 4/2/2
f 8/5/5 88/147/87 104/143/102
f 12/8/8 90/148/89 105/145/104
f 85/149/90 99/150/100 101/151/103
f 2/1/1 3/124/11 4/2/2
f 6/4/4 7/152/13 8/5/5
f 10/7/7 11/153/15 12/8/8
f 2/10/1 13/57/17 14/11/10
f 15/13/12 16/154/23 7/14/13
f 17/16/14 18/23/19 11/17/15
f 19/19/16 20/25/21 14/20/10
f 21/22/18 22/30/25 18/23/19
f 19/19/16 23/31/26 24/24/20
f 15/26/12 25/33/28 26/27/22
f 27/29/24 28/36/31 22/30/25
f 23/31/26 29/38/33 30/32/27
f 25/33/28 31/39/34 32/34/29
f 33/35/30 34/42/37 28/36/31
f 35/37/32 36/44/39 30/32/27
f 31/39/34 37/45/40 38/40/35
f 39/41/36 40/46/41 34/42/37
f 41/43/38 42/140/42 36/44/39
f 1/3/3 4/2/2 38/40/35
f 5/6/6 8/5/5 40/46/41
f 9/9/9 12/8/8 42/47/42
f 1/49/3 43/87/63 44/50/43
f 6/15/4 5/88/6 45/51/44
f 10/53/7 9/89/9 47/54/46
f 2/10/1 44/50/43 49/56/48
f 6/15/4 46/52/45 50/58/49
f 10/53/7 48/55/47 51/59/50
f 13/57/17 49/56/48 52/61/51
f 21/63/18 17/60/14 51/59/50
f 23/65/26 19/62/16 52/61/51
f 25/67/28 15/13/12 50/58/49
f 27/29/24 21/22/18 53/69/52
f 29/71/33 23/65/26 54/66/53
f 31/73/34 25/67/28 55/68/54
f 33/35/30 27/29/24 56/70/55
f 35/37/32 29/38/33 57/76/56
f 37/155/40 31/73/34 58/74/57
f 33/81/30 59/156/58 62/82/61
f 35/84/32 60/101/59 63/85/62
f 37/78/40 61/80/60 43/87/63
f 39/83/36 62/82/61 45/51/44
f 9/89/9 41/157/38 63/90/62
f 55/68/54 50/58/49 64/91/64
f 53/64/52 66/117/83 67/93/66
f 54/95/53 68/119/84 69/96/67
f 55/68/54 65/92/65 70/98/68
f 59/99/58 56/94/55 67/93/66
f 60/101/59 57/97/56 69/96/67
f 58/74/57 70/98/68 73/158/71
f 59/99/58 71/100/69 74/104/72
f 60/101/59 72/102/70 75/106/73
f 61/80/60 73/103/71 76/107/74
f 45/51/44 62/82/61 74/108/72
f 63/90/62 75/159/73 78/110/76
f 44/50/43 43/87/63 76/107/74
f 46/52/45 45/51/44 77/109/75
f 48/55/47 47/54/46 78/110/76
f 44/50/43 79/111/77 82/114/80
f 46/52/45 80/112/78 64/91/64
f 48/55/47 81/113/79 83/115/81
f 49/56/48 82/114/80 84/116/82
f 53/64/52 51/59/50 83/115/81
f 54/95/53 52/160/51 84/118/82
f 70/161/68 65/162/65 73/163/71
f 65/162/65 64/164/64 73/163/71
f 64/165/64 80/166/78 71/100/69
f 80/166/78 77/167/75 71/100/69
f 77/167/75 74/104/72 71/100/69
f 71/168/69 67/169/66 66/170/83
f 66/117/83 83/115/81 81/113/79
f 81/113/79 78/110/76 75/159/73
f 75/106/73 72/102/70 81/120/79
f 72/102/70 69/96/67 81/120/79
f 69/96/67 68/119/84 79/121/77
f 68/119/84 84/118/82 79/121/77
f 84/118/82 82/171/80 79/121/77
f 79/121/77 76/172/74 73/163/71
f 71/173/69 66/174/83 81/175/79
f 79/121/77 73/163/71 64/164/64
f 64/164/64 71/176/69 79/121/77
f 71/176/69 81/120/79 79/121/77
f 14/122/10 85/177/90 86/123/85
f 7/125/13 16/28/23 87/126/86
f 11/17/15 18/23/19 89/128/88
f 20/25/21 91/133/93 85/130/90
f 18/23/19 22/30/25 92/131/91
f 20/25/21 24/24/20 93/132/92
f 26/27/22 94/134/94 87/126/86
f 28/36/31 95/135/95 92/131/91
f 30/32/27 96/136/96 93/132/92
f 32/34/29 97/138/98 94/134/94
f 34/42/37 98/139/99 95/135/95
f 36/44/39 99/141/100 96/136/96
f 32/34/29 38/40/35 100/137/97
f 40/46/41 101/144/103 98/139/99
f 42/140/42 102/178/105 99/141/100
f 38/40/35 4/2/2 103/142/101
f 40/46/41 8/5/5 104/143/102
f 42/47/42 12/8/8 105/145/104
f 3/124/11 86/123/85 103/142/101
f 8/5/5 7/152/13 88/147/87
f 12/8/8 11/153/15 90/148/89
f 87/179/86 94/180/94 88/181/87
f 94/180/94 97/182/98 88/181/87
f 97/182/98 100/183/97 85/149/90
f 100/183/97 103/184/101 85/149/90
f 103/184/101 86/185/85 85/149/90
f 85/149/90 91/186/93 99/150/100
f 91/186/93 93/187/92 99/150/100
f 93/187/92 96/188/96 99/150/100
f 99/150/100 102/189/105 105/190/104
f 105/190/104 90/191/89 99/150/100
f 90/191/89 89/192/88 99/150/100
f 89/192/88 92/193/91 95/194/95
f 95/194/95 98/195/99 101/151/103
f 101/151/103 104/196/102 97/182/98
f 104/196/102 88/181/87 97/182/98
f 89/192/88 95/194/95 99/150/100
f 95/194/95 101/151/103 99/150/100
f 97/182/98 85/149/90 101/151/103
