# Blender v2.79 (sub 0) OBJ File: ''
# www.blender.org
mtllib luarock.mtl
o Cube
v 0.934175 -0.865544 -0.967403
v 0.934175 -0.865544 0.967403
v -0.934175 -0.865544 0.967403
v -0.934174 -0.865544 -0.967403
v -0.853826 0.732104 0.630935
v 0.914051 -0.771432 -0.746662
v 0.987438 -0.863018 -0.263506
v 0.987438 -0.863018 0.263506
v 0.914051 -0.771433 0.746663
v 1.283010 -0.786611 -1.233550
v 0.967737 0.523775 -0.868739
v 0.915127 0.629740 -0.764706
v 1.283010 -0.786611 1.233550
v -0.914052 -0.771432 0.746662
v -0.987438 -0.863018 0.263506
v -0.987438 -0.863018 -0.263506
v -0.914051 -0.771432 -0.746663
v -1.283010 -0.786611 1.233550
v -0.878550 0.694229 0.684328
v -1.283010 -0.786611 -1.233551
v -0.877502 0.696581 -0.683884
v 0.910778 0.739439 -0.560884
v 1.123965 0.714915 -0.213674
v 1.120882 0.713994 0.213444
v 1.063316 0.725279 0.344061
v -0.093605 0.821829 0.706452
v -1.066021 0.725838 0.344313
v -1.063735 0.724485 -0.344158
v -0.909012 0.737501 -0.561464
v 0.115434 0.308914 -1.566763
v -0.114832 0.311964 -1.566003
v 1.264196 -0.345247 -1.529673
v 0.655325 -0.209202 -1.749633
v 0.377336 -0.168692 -1.821308
v -0.377241 -0.168252 -1.820795
v -0.655465 -0.209593 -1.749700
v -1.264176 -0.345393 -1.529850
v 1.350440 -0.602233 -1.604072
v 1.065437 -0.585600 -1.715133
v 0.703521 -0.541851 -1.802724
v -0.703547 -0.541868 -1.802749
v -1.350439 -0.602233 -1.604072
v 1.276024 -0.746063 -1.492139
v 1.011712 -0.756431 -1.594829
v -1.276024 -0.746063 -1.492139
v 1.120874 -0.823624 -1.318151
v -1.120873 -0.823624 -1.318152
v -1.357759 -0.750282 1.028984
v -1.357758 -0.750282 -1.028984
v -1.759972 -0.622377 0.703845
v -1.759972 -0.622378 -0.703846
v -1.855875 -0.373722 0.734133
v -1.855875 -0.373723 -0.734134
v -1.124866 0.618366 0.544282
v -1.202845 0.609827 0.403846
v -1.144055 0.675874 0.367759
v -1.140991 0.672849 -0.367365
v 1.120873 -0.823624 1.318151
v -1.120874 -0.823623 1.318151
v 1.276024 -0.746063 1.492139
v 1.011713 -0.756432 1.594830
v -1.276024 -0.746063 1.492139
v 1.350441 -0.602234 1.604074
v 1.065507 -0.585680 1.715250
v 0.703494 -0.541873 1.802879
v -0.703520 -0.541887 1.802901
v -1.350441 -0.602234 1.604074
v 1.264256 -0.345074 1.529740
v 0.655236 -0.208453 1.749407
v 0.123121 -0.139376 1.844594
v -0.377207 -0.167309 1.820537
v -0.655380 -0.208858 1.749439
v -1.264244 -0.345287 1.529761
v 0.115254 0.312014 1.564532
v -0.114563 0.314746 1.563821
v 0.908262 0.359186 1.114714
v 0.096369 0.706398 0.988075
v 1.357758 -0.750282 -1.028984
v 1.357758 -0.750282 1.028984
v 1.759972 -0.622377 -0.703845
v 1.759972 -0.622377 0.703846
v 1.855875 -0.373722 -0.734133
v 1.851484 -0.270548 0.465683
v 1.855875 -0.373723 0.734134
v 1.202852 0.610126 -0.403670
v 1.140875 0.673771 0.367184
v 0.806104 0.771172 -0.553271
v 0.886428 0.807509 0.069702
v -0.252030 -0.817516 -0.738270
v 0.722103 -0.708888 -0.550435
v -0.081053 -0.837933 -0.568020
v -0.545954 -0.708944 -0.553030
v 0.082545 -0.891051 -0.434294
v -0.082545 -0.891051 -0.434294
v -0.579012 -0.721940 -0.416575
v 0.579012 -0.721940 0.416575
v 0.082545 -0.891051 0.434293
v -0.082545 -0.891051 0.434293
v 0.545954 -0.708944 0.553030
v 0.081053 -0.837933 0.568019
v -0.722103 -0.708888 0.550435
v 0.252030 -0.817515 0.738270
vt 0.090562 0.426643
vt 0.067587 0.415078
vt 0.117017 0.378696
vt 0.381766 0.378696
vt 0.431196 0.415078
vt 0.408221 0.426642
vt 0.068576 0.450426
vt 0.000000 0.342668
vt 0.000000 0.150239
vt 0.068576 0.042481
vt 0.090561 0.066265
vt 0.067586 0.077829
vt 0.056994 0.105793
vt 0.056995 0.387114
vt 0.331438 0.303399
vt 0.261088 0.187086
vt 0.237906 0.168806
vt 0.213678 0.145533
vt 0.351715 0.171210
vt 0.512279 0.149634
vt 0.582814 0.182129
vt 0.607093 0.220953
vt 0.572490 0.320246
vt 0.564402 0.320534
vt 0.498783 0.178205
vt 0.059537 0.728088
vt 0.058873 0.796581
vt 0.057281 0.834803
vt 0.010105 0.842851
vt 0.004011 0.650619
vt 0.051659 0.655740
vt 0.857153 0.180289
vt 0.829974 0.168569
vt 0.798048 0.122559
vt 0.827818 0.124205
vt 0.874319 0.180333
vt 0.039256 0.573241
vt 0.000000 0.601394
vt 0.000968 0.562587
vt 0.058032 0.465727
vt 0.106030 0.464464
vt 0.098417 0.480909
vt 0.149705 0.000003
vt 0.349081 0.000000
vt 0.440751 0.027179
vt 0.430206 0.042481
vt 0.106030 0.028443
vt 0.098407 0.011982
vt 0.430206 0.450426
vt 0.440751 0.465727
vt 0.349085 0.492886
vt 0.149701 0.492883
vt 0.133506 0.758646
vt 0.132111 0.727260
vt 0.119869 0.348521
vt 1.000000 0.319629
vt 0.938113 0.438548
vt 0.915166 0.423247
vt 0.962480 0.315489
vt 0.119869 0.144386
vt 0.117017 0.114211
vt 0.109470 0.210433
vt 0.109470 0.282474
vt 1.000000 0.118919
vt 0.962480 0.123060
vt 0.915166 0.015301
vt 0.938113 0.000000
vt 0.050182 0.918696
vt 0.219961 0.895759
vt 0.224762 0.906512
vt 0.080744 1.000000
vt 0.012671 0.931593
vt 0.223592 0.861705
vt 0.225546 0.867366
vt 0.311427 0.762603
vt 0.386959 0.798041
vt 0.390081 0.836059
vt 0.400610 0.919215
vt 0.685594 0.401653
vt 0.684347 0.412898
vt 0.589570 0.371581
vt 0.596876 0.362896
vt 0.237695 0.305821
vt 0.167344 0.189508
vt 0.172029 0.170855
vt 0.237695 0.187086
vt 0.408221 0.066264
vt 0.431196 0.077829
vt 0.381766 0.114211
vt 0.581877 0.377262
vt 0.568359 0.359558
vt 0.058031 0.027180
vt 0.147068 0.321697
vt 0.436288 0.650022
vt 0.437470 0.842362
vt 0.386407 0.694893
vt 0.388927 0.656879
vt 0.438565 0.600537
vt 0.398465 0.573597
vt 0.436302 0.561592
vt 0.915166 0.068141
vt 0.742921 0.098733
vt 0.722646 0.098406
vt 0.724579 0.087791
vt 0.759886 0.000000
vt 0.616675 0.076326
vt 0.438565 0.930791
vt 0.089447 0.493140
vt 0.224762 0.586033
vt 0.153096 0.618900
vt 0.064661 0.492886
vt 0.746974 0.135405
vt 0.822611 0.180936
vt 0.722605 0.394670
vt 0.378914 0.348521
vt 0.441788 0.387114
vt 0.511616 0.648137
vt 0.572360 0.529218
vt 0.595303 0.544519
vt 0.549226 0.652277
vt 0.441788 0.105793
vt 0.389313 0.282474
vt 0.389313 0.210433
vt 0.378914 0.144386
vt 0.261088 0.305821
vt 0.572359 0.967766
vt 0.511616 0.848846
vt 0.549226 0.844706
vt 0.595303 0.952465
vt 0.498783 0.684834
vt 0.254702 0.614951
vt 0.311679 0.731124
vt 0.236280 0.622250
vt 0.498783 0.150239
vt 0.498783 0.342668
vt 0.695993 0.529218
vt 0.507093 0.445974
vt 0.224762 0.582990
vt 0.371112 0.492886
vt 0.285105 0.347374
vt 0.326754 0.322052
vt 0.260877 0.324101
vt 0.740477 0.397959
vt 0.833124 0.500648
vt 0.839216 0.517221
vt 0.915166 0.327161
vt 0.901452 0.355702
vn 0.0000 -0.9942 -0.1078
vn 0.3233 -0.9463 0.0000
vn -0.2469 -0.9642 0.0970
vn -0.1425 0.8484 0.5098
vn 0.0010 -0.0082 1.0000
vn 0.5398 0.7649 -0.3514
vn 0.3412 0.3023 0.8901
vn 0.2721 -0.6407 -0.7180
vn -0.0254 -0.7553 0.6548
vn -0.0254 -0.7551 -0.6551
vn -0.0467 0.5075 0.8604
vn 0.0000 -0.9538 -0.3005
vn 0.2877 -0.9254 0.2469
vn -0.7946 -0.4797 -0.3722
vn 0.2877 -0.9254 -0.2469
vn 0.1793 -0.9838 -0.0000
vn -0.7946 -0.4797 0.3722
vn -0.9330 -0.3598 -0.0000
vn -0.6854 0.5544 0.4721
vn -0.4105 0.6517 0.6377
vn -0.3876 0.6509 -0.6527
vn -0.5475 0.8368 -0.0046
vn 0.3113 -0.9496 0.0360
vn -0.0000 -0.9942 0.1078
vn -0.0000 -0.9538 0.3005
vn -0.4733 0.8193 0.3237
vn 0.2722 -0.6410 0.7176
vn -0.3601 -0.9329 -0.0094
vn -0.0000 -0.0032 -1.0000
vn 0.3412 0.3022 -0.8901
vn 0.8144 0.5800 -0.0190
vn 0.2824 0.8237 0.4917
vn -0.3423 0.2723 -0.8993
vn 0.6809 0.5849 0.4408
vn -0.0446 0.9984 -0.0352
vn -0.2877 -0.9254 0.2469
vn 0.7946 -0.4797 0.3722
vn -0.1793 -0.9838 0.0000
vn 0.0000 -1.0000 -0.0000
vn 0.7946 -0.4797 -0.3722
vn 0.9549 -0.2968 0.0000
vn -0.3424 0.2727 0.8991
vn 0.3698 0.6423 -0.6713
vn 0.3026 0.9512 -0.0608
vn -0.3233 -0.9463 -0.0000
vn -0.8275 0.5614 -0.0071
vn 0.6765 0.5635 -0.4741
vn 0.0001 -0.9465 0.3228
vn -0.3113 -0.9496 -0.0360
vn 0.0005 0.4695 -0.8829
vn 0.0000 -0.9294 -0.3692
vn -0.6542 0.5898 -0.4734
vn -0.2877 -0.9254 -0.2469
vn 0.3423 0.5968 0.7257
vn 0.3601 -0.9329 0.0094
vn 0.0000 -0.9294 0.3692
vn 0.1637 0.9592 0.2306
vn -0.0001 -0.9465 -0.3228
vn 0.2469 -0.9642 -0.0970
vn 0.0137 0.9110 -0.4122
usemtl Material
s off
f 46/1/1 10/2/1 1/3/1 4/4/1 20/5/1 47/6/1
f 43/7/2 80/8/2 81/9/2 60/10/2 58/11/2 13/12/2 79/13/2 78/14/2 10/2/2 46/1/2
f 95/15/3 98/16/3 100/17/3 102/18/3 101/19/3
f 74/20/4 77/21/4 26/22/4 5/23/4 19/24/4 75/25/4
f 70/26/5 71/27/5 72/28/5 66/29/5 65/30/5 69/31/5
f 12/32/6 22/33/6 23/34/6 85/35/6 11/36/6
f 68/37/7 69/31/7 65/30/7 64/38/7 63/39/7
f 38/40/8 43/7/8 44/41/8 39/42/8
f 65/43/9 66/44/9 67/45/9 62/46/9 61/47/9 64/48/9
f 44/41/10 45/49/10 42/50/10 41/51/10 40/52/10 39/42/10
f 75/53/11 71/27/11 70/26/11 74/54/11
f 46/1/12 47/6/12 45/49/12 44/41/12 43/7/12
f 1/3/13 10/2/13 78/14/13 6/55/13
f 53/56/14 42/57/14 45/58/14 51/59/14
f 9/60/15 79/13/15 13/12/15 2/61/15
f 78/14/16 79/13/16 9/60/16 8/62/16 7/63/16 6/55/16
f 52/64/17 50/65/17 62/66/17 67/67/17
f 52/64/18 53/56/18 51/59/18 50/65/18
f 73/68/19 54/69/19 55/70/19 52/71/19 67/72/19
f 54/69/20 73/68/20 72/28/20 71/27/20 75/53/20 19/73/20
f 21/74/21 31/75/21 35/76/21 36/77/21 37/78/21
f 28/79/22 57/80/22 56/81/22 27/82/22
f 93/83/23 96/84/23 99/85/23 102/18/23 100/17/23 97/86/23
f 58/11/24 59/87/24 18/88/24 3/89/24 2/61/24 13/12/24
f 61/47/25 62/46/25 59/87/25 58/11/25 60/10/25
f 5/23/26 27/82/26 56/81/26 55/90/26 54/91/26 19/24/26
f 60/10/27 63/92/27 64/48/27 61/47/27
f 6/55/28 7/63/28 8/62/28 9/60/28 99/85/28 96/84/28 90/93/28
f 40/94/29 41/95/29 36/77/29 35/76/29 34/96/29 33/97/29
f 39/98/30 40/94/30 33/97/30 32/99/30 38/100/30
f 82/101/31 85/35/31 23/34/31 24/102/31 25/103/31 86/104/31 83/105/31
f 25/103/32 77/21/32 74/20/32 76/106/32 86/104/32
f 41/95/33 42/107/33 37/78/33 36/77/33
f 83/108/34 86/109/34 76/110/34 68/37/34 63/39/34 84/111/34
f 5/23/35 26/22/35 88/112/35 87/113/35 29/114/35 28/79/35 27/82/35
f 17/115/36 49/116/36 20/5/36 4/4/36
f 84/117/37 63/118/37 60/119/37 81/120/37
f 48/121/38 49/116/38 17/115/38 16/122/38 15/123/38 14/124/38
f 93/83/39 97/86/39 98/16/39 94/125/39
f 38/126/40 82/127/40 80/128/40 43/129/40
f 82/127/41 83/130/41 84/117/41 81/120/41 80/128/41
f 72/28/42 73/68/42 67/72/42 66/29/42
f 11/131/43 32/99/43 33/97/43 34/96/43 30/132/43 12/133/43
f 22/33/44 87/113/44 88/112/44 24/102/44 23/34/44
f 59/87/45 62/46/45 50/134/45 51/135/45 45/49/45 47/6/45 20/5/45 49/116/45 48/121/45 18/88/45
f 56/81/46 57/80/46 53/136/46 52/137/46 55/90/46
f 11/131/47 85/138/47 82/139/47 38/100/47 32/99/47
f 89/140/48 92/141/48 17/115/48 4/4/48 1/3/48 6/55/48 90/93/48
f 95/15/49 92/141/49 89/140/49 91/142/49 94/125/49 98/16/49
f 34/96/50 35/76/50 31/75/50 30/132/50
f 91/142/51 93/83/51 94/125/51
f 21/143/52 37/144/52 42/145/52 53/136/52 57/80/52 28/79/52 29/114/52
f 3/89/53 18/88/53 48/121/53 14/124/53
f 68/37/54 76/110/54 74/54/54 70/26/54 69/31/54
f 101/19/55 14/124/55 15/123/55 16/122/55 17/115/55 92/141/55 95/15/55
f 97/86/56 100/17/56 98/16/56
f 26/22/57 77/21/57 25/103/57 24/102/57 88/112/57
f 2/61/58 3/89/58 14/124/58 101/19/58 102/18/58 99/85/58 9/60/58
f 96/84/59 93/83/59 91/142/59 89/140/59 90/93/59
f 21/143/60 29/114/60 87/113/60 22/33/60 12/32/60 30/146/60 31/147/60
