# Blender v2.79 (sub 0) OBJ File: ''
# www.blender.org
mtllib magmaberg.mtl
o Cube
v 1.282719 -0.307572 -1.380704
v -1.292971 -0.319645 -1.399676
v 1.041774 0.143547 -2.120304
v 0.751579 0.140963 -2.334284
v -0.748046 0.138651 -2.313427
v 1.048443 -0.150937 -2.134993
v 0.755475 -0.143131 -2.356978
v -0.748421 -0.141343 -2.317047
v -2.087865 -0.121152 0.592369
v -2.164854 -0.129872 0.331025
v -2.205296 -0.137535 0.108407
v -2.059744 0.112333 0.595281
v -0.748248 -0.140119 2.315812
v -1.031170 -0.141558 2.096866
v 1.070508 0.159168 2.186429
v -0.744593 0.134906 2.294042
v -1.026724 0.133077 2.086975
v 2.181277 -0.133865 -0.583760
v 2.223210 -0.141825 0.578302
v 1.764699 -0.129043 1.475982
v 2.250823 0.146924 -0.334189
v -1.392888 -0.261739 -1.541678
v -1.043396 0.320100 -1.549171
v -0.031116 0.146981 -2.504782
v -0.031125 -0.149132 -2.515727
v 0.727988 0.190399 -2.237146
v 1.072370 -0.092444 -2.193881
v 1.068019 0.089013 -2.184031
v 0.767281 -0.085924 -2.399777
v 0.772252 -0.028584 -2.416640
v 0.771922 0.028643 -2.414384
v 0.765824 0.085680 -2.390811
v -0.762253 -0.085719 -2.368206
v -0.769452 -0.028809 -2.395937
v -0.769312 0.028360 -2.395626
v -0.762470 0.084737 -2.369806
v -1.073611 -0.031346 -2.199038
v -1.074600 0.028544 -2.201147
v 0.732621 -0.197772 -2.267527
v -0.634175 -0.438564 -0.039495
v -2.206255 -0.138810 -0.241168
v -2.167471 -0.131911 -0.476553
v -1.881265 -0.124910 -1.305108
v -2.166535 0.121487 -0.239710
v -1.860215 0.120157 -1.283638
v -1.320615 0.305452 -1.349163
v -0.546399 -0.469076 0.063598
v -2.153832 -0.184355 0.106818
v -2.081012 -0.224555 0.104649
v -2.101883 0.068099 0.601893
v -2.127216 0.021339 0.604964
v -2.135384 -0.026751 0.604316
v -2.123133 -0.074844 0.600082
v -2.235384 -0.085776 0.109397
v -2.039375 0.203456 0.104193
v -2.113752 0.166049 0.106255
v -1.035380 -0.310936 1.536939
v 0.947927 -0.153061 2.285940
v 0.031145 -0.150059 2.522116
v 1.010348 0.157097 2.237294
v 0.031145 0.148786 2.514755
v -0.636249 -0.494913 0.740452
v 1.093885 0.096305 2.240023
v 1.103863 0.032180 2.261460
v 1.103946 -0.032187 2.261623
v 1.094225 -0.096370 2.240754
v -0.759834 0.083014 2.355407
v -0.767973 0.027828 2.388396
v -0.769135 -0.028831 2.394975
v -0.762947 -0.085524 2.372843
v -1.048686 0.081670 2.141921
v -1.061641 0.026484 2.173823
v -1.064592 -0.030773 2.180418
v -1.054411 -0.087951 2.154770
v 1.027156 0.216289 2.078568
v -0.722815 0.180974 2.205074
v -0.997140 0.178707 2.012507
v -0.625430 0.426645 1.056689
v 2.303913 -0.168591 0.065958
v 2.299574 0.166168 0.021973
v 2.247433 0.146231 0.475825
v 2.179542 -0.193385 0.570904
v 1.725448 -0.176861 1.444085
v 1.759035 0.070663 -1.427917
v 1.776773 0.023225 -1.447561
v 1.779897 -0.025491 -1.453550
v 1.767393 -0.074052 -1.444060
v 2.207417 0.080189 -0.590280
v 2.229541 0.026780 -0.592465
v 2.233025 -0.028173 -0.592037
v 2.217818 -0.082540 -0.589186
v 2.300930 0.030445 -0.339223
v 2.302726 -0.031206 -0.339319
v 2.247509 0.085911 0.583550
v 2.261315 0.028802 0.585958
v 2.261894 -0.028997 0.585872
v 1.793705 0.022959 1.477603
v 1.797705 -0.027581 1.489749
v 1.787949 -0.078654 1.489446
v 2.195861 0.196380 -0.329091
v 2.241610 0.215394 -0.108566
v 0.198006 -0.698336 0.547175
v 0.190641 -0.710734 0.486079
v 0.065986 -0.723737 0.512546
v -0.067534 -0.725417 0.513459
v -0.178200 -0.670962 0.014731
v -0.237141 -0.699434 -0.481497
v -0.142755 -0.718293 -0.488651
v -0.014399 -0.724674 -0.490185
v 0.211266 -0.697839 -0.480116
v -0.151502 -0.690228 -0.587843
v 2.202836 0.198672 0.469643
v 2.188774 0.195118 0.518733
v 2.250362 0.220330 0.021704
v 2.180761 0.263706 0.021376
v 2.085562 0.294810 0.020938
v 2.136672 0.024676 0.891191
v 2.197866 0.080856 0.713683
v 2.120275 0.075238 0.884815
v 2.333958 -0.104330 0.022193
v 2.349170 -0.035393 0.022332
v 2.348471 0.034828 0.022332
v 2.331928 0.103224 0.022194
v 2.331381 0.103026 0.066624
v 2.109116 -0.304547 0.020964
v 2.199161 -0.272351 0.021403
v 2.260873 -0.226134 0.021711
v 2.260765 -0.225902 0.065175
v 0.030018 0.197710 2.428100
v 1.188807 0.311569 1.590423
v -0.709000 0.027880 2.412655
v -0.702068 0.083162 2.383337
v 0.031991 -0.092234 2.563810
v 0.032453 -0.031098 2.581894
v -0.032434 -0.031055 2.580834
v 0.032450 0.031034 2.581188
v -0.032428 0.030967 2.579965
v 0.031988 0.091842 2.560860
v 0.964486 -0.091443 2.329052
v 0.971467 -0.030366 2.345654
v 0.971421 0.030368 2.345524
v 1.031189 0.094570 2.288071
v 0.964253 0.091442 2.328317
v 0.030003 -0.200974 2.441578
v 0.913745 -0.211903 2.184759
v -0.647214 -0.435918 1.013859
v -0.365267 -0.462347 1.010283
v 0.456235 -0.503408 0.859774
v 0.696262 -0.477182 0.749883
v -1.207564 -0.278685 1.534880
v -1.913773 -0.076292 -1.327035
v -1.928693 -0.026016 -1.336167
v -1.925114 0.024535 -1.332308
v -1.902699 0.073845 -1.315323
v -2.197312 -0.081620 -0.481640
v -2.233419 -0.086565 -0.243254
v -2.243887 -0.032428 -0.244173
v -2.236826 0.021727 -0.243902
v -2.211761 0.073815 -0.242432
v -1.829258 -0.170318 -1.268296
v -2.158240 -0.186644 -0.237748
v -1.305815 -0.343575 0.151629
v -1.023610 -0.393583 -0.632175
v -1.081018 -0.398478 -0.663016
v -1.074862 -0.403915 -0.704264
v -0.977154 -0.397075 0.104203
v -1.050741 -0.389733 0.137829
v -0.756052 -0.413245 0.123115
v -0.805045 -0.405030 0.153257
v -1.471554 0.214604 -1.553016
v -0.917361 -0.436709 -0.710928
v -0.786229 -0.453408 -0.700636
v -0.310696 -0.495237 -0.887363
v 0.694857 -0.476205 -0.749859
v -0.029976 -0.199980 -2.434579
v -0.031943 0.090976 -2.554328
v -0.032392 0.030704 -2.576078
v -0.032396 -0.030969 -2.577177
v -0.031951 -0.091619 -2.558110
v 0.950726 0.088940 -2.285516
v 0.962084 0.029883 -2.317969
v 0.963226 -0.030433 -2.321648
v 0.954016 -0.090593 -2.296559
v -0.030017 0.194670 -2.415638
v -0.825641 -0.420970 -0.922963
vt 0.061535 0.071706
vt 0.055183 0.063824
vt 0.157302 0.010165
vt 0.166134 0.009822
vt 0.170575 0.022950
vt 0.869195 0.365409
vt 0.837658 0.343812
vt 0.846377 0.346629
vt 0.359685 0.552096
vt 0.356476 0.546307
vt 0.430344 0.506005
vt 0.434167 0.510107
vt 0.777360 0.226298
vt 0.709508 0.320887
vt 0.691733 0.302213
vt 0.765140 0.218804
vt 0.769206 0.212829
vt 0.051899 0.059456
vt 0.146747 0.005574
vt 0.155334 0.003773
vt 0.991928 0.126815
vt 1.000000 0.168938
vt 0.993158 0.172285
vt 0.985853 0.130758
vt 0.510701 0.542293
vt 0.510426 0.538580
vt 0.518433 0.540793
vt 0.521119 0.575273
vt 0.522903 0.602560
vt 0.516811 0.604296
vt 0.570988 0.932974
vt 0.564049 0.931920
vt 0.564542 0.824671
vt 0.571477 0.824985
vt 0.016110 0.150917
vt 0.007981 0.189495
vt 0.000000 0.185133
vt 0.007678 0.144669
vt 0.589611 0.867433
vt 0.593492 0.924425
vt 0.588489 0.922945
vt 0.586802 0.897687
vt 0.585416 0.866327
vt 0.502012 0.583375
vt 0.498615 0.560994
vt 0.497235 0.549267
vt 0.503513 0.545092
vt 0.507823 0.579189
vt 0.553173 0.587142
vt 0.557825 0.690500
vt 0.552260 0.692366
vt 0.547289 0.591034
vt 0.596018 0.604322
vt 0.592817 0.643498
vt 0.587176 0.645722
vt 0.590293 0.606415
vt 0.797903 0.329545
vt 0.797906 0.313611
vt 0.761307 0.289247
vt 0.729014 0.337604
vt 0.720399 0.330838
vt 0.788546 0.236722
vt 0.855432 0.261136
vt 0.826860 0.325969
vt 0.820441 0.324781
vt 0.539456 0.954808
vt 0.532787 0.956568
vt 0.534927 0.876730
vt 0.541216 0.875608
vt 0.526301 0.540606
vt 0.533958 0.541744
vt 0.535076 0.603048
vt 0.529071 0.602136
vt 0.528033 0.575020
vt 0.385038 0.066343
vt 0.389914 0.069519
vt 0.427737 0.104866
vt 0.436894 0.116885
vt 0.421890 0.110646
vt 0.853253 0.216023
vt 0.877331 0.237846
vt 0.809226 0.531316
vt 0.751484 0.521192
vt 0.753060 0.500917
vt 0.931690 0.430342
vt 0.938374 0.435820
vt 0.913100 0.466500
vt 0.547289 0.872856
vt 0.545620 0.951050
vt 0.490099 0.387178
vt 0.482279 0.428881
vt 0.472843 0.422543
vt 0.413960 0.118410
vt 0.449859 0.139638
vt 0.563572 0.689017
vt 0.563802 0.806154
vt 0.557415 0.823587
vt 0.635985 0.797795
vt 0.641675 0.797388
vt 0.643472 0.893608
vt 0.644447 0.917245
vt 0.638348 0.918013
vt 0.785627 0.422672
vt 0.748390 0.422346
vt 0.707255 0.378819
vt 0.714068 0.340216
vt 0.761269 0.399723
vt 0.771628 0.410919
vt 0.238741 0.537984
vt 0.186366 0.544955
vt 0.081893 0.478387
vt 0.059943 0.444276
vt 0.066169 0.438728
vt 0.235577 0.508678
vt 0.273660 0.504128
vt 0.423564 0.498391
vt 0.609846 0.601291
vt 0.603216 0.598848
vt 0.615317 0.542462
vt 0.616677 0.538580
vt 0.623618 0.540510
vt 0.602332 0.604757
vt 0.599234 0.643828
vt 0.609033 0.607508
vt 0.606020 0.646189
vt 0.527025 0.712150
vt 0.521505 0.712037
vt 0.487877 0.432396
vt 0.532535 0.712309
vt 0.535328 0.852966
vt 0.528543 0.852859
vt 0.504978 0.381243
vt 0.512999 0.423814
vt 0.509471 0.426570
vt 0.501517 0.402804
vt 0.499258 0.384460
vt 0.569319 0.688014
vt 0.565924 0.583682
vt 0.572110 0.492505
vt 0.520945 0.417817
vt 0.539766 0.296649
vt 0.633817 0.287600
vt 0.571109 0.806470
vt 0.842009 0.000000
vt 0.936070 0.051312
vt 0.929609 0.058566
vt 0.836681 0.011680
vt 0.548056 0.546041
vt 0.555121 0.540167
vt 0.562879 0.538593
vt 0.584688 0.931514
vt 0.577955 0.932856
vt 0.578291 0.824910
vt 0.585057 0.824433
vt 0.630325 0.797859
vt 0.629688 0.654408
vt 0.636417 0.654498
vt 0.110585 0.244432
vt 0.220718 0.053092
vt 0.642757 0.614935
vt 0.636298 0.613109
vt 0.637547 0.538580
vt 0.644396 0.540190
vt 0.497235 0.263766
vt 0.523125 0.153102
vt 0.526004 0.155572
vt 0.949991 0.222150
vt 0.773083 0.164719
vt 0.745185 0.155476
vt 0.575075 0.108265
vt 0.001893 0.140277
vt 0.004562 0.133251
vt 0.577843 0.939181
vt 0.570888 0.939310
vt 0.164164 0.002981
vt 0.351921 0.039303
vt 0.371301 0.048068
vt 0.393268 0.065172
vt 0.557378 0.929373
vt 0.567956 0.101098
vt 0.611326 0.054156
vt 0.714303 0.012986
vt 0.629881 0.613140
vt 0.630626 0.538692
vt 0.612933 0.650409
vt 0.611470 0.863679
vt 0.605647 0.865575
vt 0.649131 0.618274
vt 0.647238 0.796694
vt 0.537858 0.712447
vt 0.969675 0.387799
vt 0.956570 0.416872
vt 0.964560 0.235827
vt 0.649183 0.891659
vt 0.656713 0.845651
vt 0.650940 0.659061
vt 0.659922 0.538580
vt 0.659922 0.853051
vt 0.632282 0.917488
vt 0.599957 0.866871
vt 0.622886 0.955701
vt 0.616764 0.958746
vt 0.623618 0.916930
vt 0.896727 0.488167
vt 0.811334 0.538580
vt 0.917384 0.470508
vt 0.521663 0.851159
vt 0.521487 0.832918
vt 0.495208 0.408537
vt 0.497235 0.390370
vt 0.943307 0.439660
vt 0.610567 0.960509
vt 0.650940 0.543800
vt 0.525872 0.956589
vt 0.528501 0.876671
vt 0.973707 0.389827
vt 0.454920 0.135464
vt 0.470891 0.160890
vt 0.497235 0.269463
vt 0.563690 0.088786
vt 0.608809 0.049996
vt 0.566591 0.092332
vt 0.575729 0.995142
vt 0.575527 0.999393
vt 0.569197 1.000000
vt 0.615955 0.612776
vt 0.789267 0.419517
vt 0.786826 0.412280
vt 0.574930 0.687563
vt 0.572408 0.583677
vt 0.573087 0.615745
vt 0.594541 0.867558
vt 0.624866 0.797564
vt 0.626485 0.915632
vt 0.027497 0.397116
vt 0.563348 0.096150
vt 0.578709 0.598147
vt 0.578707 0.616891
vt 0.578784 0.584817
vt 0.645075 0.948113
vt 0.650366 0.915248
vt 0.650940 0.945615
vt 0.163524 0.000000
vt 0.280082 0.013376
vt 0.352920 0.037191
vt 0.578330 0.806392
vt 0.669091 0.542310
vt 0.675027 0.538580
vt 0.675027 0.721292
vt 0.669976 0.720639
vt 0.659922 0.666150
vt 0.431926 0.100659
vt 0.604506 0.961113
vt 0.598800 0.960579
vt 0.540736 0.540399
vt 0.546974 0.543914
vt 0.547289 0.547580
vt 0.540631 0.605504
vt 0.684654 0.539032
vt 0.684654 0.722308
vt 0.682275 0.723930
vt 0.675027 0.681901
vt 0.681783 0.538580
vt 0.566741 0.499664
vt 0.570756 0.538580
vt 0.578575 0.543055
vt 0.521929 0.875285
vt 0.541860 0.851492
vt 0.641428 0.538580
vt 0.585081 0.577780
vt 0.578404 0.540124
vt 0.585416 0.543230
vt 0.562749 0.998023
vt 0.541897 0.833059
vt 0.585335 0.815216
vt 0.585416 0.805915
vt 0.939744 0.047492
vt 0.623618 0.614858
vt 0.623906 0.540566
vt 0.185361 0.550862
vt 0.078469 0.481983
vt 0.518978 0.954823
vn 0.1224 0.9060 0.4052
vn -0.1848 -0.9634 -0.1942
vn -0.1873 0.6950 -0.6942
vn 0.1132 -0.9936 -0.0052
vn 0.1875 0.7016 0.6874
vn -0.4125 -0.7273 0.5485
vn 0.8817 0.4376 -0.1765
vn 0.2346 -0.2786 0.9313
vn -0.1913 0.8772 0.4405
vn -0.8552 -0.4720 0.2141
vn 0.7455 0.6498 -0.1483
vn 0.6488 -0.6780 0.3456
vn -0.5445 -0.3899 0.7426
vn -0.3209 -0.9465 -0.0345
vn 0.1879 -0.2927 -0.9376
vn 0.9040 -0.3883 -0.1786
vn 0.4873 0.8704 0.0701
vn -0.1969 -0.9301 0.3100
vn -0.2734 -0.9576 -0.0912
vn 0.1614 -0.5982 -0.7849
vn 0.2354 0.9542 -0.1847
vn 0.5144 -0.6983 0.4977
vn -0.9588 0.0542 -0.2787
vn -0.2168 -0.9305 -0.2953
vn -0.3375 0.9354 -0.1050
vn -0.1626 0.9415 -0.2952
vn -0.2039 0.4777 0.8545
vn -0.5854 0.1140 0.8027
vn -0.4899 0.5055 0.7103
vn 0.8034 0.4108 -0.4309
vn 0.9915 0.0189 -0.1289
vn 0.1541 0.6914 -0.7059
vn 0.7264 0.0888 -0.6815
vn 0.3856 -0.7311 -0.5628
vn 0.8427 -0.3246 0.4296
vn 0.0096 -0.9758 -0.2183
vn 0.5170 -0.3079 0.7987
vn 0.1287 -0.8597 0.4943
vn 0.9415 -0.2963 0.1603
vn 0.2317 0.2995 0.9255
vn -0.7122 0.0278 -0.7015
vn -0.0040 0.9845 0.1753
vn 0.7192 -0.2412 0.6516
vn -0.6737 -0.3208 -0.6657
vn -0.2295 -0.3728 -0.8991
vn 0.4019 -0.8706 -0.2836
vn -0.0742 -0.9923 0.0994
vn 0.0957 -0.9902 0.1014
vn -0.1865 0.7387 0.6477
vn -0.0176 0.0127 0.9998
vn 0.5521 0.7394 0.3853
vn 0.1992 -0.5865 0.7851
vn 0.2139 -0.9636 0.1605
vn -0.2383 0.0118 -0.9711
vn -0.6111 0.6753 0.4129
vn -0.4627 -0.7183 -0.5195
vn 0.8482 -0.2821 -0.4483
vn 0.0403 0.9982 -0.0435
vn -0.4431 -0.8575 0.2614
vn -0.7797 -0.5651 -0.2695
vn 0.7196 -0.5226 -0.4572
vn -0.9556 0.1079 -0.2743
vn -0.7394 0.4496 0.5012
vn -0.8186 0.5636 0.1104
vn 0.0416 -0.8683 0.4943
vn -0.5419 -0.8208 -0.1806
vn 0.6840 0.3533 -0.6383
vn 0.3502 0.7895 -0.5041
vn -0.6842 -0.7281 0.0430
vn -0.8841 0.4526 0.1162
vn -0.2050 -0.6393 -0.7411
vn 0.1963 0.0282 -0.9801
vn -0.6278 -0.6494 0.4291
vn 0.4008 0.8740 -0.2749
vn 0.7662 -0.6229 0.1581
vn -0.2481 -0.0094 0.9687
vn -0.3980 0.7454 0.5347
vn -0.1798 -0.9834 0.0229
vn 0.8705 -0.1996 0.4500
vn -0.1727 0.9836 0.0520
vn -0.5402 -0.0168 -0.8413
vn -0.1519 -0.9575 0.2452
vn 0.2437 0.0067 0.9698
vn -0.7835 -0.3184 0.5337
vn -0.8597 0.4474 -0.2463
vn -0.3260 0.9254 0.1934
vn 0.2848 -0.9364 -0.2052
vn 0.1077 0.8868 -0.4494
vn 0.8949 0.2389 0.3770
vn -0.8719 -0.4861 -0.0598
vn 0.5717 0.7006 0.4270
vn 0.4180 -0.9084 -0.0019
vn 0.7438 0.0973 0.6612
vn -0.5106 0.6681 -0.5412
vn 0.7426 0.6603 0.1125
vn -0.9667 0.2254 0.1212
vn 0.8288 -0.5305 -0.1778
vn 0.3389 0.9159 0.2153
vn -0.4577 0.7402 -0.4925
vn 0.2793 -0.9100 0.3064
vn 0.5358 0.0025 0.8444
vn 0.1122 -0.8515 -0.5122
vn 0.9830 0.0968 0.1558
vn -0.1441 -0.9474 0.2857
vn 0.4483 0.0507 -0.8925
vn 0.4200 0.4449 -0.7910
vn -0.4531 -0.8837 0.1169
vn 0.4307 -0.3491 -0.8322
vn -0.2488 -0.8976 -0.3639
vn 0.9041 0.0725 -0.4211
vn 0.9438 0.2765 -0.1809
vn -0.8214 0.1182 0.5579
vn -0.9814 0.1451 0.1257
vn 0.8881 0.4313 0.1589
vn -0.2112 -0.4182 0.8835
vn 0.7097 -0.2153 -0.6707
vn 0.5221 0.2843 0.8041
vn -0.1902 -0.6609 0.7259
vn 0.5368 -0.8337 0.1292
vn -0.2254 0.3799 -0.8971
vn -0.6794 0.7065 -0.1980
vn 0.1870 0.3619 -0.9133
usemtl Material
s off
f 129/1/1 61/2/1 60/3/1 15/4/1 75/5/1
f 162/6/2 166/7/2 167/8/2
f 36/9/3 5/10/3 24/11/3 176/12/3
f 104/13/4 109/14/4 110/15/4 103/16/4 102/17/4
f 60/3/5 61/2/5 138/18/5 143/19/5 142/20/5
f 70/21/6 74/22/6 14/23/6 13/24/6
f 123/25/7 124/26/7 122/27/7 92/28/7 89/29/7 88/30/7
f 134/31/8 133/32/8 139/33/8 140/34/8
f 76/35/9 77/36/9 17/37/9 16/38/9 61/2/9 129/1/9
f 53/39/10 54/40/10 11/41/10 10/42/10 9/43/10
f 100/44/11 101/45/11 114/46/11 80/47/11 21/48/11
f 19/49/12 20/50/12 83/51/12 82/52/12
f 69/53/13 73/54/13 74/55/13 70/56/13
f 40/57/14 47/58/14 106/59/14 107/60/14 108/61/14 109/14/14 104/13/14 105/62/14 62/63/14 169/64/14 168/65/14
f 179/66/15 178/67/15 30/68/15 29/69/15
f 121/70/16 120/71/16 91/72/16 90/73/16 93/74/16
f 113/75/17 112/76/17 114/77/17 101/78/17 115/79/17
f 147/80/18 146/81/18 62/63/18 105/62/18
f 160/82/19 22/83/19 2/84/19 49/85/19 48/86/19 161/87/19
f 7/88/20 25/89/20 179/66/20 29/69/20
f 3/90/21 4/91/21 26/92/21 116/93/21 115/79/21 101/78/21 100/94/21
f 99/95/22 66/96/22 139/33/22 58/97/22 83/51/22 20/50/22
f 152/98/23 151/99/23 155/100/23 156/101/23 157/102/23
f 165/103/24 185/104/24 173/105/24 111/106/24 108/61/24 107/60/24 172/107/24 171/108/24
f 170/109/25 45/110/25 44/111/25 56/112/25 55/113/25 46/114/25
f 23/115/26 184/116/26 24/11/26 5/10/26 170/109/26 46/114/26
f 132/117/27 131/118/27 137/119/27 136/120/27 138/121/27
f 68/122/28 72/123/28 73/54/28 69/53/28
f 67/124/29 71/125/29 72/123/29 68/122/29 131/118/29 132/117/29
f 88/30/30 89/29/30 85/126/30 84/127/30
f 122/27/31 121/70/31 93/74/31 92/28/31
f 32/128/32 176/12/32 24/11/32 4/91/32
f 85/126/33 86/129/33 182/130/33 181/131/33
f 6/132/34 7/133/34 29/134/34 183/135/34 27/136/34
f 98/137/35 99/95/35 20/50/35 19/49/35 96/138/35
f 111/106/36 173/105/36 185/104/36 2/84/36 22/83/36 175/139/36 39/140/36 1/141/36 174/142/36 110/15/36 109/14/36 108/61/36
f 65/143/37 140/34/37 139/33/37 66/96/37
f 58/144/38 59/145/38 144/146/38 145/147/38
f 19/49/39 79/148/39 120/149/39 121/150/39 96/138/39
f 138/151/40 136/152/40 141/153/40 143/154/40
f 152/98/41 153/155/41 38/156/41 37/157/41
f 78/158/42 76/35/42 129/1/42 75/5/42 130/159/42
f 98/137/43 65/143/43 66/96/43 99/95/43
f 151/99/44 152/98/44 37/157/44
f 33/160/45 34/161/45 178/162/45 179/163/45
f 6/132/46 27/136/46 87/164/46 91/165/46 18/166/46
f 169/64/47 167/8/47 166/7/47 168/65/47
f 145/147/48 144/146/48 57/167/48 146/81/48 147/80/48 148/168/48 149/169/48 174/142/48 1/141/48 125/170/48
f 61/2/49 16/38/49 67/171/49 132/172/49 138/18/49
f 134/31/50 136/152/50 137/173/50 135/174/50
f 15/4/51 60/3/51 142/20/51 63/175/51 119/176/51 118/177/51 81/178/51 112/76/51 113/75/51
f 139/33/52 133/32/52 59/179/52 58/97/52
f 58/144/53 145/147/53 125/170/53 126/180/53 82/181/53 83/182/53
f 34/161/54 35/183/54 177/184/54 178/162/54
f 17/185/55 12/186/55 50/187/55 71/125/55
f 8/188/56 43/189/56 151/99/56 37/157/56 34/161/56 33/160/56
f 86/129/57 90/73/57 91/72/57 87/190/57
f 78/158/58 130/159/58 116/93/58 26/92/58 184/116/58 23/115/58
f 9/191/59 10/192/59 48/86/59 49/85/59 150/193/59 14/23/59
f 151/99/60 43/189/60 42/194/60 155/100/60
f 125/195/61 1/196/61 39/197/61 126/198/61
f 153/155/62 152/98/62 157/102/62 158/199/62
f 71/125/63 50/187/63 51/200/63 72/123/63
f 44/201/64 159/202/64 50/187/64 12/186/64 56/203/64
f 102/17/65 148/168/65 147/80/65 105/62/65 104/13/65
f 42/204/66 43/205/66 160/82/66 161/87/66 41/206/66
f 84/127/67 85/126/67 181/131/67 180/207/67 28/208/67
f 180/209/68 32/128/68 4/91/68 3/90/68 28/210/68
f 11/211/69 41/206/69 161/87/69 48/86/69 10/192/69
f 159/202/70 158/212/70 51/200/70 50/187/70
f 25/213/71 8/188/71 33/160/71 179/163/71
f 178/67/72 177/214/72 31/215/72 30/68/72
f 74/22/73 53/216/73 9/191/73 14/23/73
f 21/217/74 88/218/74 84/219/74 28/210/74 3/90/74 100/94/74
f 79/220/75 19/221/75 82/181/75 128/222/75
f 131/223/76 68/224/76 69/225/76 135/174/76 137/173/76
f 16/226/77 17/185/77 71/125/77 67/124/77
f 165/103/78 164/227/78 163/228/78 171/108/78 172/107/78 40/57/78 168/65/78 166/7/78 162/6/78 167/8/78 169/64/78 62/63/78 146/81/78 57/167/78 150/193/78 49/85/78 2/84/78 185/104/78
f 97/229/79 98/137/79 96/138/79 95/230/79 117/231/79
f 55/113/80 77/36/80 76/35/80 78/158/80 23/115/80 46/114/80
f 34/161/81 37/157/81 38/156/81 35/183/81
f 171/108/82 163/228/82 164/227/82 165/103/82
f 136/152/83 134/31/83 140/34/83 141/153/83
f 73/54/84 52/232/84 53/39/84 74/55/84
f 154/233/85 153/155/85 158/199/85 159/234/85
f 12/235/86 17/37/86 77/36/86 55/113/86 56/112/86
f 39/140/87 7/133/87 6/132/87 18/166/87 127/236/87 126/180/87
f 4/91/88 24/11/88 184/116/88 26/92/88
f 118/237/89 119/238/89 117/231/89 95/230/89 94/239/89
f 54/240/90 156/101/90 155/100/90 42/194/90 41/241/90 11/242/90
f 63/175/91 64/243/91 97/244/91 117/245/91 119/176/91
f 149/169/92 103/16/92 110/15/92 174/142/92
f 64/246/93 65/143/93 98/137/93 97/229/93
f 5/247/94 36/248/94 154/249/94 45/250/94 170/251/94
f 80/252/95 114/77/95 112/76/95 81/178/95
f 52/232/96 157/253/96 156/254/96 54/40/96 53/39/96
f 120/71/97 79/255/97 128/256/97 127/257/97 18/258/97 91/72/97
f 113/75/98 115/79/98 116/93/98 130/159/98 75/5/98 15/4/98
f 154/259/99 36/260/99 35/261/99 38/262/99 153/263/99
f 148/168/100 102/17/100 103/16/100 149/169/100
f 64/246/101 141/153/101 140/34/101 65/143/101
f 39/140/102 175/139/102 25/264/102 7/133/102
f 95/230/103 96/138/103 121/150/103 122/265/103 124/266/103 94/239/103
f 13/24/104 14/23/104 150/193/104 57/167/104 144/146/104 59/145/104
f 182/130/105 30/68/105 31/215/105 181/131/105
f 181/131/106 31/215/106 32/267/106 180/207/106
f 107/60/107 106/59/107 47/58/107 40/57/107 172/107/107
f 183/268/108 29/69/108 30/68/108 182/130/108
f 22/83/109 160/82/109 43/205/109 8/269/109 25/264/109 175/139/109
f 89/29/110 92/28/110 93/74/110 90/73/110 86/129/110 85/126/110
f 21/48/111 80/47/111 123/25/111 88/30/111
f 51/200/112 52/232/112 73/54/112 72/123/112
f 51/200/113 158/212/113 157/253/113 52/232/113
f 81/270/114 118/237/114 94/239/114 124/266/114 123/271/114 80/272/114
f 69/225/115 70/273/115 133/32/115 134/31/115 135/174/115
f 86/129/116 87/190/116 27/274/116 183/268/116 182/130/116
f 142/275/117 143/154/117 141/153/117 64/246/117 63/276/117
f 70/21/118 13/24/118 59/145/118 133/277/118
f 82/181/119 126/180/119 127/236/119 128/222/119
f 35/183/120 36/278/120 176/279/120 177/184/120
f 44/111/121 45/110/121 154/280/121 159/281/121
f 177/214/122 176/282/122 32/267/122 31/215/122
