# Blender v2.79 (sub 0) OBJ File: ''
# www.blender.org
mtllib orb.mtl
o Cube
v -0.133803 0.139584 -1.700000
v 0.142542 2.644596 0.123721
v -0.142542 2.644596 0.123721
v -0.763978 1.401348 0.705509
v 0.286297 0.111438 -1.721353
v 0.921120 1.000411 -1.048841
v -0.521970 -0.339470 -1.646075
v -1.750947 0.220289 -0.264788
v -1.617086 0.471881 0.401789
v -0.830757 0.666080 1.317989
v 1.739957 0.110000 0.059822
v 1.706197 0.373968 0.285474
v 1.753269 -0.246206 -0.178636
v -0.141917 2.591976 -0.206109
v -0.188972 2.616171 -0.123684
v -0.205855 -2.592152 -0.142091
v -0.205855 -2.592152 0.142091
v 0.123908 -2.671414 -0.047559
v 0.123546 -2.615975 0.189181
v 1.060641 -1.121716 1.038696
v 0.743807 -1.452655 0.789841
v -0.041195 -2.640739 -0.189522
v -0.765778 -1.342386 -0.728038
v -0.491071 -1.704510 -0.454260
v -0.499737 1.839997 -0.441409
v 0.047333 2.628248 -0.206608
v 0.189344 2.641219 -0.041236
v 0.486011 1.835126 -0.436072
v 0.736542 1.398922 -0.751741
v 0.978164 1.001809 -0.994267
v 1.617446 0.535238 0.449286
v 1.739675 -0.223930 0.083168
v 1.763336 0.181567 -0.187650
v 1.047664 0.900816 1.101935
v -0.546259 0.410929 1.616334
v 0.123061 0.382919 1.732113
v 0.114953 -0.148680 1.816278
v -0.416575 -0.442032 1.648084
v -0.888389 -0.999721 1.143690
v 1.132532 -0.968503 1.108174
v -1.372445 0.796246 0.704219
v -1.783011 -0.124119 -0.206859
v -1.697003 -0.164766 0.298950
v -1.344034 -0.726444 -0.786341
v 1.101728 -0.976373 -1.040705
v 0.184842 -0.166682 -1.748298
v -0.952455 1.021217 -1.100981
v -1.007127 -0.820242 -1.188132
vt 0.998861 0.757735
vt 0.809441 0.825853
vt 0.764873 0.754412
vt 0.752598 0.638045
vt 0.949032 0.454377
vt 0.988626 0.474540
vt 0.986374 0.665879
vt 1.000000 0.733751
vt 0.545990 0.782301
vt 0.490607 0.855454
vt 0.437782 0.792034
vt 0.468529 0.736479
vt 0.238455 0.086752
vt 0.309564 0.065376
vt 0.418918 0.010327
vt 0.437782 0.022911
vt 0.402255 0.280658
vt 0.297132 0.266451
vt 0.265654 0.270770
vt 0.219624 0.281833
vt 0.197695 0.254967
vt 0.178589 0.109560
vt 0.172841 0.105907
vt 0.450439 0.584747
vt 0.700359 0.446206
vt 0.728869 0.469046
vt 0.686572 0.664210
vt 0.610119 0.767370
vt 0.739004 0.871862
vt 0.551858 0.924727
vt 0.719229 0.771176
vt 0.752598 0.808681
vt 0.752598 0.459524
vt 0.751875 0.464597
vt 0.708650 0.435510
vt 0.735408 0.440846
vt 0.609267 0.232549
vt 0.673989 0.057197
vt 0.762579 0.066210
vt 0.811450 0.105592
vt 0.834097 0.213195
vt 0.834097 0.409413
vt 0.805573 0.412866
vt 0.726023 0.323472
vt 0.657911 0.017701
vt 0.709726 0.000000
vt 0.091634 0.978856
vt 0.072713 0.964722
vt 0.102205 0.838572
vt 0.195895 0.319776
vt 0.165053 0.302037
vt 0.400591 0.000000
vt 0.455277 0.230334
vt 0.440644 0.150123
vt 0.474694 0.046173
vt 0.537187 0.013761
vt 0.100871 1.000000
vt 0.104484 0.769398
vt 0.128998 0.677238
vt 0.233770 0.639372
vt 0.328349 0.665248
vt 0.352243 0.845161
vt 0.437782 0.391142
vt 0.405265 0.455198
vt 0.255025 0.482952
vt 0.793103 0.417325
vt 0.304777 0.613872
vt 0.352243 0.644651
vt 0.056765 0.977982
vt 0.002649 0.812793
vt 0.000000 0.631300
vt 0.020655 0.597579
vt 0.072903 0.663120
vt 0.000000 0.585438
vt 0.016673 0.319347
vt 0.235767 0.494692
vt 0.184378 0.513551
vt 0.030586 0.597579
vt 1.000000 0.453366
vt 0.959434 0.435510
vt 0.983586 0.437253
vt 0.008635 0.183542
vt 0.032817 0.154825
vt 0.437782 0.260553
vt 0.789616 0.435510
vt 0.695452 0.398334
vt 0.621911 0.386164
vt 0.555125 0.371996
vn 0.0236 -0.5672 0.8233
vn -0.2422 0.0598 0.9684
vn 0.8180 0.5741 -0.0352
vn 0.5153 0.6527 -0.5554
vn -0.0369 0.5857 0.8097
vn -0.7380 -0.0433 0.6734
vn -0.0486 0.9948 -0.0890
vn -0.8123 0.5807 -0.0542
vn -0.9807 0.1044 0.1651
vn -0.3622 -0.4107 -0.8368
vn 0.9974 -0.0105 0.0714
vn 0.6294 0.5162 -0.5809
vn -0.6963 0.0772 -0.7136
vn -0.0162 -0.5827 -0.8126
vn 0.7136 0.0158 0.7004
vn -0.6849 0.4936 -0.5359
vn -0.1138 0.0382 -0.9928
vn -0.8297 -0.5573 0.0309
vn 0.8239 -0.5663 0.0210
vn -0.6510 -0.6485 -0.3945
vn -0.5585 0.5603 0.6117
vn -0.1883 -0.9768 0.1022
vn 0.7146 0.0390 -0.6984
vn 0.0191 0.5571 -0.8302
usemtl Material
s off
f 40/1/1 37/2/1 38/3/1 39/4/1 17/5/1 19/6/1 21/7/1 20/8/1
f 35/9/2 38/10/2 37/11/2 36/12/2
f 29/13/3 28/14/3 27/15/3 2/16/3 34/17/3 31/18/3 12/19/3 11/20/3 33/21/3 30/22/3
f 29/13/4 30/22/4 6/23/4
f 36/12/5 34/24/5 2/25/5 3/26/5 4/27/5 10/28/5 35/9/5
f 43/29/6 39/30/6 38/10/6 35/9/6 10/28/6 41/31/6 9/32/6
f 14/33/7 15/34/7 3/26/7 2/25/7 27/35/7 26/36/7
f 47/37/8 8/38/8 9/39/8 41/40/8 4/41/8 3/42/8 15/43/8 25/44/8
f 9/39/9 8/38/9 42/45/9 43/46/9
f 22/47/10 16/48/10 24/49/10
f 11/20/11 32/50/11 13/51/11 33/21/11
f 26/52/12 27/15/12 28/14/12
f 1/53/13 7/54/13 48/55/13 44/56/13 42/45/13 8/38/13 47/37/13
f 18/57/14 22/47/14 24/49/14 23/58/14 48/59/14 7/60/14 46/61/14 45/62/14
f 34/17/15 36/63/15 37/64/15 40/65/15 32/50/15 11/20/15 12/19/15 31/18/15
f 15/43/16 14/66/16 25/44/16
f 7/60/17 1/67/17 5/68/17 46/61/17
f 17/69/18 39/70/18 43/71/18 42/72/18 44/73/18 23/58/18 24/49/18 16/48/18
f 18/74/19 45/75/19 13/51/19 32/50/19 40/65/19 20/76/19 21/77/19 19/78/19
f 23/58/20 44/73/20 48/59/20
f 4/27/21 41/31/21 10/28/21
f 18/79/22 19/6/22 17/5/22 16/80/22 22/81/22
f 13/51/23 45/75/23 46/82/23 5/83/23 6/23/23 30/22/23 33/21/23
f 5/84/24 1/53/24 47/37/24 25/44/24 14/66/24 26/85/24 28/86/24 29/87/24 6/88/24
