# Blender v2.80 (sub 60) OBJ File: 'Colony device 2.blend'
# www.blender.org
mtllib orb2.mtl
o Circle.000_Circle.003
v 0.000000 1.171409 -1.475975
v -0.435051 1.171409 -1.410402
v -0.831447 1.171409 -1.219508
v -1.153964 1.171409 -0.920256
v -1.373947 1.171409 -0.539234
v -1.471848 1.171409 -0.110300
v -1.438970 1.171409 0.328436
v -1.278232 1.171409 0.737988
v -1.003918 1.171409 1.081967
v -0.640402 1.171409 1.329808
v -0.219982 1.171409 1.459490
v 0.219983 1.171409 1.459490
v 0.640402 1.171409 1.329808
v 1.003919 1.171409 1.081966
v 1.278232 1.171409 0.737988
v 1.438970 1.171409 0.328436
v 1.471848 1.171409 -0.110299
v 1.373947 1.171409 -0.539234
v 1.153965 1.171409 -0.920255
v 0.831448 1.171409 -1.219507
v 0.435053 1.171409 -1.410401
v 0.000000 2.314614 -0.871522
v -0.256886 2.314614 -0.832803
v -0.490946 2.314614 -0.720086
v -0.681384 2.314614 -0.543385
v -0.811277 2.314614 -0.318403
v -0.869085 2.314614 -0.065129
v -0.849671 2.314614 0.193932
v -0.754760 2.314614 0.435761
v -0.592786 2.314614 0.638871
v -0.378139 2.314614 0.785215
v -0.129893 2.314614 0.861788
v 0.129894 2.314614 0.861788
v 0.378140 2.314614 0.785214
v 0.592786 2.314614 0.638871
v 0.754761 2.314614 0.435761
v 0.849672 2.314614 0.193932
v 0.869086 2.314614 -0.065129
v 0.811278 2.314614 -0.318402
v 0.681384 2.314614 -0.543385
v 0.490947 2.314614 -0.720085
v 0.256887 2.314614 -0.832803
v 0.000000 -1.256968 -0.808123
v -0.238198 -1.256968 -0.772220
v -0.455232 -1.256968 -0.667703
v -0.631816 -1.256968 -0.503856
v -0.752261 -1.256968 -0.295240
v -0.805863 -1.256968 -0.060391
v -0.787862 -1.256968 0.179824
v -0.699855 -1.256968 0.404062
v -0.549663 -1.256968 0.592396
v -0.350631 -1.256968 0.728094
v -0.120444 -1.256968 0.799097
v 0.120445 -1.256968 0.799097
v 0.350632 -1.256968 0.728094
v 0.549664 -1.256968 0.592396
v 0.699855 -1.256968 0.404062
v 0.787862 -1.256968 0.179824
v 0.805864 -1.256968 -0.060391
v 0.752261 -1.256968 -0.295240
v 0.631817 -1.256968 -0.503856
v 0.455233 -1.256968 -0.667702
v 0.238199 -1.256968 -0.772220
v 0.000000 -1.690005 -0.229463
v -0.067635 -1.690005 -0.219268
v -0.129261 -1.690005 -0.189591
v -0.179401 -1.690005 -0.143068
v -0.213601 -1.690005 -0.083832
v -0.228821 -1.690005 -0.017148
v -0.223710 -1.690005 0.051060
v -0.198721 -1.690005 0.114732
v -0.156074 -1.690005 0.168208
v -0.099560 -1.690005 0.206739
v -0.034199 -1.690005 0.226900
v 0.034200 -1.690005 0.226900
v 0.099561 -1.690005 0.206739
v 0.156075 -1.690005 0.168208
v 0.198721 -1.690005 0.114732
v 0.223710 -1.690005 0.051060
v 0.228822 -1.690005 -0.017148
v 0.213601 -1.690005 -0.083832
v 0.179402 -1.690005 -0.143068
v 0.129261 -1.690005 -0.189591
v 0.067636 -1.690005 -0.219268
v 0.000000 2.945417 -0.307844
v -0.090738 2.945417 -0.294167
v -0.173414 2.945417 -0.254352
v -0.240682 2.945417 -0.191937
v -0.286564 2.945417 -0.112468
v -0.306983 2.945417 -0.023005
v -0.300125 2.945417 0.068502
v -0.266600 2.945417 0.153922
v -0.209387 2.945417 0.225666
v -0.133568 2.945417 0.277358
v -0.045881 2.945417 0.304406
v 0.045882 2.945417 0.304406
v 0.133569 2.945417 0.277358
v 0.209387 2.945417 0.225666
v 0.266601 2.945417 0.153922
v 0.300126 2.945417 0.068502
v 0.306983 2.945417 -0.023005
v 0.286564 2.945417 -0.112468
v 0.240682 2.945417 -0.191937
v 0.173415 2.945417 -0.254352
v 0.090739 2.945417 -0.294167
vt 0.947915 0.540102
vt 1.000000 0.550601
vt 0.975374 0.716501
vt 0.944619 0.710302
vt 0.294255 0.710371
vt 0.312106 0.752972
vt 0.176156 0.844244
vt 0.165615 0.819089
vt 0.481110 0.855102
vt 0.434938 0.849735
vt 0.421163 0.687409
vt 0.448426 0.690578
vt 0.295494 0.337300
vt 0.337832 0.295796
vt 0.418459 0.394026
vt 0.393459 0.418532
vt 0.579006 0.119886
vt 0.521117 0.133570
vt 0.503529 0.008080
vt 0.537711 0.000000
vt 0.013775 0.579469
vt 0.059947 0.574102
vt 0.027263 0.738626
vt 0.000000 0.741795
vt 0.733269 0.676232
vt 0.715418 0.718833
vt 0.586778 0.610115
vt 0.597319 0.584960
vt 0.112571 0.581493
vt 0.058336 0.742990
vt 0.683200 0.760785
vt 0.567754 0.634887
vt 0.733269 0.601266
vt 0.777767 0.572421
vt 0.844151 0.729386
vt 0.817877 0.746418
vt 0.166971 0.600984
vt 0.090458 0.754499
vt 0.639477 0.798360
vt 0.541937 0.657074
vt 0.831633 0.551519
vt 0.875958 0.717043
vt 0.218313 0.630844
vt 0.120774 0.772130
vt 0.588134 0.828220
vt 0.511621 0.674705
vt 0.890080 0.540417
vt 0.910469 0.710488
vt 0.262036 0.668419
vt 0.146591 0.794317
vt 0.533734 0.847711
vt 0.479499 0.686214
vt 0.251711 0.373617
vt 0.041917 0.107447
vt 0.065889 0.087563
vt 0.635419 0.111380
vt 0.675657 0.446949
vt 0.644770 0.451607
vt 0.826197 0.005158
vt 0.885478 0.000000
vt 0.893931 0.248695
vt 0.861474 0.251519
vt 0.089070 0.064839
vt 0.613075 0.459099
vt 0.770848 0.024772
vt 0.831169 0.262258
vt 0.374963 0.252795
vt 0.109400 0.041295
vt 0.724347 0.057099
vt 0.805709 0.279957
vt 0.403588 0.212116
vt 0.125073 0.019022
vt 0.466897 0.151216
vt 0.583388 0.468760
vt 0.254210 0.418532
vt 0.283995 0.429204
vt 0.421163 0.177373
vt 0.134695 0.000000
vt 0.421163 0.171256
vt 0.558348 0.479733
vt 0.312106 0.445553
vt 0.733269 0.983651
vt 0.705158 1.000000
vt 0.210372 0.401521
vt 0.175152 0.418532
vt 0.000000 0.132039
vt 0.019284 0.122725
vt 0.685345 0.108807
vt 0.724347 0.112397
vt 0.724347 0.447506
vt 0.702993 0.445541
vt 0.943422 0.009756
vt 0.994881 0.033559
vt 0.953831 0.267069
vt 0.925657 0.254036
vt 0.642328 0.531032
vt 0.633899 0.533775
vt 0.787356 0.303045
vt 0.865705 0.354182
vt 0.860494 0.360737
vt 0.975952 0.286635
vt 0.990053 0.310995
vt 0.918049 0.362995
vt 0.914045 0.356078
vt 0.626789 0.536891
vt 0.777741 0.329469
vt 0.857764 0.368240
vt 0.907764 0.350522
vt 0.540179 0.491041
vt 0.621630 0.540102
vt 0.777718 0.356881
vt 0.857757 0.376024
vt 0.899764 0.346822
vt 0.006648 0.034839
vt 0.013074 0.030501
vt 0.667860 0.527182
vt 0.660098 0.527582
vt 0.890755 0.345305
vt 0.019881 0.024855
vt 0.651328 0.528904
vt 0.881539 0.346107
vt 0.026463 0.018403
vt 0.872934 0.349156
vt 0.032236 0.011718
vt 0.994881 0.337985
vt 0.919420 0.370659
vt 0.881497 0.397022
vt 0.872897 0.394384
vt 0.865675 0.389703
vt 0.860475 0.383397
vt 0.918036 0.378388
vt 0.914020 0.385497
vt 0.907730 0.391353
vt 0.899723 0.395436
vt 0.890712 0.397383
vt 1.000000 0.728535
vt 0.952270 0.829635
vt 0.943572 0.825384
vt 0.799468 0.766626
vt 0.887940 0.835951
vt 0.881437 0.843089
vt 0.020551 0.851795
vt 0.010921 0.852915
vt 0.490584 0.548987
vt 0.494307 0.540102
vt 0.031527 0.853337
vt 0.483864 0.557737
vt 0.897221 0.829935
vt 0.042873 0.857402
vt 0.474745 0.565574
vt 0.908455 0.825575
vt 0.053582 0.863630
vt 0.464036 0.571802
vt 0.920646 0.823260
vt 0.062701 0.871467
vt 0.452690 0.575867
vt 0.932709 0.823194
vt 0.069421 0.880217
vt 0.441714 0.577408
vt 0.073144 0.889102
vt 0.432084 0.576289
vt 0.958031 0.835569
vt 0.960343 0.842659
vt 0.959000 0.850275
vt 0.954121 0.857741
vt 0.946140 0.864392
vt 0.935766 0.869639
vt 0.923922 0.873014
vt 0.911658 0.874218
vt 0.900066 0.873144
vt 0.890174 0.869887
vt 0.882863 0.864737
vt 0.878781 0.858152
vt 0.878291 0.850716
vn -0.9257 0.1052 -0.3633
vn -0.9917 0.1052 -0.0743
vn -0.8223 0.5657 -0.0616
vn -0.7676 0.5657 -0.3012
vn 0.5602 0.1052 -0.8216
vn 0.2931 0.1052 -0.9503
vn 0.2430 0.5657 -0.7879
vn 0.4645 0.5657 -0.6813
vn 0.4315 0.1052 0.8960
vn 0.6764 0.1052 0.7290
vn 0.5608 0.5657 0.6044
vn 0.3578 0.5657 0.7429
vn -0.9695 0.1052 0.2213
vn -0.8039 0.5657 0.1835
vn 0.0000 0.1052 -0.9944
vn 0.0000 0.5657 -0.8246
vn 0.8612 0.1052 0.4972
vn 0.7141 0.5657 0.4123
vn -0.8612 0.1052 0.4972
vn -0.7141 0.5657 0.4123
vn 0.9695 0.1052 0.2213
vn 0.8039 0.5657 0.1835
vn -0.6764 0.1052 0.7290
vn -0.5608 0.5657 0.6044
vn -0.2931 0.1052 -0.9503
vn -0.2430 0.5657 -0.7879
vn 0.9917 0.1052 -0.0743
vn 0.8223 0.5657 -0.0616
vn -0.4315 0.1052 0.8960
vn -0.3578 0.5657 0.7429
vn -0.5602 0.1052 -0.8216
vn -0.4645 0.5657 -0.6813
vn 0.9257 0.1052 -0.3633
vn 0.7676 0.5657 -0.3012
vn -0.1482 0.1052 0.9833
vn -0.1229 0.5657 0.8154
vn -0.7775 0.1052 -0.6200
vn -0.6447 0.5657 -0.5141
vn 0.7775 0.1052 -0.6200
vn 0.6447 0.5657 -0.5141
vn 0.1482 0.1052 0.9833
vn 0.1229 0.5657 0.8154
vn -0.7778 -0.5494 -0.3052
vn -0.8332 -0.5494 -0.0624
vn 0.4707 -0.5494 -0.6904
vn 0.2463 -0.5494 -0.7984
vn 0.3625 -0.5494 0.7528
vn 0.5683 -0.5494 0.6125
vn -0.8146 -0.5494 0.1859
vn 0.0000 -0.5494 -0.8355
vn 0.7236 -0.5494 0.4178
vn -0.7236 -0.5494 0.4178
vn 0.8146 -0.5494 0.1859
vn -0.5683 -0.5494 0.6125
vn -0.2463 -0.5494 -0.7984
vn 0.8332 -0.5494 -0.0624
vn -0.3625 -0.5494 0.7528
vn -0.4707 -0.5494 -0.6904
vn 0.7778 -0.5494 -0.3052
vn -0.1245 -0.5494 0.8262
vn -0.6532 -0.5494 -0.5210
vn 0.6532 -0.5494 -0.5210
vn 0.1245 -0.5494 0.8262
vn 0.0000 -0.9396 -0.3423
vn -0.1009 -0.9396 -0.3270
vn 0.3337 -0.9396 0.0761
vn 0.3413 -0.9396 -0.0256
vn -0.2328 -0.9396 0.2509
vn -0.1485 -0.9396 0.3084
vn -0.1928 -0.9396 -0.2828
vn 0.3186 -0.9396 -0.1250
vn -0.0510 -0.9396 0.3384
vn -0.2676 -0.9396 -0.2134
vn 0.2676 -0.9396 -0.2134
vn 0.0510 -0.9396 0.3384
vn -0.3186 -0.9396 -0.1250
vn 0.1928 -0.9396 -0.2828
vn 0.1485 -0.9396 0.3084
vn -0.3413 -0.9396 -0.0256
vn 0.1009 -0.9396 -0.3270
vn 0.2328 -0.9396 0.2509
vn -0.3337 -0.9396 0.0761
vn 0.2964 -0.9396 0.1711
vn -0.2964 -0.9396 0.1711
vn -0.4288 0.8981 0.0978
vn -0.4386 0.8981 -0.0328
vn 0.0000 0.8981 -0.4398
vn 0.1296 0.8981 -0.4203
vn 0.3809 0.8981 0.2199
vn 0.2991 0.8981 0.3224
vn -0.3809 0.8981 0.2199
vn 0.4288 0.8981 0.0978
vn -0.2991 0.8981 0.3224
vn -0.1296 0.8981 -0.4203
vn 0.4386 0.8981 -0.0329
vn -0.1908 0.8981 0.3963
vn -0.2477 0.8981 -0.3634
vn 0.4094 0.8981 -0.1607
vn -0.0655 0.8981 0.4349
vn -0.3439 0.8981 -0.2742
vn 0.3439 0.8981 -0.2742
vn 0.0655 0.8981 0.4349
vn -0.4094 0.8981 -0.1607
vn 0.2477 0.8981 -0.3634
vn 0.1908 0.8981 0.3963
usemtl Explode_Fade
s 1
f 5/1/1 6/2/2 27/3/3 26/4/4
f 20/5/5 21/6/6 42/7/7 41/8/8
f 13/9/9 14/10/10 35/11/11 34/12/12
f 6/13/2 7/14/13 28/15/14 27/16/3
f 21/17/6 1/18/15 22/19/16 42/20/7
f 14/21/10 15/22/17 36/23/18 35/24/11
f 7/25/13 8/26/19 29/27/20 28/28/14
f 15/22/17 16/29/21 37/30/22 36/23/18
f 8/26/19 9/31/23 30/32/24 29/27/20
f 1/33/15 2/34/25 23/35/26 22/36/16
f 16/29/21 17/37/27 38/38/28 37/30/22
f 9/31/23 10/39/29 31/40/30 30/32/24
f 2/34/25 3/41/31 24/42/32 23/35/26
f 17/37/27 18/43/33 39/44/34 38/38/28
f 10/39/29 11/45/35 32/46/36 31/40/30
f 3/41/31 4/47/37 25/48/38 24/42/32
f 18/43/33 19/49/39 40/50/40 39/44/34
f 11/45/35 12/51/41 33/52/42 32/46/36
f 4/47/37 5/1/1 26/4/4 25/48/38
f 19/49/39 20/5/5 41/8/8 40/50/40
f 12/51/41 13/9/9 34/12/12 33/52/42
f 6/13/2 5/53/1 47/54/43 48/55/44
f 21/17/6 20/56/5 62/57/45 63/58/46
f 14/59/10 13/60/9 55/61/47 56/62/48
f 7/14/13 6/13/2 48/55/44 49/63/49
f 1/18/15 21/17/6 63/58/46 43/64/50
f 15/65/17 14/59/10 56/62/48 57/66/51
f 8/67/19 7/14/13 49/63/49 50/68/52
f 16/69/21 15/65/17 57/66/51 58/70/53
f 9/71/23 8/67/19 50/68/52 51/72/54
f 2/73/25 1/18/15 43/64/50 44/74/55
f 17/37/27 16/29/21 58/75/53 59/76/56
f 10/77/29 9/71/23 51/72/54 52/78/57
f 3/79/31 2/73/25 44/74/55 45/80/58
f 18/43/33 17/37/27 59/76/56 60/81/59
f 11/45/35 10/39/29 52/82/57 53/83/60
f 4/84/37 3/85/31 45/86/58 46/87/61
f 19/88/39 18/89/33 60/90/59 61/91/62
f 12/92/41 11/93/35 53/94/60 54/95/63
f 5/53/1 4/84/37 46/87/61 47/54/43
f 20/56/5 19/88/39 61/91/62 62/57/45
f 13/60/9 12/92/41 54/95/63 55/61/47
f 44/74/55 43/64/50 64/96/64 65/97/65
f 59/98/56 58/70/53 79/99/66 80/100/67
f 52/101/57 51/102/54 72/103/68 73/104/69
f 45/80/58 44/74/55 65/97/65 66/105/70
f 60/106/59 59/98/56 80/100/67 81/107/71
f 53/94/60 52/101/57 73/104/69 74/108/72
f 46/109/61 45/80/58 66/105/70 67/110/73
f 61/111/62 60/106/59 81/107/71 82/112/74
f 54/95/63 53/94/60 74/108/72 75/113/75
f 47/54/43 46/87/61 67/114/73 68/115/76
f 62/57/45 61/91/62 82/116/74 83/117/77
f 55/61/47 54/95/63 75/113/75 76/118/78
f 48/55/44 47/54/43 68/115/76 69/119/79
f 63/58/46 62/57/45 83/117/77 84/120/80
f 56/62/48 55/61/47 76/118/78 77/121/81
f 49/63/49 48/55/44 69/119/79 70/122/82
f 43/64/50 63/58/46 84/120/80 64/96/64
f 57/66/51 56/62/48 77/121/81 78/123/83
f 50/68/52 49/63/49 70/122/82 71/124/84
f 58/70/53 57/66/51 78/123/83 79/99/66
f 51/102/54 50/125/52 71/126/84 72/103/68
f 65/127/65 64/128/64 84/129/80 83/130/77 82/112/74 81/107/71 80/100/67 79/99/66 78/123/83 77/121/81 76/118/78 75/113/75 74/108/72 73/104/69 72/103/68 71/126/84 70/131/82 69/132/79 68/133/76 67/134/73 66/135/70
f 27/3/3 28/136/14 91/137/85 90/138/86
f 42/139/7 22/36/16 85/140/87 105/141/88
f 35/24/11 36/23/18 99/142/89 98/143/90
f 28/28/14 29/27/20 92/144/91 91/145/85
f 36/23/18 37/30/22 100/146/92 99/142/89
f 29/27/20 30/32/24 93/147/93 92/144/91
f 22/36/16 23/35/26 86/148/94 85/140/87
f 37/30/22 38/38/28 101/149/95 100/146/92
f 30/32/24 31/40/30 94/150/96 93/147/93
f 23/35/26 24/42/32 87/151/97 86/148/94
f 38/38/28 39/44/34 102/152/98 101/149/95
f 31/40/30 32/46/36 95/153/99 94/150/96
f 24/42/32 25/48/38 88/154/100 87/151/97
f 39/44/34 40/50/40 103/155/101 102/152/98
f 32/46/36 33/52/42 96/156/102 95/153/99
f 25/48/38 26/4/4 89/157/103 88/154/100
f 40/50/40 41/8/8 104/158/104 103/155/101
f 33/52/42 34/12/12 97/159/105 96/156/102
f 26/4/4 27/3/3 90/138/86 89/157/103
f 41/8/8 42/7/7 105/160/88 104/158/104
f 34/12/12 35/11/11 98/161/90 97/159/105
f 86/148/94 87/151/97 88/154/100 89/157/103 90/138/86 91/137/85 92/162/91 93/163/93 94/164/96 95/165/99 96/166/102 97/167/105 98/168/90 99/169/89 100/170/92 101/171/95 102/172/98 103/173/101 104/174/104 105/141/88 85/140/87
