# Blender v2.80 (sub 60) OBJ File: 'orbconfig.blend'
# www.blender.org
mtllib orb2.mtl
o Circle.000_Circle.003
v -3.086203 9.796137 -0.231279
v -1.701103 12.193235 -0.667634
v -2.880922 9.796137 -1.130677
v 0.912229 9.796138 -2.957359
v 1.029428 12.193235 -1.509889
v 1.743399 9.796138 -2.557089
v 2.105040 9.796137 2.268691
v 0.792892 12.193234 1.646455
v 1.342809 9.796137 2.788371
v -1.781609 12.193235 0.406642
v -1.822317 12.193235 -0.136563
v 0.000000 9.796138 -3.094857
v 0.538646 12.193235 -1.746239
v 2.680225 9.796137 1.547430
v 1.242967 12.193235 1.339600
v -2.680225 9.796137 1.547430
v -3.017264 9.796137 0.688672
v 3.017264 9.796137 0.688672
v 1.582599 12.193235 0.913714
v -1.242967 12.193235 1.339600
v -1.582597 12.193235 0.913714
v -0.538644 12.193235 -1.746239
v 0.000000 12.193235 -1.827426
v 3.086203 9.796137 -0.231277
v 1.781611 12.193235 0.406642
v -2.105037 9.796137 2.268693
v -0.792890 12.193234 1.646457
v -0.912225 9.796138 -2.957362
v -1.029426 12.193235 -1.509891
v 2.880922 9.796137 -1.130677
v 1.822319 12.193235 -0.136563
v -0.461263 9.796137 3.060291
v -1.342809 9.796137 2.788371
v -1.743396 9.796138 -2.557091
v -1.428741 12.193235 -1.139381
v 2.419659 9.796137 -1.929611
v 1.701106 12.193235 -0.667632
v 0.461265 9.796137 3.060291
v -0.272363 12.193234 1.807017
v -2.419657 9.796137 -1.929613
v 1.428741 12.193235 -1.139381
v 0.272365 12.193234 1.807017
v -1.689751 4.704263 -0.126630
v 0.954543 4.704263 -1.400053
v 0.499461 4.704263 -1.619208
v 0.735213 4.704263 1.526683
v 1.152548 4.704263 1.242149
v -1.652006 4.704263 0.377059
v 0.000000 4.704263 -1.694491
v 1.467471 4.704263 0.847246
v -1.467471 4.704263 0.847246
v 1.652006 4.704263 0.377059
v -1.152545 4.704263 1.242149
v -0.499459 4.704263 -1.619208
v 1.689753 4.704263 -0.126630
v -0.735211 4.704263 1.526683
v -0.954540 4.704263 -1.400055
v 1.577357 4.704263 -0.619066
v -0.252550 4.704263 1.675564
v -1.324806 4.704263 -1.056497
v 1.324808 4.704263 -1.056497
v 0.252552 4.704263 1.675564
v -1.577357 4.704263 -0.619066
v 0.000000 3.796261 -0.481144
v -0.141819 3.796261 -0.459767
v 0.479799 3.796261 -0.035957
v -0.208760 3.796261 0.433494
v -0.271037 3.796261 -0.397539
v 0.447883 3.796261 -0.175781
v -0.071709 3.796261 0.475768
v -0.376172 3.796261 -0.299989
v 0.376174 3.796261 -0.299989
v 0.071711 3.796261 0.475768
v -0.447883 3.796261 -0.175781
v 0.271037 3.796261 -0.397539
v 0.208762 3.796261 0.433494
v -0.479797 3.796261 -0.035957
v 0.141821 3.796261 -0.459767
v 0.327262 3.796261 0.352702
v -0.469080 3.796261 0.107063
v 0.416683 3.796261 0.240572
v -0.416683 3.796261 0.240572
v 0.469080 3.796261 0.107063
v -0.327259 3.796261 0.352702
v -0.643689 13.515916 -0.048236
v 0.000000 13.515916 -0.645493
v 0.190264 13.515916 -0.616815
v 0.559015 13.515916 0.322748
v 0.439047 13.515916 0.473182
v -0.629309 13.515916 0.143638
v 0.629311 13.515916 0.143638
v -0.439047 13.515916 0.473182
v -0.559013 13.515916 0.322748
v -0.190261 13.515916 -0.616815
v 0.643689 13.515916 -0.048236
v -0.280068 13.515916 0.581571
v -0.504667 13.515916 -0.402457
v -0.363618 13.515916 -0.533330
v 0.600874 13.515916 -0.235824
v -0.096204 13.515916 0.638286
v -0.600874 13.515916 -0.235824
v 0.363620 13.515916 -0.533330
v 0.504667 13.515916 -0.402457
v 0.280070 13.515916 0.581571
v 0.096206 13.515916 0.638286
vt 0.243181 0.350570
vt 0.281291 0.512201
vt 0.200606 0.372920
vt 0.514918 0.386150
vt 0.580400 0.160665
vt 0.588302 0.363345
vt 0.889357 0.250760
vt 0.829677 0.075871
vt 0.940179 0.228470
vt 0.347275 0.481800
vt 0.313129 0.495017
vt 0.012724 0.486124
vt 0.148390 0.664208
vt -0.049514 0.525973
vt 0.841311 0.270696
vt 0.798747 0.101093
vt 0.332629 0.305661
vt 0.286294 0.328170
vt 0.795220 0.289379
vt 0.766697 0.121411
vt 0.423270 0.465760
vt 0.383647 0.471521
vt 0.195170 0.586237
vt 0.170230 0.621152
vt 0.748775 0.307478
vt 0.733417 0.137545
vt 0.382895 0.280968
vt 0.467051 0.465034
vt 0.065549 0.451950
vt 0.222310 0.557257
vt 0.700144 0.325609
vt 0.698584 0.149743
vt 0.514627 0.223223
vt 0.440757 0.253868
vt 0.113325 0.422545
vt 0.251177 0.532984
vt 0.647717 0.343845
vt 0.661779 0.158032
vt 0.996721 0.202760
vt 0.887027 0.005836
vt 1.064449 0.171169
vt 0.157646 0.396343
vt 0.622519 0.161977
vt 0.859358 0.044599
vt 0.096867 0.093574
vt 0.801493 0.632765
vt 0.780539 0.661842
vt 0.991367 0.549906
vt 0.959165 0.550813
vt 0.121793 0.077231
vt -0.064449 0.122819
vt 0.929200 0.555452
vt 0.145167 0.057266
vt 0.900991 0.563704
vt 0.166856 0.032961
vt -0.025100 0.125489
vt 0.874255 0.575249
vt 0.186626 0.003587
vt 0.009926 0.123056
vt 0.848835 0.590361
vt 0.203517 -0.032415
vt 0.041484 0.116571
vt 0.824559 0.609182
vt 1.026562 0.553879
vt 0.070235 0.106696
vt -0.013024 0.003915
vt -0.001684 0.007544
vt 0.926325 0.671521
vt 0.071227 -0.035370
vt 0.010214 0.008448
vt 0.916624 0.677400
vt 0.074093 -0.047362
vt 0.021700 0.007088
vt 0.908527 0.685321
vt 1.064449 0.563944
vt 0.981822 0.667156
vt 0.032551 0.003757
vt 0.901133 0.694545
vt 0.970113 0.664123
vt 0.042806 -0.000652
vt 0.895486 0.705343
vt 0.958779 0.662844
vt 0.051788 -0.007280
vt 0.892503 0.717132
vt 0.761873 0.697589
vt 0.947405 0.664194
vt 0.059586 -0.015377
vt 0.936453 0.666641
vt 0.066582 -0.024712
vt 0.026968 0.710956
vt 0.060596 0.697758
vt 0.085167 0.724240
vt 0.369662 0.623206
vt 0.313099 0.679890
vt 0.307868 0.696753
vt 0.694296 0.002166
vt 0.707541 -0.007040
vt 0.384827 0.617409
vt 0.679920 0.009165
vt 0.417267 0.613500
vt 0.400856 0.613893
vt 0.320608 0.664921
vt 0.664868 0.014548
vt 0.514627 0.471029
vt 0.434338 0.615476
vt 0.342154 0.640371
vt 0.330194 0.651616
vt 0.649080 0.017572
vt 0.736280 -0.047362
vt 0.355517 0.631113
vt 0.616768 0.015326
vt 0.632805 0.018020
vt 0.719322 -0.018447
vt 0.729213 -0.032064
vt 0.601071 0.009744
vt -0.037147 0.699898
vt 0.010102 0.710682
vt -0.024646 0.782838
vt 0.535453 0.152343
vt 0.992846 0.672657
vt 0.076965 0.750829
vt 0.069493 0.756788
vt 0.082350 0.742931
vt 0.060596 0.760280
vt 0.051064 0.760994
vt 0.026968 0.747082
vt 0.041746 0.758867
vt 0.033469 0.754088
vt 0.022821 0.738470
vt 0.021396 0.729019
vt 0.022821 0.719568
vt 0.033469 0.703950
vt 0.041746 0.699171
vt 0.051064 0.697044
vt 0.069493 0.701250
vt 0.076966 0.707210
vt 0.082350 0.715107
vt 0.085167 0.733798
vt 0.451178 0.620712
vt -0.056974 0.764174
vt -0.062538 0.752621
vt -0.048252 0.773573
vt -0.064449 0.739941
vt -0.062538 0.727262
vt -0.056974 0.715709
vt -0.048252 0.706309
vt -0.024646 0.697044
vt -0.011859 0.698002
vt 0.000077 0.702687
vt 0.017326 0.721277
vt 0.021105 0.733530
vt 0.021105 0.746352
vt 0.017326 0.758606
vt 0.010102 0.769200
vt 0.000077 0.777195
vt -0.011859 0.781880
vt -0.037147 0.779985
vn -0.9917 0.1052 -0.0743
vn -0.7676 0.5657 -0.3013
vn -0.9257 0.1052 -0.3633
vn 0.2931 0.1052 -0.9503
vn 0.4645 0.5657 -0.6813
vn 0.5602 0.1052 -0.8217
vn 0.6764 0.1052 0.7290
vn 0.3578 0.5657 0.7429
vn 0.4315 0.1052 0.8960
vn -0.8039 0.5657 0.1835
vn -0.8223 0.5657 -0.0616
vn 0.0000 0.1052 -0.9945
vn 0.2430 0.5657 -0.7879
vn 0.8612 0.1052 0.4972
vn 0.5609 0.5657 0.6045
vn -0.8612 0.1052 0.4972
vn -0.9695 0.1052 0.2213
vn 0.9695 0.1052 0.2213
vn 0.7141 0.5657 0.4123
vn -0.5609 0.5657 0.6045
vn -0.7141 0.5657 0.4123
vn -0.2430 0.5657 -0.7879
vn -0.0000 0.5657 -0.8246
vn 0.9917 0.1052 -0.0743
vn 0.8039 0.5657 0.1835
vn -0.6764 0.1052 0.7290
vn -0.3578 0.5657 0.7429
vn -0.2931 0.1052 -0.9503
vn -0.4645 0.5657 -0.6813
vn 0.9257 0.1052 -0.3633
vn 0.8223 0.5657 -0.0616
vn -0.1482 0.1052 0.9833
vn -0.4315 0.1052 0.8960
vn -0.5602 0.1052 -0.8217
vn -0.6447 0.5657 -0.5141
vn 0.7775 0.1052 -0.6200
vn 0.7676 0.5657 -0.3013
vn 0.1482 0.1052 0.9833
vn -0.1229 0.5657 0.8154
vn -0.7775 0.1052 -0.6200
vn 0.6447 0.5657 -0.5141
vn 0.1229 0.5657 0.8154
vn -0.8332 -0.5494 -0.0624
vn 0.4707 -0.5494 -0.6904
vn 0.2463 -0.5494 -0.7984
vn 0.3625 -0.5494 0.7528
vn 0.5683 -0.5494 0.6125
vn -0.8146 -0.5494 0.1859
vn 0.0000 -0.5494 -0.8356
vn 0.7236 -0.5494 0.4178
vn -0.7236 -0.5494 0.4178
vn 0.8146 -0.5494 0.1859
vn -0.5683 -0.5494 0.6125
vn -0.2463 -0.5494 -0.7984
vn 0.8332 -0.5494 -0.0624
vn -0.3625 -0.5494 0.7528
vn -0.4707 -0.5494 -0.6904
vn 0.7778 -0.5494 -0.3053
vn -0.1245 -0.5494 0.8262
vn -0.6533 -0.5494 -0.5210
vn 0.6533 -0.5494 -0.5210
vn 0.1245 -0.5494 0.8262
vn -0.7778 -0.5494 -0.3053
vn -0.0000 -0.9396 -0.3423
vn -0.1009 -0.9396 -0.3271
vn 0.3413 -0.9396 -0.0256
vn -0.1485 -0.9396 0.3084
vn -0.1928 -0.9396 -0.2828
vn 0.3186 -0.9396 -0.1250
vn -0.0510 -0.9396 0.3385
vn -0.2676 -0.9396 -0.2134
vn 0.2676 -0.9396 -0.2134
vn 0.0510 -0.9396 0.3384
vn -0.3186 -0.9396 -0.1250
vn 0.1928 -0.9396 -0.2828
vn 0.1485 -0.9396 0.3084
vn -0.3413 -0.9396 -0.0256
vn 0.1009 -0.9396 -0.3271
vn 0.2328 -0.9396 0.2509
vn -0.3337 -0.9396 0.0762
vn 0.2964 -0.9396 0.1711
vn -0.2964 -0.9396 0.1711
vn 0.3337 -0.9396 0.0762
vn -0.2328 -0.9396 0.2509
vn -0.4386 0.8981 -0.0329
vn -0.0000 0.8981 -0.4398
vn 0.1296 0.8981 -0.4203
vn 0.3809 0.8981 0.2199
vn 0.2992 0.8981 0.3224
vn -0.4288 0.8981 0.0979
vn 0.4288 0.8981 0.0979
vn -0.2992 0.8981 0.3224
vn -0.3809 0.8981 0.2199
vn -0.1296 0.8981 -0.4203
vn 0.4386 0.8981 -0.0329
vn -0.1908 0.8981 0.3963
vn -0.3439 0.8981 -0.2742
vn -0.2478 0.8981 -0.3634
vn 0.4094 0.8981 -0.1607
vn -0.0656 0.8981 0.4349
vn -0.4094 0.8981 -0.1607
vn 0.2478 0.8981 -0.3634
vn 0.3439 0.8981 -0.2742
vn 0.1908 0.8981 0.3963
vn 0.0656 0.8981 0.4349
usemtl Explode_Fade
s 1
f 1/1/1 2/2/2 3/3/3
f 4/4/4 5/5/5 6/6/6
f 7/7/7 8/8/8 9/9/9
f 1/1/1 10/10/10 11/11/11
f 12/12/12 13/13/13 4/14/4
f 14/15/14 15/16/15 7/7/7
f 16/17/16 10/10/10 17/18/17
f 18/19/18 19/20/19 14/15/14
f 16/17/16 20/21/20 21/22/21
f 12/12/12 22/23/22 23/24/23
f 24/25/24 25/26/25 18/19/18
f 26/27/26 27/28/27 20/21/20
f 28/29/28 29/30/29 22/23/22
f 30/31/30 31/32/31 24/25/24
f 32/33/32 27/28/27 33/34/33
f 34/35/34 35/36/35 29/30/29
f 36/37/36 37/38/37 30/31/30
f 38/39/38 39/40/39 32/41/32
f 3/3/3 35/36/35 40/42/40
f 6/6/6 41/43/41 36/37/36
f 9/9/9 42/44/42 38/39/38
f 3/3/3 43/45/43 1/1/1
f 4/4/4 44/46/44 45/47/45
f 7/7/7 46/48/46 47/49/47
f 1/1/1 48/50/48 17/18/17
f 4/14/4 49/51/49 12/12/12
f 7/7/7 50/52/50 14/15/14
f 17/18/17 51/53/51 16/17/16
f 18/19/18 50/52/50 52/54/52
f 26/27/26 51/53/51 53/55/53
f 28/29/28 49/51/49 54/56/54
f 24/25/24 52/54/52 55/57/55
f 33/34/33 53/55/53 56/58/56
f 34/35/34 54/56/54 57/59/57
f 30/31/30 55/57/55 58/60/58
f 32/33/32 56/58/56 59/61/59
f 40/42/40 57/59/57 60/62/60
f 30/31/30 61/63/61 36/37/36
f 32/41/32 62/64/62 38/39/38
f 40/42/40 63/65/63 3/3/3
f 36/37/36 44/46/44 6/6/6
f 9/9/9 62/64/62 46/48/46
f 54/56/54 64/66/64 65/67/65
f 52/54/52 66/68/66 55/57/55
f 53/55/53 67/69/67 56/58/56
f 54/56/54 68/70/68 57/59/57
f 58/60/58 66/68/66 69/71/69
f 59/61/59 67/69/67 70/72/70
f 57/59/57 71/73/71 60/62/60
f 58/60/58 72/74/72 61/63/61
f 59/75/59 73/76/73 62/64/62
f 60/62/60 74/77/74 63/65/63
f 44/46/44 72/74/72 75/78/75
f 62/64/62 76/79/76 46/48/46
f 43/45/43 74/77/74 77/80/77
f 45/47/45 75/78/75 78/81/78
f 47/49/47 76/79/76 79/82/79
f 43/45/43 80/83/80 48/50/48
f 45/47/45 64/84/64 49/85/49
f 47/49/47 81/86/81 50/52/50
f 48/50/48 82/87/82 51/53/51
f 52/54/52 81/86/81 83/88/83
f 53/55/53 82/87/82 84/89/84
f 79/90/79 67/91/67 77/92/77
f 10/10/10 85/93/85 11/11/11
f 13/13/13 86/94/86 87/95/87
f 15/16/15 88/96/88 89/97/89
f 21/22/21 90/98/90 10/10/10
f 19/20/19 91/99/91 88/96/88
f 21/22/21 92/100/92 93/101/93
f 22/23/22 86/94/86 23/24/23
f 31/32/31 91/99/91 25/26/25
f 27/28/27 92/100/92 20/21/20
f 29/30/29 94/102/94 22/23/22
f 37/38/37 95/103/95 31/32/31
f 39/104/39 96/105/96 27/28/27
f 29/30/29 97/106/97 98/107/98
f 41/43/41 99/108/99 37/38/37
f 42/44/42 100/109/100 39/40/39
f 35/36/35 101/110/101 97/106/97
f 41/43/41 102/111/102 103/112/103
f 42/44/42 104/113/104 105/114/105
f 11/11/11 101/110/101 2/2/2
f 5/5/5 87/115/87 102/111/102
f 8/8/8 89/97/89 104/113/104
f 90/116/90 100/117/100 103/118/103
f 1/1/1 11/11/11 2/2/2
f 4/4/4 13/119/13 5/5/5
f 7/7/7 15/16/15 8/8/8
f 1/1/1 17/18/17 10/10/10
f 12/12/12 23/24/23 13/13/13
f 14/15/14 19/20/19 15/16/15
f 16/17/16 21/22/21 10/10/10
f 18/19/18 25/26/25 19/20/19
f 16/17/16 26/27/26 20/21/20
f 12/12/12 28/29/28 22/23/22
f 24/25/24 31/32/31 25/26/25
f 26/27/26 33/34/33 27/28/27
f 28/29/28 34/35/34 29/30/29
f 30/31/30 37/38/37 31/32/31
f 32/33/32 39/104/39 27/28/27
f 34/35/34 40/42/40 35/36/35
f 36/37/36 41/43/41 37/38/37
f 38/39/38 42/44/42 39/40/39
f 3/3/3 2/2/2 35/36/35
f 6/6/6 5/5/5 41/43/41
f 9/9/9 8/8/8 42/44/42
f 3/3/3 63/65/63 43/45/43
f 4/4/4 6/6/6 44/46/44
f 7/7/7 9/9/9 46/48/46
f 1/1/1 43/45/43 48/50/48
f 4/4/4 45/47/45 49/85/49
f 7/7/7 47/49/47 50/52/50
f 17/18/17 48/50/48 51/53/51
f 18/19/18 14/15/14 50/52/50
f 26/27/26 16/17/16 51/53/51
f 28/29/28 12/12/12 49/51/49
f 24/25/24 18/19/18 52/54/52
f 33/34/33 26/27/26 53/55/53
f 34/35/34 28/29/28 54/56/54
f 30/31/30 24/25/24 55/57/55
f 32/33/32 33/34/33 56/58/56
f 40/42/40 34/35/34 57/59/57
f 30/31/30 58/60/58 61/63/61
f 32/41/32 59/75/59 62/64/62
f 40/42/40 60/62/60 63/65/63
f 36/37/36 61/63/61 44/46/44
f 9/9/9 38/39/38 62/64/62
f 54/56/54 49/51/49 64/66/64
f 52/54/52 83/88/83 66/68/66
f 53/55/53 84/89/84 67/69/67
f 54/56/54 65/67/65 68/70/68
f 58/60/58 55/57/55 66/68/66
f 59/61/59 56/58/56 67/69/67
f 57/59/57 68/70/68 71/73/71
f 58/60/58 69/71/69 72/74/72
f 59/75/59 70/120/70 73/76/73
f 60/62/60 71/73/71 74/77/74
f 44/46/44 61/63/61 72/74/72
f 62/64/62 73/76/73 76/79/76
f 43/45/43 63/65/63 74/77/74
f 45/47/45 44/46/44 75/78/75
f 47/49/47 46/48/46 76/79/76
f 43/45/43 77/80/77 80/83/80
f 45/47/45 78/81/78 64/84/64
f 47/49/47 79/82/79 81/86/81
f 48/50/48 80/83/80 82/87/82
f 52/54/52 50/52/50 81/86/81
f 53/55/53 51/53/51 82/87/82
f 68/121/68 65/122/65 71/123/71
f 65/122/65 64/124/64 71/123/71
f 64/124/64 78/125/78 69/126/69
f 78/125/78 75/127/75 69/126/69
f 75/127/75 72/128/72 69/126/69
f 69/126/69 66/129/66 83/130/83
f 83/130/83 81/131/81 79/90/79
f 79/90/79 76/132/76 73/133/73
f 73/133/73 70/134/70 79/90/79
f 70/134/70 67/91/67 79/90/79
f 67/91/67 84/135/84 77/92/77
f 84/135/84 82/136/82 77/92/77
f 82/136/82 80/137/80 77/92/77
f 77/92/77 74/138/74 71/123/71
f 69/126/69 83/130/83 79/90/79
f 77/92/77 71/123/71 64/124/64
f 64/124/64 69/126/69 77/92/77
f 69/126/69 79/90/79 77/92/77
f 10/10/10 90/98/90 85/93/85
f 13/13/13 23/24/23 86/94/86
f 15/16/15 19/20/19 88/96/88
f 21/22/21 93/101/93 90/98/90
f 19/20/19 25/26/25 91/99/91
f 21/22/21 20/21/20 92/100/92
f 22/23/22 94/102/94 86/94/86
f 31/32/31 95/103/95 91/99/91
f 27/28/27 96/105/96 92/100/92
f 29/30/29 98/107/98 94/102/94
f 37/38/37 99/108/99 95/103/95
f 39/104/39 100/139/100 96/105/96
f 29/30/29 35/36/35 97/106/97
f 41/43/41 103/112/103 99/108/99
f 42/44/42 105/114/105 100/109/100
f 35/36/35 2/2/2 101/110/101
f 41/43/41 5/5/5 102/111/102
f 42/44/42 8/8/8 104/113/104
f 11/11/11 85/93/85 101/110/101
f 5/5/5 13/119/13 87/115/87
f 8/8/8 15/16/15 89/97/89
f 86/140/86 94/141/94 87/142/87
f 94/141/94 98/143/98 87/142/87
f 98/143/98 97/144/97 90/116/90
f 97/144/97 101/145/101 90/116/90
f 101/145/101 85/146/85 90/116/90
f 90/116/90 93/147/93 100/117/100
f 93/147/93 92/148/92 100/117/100
f 92/148/92 96/149/96 100/117/100
f 100/117/100 105/150/105 104/151/104
f 104/151/104 89/152/89 100/117/100
f 89/152/89 88/153/88 100/117/100
f 88/153/88 91/154/91 95/155/95
f 95/155/95 99/156/99 103/118/103
f 103/118/103 102/157/102 98/143/98
f 102/157/102 87/142/87 98/143/98
f 88/153/88 95/155/95 100/117/100
f 95/155/95 103/118/103 100/117/100
f 98/143/98 90/116/90 103/118/103
