# Blender v2.80 (sub 60) OBJ File: ''
# www.blender.org
mtllib organicspire.mtl
o Cube
v 1.228938 -1.695230 1.236681
v 1.391511 3.338617 -0.555001
v -0.121243 -0.576381 -1.673808
v 0.117329 0.425121 -1.588334
v -0.115298 1.409687 -1.504784
v 1.720783 -1.502268 -0.115837
v 1.686120 -1.570263 0.372568
v 1.517586 -1.636352 0.835789
v 1.278008 1.803794 -0.993029
v 1.421232 2.433595 -0.348788
v -1.683014 -1.610186 0.369448
v -1.384697 -1.413774 -1.019844
v -1.649597 -0.610266 0.364981
v 0.833745 -1.739359 1.521908
v 0.368036 -1.767263 1.683883
v -0.122959 -1.777689 1.717401
v -0.606154 -1.769599 1.617784
v 1.180647 5.477156 0.520887
v 0.828701 13.595472 0.304162
v 0.359430 15.207832 -0.566814
v 0.349503 17.558445 0.374891
v -0.354974 17.562725 0.388213
v -0.817557 13.593094 0.309865
v -0.666059 10.239067 0.661103
v -0.605075 5.725523 1.185447
v -0.517590 4.688541 1.377487
v -0.881109 6.826104 -0.468919
v -0.928416 6.093549 0.870902
v -1.199782 5.189968 0.844970
v -1.242340 2.082905 1.264874
v -1.130360 1.860861 -1.122673
v -0.981420 3.028073 1.393599
v 1.385089 3.627800 -0.004071
v 1.358101 3.083737 0.998608
v -1.323902 3.078228 0.993800
v -1.270986 2.918119 -0.864454
v -0.488342 -1.317383 -1.640054
v -1.116144 -1.371655 -1.301343
v 0.366084 -1.302393 -1.675596
v -0.792330 2.757560 -1.354698
v 0.360839 3.338615 -1.508487
v 0.778359 2.756267 -1.335391
v 1.287263 -1.366671 -1.132633
v 1.497925 1.404632 -0.471510
v 1.302880 1.801356 1.192781
v 1.602679 -1.435153 -0.610894
v -1.459041 -1.685943 0.942975
v -1.314951 -0.044441 1.162559
v -1.403418 1.110298 0.973128
v -1.701796 -1.539274 -0.139951
v -1.600860 -1.472697 -0.612459
v -1.426407 1.706821 0.603219
v -1.140096 -1.734426 1.318133
v -0.496201 0.436876 1.587911
v 0.983009 1.165664 1.433407
v -0.519947 1.484576 1.567582
v -0.985201 1.169184 1.443760
v 1.173294 4.917393 0.985901
v 0.796527 5.524421 -0.901542
v 0.853050 6.341129 -0.626736
v 0.637156 6.395151 1.065824
v 0.410590 17.703911 -0.290068
v -0.148101 5.397187 -1.251410
v -0.192827 7.274084 -1.025856
v -0.263335 10.978043 -0.764088
v -0.400220 17.698278 -0.265492
v -0.513909 6.385367 -0.958378
v -0.742460 12.030020 0.519942
v -0.803596 5.532858 -0.918230
v -1.019153 7.608193 0.440268
v -1.155860 5.496439 0.027922
v 0.756695 5.501878 1.180948
v 0.318218 5.905593 -1.057023
v 0.662811 16.216251 0.372754
v 0.487625 12.169996 0.707790
v 0.003176 16.347519 -0.550688
v -0.678952 16.219223 0.378125
v -0.992678 3.663558 -1.125597
v -1.254474 4.283637 1.071589
v -1.110368 6.186262 0.389395
v -0.885031 10.502150 0.050784
v -0.846934 9.238489 -0.334016
v -0.452933 6.630008 1.065430
v -0.667368 15.221041 -0.331055
v 0.007759 16.667740 0.609874
v 0.000000 18.825710 0.205027
v -0.005185 18.632967 -0.316816
v 0.377824 6.874554 -1.014482
v 0.855651 4.554242 -1.175353
v 0.674332 0.640947 -1.427370
v 0.930032 -1.328049 -1.442156
v 1.044304 1.097820 -1.176403
v 0.009783 16.156286 0.092840
v 2.079300 17.737240 1.596414
v -0.780687 17.737238 2.525697
v -2.548276 17.737249 0.092840
v -0.780687 17.737238 -2.340017
v 2.079300 17.737240 -1.410735
v 0.800253 20.295336 2.525697
v -2.059734 20.295334 1.596414
v -2.059734 20.295334 -1.410735
v 0.800253 20.295336 -2.340017
v 2.567842 20.295324 0.092840
v 0.009783 21.876287 0.092840
v -0.454840 16.583416 1.522826
v 1.226206 16.583416 0.976612
v 0.761588 17.512676 2.406613
v 2.442636 17.512682 0.092840
v 1.226206 16.583416 -0.790933
v -1.493804 16.583424 0.092840
v -1.958439 17.512682 1.522831
v -0.454840 16.583416 -1.337147
v -1.958439 17.512682 -1.337152
v 0.761588 17.512676 -2.220934
v 2.729809 19.016287 0.976616
v 2.729809 19.016287 -0.790936
v 0.009783 19.016287 2.952840
v 1.690850 19.016287 2.406627
v -2.710243 19.016287 0.976616
v -1.671284 19.016287 2.406627
v -1.671284 19.016287 -2.220948
v -2.710243 19.016287 -0.790936
v 1.690850 19.016287 -2.220948
v 0.009783 19.016287 -2.767160
v 1.978005 20.519892 1.522831
v -0.742022 20.519897 2.406613
v -2.423070 20.519892 0.092840
v -0.742022 20.519897 -2.220934
v 1.978005 20.519892 -1.337152
v 0.474406 21.449158 1.522826
v 1.513370 21.449150 0.092840
v -1.206640 21.449158 0.976612
v -1.206640 21.449158 -0.790933
v 0.474406 21.449158 -1.337147
vt 0.770890 0.163389
vt 0.770890 0.233595
vt 0.751892 0.210122
vt 0.975283 0.285654
vt 0.960051 0.253680
vt 1.000000 0.076114
vt 1.000000 0.429481
vt 0.975084 0.426661
vt 0.074600 0.976910
vt 0.048522 0.971971
vt 0.023838 0.965330
vt 0.038650 0.831482
vt 0.048279 0.782866
vt 0.039703 0.739154
vt 0.069549 0.727920
vt 0.114125 0.255205
vt 0.103716 0.641126
vt 0.127163 0.669350
vt 0.121691 0.757539
vt 0.382456 0.989169
vt 0.341125 0.614727
vt 0.361610 0.647659
vt 0.374582 0.465272
vt 0.384735 0.581684
vt 0.409679 0.643166
vt 0.424274 0.733818
vt 0.413171 0.771240
vt 0.427136 0.821381
vt 0.427136 0.980605
vt 0.406968 0.984867
vt 0.005881 0.837711
vt 0.014460 0.808000
vt 0.322734 0.996987
vt 0.308071 0.917520
vt 0.317614 0.861802
vt 0.353964 0.944879
vt 0.355078 0.993293
vt 0.328768 0.000000
vt 0.358231 0.055214
vt 0.327431 0.128640
vt 0.322988 0.062579
vt 0.480718 0.060783
vt 0.503034 0.000000
vt 0.518813 0.062227
vt 0.496669 0.105064
vt 0.125411 0.130640
vt 0.136237 0.320048
vt 0.140767 0.594329
vt 0.460365 0.124973
vt 0.459174 0.321669
vt 0.240847 0.570795
vt 0.241307 0.166456
vt 0.267192 0.595472
vt 0.263593 0.635803
vt 0.143526 0.638098
vt 0.307719 0.708165
vt 0.313739 0.766511
vt 0.299693 0.814681
vt 0.289799 0.768268
vt 0.186136 0.164913
vt 0.200913 0.044970
vt 0.222283 0.000000
vt 0.222146 0.111236
vt 0.206912 0.371488
vt 0.211852 0.642874
vt 0.192637 0.594123
vt 0.237468 0.617770
vt 0.209973 0.551413
vt 0.357003 0.008538
vt 0.166212 0.726169
vt 0.176956 0.635172
vt 0.212088 0.933033
vt 0.192215 0.968697
vt 0.158812 0.970167
vt 0.158616 0.813305
vt 0.176587 0.770721
vt 0.151536 0.761360
vt 0.318763 0.417789
vt 0.336146 0.545803
vt 0.314048 0.619256
vt 0.318462 0.663855
vt 0.129772 0.817957
vt 0.100880 0.980148
vt 0.960893 0.191191
vt 0.976055 0.102974
vt 0.335026 0.255861
vt 0.324926 0.331377
vt 0.173640 0.571236
vt 0.238402 0.968228
vt 0.225230 0.884383
vt 0.255673 0.873545
vt 0.269326 0.968845
vt 0.532931 0.127938
vt 0.525557 0.330951
vt 0.516712 0.417645
vt 0.520126 0.619123
vt 0.495553 0.592418
vt 0.096510 0.055089
vt 0.129854 0.000000
vt 0.132057 0.064141
vt 0.352836 0.404975
vt 0.366477 0.175726
vt 0.101891 0.006705
vt 0.244757 0.044913
vt 0.289190 0.858119
vt 0.481862 1.000000
vt 0.481558 0.892974
vt 0.510029 0.858432
vt 0.525097 0.917401
vt 0.511169 0.999008
vt 0.144757 0.971288
vt 0.266243 0.683572
vt 0.238787 0.743297
vt 0.514607 0.768427
vt 0.526462 0.814519
vt 0.485529 0.842319
vt 0.000000 0.956296
vt 0.144757 0.845257
vt 0.144757 0.980315
vt 0.125252 0.981428
vt 0.212864 0.836476
vt 0.261636 0.770993
vt 0.289190 0.816078
vt 0.276167 0.850741
vt 0.289190 0.969817
vt 0.076971 0.170456
vt 0.015692 0.673375
vt 0.032982 0.628376
vt 0.048665 0.591881
vt 0.532534 0.663408
vt 0.532931 0.707767
vt 0.493761 0.687016
vt 0.501346 0.636726
vt 0.455597 0.999449
vt 0.429107 0.997752
vt 0.427136 0.644390
vt 0.436002 0.601260
vt 0.175920 0.454175
vt 0.336964 0.832524
vt 0.300289 0.998713
vt 0.784854 0.150944
vt 0.768536 0.135229
vt 0.755352 0.109317
vt 0.751892 0.085096
vt 0.756029 0.061505
vt 0.766729 0.039404
vt 0.783122 0.020564
vt 0.804266 0.007543
vt 0.828326 0.000634
vt 0.853015 0.000000
vt 0.876659 0.005800
vt 0.901852 0.021392
vt 0.915928 0.040210
vt 0.924310 0.068446
vt 0.922725 0.093162
vt 0.915355 0.115849
vt 0.902551 0.135149
vt 0.887751 0.148245
vt 0.854725 0.163389
vt 0.811872 0.163389
vt 0.682983 0.349269
vt 0.613331 0.306366
vt 0.696954 0.280588
vt 0.546199 0.277083
vt 0.532931 0.349561
vt 0.748637 0.350282
vt 0.696954 0.419133
vt 0.613331 0.391990
vt 0.587610 0.654430
vt 0.543517 0.589781
vt 0.627648 0.600477
vt 0.811152 0.598813
vt 0.787334 0.526536
vt 0.872550 0.551657
vt 0.797249 0.305052
vt 0.830286 0.238158
vt 0.879204 0.301082
vt 0.595494 0.184852
vt 0.533201 0.190517
vt 0.549998 0.121062
vt 0.751892 0.187233
vt 0.678701 0.198147
vt 0.731851 0.127176
vt 0.670500 0.668955
vt 0.886849 0.632606
vt 0.831012 0.374160
vt 0.639922 0.125777
vt 0.532931 0.520158
vt 0.586357 0.462328
vt 0.595509 0.521554
vt 0.874630 0.849765
vt 0.792840 0.849765
vt 0.833853 0.790989
vt 0.961988 0.726796
vt 0.928386 0.794011
vt 0.885201 0.718710
vt 0.878062 0.429382
vt 0.926705 0.374161
vt 0.954643 0.429481
vt 0.685917 0.064109
vt 0.603148 0.050091
vt 0.672349 0.004715
vt 0.676063 0.538355
vt 0.670489 0.473025
vt 0.748967 0.521958
vt 0.749655 0.774463
vt 0.748967 0.691970
vt 0.801159 0.721654
vt 0.739816 0.462734
vt 0.751892 0.052356
vt 0.832739 0.657513
vt 0.582427 0.000000
vt 0.532931 0.056087
vt 0.927271 0.660536
vt 0.722491 0.600727
vt 0.960051 0.305054
vt 0.960100 0.577504
vt 0.960100 0.642785
vt 0.935773 0.505068
vt 0.748967 0.654856
vt 0.799809 0.429481
vt 0.752310 0.356401
vt 0.925979 0.238158
vt 0.810470 0.657513
vt 0.860584 0.471433
vt 0.790794 0.462328
vt 0.616555 0.462328
vt 0.546199 0.422757
vt 0.612744 0.238158
vt 0.751861 0.420620
vt 0.751862 0.272348
vt 0.751861 0.282075
vt 0.748967 0.591958
vt 0.616555 0.238158
vn -0.1812 0.0482 -0.9822
vn 0.4252 0.0646 -0.9028
vn -0.0077 0.1150 -0.9933
vn 0.4896 0.0258 0.8715
vn 0.6925 0.0368 0.7204
vn 0.4634 0.1626 0.8711
vn 0.1341 -0.7035 0.6980
vn 0.3783 -0.7129 0.5904
vn 0.7460 -0.6628 0.0641
vn 0.7346 -0.6763 -0.0538
vn 0.7207 -0.6402 -0.2658
vn 0.9740 0.0316 -0.2243
vn 0.9821 0.0695 -0.1751
vn 0.9825 0.0739 0.1706
vn 0.9308 0.1557 0.3306
vn 0.8523 0.1427 0.5032
vn 0.8732 0.0751 0.4815
vn -0.7432 -0.6453 -0.1767
vn -0.9915 0.0914 0.0918
vn -0.9780 0.0678 -0.1974
vn -0.8779 0.0478 -0.4765
vn -0.8504 0.1127 -0.5139
vn -0.7315 0.0967 -0.6749
vn -0.7226 0.0811 -0.6864
vn -0.8630 0.0694 -0.5004
vn -0.7385 0.0810 -0.6693
vn -0.6395 -0.6353 -0.4328
vn -0.6916 -0.6617 -0.2895
vn 0.7267 0.0193 -0.6867
vn 0.7869 0.0117 -0.6170
vn -0.6521 -0.6967 0.2989
vn -0.7483 0.0084 0.6632
vn -0.9359 0.0369 0.3502
vn -0.9764 0.0463 0.2109
vn -0.7424 -0.6655 0.0767
vn 0.0003 0.9268 0.3755
vn -0.8470 0.1976 -0.4935
vn -0.8821 0.0842 0.4635
vn -0.6519 0.2655 0.7102
vn 0.6499 0.2591 0.7144
vn -0.0311 0.0833 0.9960
vn 0.9149 0.1126 0.3877
vn 0.4143 0.0614 0.9080
vn 0.4403 0.0781 0.8944
vn 0.3358 0.0618 -0.9399
vn 0.5440 0.0730 -0.8359
vn 0.8079 0.0654 -0.5857
vn 0.6713 0.1218 -0.7311
vn -0.8471 0.1268 0.5161
vn -0.9345 0.0604 0.3507
vn -0.7629 0.0240 0.6460
vn -0.3960 0.0700 0.9156
vn -0.7974 0.0674 -0.5997
vn -0.0285 0.7480 -0.6631
vn -0.0689 0.0844 -0.9940
vn -0.3468 0.0431 -0.9369
vn -0.0546 0.1505 -0.9871
vn -0.4040 0.1651 -0.8997
vn 0.1534 0.1805 -0.9715
vn -0.3563 0.0683 -0.9319
vn -0.1539 -0.5844 -0.7967
vn -0.3921 -0.6141 -0.6849
vn -0.5385 0.0636 -0.8402
vn -0.7407 0.0531 0.6697
vn -0.9814 0.0670 0.1800
vn -0.7267 0.1579 0.6685
vn -0.8665 0.1420 0.4785
vn 0.6363 -0.7002 0.3236
vn -0.9836 0.0392 0.1759
vn -0.6994 0.0411 0.7135
vn 0.1444 -0.5856 -0.7976
vn 0.3396 -0.6007 -0.7237
vn -0.2139 0.0751 0.9739
vn 0.8158 0.2244 -0.5329
vn -0.9924 0.0480 0.1130
vn -0.4558 0.0203 0.8899
vn -0.1607 -0.7218 0.6732
vn -0.2123 0.0347 0.9766
vn -0.4643 -0.7138 0.5242
vn 0.6496 0.1212 -0.7506
vn 0.1970 0.0615 -0.9785
vn -0.1593 0.0459 0.9861
vn 0.5369 -0.6131 -0.5794
vn 0.5161 -0.7370 0.4363
vn 0.0374 0.0456 -0.9982
vn 0.3910 0.0189 -0.9202
vn -0.2386 0.1173 0.9640
vn 0.0542 -0.7322 0.6789
vn -0.9871 0.0342 0.1563
vn 0.0000 -1.0000 0.0000
vn 0.4253 -0.8506 0.3090
vn -0.1625 -0.8506 0.5000
vn 0.7236 -0.4472 0.5257
vn 0.8506 -0.5257 0.0000
vn -0.5257 -0.8506 0.0000
vn -0.1625 -0.8506 -0.5000
vn 0.4253 -0.8506 -0.3090
vn 0.9510 0.0000 0.3090
vn -0.2764 -0.4472 0.8506
vn 0.2629 -0.5257 0.8090
vn 0.0000 0.0000 1.0000
vn -0.8944 -0.4472 0.0000
vn -0.6882 -0.5257 0.5000
vn -0.9510 0.0000 0.3090
vn -0.2764 -0.4472 -0.8506
vn -0.6882 -0.5257 -0.5000
vn -0.5878 0.0000 -0.8090
vn 0.7236 -0.4472 -0.5257
vn 0.2629 -0.5257 -0.8090
vn 0.5878 0.0000 -0.8090
vn 0.5878 0.0000 0.8090
vn -0.5878 0.0000 0.8090
vn -0.9510 0.0000 -0.3090
vn 0.0000 0.0000 -1.0000
vn 0.9510 0.0000 -0.3090
vn 0.2764 0.4472 0.8506
vn 0.6882 0.5257 0.5000
vn 0.1625 0.8506 0.5000
vn -0.7236 0.4472 0.5257
vn -0.2629 0.5257 0.8090
vn -0.4253 0.8506 0.3090
vn -0.7236 0.4472 -0.5257
vn -0.8506 0.5257 0.0000
vn -0.4253 0.8506 -0.3090
vn 0.2764 0.4472 -0.8506
vn -0.2629 0.5257 -0.8090
vn 0.1625 0.8506 -0.5000
vn 0.8944 0.4472 0.0000
vn 0.6882 0.5257 -0.5000
vn 0.5257 0.8506 0.0000
vn 0.0000 1.0000 0.0000
usemtl Material
s 1
f 3/1/1 90/2/2 4/3/3
f 55/4/4 45/5/5 72/6/6 15/7/7 14/8/8
f 7/9/9 6/10/10 46/11/11 44/12/12 10/13/13 2/14/13 33/15/13 19/16/14 18/17/15 58/18/16 34/19/17
f 50/20/18 80/21/19 71/22/20 82/23/21 27/24/22 69/25/23 78/26/24 36/27/25 31/28/26 12/29/27 51/30/28
f 92/31/29 9/32/30 44/12/12
f 47/33/31 48/34/32 49/35/33 13/36/34 11/37/35
f 86/38/36 66/39/37 77/40/38 22/41/39
f 21/42/40 86/43/36 22/44/39 85/45/41
f 18/17/15 19/16/14 74/46/42 75/47/43 61/48/44
f 74/49/42 21/42/40 85/45/41 75/50/43
f 88/51/45 20/52/46 60/53/47 59/54/48
f 18/17/15 61/48/44 72/55/6
f 79/56/49 35/57/50 30/58/51 32/59/52
f 84/60/53 66/61/37 87/62/54 76/63/55 65/64/56
f 63/65/57 67/66/58 73/67/59
f 65/64/56 76/63/55 20/52/46 88/51/45 73/67/59 67/66/58 64/68/60
f 87/69/54 66/39/37 86/38/36
f 78/70/24 69/71/23 67/66/58 63/65/57 3/72/1 37/73/61 38/74/62 31/75/26 40/76/63
f 31/75/26 36/77/25 78/70/24 40/76/63
f 24/78/64 70/79/65 28/80/66
f 80/21/19 29/81/67 28/80/66
f 7/9/9 34/19/17 45/82/5 8/83/68
f 45/5/5 34/84/17 58/85/16 72/6/6
f 70/79/65 80/21/19 28/80/66
f 77/40/38 23/86/69 24/78/64 68/87/70
f 67/66/58 69/71/23 27/88/22 64/68/60
f 39/89/71 4/90/3 90/91/2 91/92/72
f 22/44/39 77/93/38 68/94/70 24/95/64 28/96/66 83/97/73 85/45/41
f 74/46/42 62/98/74 86/99/36 21/100/40
f 82/23/21 71/22/20 80/21/19 70/79/65 81/101/75 23/86/69 77/40/38 66/39/37 84/102/53
f 62/98/74 87/103/54 86/99/36
f 20/52/46 76/63/55 87/62/54 62/104/74
f 57/105/76 30/58/51 49/35/33 48/34/32
f 17/106/77 54/107/78 57/108/76 48/109/32 53/110/79
f 12/111/27 31/75/26 38/74/62
f 73/67/59 88/51/45 59/54/48 89/112/80 41/113/81 63/65/57
f 32/114/52 30/115/51 57/108/76 56/116/82
f 58/18/16 18/17/15 72/55/6
f 43/117/83 92/31/29 44/12/12 46/11/11
f 8/83/68 45/82/5 55/118/4 14/119/8 1/120/84
f 37/73/61 3/72/1 4/90/3 39/89/71
f 41/113/81 5/121/85 4/90/3 3/72/1 63/65/57
f 90/91/2 42/122/86 41/113/81 89/112/80 9/123/30 92/124/29 43/125/83 91/92/72
f 20/126/46 62/98/74 74/46/42 19/16/14 33/15/13 2/14/13 10/13/13 44/12/12 9/32/30 89/127/80 59/128/48 60/129/47
f 29/130/67 79/131/49 32/114/52 26/132/87 25/133/87 83/97/73 28/96/66
f 25/133/87 26/132/87 32/114/52 56/116/82 57/108/76 54/107/78 17/106/77 16/134/88 15/135/7 72/136/6 61/137/44 75/50/43 85/45/41 83/97/73
f 23/86/69 81/101/75 70/79/65 24/78/64
f 82/138/21 84/60/53 65/64/56 64/68/60 27/88/22
f 50/20/18 11/37/35 13/36/34 49/35/33 30/58/51 52/139/89 35/57/50 79/56/49 29/81/67 80/21/19
f 52/139/89 30/58/51 35/57/50
f 53/140/79 48/34/32 47/33/31
f 5/121/85 41/113/81 42/122/86 90/91/2
f 4/90/3 5/121/85 90/91/2
f 91/141/72 43/142/83 46/143/11 6/144/10 7/145/9 8/146/68 1/147/84 14/148/8 15/149/7 16/150/88 17/151/77 53/152/79 47/153/31 11/154/35 50/155/18 51/156/28 12/157/27 38/158/62 37/159/61 39/160/71
f 93/161/90 106/162/91 105/163/92
f 94/164/93 106/162/91 108/165/94
f 93/161/90 105/163/92 110/166/95
f 93/161/90 110/166/95 112/167/96
f 93/161/90 112/167/96 109/168/97
f 94/169/93 108/170/94 115/171/98
f 95/172/99 107/173/100 117/174/101
f 96/175/102 111/176/103 119/177/104
f 97/178/105 113/179/106 121/180/107
f 98/181/108 114/182/109 123/183/110
f 94/169/93 115/171/98 118/184/111
f 95/172/99 117/174/101 120/185/112
f 96/175/102 119/177/104 122/186/113
f 97/178/105 121/180/107 124/187/114
f 98/188/108 123/189/110 116/190/115
f 99/191/116 125/192/117 130/193/118
f 100/194/119 126/195/120 132/196/121
f 101/197/122 127/198/123 133/199/124
f 102/200/125 128/201/126 134/202/127
f 103/203/128 129/204/129 131/205/130
f 131/206/130 134/207/127 104/208/131
f 131/205/130 129/204/129 134/209/127
f 129/210/129 102/200/125 134/202/127
f 134/207/127 133/211/124 104/208/131
f 134/202/127 128/201/126 133/212/124
f 128/201/126 101/213/122 133/212/124
f 133/211/124 132/196/121 104/208/131
f 133/211/124 127/214/123 132/196/121
f 127/214/123 100/194/119 132/196/121
f 132/196/121 130/193/118 104/208/131
f 132/196/121 126/195/120 130/193/118
f 126/195/120 99/191/116 130/193/118
f 130/193/118 131/206/130 104/208/131
f 130/193/118 125/192/117 131/206/130
f 125/215/117 103/203/128 131/205/130
f 116/190/115 129/204/129 103/203/128
f 116/190/115 123/189/110 129/204/129
f 123/183/110 102/200/125 129/210/129
f 124/187/114 128/201/126 102/200/125
f 124/187/114 121/180/107 128/201/126
f 121/180/107 101/213/122 128/201/126
f 122/186/113 127/198/123 101/197/122
f 122/186/113 119/177/104 127/198/123
f 119/177/104 100/216/119 127/198/123
f 120/185/112 126/217/120 100/218/119
f 120/185/112 117/174/101 126/217/120
f 117/174/101 99/219/116 126/217/120
f 118/184/111 125/215/117 99/220/116
f 118/184/111 115/171/98 125/215/117
f 115/171/98 103/203/128 125/215/117
f 123/183/110 124/187/114 102/200/125
f 123/183/110 114/182/109 124/187/114
f 114/182/109 97/178/105 124/187/114
f 121/221/107 122/186/113 101/197/122
f 121/221/107 113/222/106 122/186/113
f 113/222/106 96/175/102 122/186/113
f 119/177/104 120/223/112 100/216/119
f 119/177/104 111/176/103 120/223/112
f 111/224/103 95/172/99 120/185/112
f 117/174/101 118/225/111 99/219/116
f 117/174/101 107/173/100 118/225/111
f 107/173/100 94/226/93 118/225/111
f 115/171/98 116/190/115 103/203/128
f 115/171/98 108/170/94 116/190/115
f 108/170/94 98/188/108 116/190/115
f 109/168/97 114/227/109 98/228/108
f 109/168/97 112/167/96 114/227/109
f 112/229/96 97/178/105 114/182/109
f 112/229/96 113/179/106 97/178/105
f 112/167/96 110/166/95 113/230/106
f 110/231/95 96/175/102 113/222/106
f 110/231/95 111/176/103 96/175/102
f 110/166/95 105/163/92 111/232/103
f 105/233/92 95/172/99 111/224/103
f 108/165/94 109/168/97 98/228/108
f 108/165/94 106/162/91 109/168/97
f 106/162/91 93/161/90 109/168/97
f 105/233/92 107/173/100 95/172/99
f 105/163/92 106/162/91 107/234/100
f 106/162/91 94/164/93 107/234/100
