# Blender v2.80 (sub 60) OBJ File: 'orbconfig.blend'
# www.blender.org
mtllib pillar.mtl
o Cube
v 0.998350 -0.020586 -0.165797
v 0.468658 -0.020586 -0.446858
v 0.657000 -0.465677 -0.801809
v 1.186692 -0.465677 -0.520748
v 0.334063 -0.144224 -0.455232
v 0.555350 -0.144224 0.102083
v 0.555350 -0.743864 0.102083
v 0.334063 -0.743864 -0.455232
v 1.721910 1.255081 -0.702352
v 0.401357 1.066462 -1.157947
v 0.831139 -0.012283 -1.957073
v 2.151692 0.176336 -1.501477
v 1.701213 2.385956 -2.353857
v 0.391424 1.865103 -2.340896
v 0.809285 0.794013 -3.156471
v 2.119074 1.314865 -3.169432
v 0.913611 3.311209 -3.820644
v -0.148109 2.494573 -3.381485
v 0.086333 1.612212 -4.455486
v 1.148053 2.428848 -4.894645
v -0.327406 4.107326 -4.308681
v -0.967917 3.019840 -3.680887
v -1.076770 2.365830 -4.924842
v -0.436259 3.453315 -5.552636
v -2.239784 4.726642 -4.298197
v -2.441161 3.566477 -3.729874
v -2.930138 3.102532 -4.850223
v -2.728761 4.262697 -5.418546
v -4.327698 5.086422 -3.121739
v -4.296340 4.152906 -2.793864
v -5.012201 3.905053 -3.431083
v -5.043560 4.838569 -3.758957
v -5.760548 5.259610 -1.184062
v -5.723882 4.799526 -1.052053
v -6.132399 4.700450 -1.283884
v -6.169065 5.160534 -1.415893
v -0.396417 -0.150663 -0.701737
v -0.625983 -0.183422 -0.148750
v -0.824421 -0.737425 -0.263947
v -0.594855 -0.704667 -0.816935
v -1.319133 1.353677 -0.926154
v -1.315449 0.873198 0.399036
v -2.260520 -0.110879 0.044863
v -2.264203 0.369600 -1.280328
v -2.674646 2.431036 -0.123257
v -2.288577 1.633486 0.973041
v -3.352686 0.748931 0.704267
v -3.738755 1.546481 -0.392031
v -3.496587 3.286982 1.190160
v -2.911719 2.257616 1.955235
v -4.170722 1.636438 2.081930
v -4.755590 2.665804 1.316855
v -3.309124 4.013021 2.390716
v -2.762857 2.786786 2.820767
v -3.985252 2.460135 3.442098
v -4.531520 3.686369 3.012047
v -2.422157 4.598196 3.954293
v -2.053897 3.354861 4.121718
v -2.915646 3.230979 5.097201
v -3.283906 4.474313 4.929776
v -0.474087 4.968131 5.166740
v -0.270144 4.002497 5.243524
v -0.530873 4.023346 6.198261
v -0.734815 4.988980 6.121478
v 1.869630 5.198562 5.509399
v 1.962820 4.729051 5.545782
v 1.939540 4.761501 6.024168
v 1.846351 5.231011 5.987785
v -0.409513 -0.150663 0.694176
v 0.184172 -0.183422 0.616493
v 0.183627 -0.737425 0.845944
v -0.410057 -0.704667 0.923627
v -0.142506 1.353677 1.605480
v 1.003301 0.873198 0.939695
v 1.169113 -0.110879 1.935237
v 0.023306 0.369600 2.601022
v 1.230580 2.431036 2.377940
v 1.986968 1.633487 1.495446
v 2.286257 0.748932 2.551378
v 1.529869 1.546482 3.433872
v 2.779003 3.286983 2.433053
v 3.149143 2.257617 1.544006
v 3.888366 1.636439 2.570987
v 3.518225 2.665805 3.460035
v 3.724983 4.013021 1.670427
v 3.824285 2.786786 0.982321
v 4.973571 2.460136 1.730281
v 4.874269 3.686371 2.418387
v 4.635597 4.598197 0.120503
v 4.596462 3.354863 -0.282132
v 5.872129 3.230980 -0.023577
v 5.911264 4.474314 0.379058
v 4.711572 4.968131 -2.172800
v 4.676097 4.002498 -2.387810
v 5.633287 4.023347 -2.639381
v 5.668763 4.988981 -2.424371
v 3.836465 5.198562 -4.373847
v 3.821378 4.729052 -4.472744
v 4.247312 4.761501 -4.691776
v 4.262399 5.231012 -4.592880
v 1.139403 0.206188 -0.161114
v 0.385704 0.206188 -0.561036
v 0.653696 -0.427131 -1.066097
v 1.407395 -0.427131 -0.666175
v 0.071190 2.209597 -2.890356
v -0.534169 2.726666 -3.488079
v 0.251039 -0.144224 -0.422267
v 0.472326 -0.144224 0.135049
v 0.472326 -0.743864 0.135049
v 0.251039 -0.743864 -0.422267
v -0.636356 0.281607 -0.773619
v -0.765561 0.105911 0.051267
v -1.322988 -0.502550 -0.165643
v -2.591799 1.965858 1.509086
v -2.811338 2.496691 2.354220
v -0.353118 -0.144224 0.341521
v 0.240175 -0.144224 0.428539
v 0.240176 -0.743864 0.428539
v -0.353117 -0.743864 0.341521
v -0.351795 0.281607 0.937910
v 0.427180 0.105911 0.637363
v 0.518044 -0.502550 1.228563
v 2.602807 1.965859 1.490021
v 3.444485 2.496692 1.257580
v -0.119206 -0.144224 -0.476570
v -0.491212 -0.144224 -0.006272
v -0.491212 -0.743864 -0.006272
v -0.119206 -0.743864 -0.476570
vt -0.372866 -0.573086
vt -0.261177 -0.672886
vt -0.283909 -0.531320
vt -0.482482 -0.638692
vt -0.396827 -0.544608
vt 0.138756 1.353374
vt 0.211551 1.426169
vt 0.138756 1.426169
vt 0.285322 1.353374
vt 0.212527 1.426169
vt 0.212527 1.353374
vt -0.175041 -0.627618
vt -0.176877 -0.526731
vt 0.286298 1.426169
vt 0.359093 1.353374
vt 0.359093 1.426170
vt 0.072642 -0.614274
vt 0.100915 -0.514553
vt 0.029088 -0.575869
vt 0.063736 -0.694313
vt 0.070088 -0.787869
vt 0.110327 -0.758794
vt -0.076613 -0.596183
vt -0.066723 -0.564597
vt -0.443571 -0.647832
vt -0.354293 -0.663247
vt -0.170772 -0.484461
vt -0.029081 -0.529657
vt -0.294544 -0.492508
vt -0.640994 -0.520709
vt -0.471102 -0.409603
vt -0.167099 -0.331479
vt 0.059898 -0.348793
vt -0.343323 -0.360613
vt -0.264216 0.097779
vt -0.045972 0.151176
vt -0.045098 0.231226
vt -0.771241 -0.276791
vt -0.538026 -0.204241
vt -0.470914 0.264221
vt -0.589439 0.030230
vt -0.422936 0.062863
vt -0.683008 0.507652
vt -0.874843 0.173631
vt -0.634506 0.229936
vt 0.031853 -0.077432
vt 1.639312 0.521220
vt 1.468198 0.763550
vt 1.453467 0.521730
vt -0.383965 -0.163674
vt 0.898592 -0.359487
vt 0.757459 -0.751281
vt 0.833558 -0.787869
vt 0.574511 0.046931
vt 0.401465 0.328562
vt 0.406086 0.038498
vt 1.472807 -0.331742
vt 1.295506 0.024762
vt 1.334091 -0.346357
vt -0.574068 0.979082
vt -0.341359 0.561087
vt -0.397668 0.976957
vt 0.412135 0.539060
vt 0.175486 0.532655
vt 0.150292 0.444960
vt -0.205256 -0.130866
vt 1.785590 -0.364211
vt 1.649551 -0.752384
vt 1.725025 -0.787869
vt 0.570393 0.538116
vt 0.407882 0.786815
vt -0.137739 0.597943
vt -0.295569 0.290490
vt -0.071999 0.325866
vt 1.292773 0.989057
vt 1.287246 0.768784
vt 1.599470 1.180128
vt 1.569638 1.270418
vt 1.449084 1.305985
vt 0.587955 0.326058
vt 0.757058 0.536331
vt 0.675405 -0.731360
vt 0.728162 -0.327416
vt -0.071614 -0.611068
vt -0.159074 -0.689328
vt -0.064689 -0.680251
vt -0.215365 0.998346
vt -0.204856 1.458725
vt -0.285538 1.436031
vt 0.021997 -0.563581
vt -0.169614 -0.640674
vt 0.711937 1.180852
vt 0.789419 1.300362
vt 0.671133 1.257492
vt 0.442809 1.167597
vt 0.359016 1.278521
vt 0.301249 1.231941
vt 1.022710 0.659445
vt 0.992335 0.794233
vt 0.757516 0.779251
vt -0.869108 0.061968
vt -0.831426 -0.018801
vt 0.983692 1.070803
vt 0.742463 1.006769
vt 0.182359 1.066686
vt -0.369362 1.432199
vt 1.330081 1.270727
vt 1.310347 1.164546
vt 1.639659 0.764237
vt 1.476075 0.985859
vt 1.902262 0.642744
vt 1.873595 0.776327
vt 1.031380 0.764120
vt 1.023687 0.625194
vt 1.295802 0.520675
vt -0.752443 0.913097
vt -0.504223 0.536182
vt 1.192203 1.306961
vt 1.241345 1.335334
vt 1.241345 1.426263
vt 1.061881 0.510461
vt 1.038380 0.423447
vt 0.767889 0.044117
vt 1.011860 0.342904
vt 0.761479 0.332066
vt 1.472812 0.311101
vt 1.653145 0.033501
vt 1.892045 0.330226
vt 1.644754 0.318328
vt 1.065720 0.004318
vt 1.287959 0.311709
vt 1.051697 0.318418
vt 1.461943 0.034656
vt -0.036182 1.049635
vt 1.870314 1.049882
vt 1.626925 0.995728
vt 1.050304 1.038948
vt 1.568338 -0.733411
vt 0.150385 0.789879
vt 0.138756 0.649545
vt 1.062700 1.396415
vt 1.102244 1.479170
vt 1.048542 1.486236
vt 1.052454 1.306961
vt 1.092059 1.388813
vt 1.902262 0.436933
vt 1.886813 0.524477
vt 1.112479 1.569522
vt 1.023687 1.573703
vt 1.696569 1.296623
vt 1.206639 1.269337
vt 1.154147 1.214482
vt 0.575051 1.258397
vt 0.478724 1.261396
vt 0.419092 1.002356
vt 0.587129 0.778754
vt 0.005054 0.053806
vt -0.834792 -0.141625
vt 0.596201 0.995100
vt 1.022710 0.450978
vt 1.007127 0.539614
vt -0.459606 1.446270
vt 1.873066 0.024177
vt 1.616987 -0.333968
vt 1.489983 -0.732002
vt 1.406578 -0.740107
vt 0.582246 -0.323905
vt 0.441706 -0.337448
vt -0.127441 1.500398
vt 0.990458 0.033012
vt 0.173172 0.020100
vt 0.162442 0.338375
vt 0.596093 -0.729245
vt 0.511584 -0.736710
vt 0.004323 -0.743985
vt -0.074368 -0.735977
vt 0.020925 -0.722269
vt 0.581319 1.352398
vt 0.211551 1.353374
vt 0.285322 1.426169
vt 0.286298 1.353374
vt 0.137779 -0.555201
vt -0.902262 0.471270
vt 0.288398 -0.370080
vt 1.182975 -0.379937
vt -0.262613 -0.686758
vt 0.853055 1.253090
vt 0.470439 1.339388
vt 1.048602 1.661153
vt 1.192203 1.454636
vt 1.113455 1.409171
vt 1.113455 1.352426
vt 1.112479 1.660452
vt -0.254495 -0.685531
vt 1.302380 1.397000
vt 1.242322 1.328728
vt 1.302380 1.306961
vt 1.755384 1.240633
vt 0.137779 1.100689
vt 0.459216 1.344081
vn 0.2684 0.1028 0.9578
vn 0.4327 -0.7020 0.5656
vn 0.4878 -0.8136 0.3164
vn -0.9086 0.1226 0.3993
vn 0.2053 0.1492 0.9672
vn 0.2173 0.6963 -0.6840
vn -0.7951 -0.4472 -0.4097
vn -0.7607 0.6223 -0.1844
vn 0.6962 -0.3735 0.6130
vn 0.5401 0.6223 -0.5666
vn 0.4837 0.6963 0.5302
vn -0.1791 -0.7756 -0.6052
vn -0.4330 -0.7955 -0.4238
vn -0.8379 0.5352 0.1065
vn 0.1801 -0.2864 0.9410
vn 0.0965 0.7621 0.6401
vn 0.5443 0.7589 0.3575
vn 0.3807 -0.7703 0.5116
vn 0.3807 0.7703 0.5116
vn -0.6207 0.7786 0.0920
vn -0.5237 -0.7655 0.3738
vn -0.6313 -0.7692 0.0988
vn -0.5256 0.6158 -0.5869
vn -0.8540 0.4575 0.2474
vn 0.2539 0.6316 0.7325
vn -0.5256 -0.7879 -0.3209
vn 0.5902 -0.7708 0.2398
vn -0.8614 0.3759 0.3416
vn 0.4571 0.5300 0.7142
vn -0.4256 -0.7616 -0.4887
vn 0.8723 -0.4880 -0.0305
vn -0.3204 -0.8506 -0.4169
vn -0.6431 0.0217 0.7654
vn -0.4193 -0.1346 0.8978
vn -0.8355 0.3175 0.4484
vn 0.5104 0.7745 0.3736
vn 0.2621 0.2391 -0.9349
vn 0.5018 0.8390 0.2102
vn 0.6504 -0.0355 -0.7588
vn 0.2909 0.9344 0.2056
vn -0.2952 -0.1729 0.9396
vn 0.3802 0.8968 0.2259
vn -0.5247 0.8483 0.0709
vn -0.2371 -0.0251 0.9712
vn 0.2023 0.1782 0.9630
vn 0.8834 -0.2407 -0.4020
vn 0.4464 -0.7177 -0.5344
vn 0.7523 -0.4472 -0.4837
vn -0.6416 0.5866 0.4941
vn -0.4153 -0.7257 0.5485
vn -0.2890 -0.6626 0.6909
vn 0.7183 0.6813 -0.1409
vn 0.7429 -0.6626 -0.0952
vn 0.6753 -0.5995 -0.4295
vn -0.6139 0.4781 -0.6280
vn -0.4402 -0.8148 -0.3771
vn -0.6010 -0.7731 -0.2025
vn -0.4477 -0.7971 0.4051
vn 0.9032 -0.2636 0.3386
vn 0.9320 -0.3573 0.0604
vn -0.3661 -0.8219 -0.4364
vn -0.6860 -0.7177 -0.1194
vn 0.1827 -0.3735 -0.9095
vn -0.9351 0.1782 -0.3062
vn -0.4091 -0.8445 0.3456
vn 0.0712 -0.3779 0.9231
vn -0.3688 -0.8397 -0.3985
vn 0.5051 -0.8539 0.1251
vn 0.5038 -0.8445 0.1815
vn -0.8114 0.3756 -0.4479
vn -0.8607 0.4382 -0.2589
vn -0.6917 -0.6709 0.2672
vn -0.8849 0.4529 0.1084
vn 0.2009 0.8483 -0.4899
vn 0.1344 0.7514 -0.6460
vn -0.0739 0.7703 -0.6334
vn 0.2300 -0.7692 -0.5961
vn 0.2306 0.7786 -0.5835
vn 0.4150 -0.4999 0.7602
vn -0.0739 -0.7703 -0.6334
vn 0.7935 0.3756 -0.4787
vn 0.1397 0.4081 0.9022
vn 0.6546 0.4382 -0.6159
vn -0.2611 -0.8476 0.4620
vn 0.6608 0.0012 0.7506
vn 0.8300 -0.0519 0.5553
vn 0.7458 0.0613 0.6634
vn 0.2762 0.8358 -0.4745
vn 0.6264 0.1745 0.7597
vn 0.5406 0.6256 -0.5624
vn -0.7544 -0.5137 0.4086
vn 0.5122 -0.8523 0.1063
vn 0.5307 -0.8476 -0.0049
vn -0.5490 0.8358 -0.0020
vn -0.5917 -0.3051 0.7462
vn 0.0659 -0.0519 -0.9965
vn 0.2016 0.0613 -0.9775
vn 0.5747 -0.7971 0.1852
vn 0.3505 0.9072 0.2326
vn -0.2070 0.3771 -0.9027
vn 0.5856 -0.7655 0.2666
vn -0.1584 -0.2636 -0.9515
vn -0.4137 -0.3573 -0.8373
vn 0.2355 0.8203 -0.5211
vn 0.8999 -0.4324 -0.0558
vn 0.2648 0.8256 -0.4982
vn 0.5363 0.4529 0.7121
vn -0.5690 0.8203 0.0566
vn -0.4983 -0.4324 -0.7514
vn -0.5639 0.8256 0.0197
vn -0.6495 -0.6274 -0.4296
vn 0.6827 -0.7257 0.0854
vn 0.7487 0.5866 0.3086
vn 0.3447 0.1745 -0.9223
vn -0.7574 0.6256 -0.1870
vn 0.7114 0.4081 -0.5721
vn 0.3196 0.0012 -0.9475
vn 0.1144 -0.6709 -0.7326
vn -0.3481 -0.8523 0.3904
vn -0.3609 -0.8539 0.3748
vn -0.7225 -0.0251 -0.6909
vn -0.8164 0.1883 0.5459
vn -0.3504 -0.3051 -0.8855
vn -0.6266 0.7514 0.2066
vn -0.2371 0.6813 0.6926
vn 0.0343 -0.5995 0.7996
vn 0.6968 -0.6274 -0.3477
vn -0.5817 0.7589 0.2926
usemtl Material
s 1
f 1/1/1 7/2/2 4/3/3
f 102/4/4 1/1/1 101/5/5
f 100/6/6 98/7/7 97/8/8
f 67/9/9 65/10/10 68/11/11
f 4/3/3 8/12/12 3/13/13
f 36/14/14 34/15/15 33/16/16
f 117/17/17 109/18/18 108/19/19
f 116/20/20 127/21/21 119/22/22
f 3/13/13 5/23/23 2/24/24
f 2/25/24 6/26/25 1/1/1
f 103/27/26 2/24/24 102/28/4
f 103/27/26 4/3/3 3/13/13
f 101/5/5 4/3/3 104/29/27
f 10/30/28 101/5/5 9/31/29
f 11/32/30 102/28/4 10/33/28
f 11/32/30 104/29/27 103/27/26
f 12/34/31 101/5/5 104/29/27
f 19/35/32 18/36/33 106/37/34
f 14/38/35 9/31/29 13/39/36
f 24/40/37 17/41/38 20/42/39
f 25/43/40 22/44/41 21/45/42
f 14/46/35 11/32/30 10/33/28
f 81/47/43 80/48/44 84/49/45
f 13/39/36 12/34/31 16/50/46
f 62/51/47 66/52/48 67/53/9
f 60/54/49 55/55/50 59/56/51
f 96/57/52 91/58/53 95/59/54
f 32/60/55 27/61/56 31/62/57
f 51/63/58 50/64/59 115/65/60
f 20/42/39 15/66/61 19/35/32
f 94/67/62 98/68/7 99/69/63
f 52/70/64 47/71/65 51/63/58
f 26/72/66 23/73/67 22/74/41
f 80/48/44 75/75/68 79/76/69
f 120/77/70 69/78/71 72/79/72
f 24/40/37 19/35/32 23/73/67
f 56/80/73 49/81/74 52/70/64
f 65/82/10 62/51/47 61/83/75
f 107/84/76 128/85/77 125/86/78
f 30/87/79 33/88/16 34/89/15
f 109/18/18 6/90/25 108/19/19
f 107/84/76 8/12/12 110/91/80
f 111/92/81 38/93/82 37/94/83
f 113/95/84 38/96/82 112/97/85
f 114/98/86 46/99/87 45/100/88
f 106/101/34 18/102/33 17/41/38
f 42/103/89 111/92/81 41/104/90
f 42/105/89 113/95/84 112/97/85
f 35/106/91 30/87/79 34/89/15
f 72/79/72 71/107/92 122/108/93
f 77/109/94 76/110/95 80/48/44
f 123/111/96 78/112/97 77/109/94
f 79/76/69 78/113/97 123/114/96
f 84/49/45 79/76/69 83/115/98
f 29/116/99 28/117/100 32/60/55
f 109/118/18 118/119/101 119/120/22
f 83/115/98 82/121/102 124/122/103
f 57/123/104 54/124/105 53/125/106
f 88/126/107 81/47/43 84/49/45
f 89/127/108 86/128/109 85/129/110
f 90/130/111 87/131/112 86/132/109
f 92/133/113 87/131/112 91/58/53
f 89/127/108 88/126/107 92/133/113
f 16/50/46 11/32/30 15/66/61
f 26/72/66 29/134/99 30/87/79
f 77/109/94 74/135/114 73/136/115
f 78/113/97 75/75/68 74/137/114
f 55/55/50 52/70/64 51/63/58
f 94/67/62 97/138/8 98/68/7
f 47/71/65 46/139/87 114/140/86
f 28/117/100 23/73/67 27/61/56
f 70/141/116 116/142/20 69/143/71
f 70/141/116 118/144/101 117/145/17
f 124/146/103 82/147/102 81/47/43
f 69/143/71 119/148/22 72/149/72
f 120/77/70 70/150/116 69/78/71
f 122/108/93 70/151/116 121/152/117
f 40/153/118 39/154/119 113/95/84
f 111/92/81 37/94/83 40/153/118
f 74/135/114 120/77/70 73/136/115
f 74/137/114 122/108/93 121/152/117
f 45/100/88 42/103/89 41/104/90
f 46/139/87 43/155/120 42/105/89
f 48/156/121 43/155/120 47/71/65
f 17/41/38 16/50/46 20/42/39
f 15/66/61 14/46/35 105/157/122
f 105/158/122 14/38/35 13/39/36
f 45/100/88 44/159/123 48/156/121
f 49/81/74 48/156/121 52/70/64
f 115/160/60 50/161/59 49/81/74
f 36/162/14 31/62/57 35/106/91
f 90/163/111 93/164/124 94/67/62
f 25/43/40 24/40/37 28/117/100
f 87/131/112 84/49/45 83/115/98
f 57/123/104 56/80/73 60/54/49
f 100/165/6 95/59/54 99/166/63
f 27/61/56 30/87/79 31/62/57
f 64/167/125 59/56/51 63/168/126
f 29/134/99 36/169/14 33/88/16
f 58/170/127 61/83/75 62/51/47
f 58/171/127 55/55/50 54/172/105
f 68/173/11 63/168/126 67/174/9
f 100/165/6 97/138/8 93/164/124
f 108/19/19 107/84/76 116/20/20
f 38/175/82 125/86/78 37/176/83
f 38/175/82 127/21/21 126/177/128
f 68/173/11 65/82/10 61/83/75
f 37/94/83 128/178/77 40/153/118
f 1/1/1 6/26/25 7/2/2
f 102/4/4 2/25/24 1/1/1
f 100/6/6 99/179/63 98/7/7
f 67/9/9 66/180/48 65/10/10
f 4/3/3 7/2/2 8/12/12
f 36/14/14 35/181/91 34/15/15
f 117/17/17 118/182/101 109/18/18
f 116/20/20 126/177/128 127/21/21
f 3/13/13 8/12/12 5/23/23
f 2/24/24 5/23/23 6/90/25
f 103/27/26 3/13/13 2/24/24
f 103/27/26 104/29/27 4/3/3
f 101/5/5 1/1/1 4/3/3
f 10/30/28 102/4/4 101/5/5
f 11/32/30 103/27/26 102/28/4
f 11/32/30 12/34/31 104/29/27
f 12/34/31 9/31/29 101/5/5
f 106/37/34 22/74/41 23/73/67
f 23/73/67 19/35/32 106/37/34
f 14/38/35 10/30/28 9/31/29
f 24/40/37 21/45/42 17/41/38
f 25/43/40 26/183/66 22/44/41
f 14/46/35 15/66/61 11/32/30
f 81/47/43 77/109/94 80/48/44
f 13/39/36 9/31/29 12/34/31
f 67/174/9 63/168/126 62/184/47
f 63/168/126 59/56/51 58/171/127
f 62/184/47 63/168/126 58/171/127
f 60/54/49 56/80/73 55/55/50
f 96/57/52 92/133/113 91/58/53
f 32/60/55 28/117/100 27/61/56
f 115/65/60 54/172/105 55/55/50
f 55/55/50 51/63/58 115/65/60
f 20/42/39 16/50/46 15/66/61
f 99/166/63 95/59/54 94/185/62
f 95/59/54 91/58/53 90/130/111
f 94/185/62 95/59/54 90/130/111
f 52/70/64 48/156/121 47/71/65
f 26/72/66 27/61/56 23/73/67
f 80/48/44 76/110/95 75/75/68
f 72/79/72 76/110/95 120/77/70
f 76/110/95 73/136/115 120/77/70
f 24/40/37 20/42/39 19/35/32
f 56/80/73 53/125/106 49/81/74
f 65/82/10 66/52/48 62/51/47
f 107/84/76 110/91/80 128/85/77
f 30/87/79 29/134/99 33/88/16
f 109/186/18 7/2/2 6/26/25
f 107/84/76 5/23/23 8/12/12
f 111/92/81 112/187/85 38/93/82
f 113/95/84 39/154/119 38/96/82
f 45/100/88 49/81/74 114/98/86
f 49/81/74 50/161/59 114/98/86
f 17/41/38 21/45/42 106/101/34
f 21/45/42 22/44/41 106/101/34
f 42/103/89 112/187/85 111/92/81
f 42/105/89 43/155/120 113/95/84
f 35/106/91 31/62/57 30/87/79
f 122/108/93 75/75/68 76/110/95
f 76/110/95 72/79/72 122/108/93
f 77/109/94 73/136/115 76/110/95
f 77/109/94 81/47/43 123/111/96
f 81/47/43 82/147/102 123/111/96
f 123/114/96 82/121/102 83/115/98
f 83/115/98 79/76/69 123/114/96
f 84/49/45 80/48/44 79/76/69
f 29/116/99 25/43/40 28/117/100
f 127/188/21 39/154/119 128/178/77
f 39/154/119 40/153/118 128/178/77
f 71/189/92 72/149/72 119/148/22
f 119/120/22 127/190/21 109/118/18
f 127/190/21 128/191/77 110/192/80
f 110/91/80 8/12/12 7/2/2
f 127/190/21 110/192/80 109/118/18
f 118/193/101 71/189/92 119/148/22
f 110/91/80 7/2/2 109/194/18
f 124/122/103 86/132/109 87/131/112
f 87/131/112 83/115/98 124/122/103
f 57/123/104 58/170/127 54/124/105
f 88/126/107 85/129/110 81/47/43
f 89/127/108 90/163/111 86/128/109
f 90/130/111 91/58/53 87/131/112
f 92/133/113 88/126/107 87/131/112
f 89/127/108 85/129/110 88/126/107
f 16/50/46 12/34/31 11/32/30
f 26/183/66 25/43/40 29/116/99
f 77/109/94 78/112/97 74/135/114
f 78/113/97 79/76/69 75/75/68
f 55/55/50 56/80/73 52/70/64
f 94/67/62 93/164/124 97/138/8
f 114/140/86 50/64/59 51/63/58
f 51/63/58 47/71/65 114/140/86
f 28/117/100 24/40/37 23/73/67
f 70/141/116 117/145/17 116/142/20
f 70/195/116 71/196/92 118/197/101
f 81/47/43 85/129/110 124/146/103
f 85/129/110 86/128/109 124/146/103
f 69/143/71 116/142/20 119/148/22
f 120/77/70 121/198/117 70/150/116
f 122/108/93 71/107/92 70/151/116
f 113/95/84 43/155/120 44/159/123
f 44/159/123 40/153/118 113/95/84
f 40/153/118 44/159/123 111/92/81
f 44/159/123 41/104/90 111/92/81
f 74/135/114 121/198/117 120/77/70
f 74/137/114 75/75/68 122/108/93
f 45/100/88 46/99/87 42/103/89
f 46/139/87 47/71/65 43/155/120
f 48/156/121 44/159/123 43/155/120
f 17/41/38 13/39/36 16/50/46
f 105/157/122 18/36/33 19/35/32
f 19/35/32 15/66/61 105/157/122
f 13/39/36 17/41/38 105/158/122
f 17/41/38 18/102/33 105/158/122
f 45/100/88 41/104/90 44/159/123
f 49/81/74 45/100/88 48/156/121
f 49/81/74 53/125/106 115/160/60
f 53/125/106 54/124/105 115/160/60
f 36/162/14 32/60/55 31/62/57
f 90/163/111 89/127/108 93/164/124
f 25/43/40 21/45/42 24/40/37
f 87/131/112 88/126/107 84/49/45
f 57/123/104 53/125/106 56/80/73
f 100/165/6 96/57/52 95/59/54
f 27/61/56 26/72/66 30/87/79
f 64/167/125 60/54/49 59/56/51
f 29/134/99 32/199/55 36/169/14
f 58/170/127 57/123/104 61/83/75
f 58/171/127 59/56/51 55/55/50
f 68/173/11 64/167/125 63/168/126
f 93/164/124 89/127/108 96/57/52
f 89/127/108 92/133/113 96/57/52
f 96/57/52 100/165/6 93/164/124
f 108/19/19 6/90/25 5/23/23
f 107/84/76 125/86/78 126/177/128
f 108/19/19 5/23/23 107/84/76
f 116/20/20 117/17/17 108/19/19
f 107/84/76 126/177/128 116/20/20
f 38/175/82 126/177/128 125/86/78
f 38/96/82 39/154/119 127/200/21
f 61/83/75 57/123/104 64/167/125
f 57/123/104 60/54/49 64/167/125
f 64/167/125 68/173/11 61/83/75
f 37/176/83 125/86/78 128/85/77
