# Blender v2.80 (sub 60) OBJ File: 'SCREEN.blend'
# www.blender.org
mtllib screen.mtl
o Plane
v 0.297437 0.339014 -0.828234
v -0.440540 0.247945 -0.833111
v 0.257952 0.659284 -0.833864
v -0.480025 0.568215 -0.838740
v 0.239667 0.330953 -0.945007
v 0.136943 0.316803 -1.029519
v 0.033859 0.303339 -1.072464
v -0.069480 0.290362 -1.085925
v -0.173040 0.277807 -1.073831
v -0.276854 0.265739 -1.032253
v -0.381028 0.254357 -0.949109
v -0.420243 0.572432 -0.954700
v -0.316069 0.583814 -1.037844
v -0.212254 0.595883 -1.079422
v -0.108695 0.608438 -1.091516
v -0.005356 0.621415 -1.078055
v 0.097728 0.634878 -1.035110
v 0.200452 0.649029 -0.950598
v 0.257863 0.659454 -0.830262
v 0.297348 0.339184 -0.824632
v -0.381117 0.254527 -0.945506
v -0.440629 0.248115 -0.829508
v -0.480114 0.568385 -0.835138
v 0.200363 0.649199 -0.946996
v 0.239578 0.331124 -0.941405
v 0.136853 0.316973 -1.025916
v 0.033770 0.303510 -1.068861
v -0.069569 0.290533 -1.082322
v -0.173129 0.277978 -1.070229
v -0.276943 0.265909 -1.028650
v -0.420332 0.572603 -0.951097
v -0.316158 0.583985 -1.034241
v -0.212343 0.596053 -1.075820
v -0.108784 0.608608 -1.087913
v -0.005445 0.621585 -1.074453
v 0.097639 0.635049 -1.031507
vt 0.862700 0.364593
vt 0.997486 0.363451
vt 0.997486 0.696729
vt 0.862700 0.695587
vt 0.002448 0.363451
vt 0.137234 0.364593
vt 0.137234 0.695587
vt 0.002448 0.696729
vt 0.275371 0.364593
vt 0.275371 0.695587
vt 0.391523 0.364593
vt 0.391523 0.695587
vt 0.499967 0.364593
vt 0.499967 0.695587
vt 0.608411 0.364593
vt 0.608411 0.695587
vt 0.724563 0.364593
vt 0.724563 0.695587
vt 0.138961 0.001846
vt 0.138961 0.332840
vt 0.004175 0.333982
vt 0.004174 0.000704
vt 0.999213 0.000704
vt 0.999213 0.333982
vt 0.864427 0.332840
vt 0.864427 0.001846
vt 0.726290 0.332840
vt 0.726290 0.001846
vt 0.610138 0.332840
vt 0.610138 0.001846
vt 0.501694 0.332840
vt 0.501694 0.001846
vt 0.393250 0.332840
vt 0.393250 0.001846
vt 0.277098 0.332840
vt 0.277098 0.001846
vt 0.724563 0.695587
vt 0.608411 0.695587
vt 0.275371 0.364593
vt 0.391523 0.364593
vt 0.499967 0.695587
vt 0.499967 0.364593
vt 0.002448 0.696729
vt 0.002448 0.363451
vt 0.391523 0.695587
vt 0.608411 0.364593
vt 0.862700 0.364593
vt 0.997486 0.363451
vt 0.275371 0.695587
vt 0.724563 0.364593
vt 0.997486 0.696729
vt 0.137234 0.695587
vt 0.862700 0.695587
vt 0.137234 0.364593
vn -0.4813 -0.7501 -0.4534
vn -0.6103 -0.7763 -0.1576
vn -0.8151 0.5398 -0.2104
vn -0.6601 0.5620 -0.4984
vn 0.7876 -0.5998 -0.1408
vn 0.6552 -0.6095 -0.4462
vn 0.5099 0.7067 -0.4904
vn 0.6656 0.7212 -0.1917
vn 0.4554 -0.6478 -0.6106
vn 0.2998 0.6940 -0.6546
vn 0.2711 -0.6738 -0.6873
vn 0.1096 0.6732 -0.7313
vn 0.0908 -0.6983 -0.7100
vn -0.0755 0.6522 -0.7542
vn -0.0902 -0.7185 -0.6896
vn -0.2604 0.6275 -0.7338
vn -0.2763 -0.7383 -0.6153
vn -0.4509 0.6012 -0.6597
vn 0.6225 -0.6488 0.4376
vn 0.3875 0.8368 0.3868
vn -0.2730 0.5351 0.7994
vn -0.1403 -0.5412 0.8291
vn 0.2468 -0.4938 0.8338
vn 0.1144 0.5834 0.8041
vn -0.5851 0.7160 0.3807
vn -0.4500 -0.7827 0.4300
vn -0.4254 0.7185 0.5502
vn -0.2628 -0.7544 0.6015
vn -0.2614 0.7346 0.6260
vn -0.0889 -0.7301 0.6775
vn -0.0972 0.7526 0.6513
vn 0.0826 -0.7066 0.7027
vn 0.0667 0.7752 0.6281
vn 0.2550 -0.6875 0.6799
vn 0.2305 0.7997 0.5544
vn 0.4306 -0.6686 0.6063
usemtl None
s 1
f 11/1/1 2/2/2 4/3/3 12/4/4
f 1/5/5 5/6/6 18/7/7 3/8/8
f 5/6/6 6/9/9 17/10/10 18/7/7
f 6/9/9 7/11/11 16/12/12 17/10/10
f 7/11/11 8/13/13 15/14/14 16/12/12
f 8/13/13 9/15/15 14/16/16 15/14/14
f 9/15/15 10/17/17 13/18/18 14/16/16
f 10/17/17 11/1/1 12/4/4 13/18/18
f 21/19/19 31/20/20 23/21/21 22/22/22
f 20/23/23 19/24/24 24/25/25 25/26/26
f 25/26/26 24/25/25 36/27/27 26/28/28
f 26/28/28 36/27/27 35/29/29 27/30/30
f 27/30/30 35/29/29 34/31/31 28/32/32
f 28/32/32 34/31/31 33/33/33 29/34/34
f 29/34/34 33/33/33 32/35/35 30/36/36
f 30/36/36 32/35/35 31/20/20 21/19/19
f 13/18/18 32/37/35 33/38/33 14/16/16
f 6/9/9 26/39/28 27/40/30 7/11/11
f 14/16/16 33/38/33 34/41/31 15/14/14
f 7/11/11 27/40/30 28/42/32 8/13/13
f 3/8/8 19/43/24 20/44/23 1/5/5
f 15/14/14 34/41/31 35/45/29 16/12/12
f 8/13/13 28/42/32 29/46/34 9/15/15
f 11/1/1 21/47/19 22/48/22 2/2/2
f 16/12/12 35/45/29 36/49/27 17/10/10
f 9/15/15 29/46/34 30/50/36 10/17/17
f 2/2/2 22/48/22 23/51/21 4/3/3
f 17/10/10 36/49/27 24/52/25 18/7/7
f 10/17/17 30/50/36 21/47/19 11/1/1
f 18/7/7 24/52/25 19/43/24 3/8/8
f 4/3/3 23/51/21 31/53/20 12/4/4
f 1/5/5 20/44/23 25/54/26 5/6/6
f 12/4/4 31/53/20 32/37/35 13/18/18
f 5/6/6 25/54/26 26/39/28 6/9/9
