# Blender v2.80 (sub 60) OBJ File: 'CrashedShipIntact but not 3.blend'
# www.blender.org
mtllib shipinside2.mtl
o Plane.000_Plane.004
v -0.229325 0.605502 -0.683298
v -0.238072 0.603971 -0.642831
v -0.194856 0.717712 -0.637873
v -0.189691 0.718616 -0.661769
v -0.023852 0.631545 -0.749148
v -0.061077 0.627159 -0.766800
v -0.090346 0.731403 -0.711074
v -0.068366 0.733993 -0.700651
v -0.039320 0.626953 -0.508954
v -0.005579 0.631373 -0.532586
v -0.057575 0.733891 -0.572777
v -0.077499 0.731281 -0.558823
v -0.234589 0.603939 -0.601547
v -0.192800 0.717692 -0.613497
v -0.101797 0.622209 -0.772619
v -0.114390 0.728480 -0.714510
v 0.019735 0.634856 -0.565198
v -0.042628 0.735948 -0.592033
v -0.219183 0.605406 -0.563115
v -0.183703 0.718559 -0.590804
v 0.034374 0.637091 -0.603891
v -0.033984 0.737269 -0.614881
v -0.193225 0.608244 -0.530950
v -0.168376 0.720234 -0.571811
v -0.142393 0.617135 -0.766091
v -0.138361 0.725484 -0.710655
v 0.037036 0.637882 -0.645229
v -0.032413 0.737736 -0.639289
v -0.159020 0.612199 -0.507910
v -0.148178 0.722570 -0.558206
v -0.179261 0.612390 -0.747794
v -0.160130 0.722683 -0.699851
v 0.027485 0.637156 -0.685537
v -0.038052 0.737307 -0.663090
v -0.119607 0.616920 -0.496042
v -0.124906 0.725357 -0.551198
v -0.209122 0.608393 -0.719354
v -0.177762 0.720323 -0.683057
v 0.006569 0.634980 -0.721234
v -0.050403 0.736021 -0.684168
v -0.078490 0.621988 -0.496401
v -0.100628 0.728350 -0.551410
v -0.143043 0.385490 -0.663370
v -0.147833 0.384652 -0.641213
v -0.030544 0.399749 -0.699424
v -0.050925 0.397347 -0.709088
v -0.039013 0.397235 -0.567913
v -0.020539 0.399654 -0.580852
v -0.145926 0.384634 -0.618610
v -0.073220 0.394637 -0.712275
v -0.006679 0.401562 -0.598707
v -0.137491 0.385437 -0.597567
v 0.001336 0.402785 -0.619893
v -0.123278 0.386990 -0.579956
v -0.095447 0.391859 -0.708700
v 0.002793 0.403218 -0.642526
v -0.104551 0.389156 -0.567342
v -0.115633 0.389260 -0.698682
v -0.002436 0.402821 -0.664595
v -0.082971 0.391741 -0.560844
v -0.131982 0.387072 -0.683111
v -0.013887 0.401629 -0.684140
v -0.060459 0.394516 -0.561040
v -0.067694 0.353624 -0.658242
v -0.074005 0.352835 -0.657227
v -0.046524 0.355938 -0.632011
v -0.046110 0.356061 -0.638437
v -0.081908 0.351453 -0.620671
v -0.076590 0.352068 -0.617089
v -0.079737 0.352097 -0.654383
v -0.047595 0.355948 -0.644704
v -0.070463 0.352802 -0.615244
v -0.084379 0.351477 -0.649961
v -0.050846 0.355609 -0.650254
v -0.064070 0.353590 -0.615299
v -0.087520 0.351027 -0.644356
v -0.055576 0.355076 -0.654593
v -0.057981 0.354362 -0.617252
v -0.088880 0.350789 -0.638065
v -0.061363 0.354394 -0.657337
v -0.052735 0.355048 -0.620926
v -0.088338 0.350784 -0.631647
v -0.048800 0.355591 -0.625995
v -0.085943 0.351012 -0.625672
v -0.148819 0.783093 -0.625094
v -0.149545 0.783100 -0.633705
v -0.121122 0.786903 -0.660775
v -0.112630 0.787935 -0.659562
v -0.095775 0.789541 -0.617514
v -0.101054 0.788815 -0.610711
v -0.145606 0.783399 -0.617079
v -0.092722 0.790008 -0.625583
v -0.140191 0.783991 -0.610370
v -0.129590 0.785845 -0.659414
v -0.092167 0.790172 -0.634206
v -0.133058 0.784816 -0.605565
v -0.137279 0.784855 -0.655597
v -0.094158 0.790021 -0.642613
v -0.124838 0.785800 -0.603090
v -0.143508 0.784022 -0.649665
v -0.098521 0.789567 -0.650057
v -0.116261 0.786857 -0.603164
v -0.147721 0.783419 -0.642146
v -0.104866 0.788851 -0.655879
v -0.108092 0.787893 -0.605783
vt 0.892221 0.053842
vt 0.867875 0.056705
vt 0.854714 0.002314
vt 0.869089 0.000623
vt 0.018141 0.825632
vt 0.040418 0.831535
vt 0.036534 0.891570
vt 0.023380 0.888085
vt 0.019013 0.551170
vt 0.000000 0.554733
vt 0.005731 0.484341
vt 0.016957 0.482237
vt 0.843051 0.061122
vt 0.840056 0.004921
vt 0.064852 0.837042
vt 0.050962 0.894822
vt 0.788980 0.755920
vt 0.808368 0.758473
vt 0.805427 0.828718
vt 0.793980 0.827211
vt 0.819954 0.066699
vt 0.826418 0.008215
vt 0.831174 0.763274
vt 0.818894 0.831553
vt 0.126736 0.517465
vt 0.110328 0.524317
vt 0.070876 0.466381
vt 0.080565 0.462335
vt 0.089271 0.841663
vt 0.065381 0.897551
vt 0.855373 0.769897
vt 0.833183 0.835464
vt 0.089391 0.531767
vt 0.058513 0.470780
vt 0.111506 0.844988
vt 0.078510 0.899514
vt 0.878813 0.777752
vt 0.847024 0.840103
vt 0.065786 0.539153
vt 0.044575 0.475141
vt 0.266568 0.873872
vt 0.289962 0.864602
vt 0.302237 0.905551
vt 0.288423 0.911025
vt 0.899413 0.786143
vt 0.859187 0.845057
vt 0.041611 0.545818
vt 0.030300 0.479077
vt 0.913925 0.052787
vt 0.881905 0.000000
vt 0.915342 0.794323
vt 0.868593 0.849887
vt 0.902042 0.193797
vt 0.888712 0.195364
vt 0.068566 0.694880
vt 0.080763 0.698112
vt 0.076739 0.670979
vt 0.066330 0.672930
vt 0.875120 0.197782
vt 0.094141 0.701127
vt 0.854878 0.641317
vt 0.865493 0.642715
vt 0.862474 0.200836
vt 0.877980 0.645344
vt 0.800637 0.072943
vt 0.851898 0.204255
vt 0.107510 0.703657
vt 0.891229 0.648970
vt 0.126736 0.656277
vt 0.115273 0.660356
vt 0.119684 0.705478
vt 0.904063 0.653271
vt 0.102349 0.664400
vt 0.129581 0.846722
vt 0.129581 0.706427
vt 0.915342 0.657865
vt 0.089112 0.668049
vt 0.913925 0.193219
vt 0.000000 0.819857
vt 0.058633 0.691718
vt 0.099312 0.673787
vt 0.103109 0.674505
vt 0.790999 0.935882
vt 0.788980 0.922929
vt 0.826594 0.926225
vt 0.827167 0.929903
vt 0.844525 0.877651
vt 0.857132 0.881972
vt 0.845945 0.914596
vt 0.842366 0.913369
vt 0.106565 0.675022
vt 0.796875 0.947525
vt 0.828836 0.933209
vt 0.831020 0.877195
vt 0.838531 0.913239
vt 0.875350 0.938729
vt 0.867721 0.949916
vt 0.848952 0.933888
vt 0.851118 0.930712
vt 0.806087 0.956825
vt 0.831451 0.935850
vt 0.817816 0.880645
vt 0.834782 0.914219
vt 0.897910 0.224926
vt 0.894536 0.225090
vt 0.817816 0.962955
vt 0.834782 0.937590
vt 0.806087 0.887694
vt 0.831451 0.916220
vt 0.890751 0.225535
vt 0.831020 0.965370
vt 0.838531 0.938276
vt 0.796875 0.897715
vt 0.828836 0.919066
vt 0.886892 0.226221
vt 0.095514 0.672930
vt 0.790999 0.909819
vt 0.827167 0.922503
vt 0.867721 0.889774
vt 0.875350 0.900364
vt 0.851118 0.919818
vt 0.848952 0.916811
vt 0.845945 0.936339
vt 0.842366 0.937846
vt 0.852252 0.923349
vt 0.852252 0.927091
vt 0.331616 0.907186
vt 0.344572 0.914149
vt 0.327006 0.943532
vt 0.322430 0.941072
vt 0.264308 0.945955
vt 0.268577 0.932166
vt 0.300163 0.949896
vt 0.298655 0.954766
vt 0.809804 0.871424
vt 0.805761 0.870892
vt 0.354790 0.924504
vt 0.330615 0.947189
vt 0.814561 0.872425
vt 0.361362 0.937329
vt 0.332937 0.951720
vt 0.276861 0.920167
vt 0.303089 0.945657
vt 0.819608 0.873807
vt 0.036794 0.437016
vt 0.041160 0.435462
vt 0.307173 0.942428
vt 0.824497 0.875445
vt 0.031870 0.438556
vt 0.312052 0.940495
vt 0.828794 0.877195
vt 0.026828 0.439946
vt 0.317074 0.904232
vt 0.317293 0.940029
vt 0.268940 0.973952
vt 0.264433 0.960309
vt 0.298699 0.959837
vt 0.300291 0.964656
vt 0.022115 0.441062
vt 0.018149 0.441806
vt 0.333764 0.956720
vt 0.333024 0.961747
vt 0.330782 0.966353
vt 0.327237 0.970128
vt 0.322705 0.972739
vt 0.317587 0.973952
vt 0.312340 0.973660
vt 0.307429 0.971889
vt 0.303290 0.968796
vn -0.9352 -0.0052 -0.3541
vn -0.9978 -0.0162 -0.0646
vn -0.8858 0.4615 -0.0482
vn -0.8339 0.4706 -0.2883
vn 0.5349 0.1811 -0.8252
vn 0.2686 0.1497 -0.9515
vn 0.1642 0.5991 -0.7837
vn 0.3851 0.6251 -0.6790
vn 0.4243 0.1482 0.8933
vn 0.6657 0.1799 0.7242
vn 0.4935 0.6241 0.6058
vn 0.2933 0.5978 0.7460
vn -0.9729 -0.0164 0.2308
vn -0.8652 0.4613 0.1967
vn -0.0227 0.1143 -0.9932
vn -0.0774 0.5697 -0.8182
vn 0.8468 0.2048 0.4909
vn 0.6437 0.6447 0.4124
vn -0.8626 -0.0059 0.5058
vn -0.7738 0.4700 0.4247
vn 0.9515 0.2208 0.2141
vn 0.7305 0.6580 0.1828
vn -0.6769 0.0144 0.7359
vn -0.6198 0.4868 0.6155
vn -0.3132 0.0780 -0.9465
vn -0.3182 0.5396 -0.7795
vn 0.9706 0.2264 -0.0817
vn 0.7463 0.6627 -0.0625
vn -0.4322 0.0427 0.9008
vn -0.4168 0.5103 0.7522
vn -0.5770 0.0440 -0.8156
vn -0.5369 0.5114 -0.6709
vn 0.9023 0.2212 -0.3701
vn 0.6896 0.6584 -0.3016
vn -0.1502 0.0765 0.9857
vn -0.1830 0.5383 0.8226
vn -0.7906 0.0154 -0.6121
vn -0.7141 0.4877 -0.5022
vn 0.7526 0.2057 -0.6255
vn 0.5656 0.6455 -0.5134
vn 0.1440 0.1127 0.9831
vn 0.0609 0.5684 0.8205
vn -0.7078 -0.6374 -0.3046
vn -0.7604 -0.6466 -0.0613
vn 0.5274 -0.4808 -0.7005
vn 0.3036 -0.5072 -0.8066
vn 0.4344 -0.5084 0.7435
vn 0.6373 -0.4818 0.6014
vn -0.7394 -0.6468 0.1869
vn 0.0589 -0.5369 -0.8416
vn 0.7895 -0.4609 0.4054
vn -0.6468 -0.6379 0.4179
vn 0.8775 -0.4475 0.1728
vn -0.4908 -0.6209 0.6113
vn -0.1852 -0.5674 -0.8023
vn 0.8935 -0.4427 -0.0757
vn -0.2852 -0.5971 0.7498
vn -0.4068 -0.5960 -0.6923
vn 0.8360 -0.4471 -0.3181
vn -0.0482 -0.5687 0.8211
vn -0.5864 -0.6200 -0.5213
vn 0.7103 -0.4602 -0.5327
vn 0.1990 -0.5383 0.8190
vn 0.1115 -0.9291 -0.3527
vn 0.0115 -0.9416 -0.3366
vn 0.4468 -0.8924 0.0628
vn 0.4533 -0.8905 -0.0390
vn -0.1137 -0.9635 0.2425
vn -0.0295 -0.9537 0.2992
vn -0.0793 -0.9533 -0.2915
vn 0.4298 -0.8923 -0.1382
vn 0.0676 -0.9421 0.3284
vn -0.1528 -0.9631 -0.2215
vn 0.3783 -0.8976 -0.2261
vn 0.1689 -0.9296 0.3275
vn -0.2026 -0.9702 -0.1327
vn 0.3034 -0.9061 -0.2949
vn 0.2653 -0.9174 0.2966
vn -0.2241 -0.9740 -0.0331
vn 0.2117 -0.9169 -0.3383
vn 0.3484 -0.9065 0.2384
vn -0.2156 -0.9741 0.0686
vn 0.4107 -0.8979 0.1581
vn -0.1776 -0.9705 0.1632
vn -0.5344 0.8379 0.1115
vn -0.5454 0.8380 -0.0191
vn -0.1141 0.8957 -0.4298
vn 0.0147 0.9113 -0.4114
vn 0.2704 0.9357 0.2266
vn 0.1903 0.9247 0.3298
vn -0.4856 0.8425 0.2332
vn 0.3168 0.9428 0.1041
vn -0.4035 0.8515 0.3349
vn -0.2426 0.8796 -0.4092
vn 0.3252 0.9453 -0.0267
vn -0.2952 0.8640 0.4079
vn -0.3593 0.8646 -0.3512
vn 0.2950 0.9430 -0.1542
vn -0.1705 0.8789 0.4454
vn -0.4538 0.8520 -0.2613
vn 0.2288 0.9361 -0.2672
vn -0.0404 0.8950 0.4443
vn -0.5177 0.8428 -0.1472
vn 0.1325 0.9252 -0.3555
vn 0.0836 0.9107 0.4046
usemtl Material.002
s 1
f 1/1/1 2/2/2 3/3/3 4/4/4
f 5/5/5 6/6/6 7/7/7 8/8/8
f 9/9/9 10/10/10 11/11/11 12/12/12
f 2/2/2 13/13/13 14/14/14 3/3/3
f 6/6/6 15/15/15 16/16/16 7/7/7
f 10/17/10 17/18/17 18/19/18 11/20/11
f 13/13/13 19/21/19 20/22/20 14/14/14
f 17/18/17 21/23/21 22/24/22 18/19/18
f 19/25/19 23/26/23 24/27/24 20/28/20
f 15/15/15 25/29/25 26/30/26 16/16/16
f 21/23/21 27/31/27 28/32/28 22/24/22
f 23/26/23 29/33/29 30/34/30 24/27/24
f 25/29/25 31/35/31 32/36/32 26/30/26
f 27/31/27 33/37/33 34/38/34 28/32/28
f 29/33/29 35/39/35 36/40/36 30/34/30
f 31/41/31 37/42/37 38/43/38 32/44/32
f 33/37/33 39/45/39 40/46/40 34/38/34
f 35/39/35 41/47/41 42/48/42 36/40/36
f 37/49/37 1/1/1 4/4/4 38/50/38
f 39/45/39 5/51/5 8/52/8 40/46/40
f 41/47/41 9/9/9 12/12/12 42/48/42
f 2/2/2 1/1/1 43/53/43 44/54/44
f 6/6/6 5/5/5 45/55/45 46/56/46
f 10/10/10 9/9/9 47/57/47 48/58/48
f 13/13/13 2/2/2 44/54/44 49/59/49
f 15/15/15 6/6/6 46/56/46 50/60/50
f 17/18/17 10/17/10 48/61/48 51/62/51
f 19/21/19 13/13/13 49/59/49 52/63/52
f 21/23/21 17/18/17 51/62/51 53/64/53
f 23/65/23 19/21/19 52/63/52 54/66/54
f 25/29/25 15/15/15 50/60/50 55/67/55
f 27/31/27 21/23/21 53/64/53 56/68/56
f 29/33/29 23/26/23 54/69/54 57/70/57
f 31/35/31 25/29/25 55/67/55 58/71/58
f 33/37/33 27/31/27 56/68/56 59/72/59
f 35/39/35 29/33/29 57/70/57 60/73/60
f 37/74/37 31/35/31 58/71/58 61/75/61
f 39/45/39 33/37/33 59/72/59 62/76/62
f 41/47/41 35/39/35 60/73/60 63/77/63
f 1/1/1 37/49/37 61/78/61 43/53/43
f 5/5/5 39/79/39 62/80/62 45/55/45
f 9/9/9 41/47/41 63/77/63 47/57/47
f 55/67/55 50/60/50 64/81/64 65/82/65
f 56/83/56 53/84/53 66/85/66 67/86/67
f 57/87/57 54/88/54 68/89/68 69/90/69
f 58/71/58 55/67/55 65/82/65 70/91/70
f 59/92/59 56/83/56 67/86/67 71/93/71
f 60/94/60 57/87/57 69/90/69 72/95/72
f 61/96/61 58/97/58 70/98/70 73/99/73
f 62/100/62 59/92/59 71/93/71 74/101/74
f 63/102/63 60/94/60 72/95/72 75/103/75
f 43/53/43 61/78/61 73/104/73 76/105/76
f 45/106/45 62/100/62 74/101/74 77/107/77
f 47/108/47 63/102/63 75/103/75 78/109/78
f 44/54/44 43/53/43 76/105/76 79/110/79
f 46/111/46 45/106/45 77/107/77 80/112/80
f 48/113/48 47/108/47 78/109/78 81/114/81
f 49/59/49 44/54/44 79/110/79 82/115/82
f 50/60/50 46/56/46 80/116/80 64/81/64
f 51/117/51 48/113/48 81/114/81 83/118/83
f 52/119/52 49/120/49 82/121/82 84/122/84
f 53/84/53 51/117/51 83/118/83 66/85/66
f 54/88/54 52/119/52 84/122/84 68/89/68
f 65/123/65 64/124/64 80/112/80 77/107/77 74/101/74 71/93/71 67/86/67 66/85/66 83/118/83 81/114/81 78/109/78 75/103/75 72/95/72 69/90/69 68/89/68 84/122/84 82/121/82 79/125/79 76/126/76 73/99/73 70/98/70
f 3/127/3 14/128/14 85/129/85 86/130/86
f 7/131/7 16/132/16 87/133/87 88/134/88
f 11/20/11 18/19/18 89/135/89 90/136/90
f 14/128/14 20/137/20 91/138/91 85/129/85
f 18/19/18 22/24/22 92/139/92 89/135/89
f 20/137/20 24/140/24 93/141/93 91/138/91
f 16/132/16 26/142/26 94/143/94 87/133/87
f 22/24/22 28/32/28 95/144/95 92/139/92
f 24/27/24 30/34/30 96/145/96 93/146/93
f 26/142/26 32/44/32 97/147/97 94/143/94
f 28/32/28 34/38/34 98/148/98 95/144/95
f 30/34/30 36/40/36 99/149/99 96/145/96
f 32/44/32 38/43/38 100/150/100 97/147/97
f 34/38/34 40/46/40 101/151/101 98/148/98
f 36/40/36 42/48/42 102/152/102 99/149/99
f 38/43/38 4/153/4 103/154/103 100/150/100
f 40/155/40 8/156/8 104/157/104 101/158/101
f 42/48/42 12/12/12 105/159/105 102/152/102
f 4/153/4 3/127/3 86/130/86 103/154/103
f 8/156/8 7/131/7 88/134/88 104/157/104
f 12/12/12 11/11/11 90/160/90 105/159/105
f 94/143/94 97/147/97 100/150/100 103/154/103 86/130/86 85/129/85 91/138/91 93/141/93 96/161/96 99/162/99 102/163/102 105/164/105 90/165/90 89/166/89 92/167/92 95/168/95 98/169/98 101/158/101 104/157/104 88/134/88 87/133/87
