# Blender v2.80 (sub 60) OBJ File: 'furyspire 2.blend'
# www.blender.org
mtllib tallspire.mtl
o Icosphere
v 1.760363 12.512045 0.002635
v 1.323997 14.143837 -0.024917
v -1.180487 13.516972 -1.220877
v 0.116260 19.000626 -0.391249
v 0.582515 15.694885 -0.812793
v 1.773118 13.433748 -0.189256
v 1.077496 14.355246 -0.630664
v 0.614975 11.792097 -2.095293
v 0.646704 10.733452 -2.515524
v 1.582962 11.785388 -0.656214
v 1.549986 10.960080 -0.993752
v 2.945092 9.005446 -0.322466
v 2.437411 7.229589 -0.724480
v 1.560209 4.099537 -2.019432
v 2.486336 3.698400 -0.615867
v 2.579327 3.070050 -1.506563
v 2.884350 2.951914 -0.853952
v 1.740528 2.706171 -2.562457
v 0.015858 15.593596 -1.228049
v -0.991088 12.604255 -1.488564
v 0.266720 11.569012 -2.757349
v -0.068507 12.182223 -2.170853
v -0.076024 10.756844 -2.466057
v 0.378314 9.508797 -2.366924
v -0.553316 9.297684 -2.155143
v -2.222256 3.548251 -1.876330
v -1.920875 2.616835 -2.438429
v -0.589432 18.825455 -0.065875
v -0.952602 14.427978 0.937720
v -1.177588 14.366482 -0.441316
v -1.451134 12.765340 1.533751
v -1.438631 14.043316 0.436225
v -1.749323 12.753181 -1.016919
v -1.834733 13.208040 -0.390270
v -1.932721 13.243000 0.422448
v -1.359613 11.038668 0.839316
v -1.537689 11.046120 -1.074883
v -1.556700 11.783411 0.662627
v -2.680264 8.760019 1.305319
v -2.915572 8.675159 -0.118910
v -2.333040 4.010829 -1.219202
v -2.520944 3.962847 1.349761
v -2.601082 3.777336 -0.458056
v -2.698569 3.644209 0.336365
v -2.556060 3.133545 1.491736
v -2.686923 3.011938 -1.583498
v -2.813674 3.002236 -0.769327
v -2.705764 3.030578 0.724965
v -0.020006 19.002430 0.585554
v 0.319167 12.734905 1.921686
v -1.059697 13.291735 1.538077
v -1.289433 11.732090 1.275468
v -0.235744 12.279112 2.120265
v 0.074104 11.707741 2.505321
v 0.040466 10.768259 2.660794
v -2.108010 3.491275 1.930950
v -1.907892 2.601573 2.490930
v 0.628988 15.710579 0.836338
v 1.119922 14.370398 0.665227
v 1.511581 13.638549 0.407133
v 1.515601 11.638386 0.076868
v 0.545523 10.928553 2.493580
v 0.718069 11.822775 2.059387
v 1.662115 12.752457 0.837860
v 1.566319 11.997643 0.767760
v 1.454016 11.140636 1.229324
v 0.724190 9.264011 2.511778
v 2.882344 8.844557 0.509227
v 2.442420 7.127617 0.727099
v 2.647668 3.596527 0.319849
v 2.534439 3.975461 1.347259
v 2.857830 3.007817 0.774049
v 2.677116 2.971895 1.462003
v -1.871824 1.623674 2.714331
v -1.018606 -0.330703 2.891010
v -0.175976 -0.529144 -3.105805
v -2.762428 -0.314864 -2.164527
v 1.283630 -1.093805 2.684370
v 3.348149 -0.545819 0.612996
v 2.619592 -0.954926 -1.415872
v -2.550956 -1.653061 0.429236
v -1.106536 -1.699608 2.535319
v 0.426902 -1.516144 2.068854
vt 0.728539 0.000000
vt 0.715919 0.227498
vt 0.708468 0.160632
vt 0.371400 0.000000
vt 0.372159 0.239606
vt 0.349653 0.218458
vt 0.323728 0.269974
vt 0.765332 0.001402
vt 0.766196 0.229515
vt 0.740431 0.239793
vt 0.329853 0.768791
vt 0.319809 0.996279
vt 0.240549 0.826063
vt 0.253331 0.780108
vt 0.300000 0.759710
vt 0.706364 0.576614
vt 0.703579 0.747766
vt 0.644308 0.722337
vt 0.728807 0.493304
vt 0.760142 0.502537
vt 0.740492 0.755132
vt 0.758147 0.785242
vt 0.695424 0.784768
vt 0.668535 0.776686
vt 0.622928 0.355153
vt 0.644648 0.325515
vt 0.651165 0.346903
vt 0.735525 0.275360
vt 0.697957 0.392594
vt 0.632980 0.397364
vt 0.747764 0.958469
vt 0.663983 0.971651
vt 0.621655 0.789253
vt 0.858044 0.404437
vt 0.783436 0.415685
vt 0.801480 0.296716
vt 0.858044 0.294657
vt 0.386709 0.778220
vt 0.415738 0.782189
vt 0.424504 0.945739
vt 0.003926 0.210521
vt 0.000000 0.162252
vt 0.024323 0.063667
vt 0.216432 0.919551
vt 0.225020 0.987466
vt 0.519604 0.370789
vt 0.519525 0.287437
vt 0.546454 0.254111
vt 0.551075 0.298845
vt 0.455567 0.703670
vt 0.438818 0.714208
vt 0.448556 0.477185
vt 0.611645 0.397947
vt 0.583806 0.392224
vt 0.602952 0.354994
vt 0.589039 0.324154
vt 0.762162 0.584478
vt 0.783436 0.787734
vt 0.634451 0.455954
vt 0.799743 0.697472
vt 0.783436 0.655777
vt 0.797436 0.616865
vt 0.831217 0.624828
vt 0.827092 0.655665
vt 0.280128 0.740189
vt 0.793635 0.697472
vt 0.813956 0.738078
vt 0.783436 0.738078
vt 0.783436 0.387994
vt 0.473026 0.771674
vt 0.556194 0.459717
vt 0.594311 0.455291
vt 0.614195 0.790845
vt 0.528871 0.933262
vt 0.424504 0.907554
vt 0.107614 0.519086
vt 0.108283 0.017845
vt 0.184243 0.213164
vt 0.182642 0.262602
vt 0.216432 0.499262
vt 0.104197 0.599982
vt 0.343811 0.382331
vt 0.355667 0.347328
vt 0.417266 0.392291
vt 0.621655 0.974094
vt 0.387019 0.501120
vt 0.375943 0.739209
vt 0.346817 0.741306
vt 0.439692 0.748906
vt 0.462146 0.725722
vt 0.083263 0.593681
vt 0.128143 1.000000
vt 0.141882 0.837656
vt 0.160007 0.771907
vt 0.268528 0.341390
vt 0.288693 0.315848
vt 0.259211 0.385843
vt 0.402356 0.732133
vt 0.423747 0.758023
vt 0.780163 0.738478
vt 0.088491 0.639461
vt 0.118856 0.644346
vt 0.108385 0.690631
vt 0.308341 0.720497
vt 0.331602 0.489375
vt 0.740420 0.361823
vt 0.740940 0.320273
vt 0.773010 0.309984
vt 0.712889 0.353475
vt 0.216432 0.045280
vt 0.329622 0.346549
vt 0.326043 0.295288
vt 0.374829 0.278156
vt 0.768131 0.346013
vt 0.401284 0.011925
vt 0.403365 0.228835
vt 0.602435 0.161994
vt 0.587059 0.004312
vt 0.617169 0.000000
vt 0.545262 0.214360
vt 0.831217 0.694952
vt 0.783436 0.541091
vt 0.810058 0.415685
vt 0.810058 0.616865
vt 0.791107 0.572171
vt 0.424504 0.309610
vt 0.403938 0.284264
vt 0.783436 0.770559
vt 0.793154 0.738078
vt 0.793154 0.806841
vt 0.084698 0.670190
vt 0.024864 0.000000
vt 0.087270 0.004352
vt 0.157523 0.612394
vt 0.173879 0.690888
vt 0.176992 0.736269
vt 0.621655 0.161351
vt 0.612691 0.347425
vt 0.925137 0.006676
vt 1.000000 0.135640
vt 1.000000 0.236802
vt 0.893269 0.294657
vt 0.868674 0.254171
vt 0.805713 0.248035
vt 0.783436 0.127560
vt 0.819634 0.000000
vt 0.757259 0.265747
vn 0.3709 0.7163 -0.5910
vn 0.9112 0.2620 -0.3178
vn 0.6237 0.2217 -0.7495
vn 0.1384 0.7789 0.6117
vn -0.9015 0.3984 0.1686
vn -0.8109 0.3215 0.4889
vn -0.6684 0.2674 0.6940
vn 0.8872 0.2488 0.3886
vn 0.9574 0.2725 -0.0949
vn -0.9766 0.0034 0.2149
vn -0.6378 -0.7609 0.1187
vn -0.4471 0.0644 0.8921
vn -0.5138 0.0139 0.8578
vn -0.8808 0.3722 0.2925
vn 0.9710 -0.0890 -0.2217
vn 0.9428 0.2411 -0.2300
vn 0.7859 0.1354 -0.6034
vn 0.8960 0.2157 -0.3881
vn 0.9521 0.1675 0.2558
vn 0.9693 0.1903 -0.1556
vn 0.9848 0.1724 0.0215
vn 0.9536 0.2275 -0.1971
vn 0.8608 0.2582 -0.4386
vn 0.0602 0.1793 -0.9819
vn -0.1964 0.2573 -0.9461
vn 0.6330 0.2571 -0.7302
vn 0.9477 0.2517 -0.1964
vn 0.9208 0.2872 -0.2639
vn 0.4825 0.0432 -0.8748
vn 0.8456 -0.5322 0.0397
vn 0.5706 -0.6289 -0.5281
vn 0.4770 0.1037 -0.8728
vn -0.9525 0.2025 -0.2273
vn -0.9434 0.1122 -0.3121
vn -0.9519 0.1975 -0.2341
vn -0.8527 0.2211 0.4733
vn -0.9878 0.1433 -0.0612
vn -0.9155 0.1950 -0.3518
vn -0.6510 -0.5007 -0.5705
vn -0.4048 -0.1206 0.9064
vn -0.3578 -0.6633 0.6572
vn -0.9277 0.0705 -0.3666
vn -0.7737 0.2611 -0.5772
vn -0.7180 0.1117 -0.6870
vn -0.8164 0.2112 -0.5375
vn -0.9335 0.1852 -0.3071
vn -0.4528 -0.0150 -0.8915
vn 0.9879 -0.0371 -0.1503
vn 0.8495 0.0980 0.5184
vn 0.2475 -0.0039 -0.9689
vn -0.8475 0.2608 -0.4622
vn -0.9607 0.2203 -0.1687
vn -0.7008 0.1466 0.6980
vn -0.7914 0.5863 -0.1731
vn 0.9090 0.2408 0.3402
vn -0.4280 0.1192 -0.8959
vn -0.4342 0.0811 -0.8971
vn 0.1366 -0.5590 -0.8178
vn 0.3677 0.0279 0.9295
vn 0.3434 -0.5315 0.7743
vn 0.9348 0.0724 0.3476
vn 0.5467 0.1512 0.8235
vn -0.9611 -0.1986 0.1916
vn -0.9986 0.0362 0.0392
vn -0.7763 0.2361 -0.5845
vn -0.1446 0.0991 0.9845
vn 0.6112 0.2249 0.7588
vn 0.0404 0.2587 0.9651
vn -0.1448 0.1961 0.9698
vn 0.6181 0.2764 0.7359
vn 0.4540 0.2903 0.8423
vn -0.8566 -0.0087 0.5159
vn 0.9872 -0.1499 0.0546
vn 0.9937 -0.0756 0.0832
vn 0.9074 0.1357 0.3977
vn 0.9927 -0.1202 -0.0088
vn -0.9643 0.0508 -0.2600
vn -0.7953 0.1310 0.5919
vn -0.9603 0.2011 0.1932
vn 0.9953 -0.0948 0.0188
vn 0.0273 0.2659 -0.9636
vn 0.0764 -0.7680 0.6359
vn 0.8694 0.2578 0.4215
usemtl None
s 1
f 4/1/1 7/2/2 5/3/3
f 49/4/4 32/5/5 29/6/6 51/7/7
f 7/2/2 4/1/1 49/8/4 59/9/8 2/10/9
f 48/11/10 81/12/11 74/13/12 57/14/13 45/15/14
f 13/16/15 15/17/16 14/18/17 12/19/18 68/20/19
f 15/17/16 70/21/20 72/22/21 17/23/22 16/24/23
f 21/25/24 22/26/25 8/27/26 5/3/3 7/2/2 2/10/9 6/28/27 11/29/28 12/19/18 9/30/29
f 79/31/30 80/32/31 18/33/32 16/24/23 17/23/22
f 36/34/33 37/35/34 40/36/35 39/37/36
f 47/38/37 46/39/38 77/40/39 81/12/11
f 15/17/16 16/24/23 18/33/32 14/18/17
f 57/41/13 74/42/12 75/43/40
f 75/44/40 74/13/12 81/12/11 82/45/41
f 37/46/34 33/47/42 3/48/43 20/49/44 41/50/45 43/51/46 40/52/35
f 9/53/29 23/54/47 21/55/24
f 23/54/47 22/56/25 21/55/24
f 15/17/16 13/16/15 69/57/48 70/21/20
f 17/23/22 72/22/21 73/58/49 79/31/30
f 24/59/50 9/30/29 12/19/18 14/18/17 18/33/32
f 32/60/5 30/61/51 3/62/43 33/63/42 34/64/52
f 45/15/14 57/14/13 56/65/53
f 49/66/4 4/67/1 28/68/54
f 11/29/28 66/69/55 68/20/19 12/19/18
f 27/70/56 25/71/57 24/72/50 18/73/32 76/74/58 77/75/39
f 67/76/59 78/77/60 73/78/49 71/79/61 68/80/19 62/81/62
f 36/82/33 38/83/63 37/84/34
f 18/73/32 80/85/31 76/74/58
f 40/86/35 43/87/46 44/88/64
f 27/70/56 46/89/38 26/90/65
f 48/11/10 44/88/64 47/38/37
f 55/91/66 67/76/59 62/81/62
f 49/92/4 58/93/67 59/94/8
f 54/95/68 53/96/69 55/97/66
f 44/88/64 43/87/46 41/98/45 26/99/65 46/39/38 47/38/37
f 23/54/47 24/72/50 25/71/57
f 72/22/21 71/100/61 73/58/49
f 54/101/68 63/102/70 50/103/71
f 55/91/66 62/81/62 54/101/68
f 77/75/39 46/89/38 27/70/56
f 40/86/35 44/88/64 48/11/10 42/104/72 39/105/36
f 48/11/10 56/65/53 42/104/72
f 48/11/10 47/38/37 81/12/11
f 61/106/73 1/107/74 64/108/75
f 6/28/27 1/107/74 10/109/76 11/29/28
f 13/16/15 68/20/19 69/57/48
f 73/78/49 78/77/60 79/110/30
f 36/82/33 52/111/77 31/112/78 35/113/79 38/83/63
f 64/108/75 66/69/55 65/114/80 61/106/73
f 32/5/5 49/4/4 28/115/54
f 31/112/78 39/105/36 42/104/72 56/65/53 57/14/13 55/97/66 53/96/69 49/4/4 51/7/7
f 32/5/5 28/115/54 30/116/51
f 19/117/81 22/56/25 28/118/54 4/119/1
f 20/49/44 3/48/43 30/120/51 28/118/54 22/56/25 23/54/47 25/71/57 27/70/56 26/90/65 41/50/45
f 34/64/52 35/121/79 32/60/5
f 36/122/33 39/123/36 31/124/78 52/125/77
f 33/126/42 37/84/34 38/83/63 35/113/79 34/127/52
f 45/128/14 56/129/53 48/130/10
f 50/103/71 63/102/70 58/93/67 49/92/4 53/131/69 54/101/68
f 55/91/66 57/41/13 75/43/40 82/132/41 83/133/82 78/77/60 67/76/59
f 54/101/68 62/81/62 68/80/19 66/134/55 64/135/75 60/136/83 59/94/8 58/93/67 63/102/70
f 10/109/76 61/106/73 65/114/80 66/69/55 11/29/28
f 70/21/20 69/57/48 68/20/19 71/100/61 72/22/21
f 31/112/78 51/7/7 29/6/6 32/5/5 35/113/79
f 1/107/74 61/106/73 10/109/76
f 5/137/3 8/138/26 22/56/25 19/117/81 4/119/1
f 24/72/50 23/54/47 9/53/29
f 76/139/58 80/140/31 79/141/30 78/142/60 83/143/82 82/144/41 81/145/11 77/146/39
f 64/108/75 1/107/74 6/28/27 2/10/9 59/9/8 60/147/83
