# Blender v2.80 (sub 60) OBJ File: 'tower2.blend'
# www.blender.org
mtllib tower1broken.mtl
o Cube
v -4.258943 90.356339 -3.529854
v -2.170352 89.373222 -3.847299
v 3.529867 90.661591 -4.258955
v 4.258968 89.800873 -3.529854
v 3.517466 88.534088 2.607161
v 3.529867 90.227127 4.258955
v -3.529842 91.961594 4.258955
v -4.041061 91.062874 2.591166
v 0.000013 92.276237 -4.583551
v -5.436432 89.574684 0.000000
v 4.258968 90.661591 0.000000
v 1.076633 90.472404 3.527588
v -5.117375 71.768364 -4.241308
v -4.241322 71.768364 -5.117362
v 3.044404 71.768364 -3.056979
v 5.117349 71.768364 -4.241308
v 6.605858 71.768364 4.241308
v 2.079607 71.768364 5.117362
v -2.512739 71.768364 4.130057
v -5.117375 71.768364 4.241308
v -0.000013 71.768364 -3.026170
v -6.931151 71.768364 0.000000
v 6.368471 71.768364 0.000000
v -0.000013 71.768364 5.117362
v -6.875936 64.785477 -5.698806
v -5.698833 64.785477 -6.875909
v 5.698779 64.785477 -6.875909
v 6.875883 64.785477 -5.698806
v 6.875883 64.785477 5.698806
v 5.698779 64.785477 6.875909
v -5.698833 64.785477 6.875909
v -6.875936 64.785477 5.698806
v -0.000027 64.785477 -6.875909
v -6.875936 64.785477 -0.000000
v 6.875883 64.785477 -0.000000
v -0.000027 64.785477 6.875909
v -6.875913 17.108967 -5.698806
v -5.698810 22.855164 -6.875909
v 5.698802 22.855164 -6.875909
v 6.875906 22.855164 -5.698806
v 6.875906 26.769650 5.698806
v 5.698802 22.855164 6.875909
v -5.698810 29.619461 6.875909
v -6.875913 18.418333 5.698806
v -0.000004 30.998592 -6.875909
v -6.875913 16.461329 -0.000000
v 6.875906 22.855164 -0.000000
v -0.000004 26.365742 6.875909
v -10.803351 9.721642 -8.953896
v -8.953900 9.721642 -10.803347
v 8.953892 9.721642 -10.803347
v 10.803344 9.721642 -8.953896
v 10.803344 9.721642 8.953896
v 8.953892 9.721642 10.803347
v -8.953900 9.721642 10.803347
v -10.803351 9.721642 8.953896
v -0.000004 9.721642 -10.803347
v -10.803351 9.721642 -0.000000
v 10.803344 9.721642 -0.000000
v -0.000004 9.721642 10.803347
v -10.803346 -1.316078 -8.953896
v -8.953895 -1.316078 -10.803347
v 8.953897 -1.316078 -10.803347
v 10.803349 -1.316078 -8.953896
v 10.803349 -1.316078 8.953896
v 8.953897 -1.316078 10.803347
v -8.953895 -1.316078 10.803347
v -10.803346 -1.316078 8.953896
v 0.000001 -1.316078 -10.803347
v -10.803346 -1.316078 -0.000000
v 10.803349 -1.316078 -0.000000
v 0.000001 -1.316078 10.803347
v 0.000013 89.120293 0.000000
vt 0.224224 0.998999
vt 0.295295 0.998999
vt 0.295295 0.964965
vt 0.887888 0.295295
vt 0.887888 0.001001
vt 0.852853 0.001001
vt 0.852853 0.295295
vt 0.591592 0.961962
vt 0.591592 0.926927
vt 0.519520 0.926927
vt 0.519520 0.961962
vt 0.665666 0.591592
vt 0.665666 0.297297
vt 0.593594 0.297297
vt 0.593594 0.591592
vt 0.297297 0.924925
vt 0.591592 0.924925
vt 0.591592 0.889890
vt 0.297297 0.889890
vt 0.887888 0.591592
vt 0.887888 0.297297
vt 0.852853 0.297297
vt 0.852853 0.591592
vt 0.593594 0.887888
vt 0.887888 0.887888
vt 0.887888 0.852853
vt 0.593594 0.852853
vt 0.517518 0.591592
vt 0.517518 0.297297
vt 0.445445 0.297297
vt 0.445445 0.591592
vt 0.001001 0.517518
vt 0.295295 0.517518
vt 0.295295 0.445445
vt 0.001001 0.445445
vt 0.850851 0.591592
vt 0.850851 0.297297
vt 0.815816 0.297297
vt 0.815816 0.591592
vt 0.445445 0.813814
vt 0.739740 0.813814
vt 0.739740 0.778779
vt 0.445445 0.778779
vt 0.850851 0.295295
vt 0.850851 0.001001
vt 0.815816 0.001001
vt 0.815816 0.295295
vt 0.445445 0.776777
vt 0.739740 0.776777
vt 0.739740 0.741742
vt 0.445445 0.741742
vt 0.813814 0.739740
vt 0.813814 0.445445
vt 0.778779 0.445445
vt 0.778779 0.739740
vt 0.591592 0.665666
vt 0.591592 0.593594
vt 0.297297 0.593594
vt 0.297297 0.665666
vt 0.961962 0.593594
vt 0.889890 0.593594
vt 0.889890 0.665666
vt 0.961962 0.665666
vt 0.961962 0.667668
vt 0.889890 0.667668
vt 0.889890 0.739740
vt 0.961962 0.739740
vt 0.961962 0.889890
vt 0.926927 0.889890
vt 0.926927 0.961962
vt 0.961962 0.961962
vt 0.961962 0.815816
vt 0.889890 0.815816
vt 0.889890 0.887888
vt 0.961962 0.887888
vt 0.073073 0.998999
vt 0.073073 0.963964
vt 0.001001 0.963964
vt 0.001001 0.998999
vt 0.961962 0.741742
vt 0.889890 0.741742
vt 0.889890 0.813814
vt 0.961962 0.813814
vt 0.813814 0.297297
vt 0.741742 0.297297
vt 0.741742 0.443443
vt 0.813814 0.443443
vt 0.517518 0.961962
vt 0.517518 0.926927
vt 0.445445 0.926927
vt 0.445445 0.961962
vt 0.924925 0.889890
vt 0.889890 0.889890
vt 0.889890 0.961962
vt 0.924925 0.961962
vt 0.961962 0.371371
vt 0.889890 0.371371
vt 0.889890 0.443443
vt 0.961962 0.443443
vt 0.961962 0.297297
vt 0.889890 0.297297
vt 0.889890 0.369369
vt 0.961962 0.369369
vt 0.591592 0.739740
vt 0.591592 0.667668
vt 0.445445 0.667668
vt 0.445445 0.739740
vt 0.776777 0.445445
vt 0.741742 0.445445
vt 0.741742 0.739740
vt 0.776777 0.739740
vt 0.295295 0.665666
vt 0.295295 0.593594
vt 0.001001 0.593594
vt 0.001001 0.665666
vt 0.739740 0.297297
vt 0.667668 0.297297
vt 0.667668 0.591592
vt 0.739740 0.591592
vt 0.295295 0.591592
vt 0.295295 0.519520
vt 0.001001 0.519520
vt 0.001001 0.591592
vt 0.665666 0.001001
vt 0.593594 0.001001
vt 0.593594 0.295295
vt 0.665666 0.295295
vt 0.887888 0.850851
vt 0.887888 0.815816
vt 0.593594 0.815816
vt 0.593594 0.850851
vt 0.591592 0.297297
vt 0.519520 0.297297
vt 0.519520 0.591592
vt 0.591592 0.591592
vt 0.295295 0.887888
vt 0.295295 0.815816
vt 0.001001 0.815816
vt 0.001001 0.887888
vt 0.591592 0.001001
vt 0.519520 0.001001
vt 0.519520 0.295295
vt 0.591592 0.295295
vt 0.295295 0.924925
vt 0.295295 0.889890
vt 0.001001 0.889890
vt 0.001001 0.924925
vt 0.517518 0.001001
vt 0.445445 0.001001
vt 0.445445 0.295295
vt 0.517518 0.295295
vt 0.443443 0.297297
vt 0.297297 0.297297
vt 0.297297 0.443443
vt 0.443443 0.443443
vt 0.147147 0.961962
vt 0.147147 0.926927
vt 0.001001 0.926927
vt 0.001001 0.961962
vt 0.887888 0.593594
vt 0.815816 0.593594
vt 0.815816 0.739740
vt 0.887888 0.739740
vt 0.739740 0.961962
vt 0.739740 0.889890
vt 0.593594 0.889890
vt 0.593594 0.961962
vt 0.961962 0.001001
vt 0.889890 0.001001
vt 0.889890 0.147147
vt 0.961962 0.147147
vt 0.887888 0.961962
vt 0.887888 0.889890
vt 0.741742 0.889890
vt 0.741742 0.961962
vt 0.961962 0.149149
vt 0.889890 0.149149
vt 0.889890 0.295295
vt 0.961962 0.295295
vt 0.591592 0.887888
vt 0.591592 0.815816
vt 0.297297 0.815816
vt 0.297297 0.887888
vt 0.443443 0.001001
vt 0.297297 0.001001
vt 0.297297 0.295295
vt 0.443443 0.295295
vt 0.887888 0.813814
vt 0.887888 0.741742
vt 0.741742 0.741742
vt 0.741742 0.813814
vt 0.924925 0.445445
vt 0.889890 0.445445
vt 0.889890 0.591592
vt 0.924925 0.591592
vt 0.295295 0.443443
vt 0.295295 0.297297
vt 0.001001 0.297297
vt 0.001001 0.443443
vt 0.270105 0.001001
vt 0.295295 0.026191
vt 0.295295 0.148148
vt 0.295295 0.270105
vt 0.270105 0.295295
vt 0.148148 0.295295
vt 0.026192 0.295295
vt 0.001001 0.270105
vt 0.001001 0.148148
vt 0.001001 0.026192
vt 0.026192 0.001001
vt 0.148148 0.001001
vt 0.295295 0.667668
vt 0.149149 0.667668
vt 0.149149 0.813814
vt 0.295295 0.813814
vt 0.961962 0.445445
vt 0.926927 0.445445
vt 0.926927 0.591592
vt 0.961962 0.591592
vt 0.813814 0.149149
vt 0.667668 0.149149
vt 0.667668 0.295295
vt 0.813814 0.295295
vt 0.813814 0.001001
vt 0.667668 0.001001
vt 0.667668 0.147147
vt 0.813814 0.147147
vt 0.443443 0.961962
vt 0.443443 0.926927
vt 0.297297 0.926927
vt 0.297297 0.961962
vt 0.147147 0.667668
vt 0.001001 0.667668
vt 0.001001 0.813814
vt 0.147147 0.813814
vt 0.998999 0.001001
vt 0.963964 0.001001
vt 0.963964 0.147147
vt 0.998999 0.147147
vt 0.739740 0.593594
vt 0.593594 0.593594
vt 0.593594 0.739740
vt 0.739740 0.739740
vt 0.443443 0.445445
vt 0.297297 0.445445
vt 0.297297 0.591592
vt 0.443443 0.591592
vt 0.443443 0.667668
vt 0.297297 0.667668
vt 0.297297 0.813814
vt 0.443443 0.813814
vt 0.295295 0.961962
vt 0.295295 0.926927
vt 0.149149 0.926927
vt 0.149149 0.961962
vt 0.294294 0.963964
vt 0.223223 0.997998
vt 0.223223 0.963964
vt 0.998999 0.298298
vt 0.998999 0.369369
vt 0.964965 0.369369
vt 0.221221 0.964965
vt 0.221221 0.998999
vt 0.150150 0.998999
vt 0.963964 0.297297
vt 0.997998 0.297297
vt 0.963964 0.368368
vt 0.964965 0.295295
vt 0.998999 0.224224
vt 0.998999 0.295295
vt 0.998999 0.221221
vt 0.964965 0.221221
vt 0.998999 0.150150
vt 0.147147 0.964965
vt 0.147147 0.998999
vt 0.076076 0.998999
vt 0.149149 0.963964
vt 0.220220 0.963964
vt 0.149149 0.997998
vt 0.997998 0.223223
vt 0.963964 0.294294
vt 0.963964 0.223223
vt 0.075075 0.997998
vt 0.146146 0.963964
vt 0.075075 0.963964
vt 0.963964 0.149149
vt 0.963964 0.220220
vt 0.997998 0.149149
vn 0.2097 0.8899 -0.4051
vn 0.5108 0.0843 0.8556
vn 0.3234 0.2970 0.8984
vn 0.2150 -0.0190 -0.9764
vn -0.9088 0.0812 0.4092
vn -0.1549 0.0754 0.9851
vn 0.0273 -0.0702 -0.9972
vn 0.9825 0.0822 -0.1673
vn -0.9334 0.0672 -0.3525
vn -0.0281 0.0376 0.9989
vn -0.1648 -0.0148 -0.9862
vn 0.9818 0.1485 0.1184
vn -0.3495 0.0794 -0.9336
vn -0.4547 0.0350 0.8900
vn -1.0000 -0.0000 -0.0000
vn -0.9744 0.1374 0.1778
vn 0.9983 0.0531 -0.0238
vn -0.2531 0.3599 0.8980
vn 0.9775 0.1714 -0.1230
vn -0.6724 0.3097 -0.6724
vn -0.1128 0.3282 0.9378
vn -0.0031 0.4809 -0.8768
vn 0.0000 0.2442 0.9697
vn -0.0021 0.3529 -0.9357
vn 0.1930 0.3482 -0.9173
vn -0.9744 0.1374 -0.1778
vn -0.8759 0.4821 0.0213
vn 0.7071 0.0000 0.7071
vn 1.0000 0.0000 -0.0000
vn -0.7071 -0.0000 0.7071
vn -0.7071 -0.0000 -0.7071
vn -0.0000 0.0000 1.0000
vn 0.0000 0.0000 -1.0000
vn 0.7071 0.0000 -0.7071
vn 0.4453 0.3062 0.8414
vn -0.8947 0.4428 -0.0591
vn 0.9674 0.2447 -0.0654
vn -0.9671 0.2518 0.0353
vn 0.9581 0.2865 0.0000
vn -0.9063 0.3811 -0.1827
vn 0.0458 0.2060 0.9775
vn 0.1291 0.2323 -0.9640
vn 0.0625 0.2609 0.9633
vn 0.6595 0.3607 -0.6595
vn -0.1291 0.2323 -0.9640
vn 0.0000 -1.0000 0.0000
vn 0.0709 0.8480 -0.5252
vn -0.3317 0.9165 -0.2235
vn 0.0808 0.9671 0.2411
vn 0.2218 0.8860 -0.4073
vn 0.0975 0.8633 -0.4951
vn 0.3992 0.9017 -0.1659
vn -0.6728 0.6094 0.4196
vn 0.3087 0.7834 0.5394
vn 0.3396 0.7586 0.5560
vn -0.2826 0.7810 0.5569
vn 0.5440 0.5839 -0.6026
usemtl Material
s off
f 73/1/1 12/2/1 6/3/1
f 17/4/2 5/5/2 6/6/2 18/7/2
f 17/8/3 18/9/3 30/10/3 29/11/3
f 14/12/4 2/13/4 9/14/4 21/15/4
f 20/16/5 8/17/5 10/18/5 22/19/5
f 18/20/6 6/21/6 12/22/6 24/23/6
f 21/24/7 9/25/7 3/26/7 15/27/7
f 16/28/8 4/29/8 11/30/8 23/31/8
f 22/32/9 10/33/9 1/34/9 13/35/9
f 24/36/10 12/37/10 7/38/10 19/39/10
f 15/40/11 3/41/11 4/42/11 16/43/11
f 23/44/12 11/45/12 5/46/12 17/47/12
f 13/48/13 1/49/13 2/50/13 14/51/13
f 19/52/14 7/53/14 8/54/14 20/55/14
f 34/56/15 25/57/15 37/58/15 46/59/15
f 20/60/16 22/61/16 34/62/16 32/63/16
f 23/64/17 17/65/17 29/66/17 35/67/17
f 19/68/18 20/69/18 32/70/18 31/71/18
f 16/72/19 23/73/19 35/74/19 28/75/19
f 13/76/20 14/77/20 26/78/20 25/79/20
f 24/80/21 19/81/21 31/82/21 36/83/21
f 21/84/22 15/85/22 27/86/22 33/87/22
f 18/88/23 24/89/23 36/90/23 30/91/23
f 15/92/24 16/93/24 28/94/24 27/95/24
f 14/96/25 21/97/25 33/98/25 26/99/25
f 22/100/26 13/101/26 25/102/26 34/103/26
f 46/104/27 37/105/27 49/106/27 58/107/27
f 29/108/28 30/109/28 42/110/28 41/111/28
f 32/112/15 34/113/15 46/114/15 44/115/15
f 35/116/29 29/117/29 41/118/29 47/119/29
f 31/120/30 32/121/30 44/122/30 43/123/30
f 28/124/29 35/125/29 47/126/29 40/127/29
f 25/128/31 26/129/31 38/130/31 37/131/31
f 36/132/32 31/133/32 43/134/32 48/135/32
f 33/136/33 27/137/33 39/138/33 45/139/33
f 30/140/32 36/141/32 48/142/32 42/143/32
f 27/144/34 28/145/34 40/146/34 39/147/34
f 26/148/33 33/149/33 45/150/33 38/151/33
f 50/152/33 57/153/33 69/154/33 62/155/33
f 41/156/35 42/157/35 54/158/35 53/159/35
f 44/160/36 46/161/36 58/162/36 56/163/36
f 47/164/37 41/165/37 53/166/37 59/167/37
f 43/168/38 44/169/38 56/170/38 55/171/38
f 40/172/39 47/173/39 59/174/39 52/175/39
f 37/176/40 38/177/40 50/178/40 49/179/40
f 48/180/41 43/181/41 55/182/41 60/183/41
f 45/184/42 39/185/42 51/186/42 57/187/42
f 42/188/43 48/189/43 60/190/43 54/191/43
f 39/192/44 40/193/44 52/194/44 51/195/44
f 38/196/45 45/197/45 57/198/45 50/199/45
f 67/200/46 68/201/46 70/202/46 61/203/46 62/204/46 69/205/46 63/206/46 64/207/46 71/208/46 65/209/46 66/210/46 72/211/46
f 58/212/15 49/213/15 61/214/15 70/215/15
f 53/216/28 54/217/28 66/218/28 65/219/28
f 56/220/15 58/221/15 70/222/15 68/223/15
f 59/224/29 53/225/29 65/226/29 71/227/29
f 55/228/30 56/229/30 68/230/30 67/231/30
f 52/232/29 59/233/29 71/234/29 64/235/29
f 49/236/31 50/237/31 62/238/31 61/239/31
f 60/240/32 55/241/32 67/242/32 72/243/32
f 57/244/33 51/245/33 63/246/33 69/247/33
f 54/248/32 60/249/32 72/250/32 66/251/32
f 51/252/34 52/253/34 64/254/34 63/255/34
f 73/256/47 10/257/47 8/258/47
f 73/259/48 11/260/48 4/261/48
f 1/262/49 10/263/49 73/264/49
f 12/265/50 73/266/50 7/267/50
f 7/268/51 73/269/51 8/270/51
f 2/271/52 1/272/52 73/273/52
f 9/274/53 2/275/53 73/276/53
f 9/277/54 73/278/54 3/279/54
f 3/280/55 73/281/55 4/282/55
f 11/283/56 73/284/56 5/285/56
f 5/286/57 73/287/57 6/288/57
