# Blender v2.80 (sub 60) OBJ File: 'tree.blend'
# www.blender.org
mtllib tree00.mtl
o Plane.002
v 0.432978 16.830490 -0.016233
v 3.774232 16.830490 -0.016233
v 0.432978 21.822563 -0.016233
v 3.774232 21.822563 -0.016233
v 0.358122 16.830490 0.217228
v 3.076406 16.830490 2.160140
v 0.358122 21.822563 0.217228
v 3.076406 21.822563 2.160140
v 0.161467 16.830490 0.363632
v 1.243144 16.830490 3.524953
v 0.161467 21.822563 0.363632
v 1.243144 21.822563 3.524953
v -0.083654 16.830490 0.368386
v -1.041937 16.830490 3.569272
v -0.083655 21.822563 0.368386
v -1.041937 21.822561 3.569272
v -0.285838 16.830490 0.229717
v -2.926741 16.830490 2.276571
v -0.285838 21.822563 0.229717
v -2.926741 21.822561 2.276570
v -0.369691 16.830492 -0.000665
v -3.708431 16.830490 0.128893
v -0.369690 21.822561 -0.000666
v -3.708431 21.822561 0.128893
v -0.303943 16.830492 -0.236853
v -3.095520 16.830490 -2.072901
v -0.303943 21.822561 -0.236853
v -3.095519 21.822561 -2.072901
v -0.113113 16.830492 -0.390773
v -1.316558 16.830492 -3.507773
v -0.113113 21.822561 -0.390772
v -1.316557 21.822561 -3.507772
v 0.131640 16.830492 -0.405028
v 0.965086 16.830492 -3.640664
v 0.131640 21.822561 -0.405027
v 0.965086 21.822561 -3.640663
v 0.339049 16.830492 -0.274303
v 2.898597 16.830490 -2.422019
v 0.339049 21.822561 -0.274302
v 2.898597 21.822561 -2.422018
v 0.000000 -0.857269 -0.500000
v 0.000000 23.176165 -0.500000
v 0.277785 -0.857269 -0.415735
v 0.277785 23.176165 -0.415735
v 0.415735 -0.857269 -0.277785
v 0.415735 23.176165 -0.277785
v 0.500000 -0.857269 0.000000
v 0.500000 23.176165 0.000000
v 0.415735 -0.857269 0.277785
v 0.415735 23.176165 0.277785
v 0.277785 -0.857269 0.415735
v 0.277785 23.176165 0.415735
v 0.000000 -0.857269 0.500000
v 0.000000 23.176165 0.500000
v -0.353553 -0.857269 0.353553
v -0.353553 23.176165 0.353553
v -0.500000 -0.857269 -0.000000
v -0.500000 23.176165 -0.000000
v -0.415734 -0.857269 -0.277785
v -0.415734 23.176165 -0.277785
v -0.277784 -0.857269 -0.415735
v -0.277784 23.176165 -0.415735
v 0.432978 8.592298 -0.016233
v 3.774232 8.592298 -0.016233
v 0.432978 13.584370 -0.016233
v 3.774232 13.584370 -0.016233
v 0.358122 8.592298 0.217228
v 3.076406 8.592298 2.160140
v 0.358122 13.584370 0.217228
v 3.076406 13.584370 2.160141
v 0.161467 8.592298 0.363632
v 1.243144 8.592298 3.524953
v 0.161467 13.584370 0.363632
v 1.243144 13.584370 3.524953
v -0.083654 8.592298 0.368386
v -1.041937 8.592298 3.569272
v -0.083655 13.584370 0.368386
v -1.041937 13.584370 3.569272
v -0.285838 8.592299 0.229717
v -2.926740 8.592298 2.276571
v -0.285838 13.584370 0.229717
v -2.926740 13.584369 2.276571
v -0.369691 8.592299 -0.000665
v -3.708431 8.592298 0.128893
v -0.369690 13.584369 -0.000666
v -3.708431 13.584369 0.128893
v -0.303943 8.592299 -0.236853
v -3.095520 8.592298 -2.072901
v -0.303943 13.584369 -0.236853
v -3.095519 13.584369 -2.072901
v -0.113113 8.592299 -0.390773
v -1.316558 8.592298 -3.507773
v -0.113113 13.584369 -0.390772
v -1.316557 13.584368 -3.507772
v 0.131640 8.592299 -0.405028
v 0.965086 8.592298 -3.640664
v 0.131640 13.584369 -0.405027
v 0.965086 13.584368 -3.640662
v 0.339049 8.592299 -0.274303
v 2.898597 8.592299 -2.422019
v 0.339049 13.584369 -0.274302
v 2.898596 13.584368 -2.422018
v 0.303738 13.544445 -0.016233
v 2.494615 13.544445 -0.016233
v 0.303738 16.817772 -0.016233
v 2.494615 16.817772 -0.016233
v 0.254655 13.544445 0.136848
v 2.037047 13.544445 1.410826
v 0.254654 16.817772 0.136849
v 2.037046 16.817772 1.410826
v 0.125707 13.544445 0.232846
v 0.834968 13.544445 2.305740
v 0.125707 16.817772 0.232846
v 0.834968 16.817772 2.305740
v -0.035021 13.544445 0.235964
v -0.663371 13.544445 2.334800
v -0.035021 16.817772 0.235963
v -0.663372 16.817772 2.334800
v -0.167594 13.544446 0.145038
v -1.899246 13.544445 1.487170
v -0.167594 16.817772 0.145038
v -1.899246 16.817772 1.487170
v -0.222576 13.544446 -0.006025
v -2.411805 13.544445 0.078927
v -0.222576 16.817772 -0.006025
v -2.411805 16.817772 0.078927
v -0.179465 13.544446 -0.160895
v -2.009916 13.544445 -1.364801
v -0.179465 16.817772 -0.160895
v -2.009915 16.817772 -1.364801
v -0.054337 13.544446 -0.261820
v -0.843442 13.544445 -2.305653
v -0.054337 16.817772 -0.261820
v -0.843441 16.817772 -2.305652
v 0.106149 13.544446 -0.271168
v 0.652644 13.544445 -2.392790
v 0.106149 16.817772 -0.271167
v 0.652644 16.817772 -2.392789
v 0.242148 13.544447 -0.185451
v 1.920456 13.544446 -1.593719
v 0.242148 16.817772 -0.185450
v 1.920456 16.817772 -1.593718
v -3.415997 9.949804 3.431257
v 3.478982 9.949804 3.431257
v -3.415997 9.949804 -3.463723
v 3.478982 9.949804 -3.463723
v -3.415997 18.480433 3.431257
v 3.478982 18.480433 3.431257
v -3.415997 18.480433 -3.463723
v 3.478982 18.480433 -3.463723
v -3.415997 12.079885 3.431257
v 3.478982 12.079885 3.431257
v -3.415997 12.079885 -3.463723
v 3.478982 12.079885 -3.463723
v -2.417453 15.083268 2.432714
v 2.480439 15.083268 2.432714
v -2.417453 15.083268 -2.465179
v 2.480439 15.083268 -2.465179
v -3.415997 20.394949 3.431257
v 3.478982 20.394949 3.431257
v -3.415997 20.394949 -3.463723
v 3.478982 20.394949 -3.463723
v 0.293959 21.830006 -0.016233
v 2.509204 21.830006 -0.016233
v 0.293959 25.139740 -0.016233
v 2.509204 25.139740 -0.016233
v 0.244330 21.830006 0.138551
v 2.046546 21.830006 1.426698
v 0.244329 25.139740 0.138551
v 2.046546 25.139740 1.426698
v 0.113948 21.830006 0.235617
v 0.831097 21.830006 2.331566
v 0.113947 25.139740 0.235617
v 0.831097 25.139740 2.331566
v -0.048567 21.830006 0.238769
v -0.683907 21.830006 2.360950
v -0.048568 25.139740 0.238769
v -0.683907 25.139740 2.360950
v -0.182615 21.830006 0.146832
v -1.933528 21.830006 1.503891
v -0.182615 25.139740 0.146831
v -1.933528 25.139740 1.503891
v -0.238209 21.830006 -0.005912
v -2.451787 21.830006 0.079985
v -0.238209 25.139740 -0.005912
v -2.451787 25.139738 0.079985
v -0.194619 21.830006 -0.162504
v -2.045428 21.830006 -1.379800
v -0.194618 25.139738 -0.162504
v -2.045428 25.139738 -1.379800
v -0.068099 21.830006 -0.264552
v -0.865980 21.830006 -2.331117
v -0.068099 25.139738 -0.264552
v -0.865980 25.139738 -2.331117
v 0.094172 21.830006 -0.274003
v 0.646745 21.830006 -2.419224
v 0.094172 25.139738 -0.274003
v 0.646745 25.139738 -2.419223
v 0.231684 21.830006 -0.187333
v 1.928659 21.830006 -1.611265
v 0.231684 25.139738 -0.187332
v 1.928659 25.139738 -1.611264
vt 1.000124 0.542059
vt 0.649134 0.542123
vt 0.648344 0.997372
vt 0.999335 0.997307
vt 0.999335 0.997307
vt 1.000124 0.542059
vt 0.649134 0.542123
vt 0.648344 0.997372
vt 0.999335 0.997307
vt 1.000124 0.542059
vt 0.649134 0.542123
vt 0.648344 0.997372
vt 0.999335 0.997307
vt 1.000124 0.542059
vt 0.649134 0.542123
vt 0.648344 0.997372
vt 0.649134 0.542123
vt 0.648344 0.997372
vt 0.999335 0.997307
vt 1.000124 0.542059
vt 0.999335 0.997307
vt 1.000124 0.542059
vt 0.649134 0.542123
vt 0.648344 0.997372
vt 0.649134 0.542123
vt 0.648344 0.997372
vt 0.999335 0.997307
vt 1.000124 0.542059
vt 0.999335 0.997307
vt 1.000124 0.542059
vt 0.649134 0.542123
vt 0.648344 0.997372
vt 0.999335 0.997307
vt 1.000124 0.542059
vt 0.649134 0.542123
vt 0.648344 0.997372
vt 0.999335 0.997307
vt 1.000124 0.542059
vt 0.649134 0.542123
vt 0.648344 0.997372
vt 1.000124 0.542059
vt 0.649134 0.542123
vt 0.648344 0.997372
vt 0.999335 0.997307
vt 0.999335 0.997307
vt 1.000124 0.542059
vt 0.649134 0.542123
vt 0.648344 0.997372
vt 0.649134 0.542123
vt 0.648344 0.997372
vt 0.999335 0.997307
vt 1.000124 0.542059
vt 0.999335 0.997307
vt 1.000124 0.542059
vt 0.649134 0.542123
vt 0.648344 0.997372
vt 0.649134 0.542123
vt 0.648344 0.997372
vt 0.999335 0.997307
vt 1.000124 0.542059
vt 0.999335 0.997307
vt 1.000124 0.542059
vt 0.649134 0.542123
vt 0.648344 0.997372
vt 0.999335 0.997307
vt 1.000124 0.542059
vt 0.649134 0.542123
vt 0.648344 0.997372
vt 0.999335 0.997307
vt 1.000124 0.542059
vt 0.649134 0.542123
vt 0.648344 0.997372
vt 0.649134 0.542123
vt 0.648344 0.997372
vt 0.999335 0.997307
vt 1.000124 0.542059
vt 0.999335 0.997307
vt 1.000124 0.542059
vt 0.649134 0.542123
vt 0.648344 0.997372
vt 1.000124 0.542059
vt 0.649134 0.542123
vt 0.648344 0.997372
vt 0.999335 0.997307
vt 1.000124 0.542059
vt 0.649134 0.542123
vt 0.648344 0.997372
vt 0.999335 0.997307
vt 0.999335 0.997307
vt 1.000124 0.542059
vt 0.649134 0.542123
vt 0.648344 0.997372
vt 0.999335 0.997307
vt 1.000124 0.542059
vt 0.649134 0.542123
vt 0.648344 0.997372
vt 1.000124 0.542059
vt 0.649134 0.542123
vt 0.648344 0.997372
vt 0.999335 0.997307
vt 1.000124 0.542059
vt 0.649134 0.542123
vt 0.648344 0.997372
vt 0.999335 0.997307
vt 1.000124 0.542059
vt 0.649134 0.542123
vt 0.648344 0.997372
vt 0.999335 0.997307
vt 0.649134 0.542123
vt 0.648344 0.997372
vt 0.999335 0.997307
vt 1.000124 0.542059
vt 0.999335 0.997307
vt 1.000124 0.542059
vt 0.649134 0.542123
vt 0.648344 0.997372
vt 1.000124 0.542059
vt 0.649134 0.542123
vt 0.648344 0.997372
vt 0.999335 0.997307
vt 0.999424 -0.000455
vt 0.650677 -0.000455
vt 0.651031 0.346792
vt 0.999778 0.346792
vt 0.999424 -0.000455
vt 0.650677 -0.000455
vt 0.651031 0.346792
vt 0.999778 0.346792
vt 0.999424 -0.000455
vt 0.650677 -0.000455
vt 0.651031 0.346792
vt 0.999778 0.346792
vt 0.999778 0.346792
vt 0.999424 -0.000455
vt 0.650677 -0.000455
vt 0.651031 0.346792
vt 0.999424 -0.000455
vt 0.650677 -0.000455
vt 0.651031 0.346792
vt 0.999778 0.346792
vt 1.000124 0.542059
vt 0.649134 0.542123
vt 0.648344 0.997372
vt 0.999335 0.997307
vt 1.000124 0.542059
vt 0.649134 0.542123
vt 0.648344 0.997372
vt 0.999335 0.997307
vt 0.999335 0.997307
vt 1.000124 0.542059
vt 0.649134 0.542123
vt 0.648344 0.997372
vt 0.649134 0.542123
vt 0.648344 0.997372
vt 0.999335 0.997307
vt 1.000124 0.542059
vt 1.000124 0.542059
vt 0.649134 0.542123
vt 0.648344 0.997372
vt 0.999335 0.997307
vt 1.000124 0.542059
vt 0.649134 0.542123
vt 0.648344 0.997372
vt 0.999335 0.997307
vt 1.000124 0.542059
vt 0.649134 0.542123
vt 0.648344 0.997372
vt 0.999335 0.997307
vt 0.999335 0.997307
vt 1.000124 0.542059
vt 0.649134 0.542123
vt 0.648344 0.997372
vt 0.999335 0.997307
vt 1.000124 0.542059
vt 0.649134 0.542123
vt 0.648344 0.997372
vt 1.000124 0.542059
vt 0.649134 0.542123
vt 0.648344 0.997372
vt 0.999335 0.997307
vt 0.331767 0.871823
vt 0.331716 0.830533
vt 0.000690 0.830533
vt 0.000741 0.871823
vt 0.000350 0.708186
vt 0.000149 0.749909
vt 0.331175 0.749909
vt 0.331376 0.708186
vt 0.331767 0.913473
vt 0.331767 0.871823
vt 0.000741 0.871823
vt 0.000741 0.913473
vt 0.000164 0.625579
vt 0.000350 0.666600
vt 0.331376 0.666600
vt 0.331191 0.625579
vt 0.331332 0.790241
vt 0.331175 0.749909
vt 0.000149 0.749909
vt 0.000306 0.790241
vt 0.000004 0.545779
vt 0.000004 0.585224
vt 0.331031 0.585224
vt 0.331031 0.545779
vt 0.331767 0.955122
vt 0.331767 0.913473
vt 0.000741 0.913473
vt 0.000741 0.955122
vt 0.000004 0.585224
vt 0.000164 0.625579
vt 0.331191 0.625579
vt 0.331031 0.585224
vt 0.331716 0.830533
vt 0.331332 0.790241
vt 0.000306 0.790241
vt 0.000690 0.830533
vt 0.000350 0.666600
vt 0.000350 0.708186
vt 0.331376 0.708186
vt 0.331376 0.666600
vt 0.331767 0.995687
vt 0.331767 0.955122
vt 0.000741 0.955122
vt 0.000741 0.995687
vt 0.548177 0.931439
vt 0.548177 0.931439
vt 0.548177 0.931439
vt 0.548177 0.931439
vt 0.574206 0.933964
vt 0.574206 0.933964
vt 0.568535 0.953921
vt 0.568535 0.953921
vt 0.548003 0.957467
vt 0.548003 0.957467
vt 0.548003 0.957467
vt 0.548177 0.931439
vt 0.574206 0.933964
vt 0.574206 0.933964
vt 0.574206 0.933964
vt 0.568535 0.953921
vt 0.568535 0.953921
vt 0.548003 0.957467
vt 0.548003 0.957467
vt 0.548177 0.931439
vt 0.548177 0.931439
vt 0.548177 0.931439
vn 0.0000 -0.0000 1.0000
vn -0.5815 -0.0000 0.8136
vn -0.9461 -0.0000 0.3237
vn -0.9580 -0.0000 -0.2868
vn -0.6126 -0.0000 -0.7904
vn -0.0388 -0.0000 -0.9992
vn 0.5495 -0.0000 -0.8355
vn 0.9329 -0.0000 -0.3602
vn 0.9684 -0.0000 0.2494
vn 0.6428 -0.0000 0.7660
vn 0.0000 1.0000 0.0000
vn -0.7686 0.6385 0.0378
vn -0.6471 0.6563 -0.3879
vn -0.6471 -0.6563 -0.3879
vn -0.7686 -0.6385 0.0378
vn 0.7623 0.6472 0.0000
vn 0.6471 0.6563 0.3879
vn 0.6471 -0.6563 0.3879
vn 0.7623 -0.6472 0.0000
vn 0.0000 0.6472 -0.7623
vn 0.3879 0.6563 -0.6471
vn 0.3879 -0.6563 -0.6471
vn 0.0000 -0.6472 -0.7623
vn -0.5490 0.6302 0.5490
vn -0.5490 -0.6302 0.5490
vn -0.3879 0.6563 -0.6471
vn -0.3879 -0.6563 -0.6471
vn 0.3879 0.6563 0.6471
vn 0.3879 -0.6563 0.6471
vn -0.0378 0.6385 0.7686
vn -0.0378 -0.6385 0.7686
vn 0.6471 0.6563 -0.3879
vn 0.6471 -0.6563 -0.3879
usemtl None
s off
f 1/1/1 2/2/1 4/3/1 3/4/1
f 5/5/2 6/6/2 8/7/2 7/8/2
f 9/9/3 10/10/3 12/11/3 11/12/3
f 13/13/4 14/14/4 16/15/4 15/16/4
f 17/17/5 18/18/5 20/19/5 19/20/5
f 21/21/6 22/22/6 24/23/6 23/24/6
f 25/25/7 26/26/7 28/27/7 27/28/7
f 29/29/8 30/30/8 32/31/8 31/32/8
f 33/33/9 34/34/9 36/35/9 35/36/9
f 37/37/10 38/38/10 40/39/10 39/40/10
f 63/41/1 64/42/1 66/43/1 65/44/1
f 67/45/2 68/46/2 70/47/2 69/48/2
f 71/49/3 72/50/3 74/51/3 73/52/3
f 75/53/4 76/54/4 78/55/4 77/56/4
f 79/57/5 80/58/5 82/59/5 81/60/5
f 83/61/6 84/62/6 86/63/6 85/64/6
f 87/65/7 88/66/7 90/67/7 89/68/7
f 91/69/8 92/70/8 94/71/8 93/72/8
f 95/73/9 96/74/9 98/75/9 97/76/9
f 99/77/10 100/78/10 102/79/10 101/80/10
f 103/81/1 104/82/1 106/83/1 105/84/1
f 107/85/2 108/86/2 110/87/2 109/88/2
f 111/89/3 112/90/3 114/91/3 113/92/3
f 115/93/4 116/94/4 118/95/4 117/96/4
f 119/97/5 120/98/5 122/99/5 121/100/5
f 123/101/6 124/102/6 126/103/6 125/104/6
f 127/105/7 128/106/7 130/107/7 129/108/7
f 131/109/8 132/110/8 134/111/8 133/112/8
f 135/113/9 136/114/9 138/115/9 137/116/9
f 139/117/10 140/118/10 142/119/10 141/120/10
f 143/121/11 144/122/11 146/123/11 145/124/11
f 147/125/11 148/126/11 150/127/11 149/128/11
f 151/129/11 152/130/11 154/131/11 153/132/11
f 155/133/11 156/134/11 158/135/11 157/136/11
f 159/137/11 160/138/11 162/139/11 161/140/11
f 163/141/1 164/142/1 166/143/1 165/144/1
f 167/145/2 168/146/2 170/147/2 169/148/2
f 171/149/3 172/150/3 174/151/3 173/152/3
f 175/153/4 176/154/4 178/155/4 177/156/4
f 179/157/5 180/158/5 182/159/5 181/160/5
f 183/161/6 184/162/6 186/163/6 185/164/6
f 187/165/7 188/166/7 190/167/7 189/168/7
f 191/169/8 192/170/8 194/171/8 193/172/8
f 195/173/9 196/174/9 198/175/9 197/176/9
f 199/177/10 200/178/10 202/179/10 201/180/10
s 1
f 58/181/12 60/182/13 59/183/14 57/184/15
f 48/185/16 50/186/17 49/187/18 47/188/19
f 42/189/20 44/190/21 43/191/22 41/192/23
f 56/193/24 58/194/12 57/195/15 55/196/25
f 60/197/13 62/198/26 61/199/27 59/200/14
f 62/201/26 42/202/20 41/203/23 61/204/27
f 50/205/17 52/206/28 51/207/29 49/208/18
f 52/209/28 54/210/30 53/211/31 51/212/29
f 54/213/30 56/214/24 55/215/25 53/216/31
f 44/217/21 46/218/32 45/219/33 43/220/22
f 46/221/32 48/222/16 47/223/19 45/224/33
f 42/225/20 62/226/26 60/227/13 58/228/12 56/229/24 54/230/30 52/231/28 50/232/17 48/233/16 46/234/32 44/235/21
f 41/236/23 43/237/22 45/238/33 47/239/19 49/240/18 51/241/29 53/242/31 55/243/25 57/244/15 59/245/14 61/246/27
