# Blender v2.80 (sub 60) OBJ File: 'pylons.blend'
# www.blender.org
mtllib MainWireE_3.mtl
o BezierCurve.006_CUBezierCurve.007
v 129.176392 20.327784 123.868057
v 129.211533 20.352978 123.869331
v 129.254410 20.352978 123.875145
v 129.288620 20.327787 123.883270
v 129.301117 20.287025 123.890617
v 129.287125 20.246264 123.894379
v 129.251968 20.221069 123.893112
v 129.209106 20.221069 123.887299
v 129.174881 20.246260 123.879166
v 129.162384 20.287022 123.871819
v 129.416687 20.361469 122.082771
v 129.451111 20.386818 122.089424
v 129.493988 20.386818 122.095184
v 129.528946 20.361469 122.097839
v 129.542633 20.320454 122.096375
v 129.529816 20.279440 122.091354
v 129.495392 20.254091 122.084702
v 129.452515 20.254091 122.078949
v 129.417557 20.279440 122.076294
v 129.403870 20.320454 122.077751
v 129.790771 20.760471 119.288696
v 129.824905 20.785551 119.297508
v 129.867783 20.785553 119.303238
v 129.903030 20.760477 119.303711
v 129.917191 20.719900 119.298737
v 129.904846 20.679321 119.290207
v 129.870712 20.654242 119.281395
v 129.827835 20.654240 119.275665
v 129.792587 20.679316 119.275192
v 129.778427 20.719893 119.280167
v 130.270813 21.465233 115.695251
v 130.304825 21.490124 115.705055
v 130.347702 21.490129 115.710785
v 130.383087 21.465244 115.710243
v 130.397461 21.424976 115.703644
v 130.385330 21.384705 115.693512
v 130.351334 21.359814 115.683701
v 130.308441 21.359810 115.677979
v 130.273056 21.384693 115.678513
v 130.258698 21.424963 115.685120
v 130.829285 22.415337 111.509720
v 130.863205 22.440094 111.520126
v 130.906082 22.440098 111.525848
v 130.941559 22.415352 111.524689
v 130.956055 22.375305 111.517113
v 130.944061 22.335255 111.505997
v 130.910141 22.310497 111.495590
v 130.867249 22.310493 111.489868
v 130.831787 22.335239 111.491013
v 130.817291 22.375286 111.498596
v 131.438751 23.550364 106.938446
v 131.472610 23.575012 106.949287
v 131.515503 23.575018 106.955002
v 131.551025 23.550381 106.953415
v 131.565628 23.510508 106.945129
v 131.553711 23.470631 106.933304
v 131.519852 23.445982 106.922462
v 131.476974 23.445976 106.916748
v 131.441452 23.470615 106.918335
v 131.426849 23.510487 106.926620
v 132.071838 24.809906 102.187599
v 132.105652 24.834459 102.198799
v 132.148544 24.834467 102.204514
v 132.184113 24.809923 102.202560
v 132.198792 24.770206 102.193687
v 132.186966 24.730484 102.181282
v 132.153152 24.705929 102.170082
v 132.110260 24.705923 102.164368
v 132.074692 24.730465 102.166321
v 132.060013 24.770184 102.175194
v 132.701172 26.133566 97.463264
v 132.734940 26.158026 97.474800
v 132.777832 26.158033 97.480515
v 132.813446 26.133585 97.478226
v 132.828201 26.094021 97.468796
v 132.816437 26.054453 97.455841
v 132.782669 26.029995 97.444305
v 132.739792 26.029987 97.438591
v 132.704163 26.054434 97.440887
v 132.689423 26.093998 97.450310
v 133.299362 27.460945 92.971519
v 133.333084 27.485294 92.983429
v 133.375977 27.485302 92.989136
v 133.411636 27.460964 92.986481
v 133.426468 27.421577 92.976456
v 133.414795 27.382185 92.962906
v 133.381073 27.357834 92.951004
v 133.338196 27.357826 92.945290
v 133.302521 27.382166 92.947952
v 133.287689 27.421553 92.957970
v 133.839050 28.731623 88.918488
v 133.872696 28.755827 88.930855
v 133.915588 28.755835 88.936569
v 133.951309 28.731644 88.933441
v 133.966248 28.692493 88.922668
v 133.954666 28.653339 88.908363
v 133.921021 28.629135 88.895996
v 133.878128 28.629128 88.890282
v 133.842407 28.653318 88.893410
v 133.827469 28.692469 88.904182
v 134.292801 29.885122 85.510414
v 134.326370 29.909079 85.523499
v 134.369247 29.909086 85.529213
v 134.405075 29.885143 85.525368
v 134.420166 29.846392 85.513428
v 134.408737 29.807636 85.497963
v 134.375183 29.783680 85.484871
v 134.332291 29.783672 85.479156
v 134.296478 29.807617 85.483002
v 134.281387 29.846367 85.494942
v 134.633163 30.860647 82.954185
v 134.666519 30.883999 82.968803
v 134.709412 30.884005 82.974518
v 134.745438 30.860666 82.969147
v 134.760849 30.822893 82.954742
v 134.749756 30.785118 82.936813
v 134.716400 30.761766 82.922195
v 134.673523 30.761759 82.916481
v 134.637482 30.785099 82.921852
v 134.622070 30.822870 82.936249
v 134.832428 31.595997 81.458252
v 134.865280 31.617256 81.476715
v 134.908157 31.617260 81.482437
v 134.944702 31.596008 81.473228
v 134.960938 31.561619 81.452606
v 134.950684 31.527225 81.428452
v 134.917831 31.505966 81.409988
v 134.874954 31.505962 81.404274
v 134.838409 31.527214 81.413483
v 134.822174 31.561604 81.434097
vt 0.452223 0.000713
vt 0.306179 0.040213
vt 0.290796 0.040049
vt 0.437697 0.000357
vt 0.464173 0.000932
vt 0.318655 0.040314
vt 0.973621 0.998073
vt 0.972790 0.958674
vt 0.988395 0.958673
vt 0.989226 0.998071
vt 0.961000 0.998294
vt 0.960166 0.958775
vt 0.904745 0.999425
vt 0.757837 0.959729
vt 0.770250 0.959565
vt 0.916299 0.999068
vt 0.890218 0.999781
vt 0.742454 0.959893
vt 0.878269 1.000000
vt 0.729978 0.959995
vt 0.946174 0.000002
vt 0.945393 0.040022
vt 0.929789 0.040022
vt 0.930569 0.000000
vt 0.958795 0.000223
vt 0.958018 0.040124
vt 0.278383 0.039884
vt 0.426143 0.000000
vt 0.192343 0.104015
vt 0.176797 0.103931
vt 0.204920 0.104068
vt 0.972182 0.894907
vt 0.987787 0.894907
vt 0.959557 0.894959
vt 0.643848 0.895845
vt 0.656426 0.895761
vt 0.628302 0.895930
vt 0.615725 0.895982
vt 0.944887 0.104047
vt 0.929282 0.104047
vt 0.957512 0.104098
vt 0.164219 0.103847
vt 0.109429 0.187169
vt 0.093842 0.187121
vt 0.122030 0.187198
vt 0.971771 0.811768
vt 0.987375 0.811767
vt 0.959146 0.811796
vt 0.560912 0.812654
vt 0.573530 0.812607
vt 0.545325 0.812701
vt 0.532723 0.812731
vt 0.944612 0.187307
vt 0.929007 0.187307
vt 0.957237 0.187336
vt 0.081224 0.187074
vt 0.055672 0.284763
vt 0.040071 0.284739
vt 0.987132 0.714181
vt 0.999756 0.714195
vt 1.000000 0.811795
vt 0.971527 0.714181
vt 0.958902 0.714195
vt 0.507163 0.715036
vt 0.519794 0.715012
vt 0.491562 0.715061
vt 0.928924 0.284968
vt 0.916299 0.284982
vt 0.916383 0.187335
vt 0.944529 0.284968
vt 0.957154 0.284982
vt 0.027440 0.284715
vt 0.029228 0.391910
vt 0.013624 0.391902
vt 0.987026 0.607042
vt 0.999651 0.607046
vt 0.971421 0.607042
vt 0.958796 0.607046
vt 0.480740 0.607873
vt 0.493375 0.607866
vt 0.465134 0.607881
vt 0.928994 0.392160
vt 0.916370 0.392164
vt 0.944599 0.392160
vt 0.957224 0.392164
vt 0.000987 0.391894
vt 0.028241 0.503723
vt 0.012636 0.503729
vt 0.987028 0.495237
vt 0.999652 0.495232
vt 0.971423 0.495237
vt 0.958798 0.495232
vt 0.479777 0.496046
vt 0.492414 0.496052
vt 0.464173 0.496040
vt 0.929180 0.504010
vt 0.916555 0.504005
vt 0.944784 0.504010
vt 0.957409 0.504005
vt 0.000000 0.503735
vt 0.050851 0.615321
vt 0.035249 0.615340
vt 0.987107 0.383650
vt 0.999731 0.383637
vt 0.971502 0.383650
vt 0.958877 0.383637
vt 0.502415 0.384435
vt 0.515049 0.384454
vt 0.486814 0.384416
vt 0.929442 0.615639
vt 0.916817 0.615626
vt 0.945047 0.615639
vt 0.957671 0.615626
vt 0.022615 0.615359
vt 0.095195 0.721819
vt 0.079599 0.721852
vt 0.987232 0.277166
vt 0.999857 0.277144
vt 0.971627 0.277166
vt 0.959003 0.277144
vt 0.546789 0.277923
vt 0.559417 0.277956
vt 0.531193 0.277890
vt 0.929743 0.722169
vt 0.917118 0.722148
vt 0.945348 0.722169
vt 0.957972 0.722147
vt 0.066971 0.721886
vt 0.159408 0.818334
vt 0.143824 0.818385
vt 0.987375 0.180669
vt 0.999999 0.180636
vt 0.971770 0.180669
vt 0.959145 0.180636
vt 0.611037 0.181389
vt 0.623653 0.181441
vt 0.595454 0.181338
vt 0.930044 0.818724
vt 0.917419 0.818692
vt 0.945649 0.818724
vt 0.958273 0.818691
vt 0.131209 0.818437
vt 0.241619 0.899979
vt 0.226065 0.900058
vt 0.172008 0.818303
vt 0.254200 0.899931
vt 0.971899 0.099050
vt 0.987504 0.099050
vt 0.959274 0.099000
vt 0.693296 0.099717
vt 0.705881 0.099796
vt 0.677742 0.099638
vt 0.582854 0.181307
vt 0.665161 0.099589
vt 0.945912 0.900433
vt 0.930307 0.900433
vt 0.958537 0.900383
vt 0.213479 0.900137
vt 0.339904 0.961851
vt 0.324458 0.961989
vt 0.352418 0.961765
vt 0.971984 0.037227
vt 0.987589 0.037227
vt 0.959359 0.037140
vt 0.791703 0.037785
vt 0.804181 0.037925
vt 0.776257 0.037647
vt 0.763742 0.037561
vt 0.946099 0.962450
vt 0.930494 0.962450
vt 0.958724 0.962363
vt 0.311980 0.962129
vt 0.452014 0.999003
vt 0.437141 0.999298
vt 0.464173 0.998821
vt 0.971995 0.000183
vt 0.987600 0.000183
vt 0.959371 0.000000
vt 0.904393 0.000477
vt 0.916298 0.000773
vt 0.889521 0.000182
vt 0.877362 0.000000
vt 0.946172 0.999999
vt 0.930567 0.999999
vt 0.958796 0.999815
vt 0.425237 0.999594
vn -0.8155 0.5702 -0.0990
vn -0.8131 0.5787 -0.0626
vn -0.9909 -0.0119 -0.1339
vn -0.9905 -0.0305 -0.1339
vn -0.3155 0.9486 -0.0244
vn -0.3193 0.9471 0.0334
vn 0.3111 0.9485 0.0599
vn 0.2993 0.9470 0.1165
vn 0.8128 0.5700 0.1202
vn 0.8008 0.5788 0.1540
vn 0.9907 -0.0305 0.1328
vn 0.9911 -0.0118 0.1321
vn 0.7869 -0.6098 0.0947
vn 0.8020 -0.5943 0.0600
vn 0.2981 -0.9543 0.0226
vn 0.3124 -0.9493 -0.0342
vn -0.2931 -0.9544 -0.0569
vn -0.2922 -0.9493 -0.1154
vn -0.7837 -0.6100 -0.1167
vn -0.7894 -0.5943 -0.1536
vn -0.8170 0.5764 -0.0116
vn -0.9910 -0.0050 -0.1334
vn -0.3286 0.9375 0.1148
vn 0.2868 0.9375 0.1971
vn 0.7913 0.5766 0.2034
vn 0.9912 -0.0049 0.1317
vn 0.8124 -0.5830 0.0099
vn 0.3257 -0.9384 -0.1153
vn -0.2838 -0.9384 -0.1968
vn -0.7864 -0.5830 -0.2039
vn -0.8192 0.5734 0.0119
vn -0.9911 -0.0028 -0.1329
vn -0.3330 0.9305 0.1524
vn 0.2812 0.9306 0.2344
vn 0.7873 0.5734 0.2264
vn 0.9913 -0.0027 0.1317
vn 0.8166 -0.5770 -0.0130
vn 0.3314 -0.9311 -0.1527
vn -0.2795 -0.9311 -0.2342
vn -0.7844 -0.5772 -0.2268
vn -0.8207 0.5707 0.0262
vn -0.9911 -0.0020 -0.1327
vn -0.3358 0.9255 0.1751
vn 0.2779 0.9256 0.2570
vn 0.7850 0.5709 0.2404
vn 0.9913 -0.0018 0.1318
vn 0.8189 -0.5732 -0.0270
vn 0.3347 -0.9259 -0.1754
vn -0.2768 -0.9259 -0.2569
vn -0.7831 -0.5734 -0.2407
vn -0.8220 0.5684 0.0364
vn -0.9911 -0.0018 -0.1325
vn -0.3379 0.9215 0.1915
vn 0.2757 0.9216 0.2733
vn 0.7835 0.5687 0.2504
vn 0.9913 -0.0014 0.1318
vn 0.8205 -0.5704 -0.0371
vn 0.3370 -0.9218 -0.1917
vn -0.2748 -0.9218 -0.2733
vn -0.7819 -0.5707 -0.2507
vn -0.8229 0.5663 0.0448
vn -0.9912 -0.0015 -0.1325
vn -0.3396 0.9179 0.2050
vn 0.2739 0.9180 0.2867
vn 0.7823 0.5665 0.2587
vn 0.9913 -0.0011 0.1317
vn 0.8217 -0.5681 -0.0454
vn 0.3388 -0.9182 -0.2051
vn -0.2731 -0.9182 -0.2868
vn -0.7809 -0.5683 -0.2590
vn -0.8239 0.5642 0.0526
vn -0.3413 0.9144 0.2177
vn 0.2722 0.9145 0.2994
vn 0.7812 0.5644 0.2665
vn 0.8227 -0.5660 -0.0533
vn 0.3404 -0.9147 -0.2178
vn -0.2713 -0.9147 -0.2994
vn -0.7799 -0.5662 -0.2669
vn -0.8252 0.5615 0.0611
vn -0.9911 -0.0017 -0.1325
vn -0.3432 0.9102 0.2315
vn 0.2703 0.9104 0.3132
vn 0.7802 0.5618 0.2749
vn 0.9913 -0.0014 0.1316
vn 0.8237 -0.5635 -0.0619
vn 0.3424 -0.9106 -0.2317
vn -0.2694 -0.9107 -0.3132
vn -0.7786 -0.5638 -0.2754
vn -0.8268 0.5578 0.0717
vn -0.9911 -0.0023 -0.1327
vn -0.3457 0.9047 0.2488
vn 0.2682 0.9048 0.3306
vn 0.7791 0.5580 0.2857
vn 0.9913 -0.0020 0.1314
vn 0.8249 -0.5605 -0.0729
vn 0.3445 -0.9051 -0.2491
vn -0.2670 -0.9052 -0.3306
vn -0.7769 -0.5607 -0.2863
vn -0.8297 0.5512 0.0879
vn -0.9911 -0.0038 -0.1333
vn -0.3497 0.8954 0.2756
vn 0.2651 0.8954 0.3576
vn 0.7775 0.5515 0.3020
vn 0.9914 -0.0032 0.1308
vn 0.8264 -0.5558 -0.0900
vn 0.3476 -0.8961 -0.2762
vn -0.2628 -0.8961 -0.3575
vn -0.7738 -0.5561 -0.3032
vn -0.8364 0.5344 0.1214
vn -0.9907 -0.0085 -0.1357
vn -0.3585 0.8724 0.3322
vn 0.2587 0.8725 0.4144
vn 0.7752 0.5349 0.3361
vn 0.9917 -0.0080 0.1285
vn 0.8285 -0.5454 -0.1273
vn 0.3533 -0.8739 -0.3337
vn -0.2533 -0.8740 -0.4146
vn -0.7660 -0.5456 -0.3398
vn -0.8457 0.5148 0.1404
vn -0.9894 -0.0228 -0.1430
vn -0.3674 0.8531 0.3704
vn 0.2573 0.8532 0.4536
vn 0.7791 0.5153 0.3569
vn 0.9924 -0.0225 0.1211
vn 0.8238 -0.5444 -0.1580
vn 0.3532 -0.8572 -0.3747
vn -0.2425 -0.8573 -0.4541
vn -0.7535 -0.5445 -0.3683
usemtl None
s 1
f 1/1/1 11/2/2 20/3/3 10/4/4
f 2/5/5 12/6/6 11/2/2 1/1/1
f 3/7/7 13/8/8 12/9/6 2/10/5
f 4/11/9 14/12/10 13/8/8 3/7/7
f 5/13/11 15/14/12 14/15/10 4/16/9
f 6/17/13 16/18/14 15/14/12 5/13/11
f 7/19/15 17/20/16 16/18/14 6/17/13
f 8/21/17 18/22/18 17/23/16 7/24/15
f 9/25/19 19/26/20 18/22/18 8/21/17
f 10/4/4 20/3/3 19/27/20 9/28/19
f 11/2/2 21/29/21 30/30/22 20/3/3
f 12/6/6 22/31/23 21/29/21 11/2/2
f 13/8/8 23/32/24 22/33/23 12/9/6
f 14/12/10 24/34/25 23/32/24 13/8/8
f 15/14/12 25/35/26 24/36/25 14/15/10
f 16/18/14 26/37/27 25/35/26 15/14/12
f 17/20/16 27/38/28 26/37/27 16/18/14
f 18/22/18 28/39/29 27/40/28 17/23/16
f 19/26/20 29/41/30 28/39/29 18/22/18
f 20/3/3 30/30/22 29/42/30 19/27/20
f 21/29/21 31/43/31 40/44/32 30/30/22
f 22/31/23 32/45/33 31/43/31 21/29/21
f 23/32/24 33/46/34 32/47/33 22/33/23
f 24/34/25 34/48/35 33/46/34 23/32/24
f 25/35/26 35/49/36 34/50/35 24/36/25
f 26/37/27 36/51/37 35/49/36 25/35/26
f 27/38/28 37/52/38 36/51/37 26/37/27
f 28/39/29 38/53/39 37/54/38 27/40/28
f 29/41/30 39/55/40 38/53/39 28/39/29
f 30/30/22 40/44/32 39/56/40 29/42/30
f 31/43/31 41/57/41 50/58/42 40/44/32
f 32/47/33 42/59/43 41/60/41 31/61/31
f 33/46/34 43/62/44 42/59/43 32/47/33
f 34/48/35 44/63/45 43/62/44 33/46/34
f 35/49/36 45/64/46 44/65/45 34/50/35
f 36/51/37 46/66/47 45/64/46 35/49/36
f 37/54/38 47/67/48 46/68/47 36/69/37
f 38/53/39 48/70/49 47/67/48 37/54/38
f 39/55/40 49/71/50 48/70/49 38/53/39
f 40/44/32 50/58/42 49/72/50 39/56/40
f 41/57/41 51/73/51 60/74/52 50/58/42
f 42/59/43 52/75/53 51/76/51 41/60/41
f 43/62/44 53/77/54 52/75/53 42/59/43
f 44/63/45 54/78/55 53/77/54 43/62/44
f 45/64/46 55/79/56 54/80/55 44/65/45
f 46/66/47 56/81/57 55/79/56 45/64/46
f 47/67/48 57/82/58 56/83/57 46/68/47
f 48/70/49 58/84/59 57/82/58 47/67/48
f 49/71/50 59/85/60 58/84/59 48/70/49
f 50/58/42 60/74/52 59/86/60 49/72/50
f 51/73/51 61/87/61 70/88/62 60/74/52
f 52/75/53 62/89/63 61/90/61 51/76/51
f 53/77/54 63/91/64 62/89/63 52/75/53
f 54/78/55 64/92/65 63/91/64 53/77/54
f 55/79/56 65/93/66 64/94/65 54/80/55
f 56/81/57 66/95/67 65/93/66 55/79/56
f 57/82/58 67/96/68 66/97/67 56/83/57
f 58/84/59 68/98/69 67/96/68 57/82/58
f 59/85/60 69/99/70 68/98/69 58/84/59
f 60/74/52 70/88/62 69/100/70 59/86/60
f 61/87/61 71/101/71 80/102/62 70/88/62
f 62/89/63 72/103/72 71/104/71 61/90/61
f 63/91/64 73/105/73 72/103/72 62/89/63
f 64/92/65 74/106/74 73/105/73 63/91/64
f 65/93/66 75/107/66 74/108/74 64/94/65
f 66/95/67 76/109/75 75/107/66 65/93/66
f 67/96/68 77/110/76 76/111/75 66/97/67
f 68/98/69 78/112/77 77/110/76 67/96/68
f 69/99/70 79/113/78 78/112/77 68/98/69
f 70/88/62 80/102/62 79/114/78 69/100/70
f 71/101/71 81/115/79 90/116/80 80/102/62
f 72/103/72 82/117/81 81/118/79 71/104/71
f 73/105/73 83/119/82 82/117/81 72/103/72
f 74/106/74 84/120/83 83/119/82 73/105/73
f 75/107/66 85/121/84 84/122/83 74/108/74
f 76/109/75 86/123/85 85/121/84 75/107/66
f 77/110/76 87/124/86 86/125/85 76/111/75
f 78/112/77 88/126/87 87/124/86 77/110/76
f 79/113/78 89/127/88 88/126/87 78/112/77
f 80/102/62 90/116/80 89/128/88 79/114/78
f 81/115/79 91/129/89 100/130/90 90/116/80
f 82/117/81 92/131/91 91/132/89 81/118/79
f 83/119/82 93/133/92 92/131/91 82/117/81
f 84/120/83 94/134/93 93/133/92 83/119/82
f 85/121/84 95/135/94 94/136/93 84/122/83
f 86/123/85 96/137/95 95/135/94 85/121/84
f 87/124/86 97/138/96 96/139/95 86/125/85
f 88/126/87 98/140/97 97/138/96 87/124/86
f 89/127/88 99/141/98 98/140/97 88/126/87
f 90/116/80 100/130/90 99/142/98 89/128/88
f 91/129/89 101/143/99 110/144/100 100/130/90
f 92/145/91 102/146/101 101/143/99 91/129/89
f 93/133/92 103/147/102 102/148/101 92/131/91
f 94/134/93 104/149/103 103/147/102 93/133/92
f 95/135/94 105/150/104 104/151/103 94/136/93
f 96/137/95 106/152/105 105/150/104 95/135/94
f 97/153/96 107/154/106 106/152/105 96/137/95
f 98/140/97 108/155/107 107/156/106 97/138/96
f 99/141/98 109/157/108 108/155/107 98/140/97
f 100/130/90 110/144/100 109/158/108 99/142/98
f 101/143/99 111/159/109 120/160/110 110/144/100
f 102/146/101 112/161/111 111/159/109 101/143/99
f 103/147/102 113/162/112 112/163/111 102/148/101
f 104/149/103 114/164/113 113/162/112 103/147/102
f 105/150/104 115/165/114 114/166/113 104/151/103
f 106/152/105 116/167/115 115/165/114 105/150/104
f 107/154/106 117/168/116 116/167/115 106/152/105
f 108/155/107 118/169/117 117/170/116 107/156/106
f 109/157/108 119/171/118 118/169/117 108/155/107
f 110/144/100 120/160/110 119/172/118 109/158/108
f 111/159/109 121/173/119 130/174/120 120/160/110
f 112/161/111 122/175/121 121/173/119 111/159/109
f 113/162/112 123/176/122 122/177/121 112/163/111
f 114/164/113 124/178/123 123/176/122 113/162/112
f 115/165/114 125/179/124 124/180/123 114/166/113
f 116/167/115 126/181/125 125/179/124 115/165/114
f 117/168/116 127/182/126 126/181/125 116/167/115
f 118/169/117 128/183/127 127/184/126 117/170/116
f 119/171/118 129/185/128 128/183/127 118/169/117
f 120/160/110 130/174/120 129/186/128 119/172/118
