# Blender v2.80 (sub 60) OBJ File: 'pylons.blend'
# www.blender.org
mtllib MainWireS_3.mtl
o BezierCurve.008_CUBezierCurve.009
v -189.161880 20.327541 129.864426
v -189.143463 20.352654 129.894455
v -189.124710 20.352573 129.933441
v -189.112793 20.327335 129.966492
v -189.112259 20.286577 129.980988
v -189.123322 20.245869 129.971390
v -189.141739 20.220757 129.941360
v -189.160492 20.220837 129.902374
v -189.172409 20.246075 129.869324
v -189.172943 20.286833 129.854828
v -187.184357 20.361210 128.996185
v -187.171951 20.386597 129.028946
v -187.154938 20.386597 129.068726
v -187.139801 20.361210 129.100311
v -187.132309 20.320137 129.111649
v -187.135330 20.279064 129.098404
v -187.147736 20.253677 129.065643
v -187.164734 20.253677 129.025864
v -187.179886 20.279064 128.994278
v -187.187378 20.320137 128.982941
v -183.599915 20.760502 127.502876
v -183.589310 20.785715 127.536392
v -183.572800 20.785667 127.576385
v -183.556686 20.760374 127.607559
v -183.547119 20.719501 127.618027
v -183.547760 20.678656 127.603783
v -183.558380 20.653442 127.570267
v -183.574890 20.653492 127.530281
v -183.591003 20.678783 127.499100
v -183.600555 20.719658 127.488632
v -178.736099 21.465483 125.513626
v -178.726212 21.490597 125.547440
v -178.709900 21.490520 125.587509
v -178.693375 21.465286 125.618523
v -178.682968 21.424530 125.628647
v -178.682663 21.383821 125.614006
v -178.692551 21.358707 125.580193
v -178.708862 21.358784 125.540131
v -178.725388 21.384018 125.509109
v -178.735794 21.424774 125.498993
v -172.918365 22.415745 123.156525
v -172.908875 22.440790 123.190506
v -172.892670 22.440697 123.230614
v -172.875900 22.415504 123.261528
v -172.864990 22.374830 123.271446
v -172.864105 22.334213 123.256569
v -172.873581 22.309168 123.222595
v -172.889801 22.309261 123.182487
v -172.906570 22.334454 123.151573
v -172.917480 22.375128 123.141655
v -166.471619 23.550890 120.559425
v -166.462448 23.575884 120.593521
v -166.446289 23.575779 120.633652
v -166.429321 23.550621 120.664490
v -166.418045 23.510014 120.674255
v -166.416733 23.469471 120.659218
v -166.425919 23.444477 120.625114
v -166.442078 23.444580 120.584984
v -166.459030 23.469742 120.554146
v -166.470322 23.510347 120.544388
v -159.720734 24.810532 117.850143
v -159.711807 24.835478 117.884346
v -159.695694 24.835367 117.924500
v -159.678558 24.810242 117.955261
v -159.666931 24.769697 117.964890
v -159.665253 24.729223 117.949699
v -159.674179 24.704277 117.915497
v -159.690292 24.704388 117.875351
v -159.707443 24.729515 117.844589
v -159.719070 24.770058 117.834961
v -152.990509 26.134285 115.156509
v -152.981842 26.159182 115.190811
v -152.965759 26.159063 115.230972
v -152.948410 26.133978 115.261658
v -152.936432 26.093504 115.271141
v -152.934387 26.053102 115.255806
v -152.943069 26.028206 115.221504
v -152.959152 26.028322 115.181343
v -152.976501 26.053410 115.150658
v -152.988464 26.093884 115.141174
v -146.605804 27.461754 112.606323
v -146.597412 27.486591 112.640739
v -146.581345 27.486469 112.680908
v -146.563751 27.461435 112.711494
v -146.551346 27.421051 112.720810
v -146.548874 27.380741 112.705299
v -146.557251 27.355904 112.670883
v -146.573318 27.356026 112.630707
v -146.590912 27.381062 112.600128
v -146.603317 27.421446 112.590813
v -140.891464 28.732538 110.327431
v -140.883453 28.757288 110.362000
v -140.867416 28.757162 110.402176
v -140.849457 28.732210 110.432617
v -140.836456 28.691959 110.441689
v -140.833359 28.651789 110.425934
v -140.841354 28.627039 110.391365
v -140.857391 28.627165 110.351181
v -140.875351 28.652119 110.320747
v -140.888367 28.692368 110.311668
v -136.172562 29.886175 108.447731
v -136.165222 29.910759 108.482559
v -136.149200 29.910631 108.522743
v -136.130585 29.885839 108.552925
v -136.116516 29.845856 108.561577
v -136.112350 29.805948 108.545395
v -136.119690 29.781364 108.510559
v -136.135727 29.781494 108.470383
v -136.154327 29.806284 108.440201
v -136.168396 29.846270 108.431549
v -132.775116 30.861830 107.095512
v -132.769470 30.885891 107.131020
v -132.753433 30.885763 107.171196
v -132.733124 30.861496 107.200699
v -132.716309 30.822359 107.208260
v -132.709412 30.783300 107.190987
v -132.715057 30.759239 107.155479
v -132.731094 30.759365 107.115303
v -132.751389 30.783632 107.085793
v -132.768204 30.822771 107.078239
v -131.028976 31.595530 106.400597
v -131.029160 31.616520 106.438423
v -131.013092 31.616415 106.478584
v -130.986877 31.595257 106.505745
v -130.960571 31.561125 106.509521
v -130.944199 31.527056 106.488480
v -130.944016 31.506065 106.450645
v -130.960098 31.506170 106.410484
v -130.986298 31.527328 106.383331
v -131.012604 31.561460 106.379555
vt 0.837157 0.000495
vt 0.729393 0.033910
vt 0.717399 0.033829
vt 0.825755 0.000280
vt 0.985093 0.000161
vt 0.962870 0.033457
vt 0.950794 0.033397
vt 0.973114 0.000000
vt 1.000000 0.000204
vt 0.977805 0.033471
vt 0.412474 0.999228
vt 0.305046 0.965890
vt 0.317085 0.965853
vt 0.424278 0.999137
vt 0.398133 0.999417
vt 0.290192 0.965962
vt 0.386730 0.999632
vt 0.278198 0.966042
vt 0.912257 0.999954
vt 0.889805 0.966280
vt 0.901881 0.966220
vt 0.924237 0.999793
vt 0.897350 0.999997
vt 0.874869 0.966293
vt 0.811413 0.000091
vt 0.702546 0.033757
vt 0.690506 0.033720
vt 0.799611 0.000000
vt 0.637352 0.094947
vt 0.625287 0.094907
vt 0.947949 0.094450
vt 0.935864 0.094421
vt 0.962887 0.094455
vt 0.213047 0.904875
vt 0.225116 0.904855
vt 0.198131 0.904912
vt 0.186065 0.904952
vt 0.875088 0.905173
vt 0.887174 0.905143
vt 0.860150 0.905178
vt 0.610370 0.094870
vt 0.598302 0.094850
vt 0.562420 0.178008
vt 0.550339 0.177984
vt 0.939443 0.177488
vt 0.927356 0.177471
vt 0.954381 0.177490
vt 0.138126 0.821822
vt 0.150202 0.821809
vt 0.123197 0.821845
vt 0.111115 0.821869
vt 0.866903 0.822089
vt 0.878990 0.822072
vt 0.851965 0.822091
vt 0.535408 0.177962
vt 0.523333 0.177949
vt 0.505710 0.277527
vt 0.493623 0.277513
vt 0.936330 0.276991
vt 0.924243 0.276981
vt 0.951268 0.276991
vt 0.081423 0.722308
vt 0.093501 0.722299
vt 0.066488 0.722322
vt 0.054400 0.722336
vt 0.864181 0.722557
vt 0.876268 0.722547
vt 0.849242 0.722558
vt 0.478687 0.277499
vt 0.466609 0.277490
vt 0.468311 0.387947
vt 0.456221 0.387941
vt 0.937576 0.387401
vt 0.925488 0.387396
vt 0.952514 0.387400
vt 0.963352 0.276982
vt 0.964598 0.387394
vt 0.029091 0.611898
vt 0.044029 0.611890
vt 0.017001 0.611905
vt 0.865862 0.612127
vt 0.877949 0.612122
vt 0.850923 0.612126
vt 0.837159 0.722548
vt 0.838840 0.612119
vt 0.441284 0.387933
vt 0.451307 0.503714
vt 0.439216 0.503714
vt 0.942146 0.503161
vt 0.930059 0.503160
vt 0.957084 0.503159
vt 0.969168 0.503156
vt 0.012091 0.496127
vt 0.027029 0.496126
vt 0.000000 0.496128
vt 0.870889 0.496348
vt 0.882976 0.496348
vt 0.855950 0.496346
vt 0.843867 0.496343
vt 0.424278 0.503712
vt 0.455783 0.619272
vt 0.443692 0.619278
vt 0.949006 0.618715
vt 0.936920 0.618719
vt 0.963945 0.618713
vt 0.976029 0.618714
vt 0.016571 0.380565
vt 0.031509 0.380569
vt 0.004480 0.380559
vt 0.878205 0.380774
vt 0.890292 0.380778
vt 0.863267 0.380772
vt 0.851183 0.380772
vt 0.428755 0.619282
vt 0.482822 0.729066
vt 0.470733 0.729080
vt 0.957121 0.728509
vt 0.945035 0.728517
vt 0.972060 0.728506
vt 0.984144 0.728511
vt 0.043615 0.270764
vt 0.058551 0.270776
vt 0.031527 0.270751
vt 0.886755 0.270957
vt 0.898841 0.270966
vt 0.871817 0.270954
vt 0.859732 0.270959
vt 0.455797 0.729091
vt 0.533506 0.827541
vt 0.521423 0.827565
vt 0.965456 0.826984
vt 0.953370 0.826999
vt 0.980394 0.826981
vt 0.992479 0.826992
vt 0.094307 0.172280
vt 0.109238 0.172302
vt 0.082225 0.172256
vt 0.895480 0.172448
vt 0.907566 0.172463
vt 0.880542 0.172445
vt 0.868457 0.172456
vt 0.506492 0.827587
vt 0.608909 0.909137
vt 0.596845 0.909180
vt 0.972974 0.908580
vt 0.960889 0.908607
vt 0.987912 0.908577
vt 0.999998 0.908599
vt 0.169731 0.090665
vt 0.184643 0.090706
vt 0.157667 0.090623
vt 0.903326 0.090793
vt 0.915410 0.090819
vt 0.888387 0.090790
vt 0.876301 0.090812
vt 0.581933 0.909220
vt 0.710046 0.968280
vt 0.698082 0.968370
vt 0.978637 0.967707
vt 0.966555 0.967763
vt 0.993575 0.967704
vt 0.285782 0.031563
vt 0.297783 0.031616
vt 0.196707 0.090729
vt 0.270971 0.031475
vt 0.259008 0.031384
vt 0.909237 0.031510
vt 0.921319 0.031567
vt 0.894299 0.031507
vt 0.683272 0.968459
vt 0.671270 0.968511
vt 0.569869 0.909243
vt 0.837159 0.999319
vt 0.826213 0.999581
vt 0.981401 0.998658
vt 0.969327 0.998820
vt 0.996339 0.998656
vt 0.412909 0.000522
vt 0.424277 0.000681
vt 0.399117 0.000262
vt 0.388171 0.000000
vt 0.912170 0.000002
vt 0.924243 0.000164
vt 0.897231 0.000000
vt 0.812421 0.999841
vt 0.801053 1.000000
vn -0.3396 0.5655 -0.7515
vn -0.3514 0.5808 -0.7342
vn -0.3929 -0.0091 -0.9195
vn -0.4014 -0.0328 -0.9153
vn -0.1430 0.9467 -0.2886
vn -0.1744 0.9483 -0.2651
vn 0.1113 0.9503 0.2908
vn 0.0701 0.9492 0.3068
vn 0.3210 0.5736 0.7536
vn 0.2876 0.5829 0.7599
vn 0.4022 -0.0293 0.9150
vn 0.3937 -0.0081 0.9192
vn 0.3263 -0.6126 0.7199
vn 0.3483 -0.5938 0.7252
vn 0.1304 -0.9565 0.2610
vn 0.1710 -0.9510 0.2574
vn -0.1096 -0.9521 -0.2853
vn -0.0698 -0.9497 -0.3052
vn -0.3110 -0.6073 -0.7310
vn -0.2846 -0.5923 -0.7538
vn -0.3728 0.5823 -0.7224
vn -0.3813 -0.0020 -0.9244
vn -0.2214 0.9443 -0.2433
vn 0.0150 0.9440 0.3296
vn 0.2458 0.5811 0.7758
vn 0.3820 -0.0041 0.9241
vn 0.3721 -0.5869 0.7191
vn 0.2204 -0.9453 0.2405
vn -0.0148 -0.9442 -0.3290
vn -0.2445 -0.5845 -0.7736
vn -0.3819 0.5820 -0.7179
vn -0.3771 0.0001 -0.9262
vn -0.2407 0.9418 -0.2347
vn -0.0072 0.9409 0.3386
vn 0.2290 0.5795 0.7821
vn 0.3775 -0.0034 0.9260
vn 0.3816 -0.5845 0.7161
vn 0.2402 -0.9423 0.2332
vn 0.0074 -0.9410 -0.3382
vn -0.2283 -0.5814 -0.7809
vn -0.3876 0.5815 -0.7152
vn -0.3747 0.0009 -0.9271
vn -0.2523 0.9400 -0.2296
vn -0.0204 0.9388 0.3439
vn 0.2193 0.5783 0.7858
vn 0.3750 -0.0032 0.9270
vn 0.3874 -0.5832 0.7140
vn 0.2519 -0.9403 0.2287
vn 0.0205 -0.9389 -0.3436
vn -0.2188 -0.5796 -0.7850
vn -0.3921 0.5809 -0.7133
vn -0.3733 0.0014 -0.9277
vn -0.2610 0.9385 -0.2260
vn -0.0301 0.9371 0.3478
vn 0.2123 0.5772 0.7885
vn 0.3735 -0.0032 0.9276
vn 0.3920 -0.5822 0.7123
vn 0.2608 -0.9387 0.2252
vn 0.0302 -0.9372 -0.3475
vn -0.2119 -0.5782 -0.7878
vn -0.3963 0.5801 -0.7116
vn -0.3723 0.0017 -0.9281
vn -0.2689 0.9370 -0.2228
vn -0.0385 0.9355 0.3512
vn 0.2065 0.5761 0.7909
vn 0.3726 -0.0034 0.9280
vn 0.3962 -0.5814 0.7106
vn 0.2686 -0.9373 0.2221
vn 0.0386 -0.9356 -0.3509
vn -0.2061 -0.5771 -0.7902
vn -0.4009 0.5791 -0.7098
vn -0.3715 0.0017 -0.9284
vn -0.2770 0.9354 -0.2196
vn -0.0471 0.9338 0.3547
vn 0.2008 0.5749 0.7932
vn 0.3719 -0.0037 0.9283
vn 0.4008 -0.5805 0.7087
vn 0.2768 -0.9356 0.2189
vn 0.0473 -0.9339 -0.3543
vn -0.2003 -0.5760 -0.7925
vn -0.4067 0.5778 -0.7076
vn -0.3710 0.0015 -0.9286
vn -0.2869 0.9333 -0.2157
vn -0.0572 0.9316 0.3588
vn 0.1943 0.5733 0.7960
vn 0.3714 -0.0041 0.9284
vn 0.4065 -0.5795 0.7063
vn 0.2866 -0.9336 0.2149
vn 0.0575 -0.9318 -0.3583
vn -0.1936 -0.5749 -0.7950
vn -0.4151 0.5756 -0.7045
vn -0.3704 0.0010 -0.9288
vn -0.3009 0.9301 -0.2103
vn -0.0713 0.9284 0.3647
vn 0.1855 0.5708 0.7998
vn 0.3712 -0.0048 0.9285
vn 0.4149 -0.5780 0.7026
vn 0.3005 -0.9305 0.2091
vn 0.0718 -0.9287 -0.3638
vn -0.1844 -0.5733 -0.7983
vn -0.4301 0.5708 -0.6994
vn -0.3698 -0.0006 -0.9291
vn -0.3255 0.9239 -0.2010
vn -0.0957 0.9221 0.3749
vn 0.1707 0.5660 0.8065
vn 0.3714 -0.0065 0.9284
vn 0.4299 -0.5755 0.6957
vn 0.3249 -0.9246 0.1988
vn 0.0967 -0.9228 -0.3730
vn -0.1684 -0.5707 -0.8037
vn -0.4691 0.5556 -0.6864
vn -0.3674 -0.0075 -0.9300
vn -0.3890 0.9041 -0.1768
vn -0.1584 0.9023 0.4010
vn 0.1336 0.5508 0.8238
vn 0.3739 -0.0135 0.9274
vn 0.4697 -0.5692 0.6748
vn 0.3878 -0.9059 0.1704
vn 0.1619 -0.9041 -0.3954
vn -0.1253 -0.5644 -0.8159
vn -0.4960 0.5277 -0.6895
vn -0.3556 -0.0379 -0.9338
vn -0.4370 0.8841 -0.1652
vn -0.2010 0.8822 0.4258
vn 0.1166 0.5226 0.8445
vn 0.3854 -0.0439 0.9217
vn 0.5003 -0.5799 0.6429
vn 0.4316 -0.8910 0.1406
vn 0.2143 -0.8895 -0.4036
vn -0.0812 -0.5756 -0.8137
usemtl None
s 1
f 1/1/1 11/2/2 20/3/3 10/4/4
f 2/5/5 12/6/6 11/7/2 1/8/1
f 3/9/7 13/10/8 12/6/6 2/5/5
f 4/11/9 14/12/10 13/13/8 3/14/7
f 5/15/11 15/16/12 14/12/10 4/11/9
f 6/17/13 16/18/14 15/16/12 5/15/11
f 7/19/15 17/20/16 16/21/14 6/22/13
f 8/23/17 18/24/18 17/20/16 7/19/15
f 9/25/19 19/26/20 18/27/18 8/28/17
f 10/4/4 20/3/3 19/26/20 9/25/19
f 11/2/2 21/29/21 30/30/22 20/3/3
f 12/6/6 22/31/23 21/32/21 11/7/2
f 13/10/8 23/33/24 22/31/23 12/6/6
f 14/12/10 24/34/25 23/35/24 13/13/8
f 15/16/12 25/36/26 24/34/25 14/12/10
f 16/18/14 26/37/27 25/36/26 15/16/12
f 17/20/16 27/38/28 26/39/27 16/21/14
f 18/24/18 28/40/29 27/38/28 17/20/16
f 19/26/20 29/41/30 28/42/29 18/27/18
f 20/3/3 30/30/22 29/41/30 19/26/20
f 21/29/21 31/43/31 40/44/32 30/30/22
f 22/31/23 32/45/33 31/46/31 21/32/21
f 23/33/24 33/47/34 32/45/33 22/31/23
f 24/34/25 34/48/35 33/49/34 23/35/24
f 25/36/26 35/50/36 34/48/35 24/34/25
f 26/37/27 36/51/37 35/50/36 25/36/26
f 27/38/28 37/52/38 36/53/37 26/39/27
f 28/40/29 38/54/39 37/52/38 27/38/28
f 29/41/30 39/55/40 38/56/39 28/42/29
f 30/30/22 40/44/32 39/55/40 29/41/30
f 31/43/31 41/57/41 50/58/42 40/44/32
f 32/45/33 42/59/43 41/60/41 31/46/31
f 33/47/34 43/61/44 42/59/43 32/45/33
f 34/48/35 44/62/45 43/63/44 33/49/34
f 35/50/36 45/64/46 44/62/45 34/48/35
f 36/51/37 46/65/47 45/64/46 35/50/36
f 37/52/38 47/66/48 46/67/47 36/53/37
f 38/54/39 48/68/49 47/66/48 37/52/38
f 39/55/40 49/69/50 48/70/49 38/56/39
f 40/44/32 50/58/42 49/69/50 39/55/40
f 41/57/41 51/71/51 60/72/52 50/58/42
f 42/59/43 52/73/53 51/74/51 41/60/41
f 43/61/44 53/75/54 52/73/53 42/59/43
f 44/76/45 54/77/55 53/75/54 43/61/44
f 45/64/46 55/78/56 54/79/55 44/62/45
f 46/65/47 56/80/57 55/78/56 45/64/46
f 47/66/48 57/81/58 56/82/57 46/67/47
f 48/68/49 58/83/59 57/81/58 47/66/48
f 49/84/50 59/85/60 58/83/59 48/68/49
f 50/58/42 60/72/52 59/86/60 49/69/50
f 51/71/51 61/87/61 70/88/62 60/72/52
f 52/73/53 62/89/63 61/90/61 51/74/51
f 53/75/54 63/91/64 62/89/63 52/73/53
f 54/77/55 64/92/65 63/91/64 53/75/54
f 55/78/56 65/93/66 64/94/65 54/79/55
f 56/80/57 66/95/67 65/93/66 55/78/56
f 57/81/58 67/96/68 66/97/67 56/82/57
f 58/83/59 68/98/69 67/96/68 57/81/58
f 59/85/60 69/99/70 68/98/69 58/83/59
f 60/72/52 70/88/62 69/100/70 59/86/60
f 61/87/61 71/101/71 80/102/72 70/88/62
f 62/89/63 72/103/73 71/104/71 61/90/61
f 63/91/64 73/105/74 72/103/73 62/89/63
f 64/92/65 74/106/75 73/105/74 63/91/64
f 65/93/66 75/107/76 74/108/75 64/94/65
f 66/95/67 76/109/77 75/107/76 65/93/66
f 67/96/68 77/110/78 76/111/77 66/97/67
f 68/98/69 78/112/79 77/110/78 67/96/68
f 69/99/70 79/113/80 78/112/79 68/98/69
f 70/88/62 80/102/72 79/114/80 69/100/70
f 71/101/71 81/115/81 90/116/82 80/102/72
f 72/103/73 82/117/83 81/118/81 71/104/71
f 73/105/74 83/119/84 82/117/83 72/103/73
f 74/106/75 84/120/85 83/119/84 73/105/74
f 75/107/76 85/121/86 84/122/85 74/108/75
f 76/109/77 86/123/87 85/121/86 75/107/76
f 77/110/78 87/124/88 86/125/87 76/111/77
f 78/112/79 88/126/89 87/124/88 77/110/78
f 79/113/80 89/127/90 88/126/89 78/112/79
f 80/102/72 90/116/82 89/128/90 79/114/80
f 81/115/81 91/129/91 100/130/92 90/116/82
f 82/117/83 92/131/93 91/132/91 81/118/81
f 83/119/84 93/133/94 92/131/93 82/117/83
f 84/120/85 94/134/95 93/133/94 83/119/84
f 85/121/86 95/135/96 94/136/95 84/122/85
f 86/123/87 96/137/97 95/135/96 85/121/86
f 87/124/88 97/138/98 96/139/97 86/125/87
f 88/126/89 98/140/99 97/138/98 87/124/88
f 89/127/90 99/141/100 98/140/99 88/126/89
f 90/116/82 100/130/92 99/142/100 89/128/90
f 91/129/91 101/143/101 110/144/102 100/130/92
f 92/131/93 102/145/103 101/146/101 91/132/91
f 93/133/94 103/147/104 102/145/103 92/131/93
f 94/134/95 104/148/105 103/147/104 93/133/94
f 95/135/96 105/149/106 104/150/105 94/136/95
f 96/137/97 106/151/107 105/149/106 95/135/96
f 97/138/98 107/152/108 106/153/107 96/139/97
f 98/140/99 108/154/109 107/152/108 97/138/98
f 99/141/100 109/155/110 108/154/109 98/140/99
f 100/130/92 110/144/102 109/156/110 99/142/100
f 101/143/101 111/157/111 120/158/112 110/144/102
f 102/145/103 112/159/113 111/160/111 101/146/101
f 103/147/104 113/161/114 112/159/113 102/145/103
f 104/150/105 114/162/115 113/163/114 103/164/104
f 105/149/106 115/165/116 114/162/115 104/150/105
f 106/151/107 116/166/117 115/165/116 105/149/106
f 107/152/108 117/167/118 116/168/117 106/153/107
f 108/154/109 118/169/119 117/167/118 107/152/108
f 109/156/110 119/170/120 118/171/119 108/172/109
f 110/144/102 120/158/112 119/170/120 109/156/110
f 111/157/111 121/173/121 130/174/122 120/158/112
f 112/159/113 122/175/123 121/176/121 111/160/111
f 113/161/114 123/177/124 122/175/123 112/159/113
f 114/162/115 124/178/125 123/179/124 113/163/114
f 115/165/116 125/180/126 124/178/125 114/162/115
f 116/166/117 126/181/127 125/180/126 115/165/116
f 117/167/118 127/182/128 126/183/127 116/168/117
f 118/169/119 128/184/129 127/182/128 117/167/118
f 119/170/120 129/185/130 128/186/129 118/171/119
f 120/158/112 130/174/122 129/185/130 119/170/120
