# Blender v2.80 (sub 60) OBJ File: 'pylons.blend'
# www.blender.org
mtllib MainWireW_2.mtl
o BezierCurve.010_CUBezierCurve.010
v -227.247818 20.139030 -72.273911
v -227.246368 20.161743 -72.237122
v -227.257477 20.161407 -72.195312
v -227.276947 20.138149 -72.164459
v -227.297318 20.100853 -72.156342
v -227.310806 20.063763 -72.174072
v -227.312256 20.041050 -72.210861
v -227.301132 20.041386 -72.252663
v -227.281677 20.064644 -72.283516
v -227.261307 20.101940 -72.291626
v -225.635513 19.830074 -71.809547
v -225.643982 19.855453 -71.775551
v -225.656372 19.855453 -71.734100
v -225.667923 19.830074 -71.701019
v -225.674255 19.789013 -71.688957
v -225.672913 19.747950 -71.702515
v -225.664444 19.722572 -71.736511
v -225.652069 19.722572 -71.777962
v -225.640503 19.747950 -71.811035
v -225.634186 19.789013 -71.823105
v -223.184097 19.974079 -71.051361
v -223.197205 19.999346 -71.018784
v -223.210144 19.999332 -70.977509
v -223.217987 19.974043 -70.943291
v -223.217743 19.933136 -70.929214
v -223.209473 19.892239 -70.940643
v -223.196365 19.866970 -70.973221
v -223.183411 19.866983 -71.014503
v -223.175568 19.892273 -71.048714
v -223.175827 19.933180 -71.062790
v -220.068268 20.506468 -70.059738
v -220.083572 20.531391 -70.027855
v -220.096771 20.531338 -69.986656
v -220.102829 20.506329 -69.951874
v -220.099426 20.465919 -69.936806
v -220.087891 20.425543 -69.947197
v -220.072586 20.400620 -69.979080
v -220.059387 20.400673 -70.020279
v -220.053329 20.425682 -70.055054
v -220.056732 20.466091 -70.070129
v -216.461121 21.359783 -68.894806
v -216.477707 21.384407 -68.863335
v -216.491028 21.384323 -68.822182
v -216.496017 21.359566 -68.787048
v -216.490738 21.319592 -68.771370
v -216.477234 21.279667 -68.781128
v -216.460648 21.255043 -68.812599
v -216.447327 21.255125 -68.853760
v -216.442352 21.279881 -68.888885
v -216.447617 21.319859 -68.904564
v -212.534348 22.466190 -67.616310
v -212.551819 22.490568 -67.585129
v -212.565216 22.490467 -67.543991
v -212.569412 22.465927 -67.508606
v -212.562820 22.426323 -67.492500
v -212.547943 22.386780 -67.501816
v -212.530472 22.362402 -67.532997
v -212.517090 22.362503 -67.574135
v -212.512878 22.387043 -67.609512
v -212.519485 22.426647 -67.625626
v -208.459305 23.757837 -66.283882
v -208.477463 23.781996 -66.252922
v -208.490875 23.781887 -66.211800
v -208.494446 23.757549 -66.176208
v -208.486771 23.718281 -66.159744
v -208.470825 23.679079 -66.168709
v -208.452667 23.654919 -66.199661
v -208.439240 23.655029 -66.240791
v -208.435684 23.679367 -66.276382
v -208.443344 23.718636 -66.292839
v -204.407196 25.166853 -64.957123
v -204.425949 25.190805 -64.926361
v -204.439377 25.190697 -64.885239
v -204.442322 25.166569 -64.849449
v -204.433685 25.127636 -64.832672
v -204.416763 25.088774 -64.841316
v -204.398010 25.064821 -64.872078
v -204.384583 25.064930 -64.913208
v -204.381638 25.089058 -64.948990
v -204.390274 25.127991 -64.965767
v -200.549240 26.625364 -63.695637
v -200.568588 26.649092 -63.665070
v -200.581970 26.648996 -63.623932
v -200.584290 26.625113 -63.587933
v -200.574631 26.586567 -63.570824
v -200.556717 26.548079 -63.579144
v -200.537369 26.524351 -63.609711
v -200.523987 26.524446 -63.650848
v -200.521683 26.548330 -63.686848
v -200.531326 26.586876 -63.703957
v -197.056702 28.065453 -62.559029
v -197.076721 28.088898 -62.528679
v -197.090027 28.088837 -62.487514
v -197.091522 28.065289 -62.451252
v -197.080658 28.027252 -62.433746
v -197.061554 27.989254 -62.441681
v -197.041534 27.965807 -62.472027
v -197.028229 27.965870 -62.513195
v -197.026733 27.989416 -62.549458
v -197.037598 28.027454 -62.566963
v -194.101013 29.419071 -61.606964
v -194.121994 29.442080 -61.576920
v -194.135132 29.442093 -61.535702
v -194.135422 29.419106 -61.499054
v -194.122757 29.381901 -61.480972
v -194.101959 29.344687 -61.488365
v -194.080994 29.321678 -61.518410
v -194.067856 29.321665 -61.559628
v -194.067566 29.344650 -61.596279
v -194.080231 29.381857 -61.614361
v -191.854431 30.617565 -60.899349
v -191.877136 30.639614 -60.869843
v -191.889893 30.639835 -60.828506
v -191.887863 30.618143 -60.791134
v -191.871796 30.582825 -60.771992
v -191.847855 30.547369 -60.778397
v -191.825165 30.525320 -60.807903
v -191.812393 30.525101 -60.849239
v -191.814423 30.546793 -60.886616
v -191.830490 30.582111 -60.905754
v -190.490341 31.590235 -60.496277
v -190.516571 31.609528 -60.467785
v -190.528503 31.610395 -60.426212
v -190.521591 31.592508 -60.387432
v -190.498459 31.562698 -60.366261
v -190.467957 31.532351 -60.370781
v -190.441742 31.513058 -60.399269
v -190.429794 31.512190 -60.440845
v -190.436722 31.530077 -60.479626
v -190.459839 31.559887 -60.500797
vt 0.918144 0.001741
vt 0.762858 0.039423
vt 0.755823 0.039069
vt 0.912751 0.001049
vt 0.990703 0.000457
vt 0.979413 0.038056
vt 0.971897 0.037826
vt 0.983272 0.000000
vt 1.000000 0.000509
vt 0.988720 0.038079
vt 0.455904 0.997914
vt 0.300934 0.960310
vt 0.308157 0.960105
vt 0.462250 0.997530
vt 0.448650 0.998579
vt 0.292124 0.960655
vt 0.443258 0.999271
vt 0.285090 0.961009
vt 0.954700 0.999950
vt 0.943398 0.961307
vt 0.950916 0.961078
vt 0.962137 0.999494
vt 0.945403 1.000000
vt 0.934090 0.961329
vt 0.905496 0.000384
vt 0.747012 0.038724
vt 0.739790 0.038520
vt 0.899150 0.000000
vt 0.643228 0.101384
vt 0.635809 0.101203
vt 0.972659 0.100012
vt 0.965128 0.099899
vt 0.981968 0.100021
vt 0.181310 0.898388
vt 0.188738 0.898276
vt 0.172134 0.898568
vt 0.164714 0.898749
vt 0.937172 0.898814
vt 0.944705 0.898701
vt 0.927863 0.898822
vt 0.626632 0.101023
vt 0.619204 0.100912
vt 0.557612 0.182783
vt 0.550095 0.182688
vt 0.969695 0.181435
vt 0.962161 0.181378
vt 0.979004 0.181437
vt 0.095610 0.817007
vt 0.103092 0.816942
vt 0.086341 0.817106
vt 0.078824 0.817201
vt 0.934981 0.817126
vt 0.942516 0.817070
vt 0.925672 0.817127
vt 0.540825 0.182589
vt 0.533344 0.182524
vt 0.503721 0.278797
vt 0.496173 0.278754
vt 0.969671 0.277465
vt 0.962137 0.277443
vt 0.978980 0.277464
vt 0.986533 0.181384
vt 0.986509 0.277440
vt 0.032304 0.721052
vt 0.041604 0.721003
vt 0.024756 0.721095
vt 0.935881 0.720933
vt 0.943415 0.720912
vt 0.926572 0.720931
vt 0.918144 0.817073
vt 0.919043 0.720906
vt 0.486873 0.278705
vt 0.479116 0.384635
vt 0.471558 0.384629
vt 0.971718 0.383303
vt 0.964184 0.383304
vt 0.981027 0.383300
vt 0.988556 0.383296
vt 0.007557 0.615183
vt 0.016866 0.615170
vt 0.000000 0.615190
vt 0.938948 0.614981
vt 0.946482 0.614983
vt 0.929639 0.614976
vt 0.922110 0.614972
vt 0.462250 0.384616
vt 0.481328 0.495514
vt 0.473771 0.495537
vt 0.974963 0.494160
vt 0.967430 0.494181
vt 0.984272 0.494157
vt 0.991802 0.494171
vt 0.009630 0.504277
vt 0.018938 0.504293
vt 0.002072 0.504254
vt 0.943263 0.504030
vt 0.950796 0.504051
vt 0.933954 0.504025
vt 0.926424 0.504038
vt 0.464463 0.495553
vt 0.507883 0.606654
vt 0.500332 0.606704
vt 0.978534 0.605258
vt 0.971002 0.605295
vt 0.987843 0.605255
vt 0.995373 0.605285
vt 0.036050 0.393109
vt 0.045352 0.393152
vt 0.028499 0.393059
vt 0.947906 0.392847
vt 0.955438 0.392884
vt 0.938597 0.392842
vt 0.931067 0.392871
vt 0.491030 0.606747
vt 0.556301 0.713277
vt 0.548762 0.713354
vt 0.981557 0.711816
vt 0.974025 0.711869
vt 0.990867 0.711814
vt 0.998397 0.711862
vt 0.084346 0.286456
vt 0.093635 0.286526
vt 0.076808 0.286378
vt 0.951957 0.286199
vt 0.959489 0.286253
vt 0.942648 0.286195
vt 0.935117 0.286243
vt 0.539474 0.713425
vt 0.624097 0.810600
vt 0.616583 0.810710
vt 0.983159 0.809053
vt 0.975628 0.809125
vt 0.992469 0.809053
vt 1.000000 0.809124
vt 0.152048 0.189091
vt 0.161313 0.189196
vt 0.144533 0.188981
vt 0.954497 0.188853
vt 0.962028 0.188926
vt 0.945188 0.188851
vt 0.937656 0.188922
vt 0.607318 0.810815
vt 0.708775 0.893838
vt 0.701311 0.893996
vt 0.982469 0.892179
vt 0.974936 0.892278
vt 0.991778 0.892183
vt 0.245897 0.105944
vt 0.253336 0.106037
vt 0.168788 0.189255
vt 0.236686 0.105789
vt 0.229222 0.105631
vt 0.954605 0.105565
vt 0.962136 0.105665
vt 0.945296 0.105568
vt 0.692100 0.894151
vt 0.684661 0.894244
vt 0.599843 0.810874
vt 0.807763 0.958179
vt 0.800453 0.958428
vt 0.978621 0.956370
vt 0.971085 0.956518
vt 0.987929 0.956385
vt 0.344851 0.041573
vt 0.352176 0.041733
vt 0.335805 0.041320
vt 0.328495 0.041072
vt 0.951353 0.041060
vt 0.958888 0.041209
vt 0.942044 0.041073
vt 0.791407 0.958681
vt 0.784082 0.958841
vt 0.918143 0.998772
vt 0.911453 0.999219
vt 0.970804 0.996743
vt 0.963241 0.996998
vt 0.980106 0.996783
vt 0.455385 0.000912
vt 0.462250 0.001220
vt 0.447008 0.000446
vt 0.440318 0.000000
vt 0.943762 0.000000
vt 0.951322 0.000255
vt 0.934460 0.000039
vt 0.903077 0.999685
vt 0.896213 0.999992
vn 0.3267 0.5503 -0.7683
vn 0.2694 0.5715 -0.7751
vn 0.2845 -0.0238 -0.9584
vn 0.2670 -0.0515 -0.9623
vn 0.2531 0.9318 -0.2600
vn 0.1477 0.9467 -0.2860
vn 0.0769 0.9328 0.3519
vn -0.0324 0.9478 0.3173
vn -0.1309 0.5536 0.8224
vn -0.1993 0.5736 0.7945
vn -0.2854 -0.0508 0.9570
vn -0.2875 -0.0233 0.9575
vn -0.3252 -0.6199 0.7141
vn -0.2650 -0.6040 0.7516
vn -0.2465 -0.9430 0.2234
vn -0.1441 -0.9522 0.2692
vn -0.0859 -0.9394 -0.3319
vn 0.0283 -0.9510 -0.3079
vn 0.1064 -0.6146 -0.7816
vn 0.1910 -0.6023 -0.7751
vn 0.1834 0.5777 -0.7953
vn 0.3004 -0.0100 -0.9538
vn -0.0049 0.9444 -0.3287
vn -0.1916 0.9446 0.2663
vn -0.3037 0.5780 0.7574
vn -0.2982 -0.0105 0.9544
vn -0.1789 -0.5920 0.7858
vn 0.0073 -0.9468 0.3216
vn 0.1903 -0.9462 -0.2618
vn 0.3022 -0.5907 -0.7481
vn 0.1417 0.5740 -0.8065
vn 0.3061 -0.0046 -0.9520
vn -0.0776 0.9334 -0.3503
vn -0.2672 0.9329 0.2415
vn -0.3536 0.5724 0.7397
vn -0.3040 -0.0070 0.9526
vn -0.1384 -0.5820 0.8013
vn 0.0791 -0.9347 0.3464
vn 0.2665 -0.9337 -0.2388
vn 0.3533 -0.5797 -0.7342
vn 0.1162 0.5696 -0.8137
vn 0.3089 -0.0020 -0.9511
vn -0.1213 0.9236 -0.3637
vn -0.3124 0.9225 0.2265
vn -0.3833 0.5667 0.7293
vn -0.3071 -0.0058 0.9517
vn -0.1138 -0.5748 0.8103
vn 0.1223 -0.9244 0.3611
vn 0.3120 -0.9231 -0.2246
vn 0.3833 -0.5716 -0.7255
vn 0.0981 0.5653 -0.8190
vn 0.3103 -0.0006 -0.9506
vn -0.1521 0.9152 -0.3733
vn -0.3439 0.9138 0.2160
vn -0.4037 0.5616 0.7222
vn -0.3088 -0.0052 0.9511
vn -0.0961 -0.5692 0.8166
vn 0.1529 -0.9158 0.3714
vn 0.3436 -0.9143 -0.2145
vn 0.4038 -0.5653 -0.7192
vn 0.0831 0.5609 -0.8236
vn 0.3110 0.0001 -0.9504
vn -0.1768 0.9074 -0.3811
vn -0.3690 0.9059 0.2078
vn -0.4195 0.5568 0.7168
vn -0.3095 -0.0051 0.9509
vn -0.0814 -0.5642 0.8216
vn 0.1774 -0.9079 0.3797
vn 0.3686 -0.9063 -0.2064
vn 0.4198 -0.5600 -0.7142
vn 0.0692 0.5561 -0.8282
vn 0.3109 0.0001 -0.9504
vn -0.1993 0.8997 -0.3884
vn -0.3914 0.8981 0.2005
vn -0.4334 0.5520 0.7123
vn -0.3094 -0.0050 0.9509
vn -0.0674 -0.5593 0.8262
vn 0.1999 -0.9001 0.3872
vn 0.3911 -0.8985 -0.1990
vn 0.4336 -0.5552 -0.7097
vn 0.0543 0.5504 -0.8331
vn 0.3103 -0.0005 -0.9506
vn -0.2227 0.8908 -0.3961
vn -0.4144 0.8893 0.1932
vn -0.4470 0.5466 0.7081
vn -0.3084 -0.0048 0.9512
vn -0.0523 -0.5536 0.8311
vn 0.2233 -0.8912 0.3948
vn 0.4140 -0.8899 -0.1914
vn 0.4474 -0.5502 -0.7050
vn 0.0360 0.5422 -0.8394
vn 0.3088 -0.0019 -0.9511
vn -0.2511 0.8790 -0.4054
vn -0.4417 0.8779 0.1847
vn -0.4625 0.5396 0.7035
vn -0.3061 -0.0048 0.9520
vn -0.0333 -0.5464 0.8368
vn 0.2517 -0.8795 0.4039
vn 0.4412 -0.8787 -0.1821
vn 0.4632 -0.5443 -0.6994
vn 0.0089 0.5282 -0.8491
vn 0.3061 -0.0056 -0.9520
vn -0.2922 0.8597 -0.4190
vn -0.4808 0.8596 0.1731
vn -0.4839 0.5282 0.6977
vn -0.3013 -0.0049 0.9535
vn -0.0045 -0.5346 0.8451
vn 0.2933 -0.8603 0.4168
vn 0.4801 -0.8609 -0.1686
vn 0.4854 -0.5356 -0.6910
vn -0.0420 0.4953 -0.8677
vn 0.3012 -0.0159 -0.9534
vn -0.3700 0.8159 -0.4443
vn -0.5541 0.8183 0.1527
vn -0.5221 0.5023 0.6892
vn -0.2888 -0.0060 0.9574
vn 0.0529 -0.5084 0.8595
vn 0.3725 -0.8170 0.4400
vn 0.5529 -0.8209 -0.1424
vn 0.5271 -0.5177 -0.6739
vn -0.0710 0.4652 -0.8824
vn 0.3048 -0.0330 -0.9518
vn -0.4205 0.7810 -0.4617
vn -0.6023 0.7853 0.1434
vn -0.5440 0.4767 0.6905
vn -0.2725 -0.0163 0.9620
vn 0.0978 -0.4944 0.8637
vn 0.4260 -0.7837 0.4519
vn 0.6000 -0.7910 -0.1193
vn 0.5579 -0.5112 -0.6537
usemtl None
s 1
f 1/1/1 11/2/2 20/3/3 10/4/4
f 2/5/5 12/6/6 11/7/2 1/8/1
f 3/9/7 13/10/8 12/6/6 2/5/5
f 4/11/9 14/12/10 13/13/8 3/14/7
f 5/15/11 15/16/12 14/12/10 4/11/9
f 6/17/13 16/18/14 15/16/12 5/15/11
f 7/19/15 17/20/16 16/21/14 6/22/13
f 8/23/17 18/24/18 17/20/16 7/19/15
f 9/25/19 19/26/20 18/27/18 8/28/17
f 10/4/4 20/3/3 19/26/20 9/25/19
f 11/2/2 21/29/21 30/30/22 20/3/3
f 12/6/6 22/31/23 21/32/21 11/7/2
f 13/10/8 23/33/24 22/31/23 12/6/6
f 14/12/10 24/34/25 23/35/24 13/13/8
f 15/16/12 25/36/26 24/34/25 14/12/10
f 16/18/14 26/37/27 25/36/26 15/16/12
f 17/20/16 27/38/28 26/39/27 16/21/14
f 18/24/18 28/40/29 27/38/28 17/20/16
f 19/26/20 29/41/30 28/42/29 18/27/18
f 20/3/3 30/30/22 29/41/30 19/26/20
f 21/29/21 31/43/31 40/44/32 30/30/22
f 22/31/23 32/45/33 31/46/31 21/32/21
f 23/33/24 33/47/34 32/45/33 22/31/23
f 24/34/25 34/48/35 33/49/34 23/35/24
f 25/36/26 35/50/36 34/48/35 24/34/25
f 26/37/27 36/51/37 35/50/36 25/36/26
f 27/38/28 37/52/38 36/53/37 26/39/27
f 28/40/29 38/54/39 37/52/38 27/38/28
f 29/41/30 39/55/40 38/56/39 28/42/29
f 30/30/22 40/44/32 39/55/40 29/41/30
f 31/43/31 41/57/41 50/58/42 40/44/32
f 32/45/33 42/59/43 41/60/41 31/46/31
f 33/47/34 43/61/44 42/59/43 32/45/33
f 34/62/35 44/63/45 43/61/44 33/47/34
f 35/50/36 45/64/46 44/65/45 34/48/35
f 36/51/37 46/66/47 45/64/46 35/50/36
f 37/52/38 47/67/48 46/68/47 36/53/37
f 38/54/39 48/69/49 47/67/48 37/52/38
f 39/70/40 49/71/50 48/69/49 38/54/39
f 40/44/32 50/58/42 49/72/50 39/55/40
f 41/57/41 51/73/51 60/74/52 50/58/42
f 42/59/43 52/75/53 51/76/51 41/60/41
f 43/61/44 53/77/54 52/75/53 42/59/43
f 44/63/45 54/78/55 53/77/54 43/61/44
f 45/64/46 55/79/56 54/80/55 44/65/45
f 46/66/47 56/81/57 55/79/56 45/64/46
f 47/67/48 57/82/58 56/83/57 46/68/47
f 48/69/49 58/84/59 57/82/58 47/67/48
f 49/71/50 59/85/60 58/84/59 48/69/49
f 50/58/42 60/74/52 59/86/60 49/72/50
f 51/73/51 61/87/61 70/88/62 60/74/52
f 52/75/53 62/89/63 61/90/61 51/76/51
f 53/77/54 63/91/64 62/89/63 52/75/53
f 54/78/55 64/92/65 63/91/64 53/77/54
f 55/79/56 65/93/66 64/94/65 54/80/55
f 56/81/57 66/95/67 65/93/66 55/79/56
f 57/82/58 67/96/68 66/97/67 56/83/57
f 58/84/59 68/98/69 67/96/68 57/82/58
f 59/85/60 69/99/70 68/98/69 58/84/59
f 60/74/52 70/88/62 69/100/70 59/86/60
f 61/87/61 71/101/71 80/102/72 70/88/62
f 62/89/63 72/103/73 71/104/71 61/90/61
f 63/91/64 73/105/74 72/103/73 62/89/63
f 64/92/65 74/106/75 73/105/74 63/91/64
f 65/93/66 75/107/76 74/108/75 64/94/65
f 66/95/67 76/109/77 75/107/76 65/93/66
f 67/96/68 77/110/78 76/111/77 66/97/67
f 68/98/69 78/112/79 77/110/78 67/96/68
f 69/99/70 79/113/80 78/112/79 68/98/69
f 70/88/62 80/102/72 79/114/80 69/100/70
f 71/101/71 81/115/81 90/116/82 80/102/72
f 72/103/73 82/117/83 81/118/81 71/104/71
f 73/105/74 83/119/84 82/117/83 72/103/73
f 74/106/75 84/120/85 83/119/84 73/105/74
f 75/107/76 85/121/86 84/122/85 74/108/75
f 76/109/77 86/123/87 85/121/86 75/107/76
f 77/110/78 87/124/88 86/125/87 76/111/77
f 78/112/79 88/126/89 87/124/88 77/110/78
f 79/113/80 89/127/90 88/126/89 78/112/79
f 80/102/72 90/116/82 89/128/90 79/114/80
f 81/115/81 91/129/91 100/130/92 90/116/82
f 82/117/83 92/131/93 91/132/91 81/118/81
f 83/119/84 93/133/94 92/131/93 82/117/83
f 84/120/85 94/134/95 93/133/94 83/119/84
f 85/121/86 95/135/96 94/136/95 84/122/85
f 86/123/87 96/137/97 95/135/96 85/121/86
f 87/124/88 97/138/98 96/139/97 86/125/87
f 88/126/89 98/140/99 97/138/98 87/124/88
f 89/127/90 99/141/100 98/140/99 88/126/89
f 90/116/82 100/130/92 99/142/100 89/128/90
f 91/129/91 101/143/101 110/144/102 100/130/92
f 92/131/93 102/145/103 101/146/101 91/132/91
f 93/133/94 103/147/104 102/145/103 92/131/93
f 94/136/95 104/148/105 103/149/104 93/150/94
f 95/135/96 105/151/106 104/148/105 94/136/95
f 96/137/97 106/152/107 105/151/106 95/135/96
f 97/138/98 107/153/108 106/154/107 96/139/97
f 98/140/99 108/155/109 107/153/108 97/138/98
f 99/142/100 109/156/110 108/157/109 98/158/99
f 100/130/92 110/144/102 109/156/110 99/142/100
f 101/143/101 111/159/111 120/160/112 110/144/102
f 102/145/103 112/161/113 111/162/111 101/146/101
f 103/147/104 113/163/114 112/161/113 102/145/103
f 104/148/105 114/164/115 113/165/114 103/149/104
f 105/151/106 115/166/116 114/164/115 104/148/105
f 106/152/107 116/167/117 115/166/116 105/151/106
f 107/153/108 117/168/118 116/169/117 106/154/107
f 108/155/109 118/170/119 117/168/118 107/153/108
f 109/156/110 119/171/120 118/172/119 108/157/109
f 110/144/102 120/160/112 119/171/120 109/156/110
f 111/159/111 121/173/121 130/174/122 120/160/112
f 112/161/113 122/175/123 121/176/121 111/162/111
f 113/163/114 123/177/124 122/175/123 112/161/113
f 114/164/115 124/178/125 123/179/124 113/165/114
f 115/166/116 125/180/126 124/178/125 114/164/115
f 116/167/117 126/181/127 125/180/126 115/166/116
f 117/168/118 127/182/128 126/183/127 116/169/117
f 118/170/119 128/184/129 127/182/128 117/168/118
f 119/171/120 129/185/130 128/186/129 118/172/119
f 120/160/112 130/174/122 129/185/130 119/171/120
