# Blender v2.80 (sub 60) OBJ File: 'pylons.blend'
# www.blender.org
mtllib MainWireN_3.mtl
o BezierCurve.015_CUBezierCurve.015
v 95.850822 20.312832 -159.977295
v 95.849976 20.338125 -160.012375
v 95.852234 20.338131 -160.055573
v 95.856720 20.312845 -160.090393
v 95.861725 20.271929 -160.103531
v 95.865341 20.231010 -160.089951
v 95.866180 20.205717 -160.054871
v 95.863937 20.205711 -160.011658
v 95.859444 20.230997 -159.976852
v 95.854431 20.271914 -159.963715
v 93.917847 20.367924 -160.067886
v 93.921288 20.393284 -160.102768
v 93.923233 20.393284 -160.145981
v 93.922943 20.367924 -160.181030
v 93.920517 20.326889 -160.194534
v 93.916885 20.285854 -160.181305
v 93.913445 20.260494 -160.146423
v 93.911499 20.260494 -160.103210
v 93.911789 20.285854 -160.068161
v 93.914215 20.326889 -160.054672
v 90.691826 20.754036 -160.207184
v 90.696777 20.779236 -160.242004
v 90.698616 20.779247 -160.285233
v 90.696625 20.754066 -160.320358
v 90.691574 20.713312 -160.333954
v 90.685387 20.672550 -160.320847
v 90.680428 20.647350 -160.286041
v 90.678596 20.647339 -160.242813
v 90.680588 20.672520 -160.207687
v 90.685638 20.713274 -160.194092
v 86.437645 21.420574 -160.384140
v 86.443283 21.445671 -160.418930
v 86.445053 21.445690 -160.462158
v 86.442299 21.420628 -160.497299
v 86.436066 21.380054 -160.510956
v 86.428726 21.339466 -160.497910
v 86.423096 21.314371 -160.463120
v 86.421310 21.314350 -160.419891
v 86.424072 21.339415 -160.384735
v 86.430313 21.379990 -160.371078
v 81.417740 22.316374 -160.587814
v 81.423805 22.341394 -160.622589
v 81.425545 22.341423 -160.665817
v 81.422302 22.316444 -160.700989
v 81.415314 22.276005 -160.714676
v 81.407242 22.235546 -160.701645
v 81.401184 22.210526 -160.666870
v 81.399445 22.210499 -160.623642
v 81.402687 22.235476 -160.588470
v 81.409683 22.275917 -160.574783
v 75.893784 23.390291 -160.807343
v 75.900177 23.415249 -160.842102
v 75.901886 23.415281 -160.885330
v 75.898254 23.390379 -160.920517
v 75.890671 23.350052 -160.934219
v 75.882034 23.309706 -160.921219
v 75.875648 23.284748 -160.886459
v 75.873940 23.284716 -160.843231
v 75.877571 23.309618 -160.808044
v 75.885147 23.349945 -160.794342
v 70.127281 24.591196 -161.031845
v 70.133972 24.616089 -161.066589
v 70.135643 24.616131 -161.109818
v 70.131653 24.591303 -161.145020
v 70.123528 24.551090 -161.158752
v 70.114372 24.510851 -161.145767
v 70.107681 24.485958 -161.111023
v 70.106003 24.485916 -161.067795
v 70.110001 24.510744 -161.032593
v 70.118118 24.550957 -161.018860
v 64.379700 25.867956 -161.250443
v 64.386711 25.892780 -161.285172
v 64.388336 25.892830 -161.328400
v 64.383972 25.868088 -161.363632
v 64.375259 25.828003 -161.377380
v 64.365547 25.787889 -161.364410
v 64.358536 25.763067 -161.329681
v 64.356903 25.763018 -161.286453
v 64.361275 25.787760 -161.251236
v 64.369980 25.827843 -161.237473
v 58.912525 27.169436 -161.452271
v 58.919922 27.194166 -161.487000
v 58.921501 27.194229 -161.530228
v 58.916656 27.169600 -161.565460
v 58.907238 27.129686 -161.579239
v 58.896843 27.089735 -161.566299
v 58.889446 27.065004 -161.531586
v 58.887867 27.064941 -161.488358
v 58.892712 27.089571 -161.453110
v 58.902130 27.129484 -161.439331
v 53.987320 28.444466 -161.626465
v 53.995255 28.469055 -161.661163
v 53.996758 28.469139 -161.704407
v 53.991245 28.444683 -161.739655
v 53.980827 28.405031 -161.753479
v 53.969482 28.365330 -161.740570
v 53.961540 28.340740 -161.705872
v 53.960045 28.340656 -161.662628
v 53.965553 28.365110 -161.627365
v 53.975975 28.404762 -161.613556
v 49.865887 29.641775 -161.762131
v 49.874725 29.666098 -161.796799
v 49.876087 29.666222 -161.840042
v 49.869453 29.642101 -161.875336
v 49.857357 29.602947 -161.889206
v 49.844418 29.563717 -161.876343
v 49.835579 29.539396 -161.841675
v 49.834217 29.539272 -161.798447
v 49.840851 29.563393 -161.763138
v 49.852947 29.602547 -161.749283
v 46.811165 30.709518 -161.848373
v 46.822033 30.733084 -161.882996
v 46.823082 30.733324 -161.926239
v 46.813911 30.710150 -161.961609
v 46.798023 30.672413 -161.975571
v 46.781490 30.634525 -161.962814
v 46.770626 30.610960 -161.928192
v 46.769577 30.610718 -161.884949
v 46.778748 30.633892 -161.849579
v 46.794632 30.671631 -161.835617
v 45.088619 31.592844 -161.874405
v 45.104656 31.613317 -161.908981
v 45.104897 31.614042 -161.952240
v 45.089252 31.594740 -161.987656
v 45.063698 31.562782 -162.001694
v 45.037994 31.530378 -161.989014
v 45.021957 31.509905 -161.954437
v 45.021717 31.509180 -161.911179
v 45.037361 31.528482 -161.875763
v 45.062916 31.560440 -161.861725
vt 0.434487 0.000503
vt 0.327141 0.036970
vt 0.313703 0.036858
vt 0.421543 0.000256
vt 0.445082 0.000648
vt 0.338028 0.037035
vt 0.986439 0.998295
vt 0.980809 0.961927
vt 0.994370 0.961921
vt 0.999999 0.998283
vt 0.975487 0.998462
vt 0.969840 0.962004
vt 0.869544 0.999608
vt 0.761617 0.962987
vt 0.772473 0.962870
vt 0.879892 0.999352
vt 0.856600 0.999855
vt 0.748179 0.963099
vt 0.846006 1.000000
vt 0.737292 0.963164
vt 0.934575 0.000012
vt 0.928858 0.036817
vt 0.915296 0.036811
vt 0.921015 0.000000
vt 0.945528 0.000179
vt 0.939826 0.036895
vt 0.302848 0.036741
vt 0.411196 0.000000
vt 0.232565 0.099051
vt 0.219043 0.098988
vt 0.243503 0.099086
vt 0.975038 0.899895
vt 0.988599 0.899891
vt 0.964065 0.899940
vt 0.666912 0.900850
vt 0.677855 0.900784
vt 0.653390 0.900913
vt 0.642452 0.900949
vt 0.923059 0.099007
vt 0.909497 0.099003
vt 0.934031 0.099052
vt 0.208100 0.098922
vt 0.153058 0.181569
vt 0.139512 0.181528
vt 0.164009 0.181591
vt 0.969495 0.817408
vt 0.983057 0.817405
vt 0.958521 0.817438
vt 0.587337 0.818307
vt 0.598303 0.818263
vt 0.573791 0.818348
vt 0.562840 0.818370
vt 0.917497 0.181566
vt 0.903935 0.181563
vt 0.928470 0.181597
vt 0.128546 0.181485
vt 0.090596 0.279392
vt 0.077041 0.279366
vt 0.978089 0.719605
vt 0.989059 0.719622
vt 0.994027 0.817430
vt 0.964527 0.719607
vt 0.953553 0.719628
vt 0.524814 0.720467
vt 0.535790 0.720438
vt 0.511259 0.720494
vt 0.898947 0.279410
vt 0.887977 0.279427
vt 0.892964 0.181589
vt 0.912509 0.279413
vt 0.923483 0.279433
vt 0.066065 0.279337
vt 0.047115 0.387402
vt 0.033556 0.387387
vt 0.974039 0.611612
vt 0.985009 0.611622
vt 0.960477 0.611613
vt 0.949503 0.611627
vt 0.481274 0.612444
vt 0.492255 0.612427
vt 0.467714 0.612459
vt 0.894877 0.387441
vt 0.883908 0.387451
vt 0.908440 0.387442
vt 0.919413 0.387455
vt 0.022575 0.387370
vt 0.024545 0.500485
vt 0.010983 0.500480
vt 0.971250 0.498541
vt 0.982220 0.498546
vt 0.957688 0.498542
vt 0.946714 0.498548
vt 0.458644 0.499349
vt 0.469627 0.499342
vt 0.445082 0.499354
vt 0.892068 0.500546
vt 0.881098 0.500551
vt 0.905630 0.500547
vt 0.916604 0.500553
vt 0.000000 0.500474
vt 0.024811 0.613526
vt 0.011249 0.613532
vt 0.970064 0.385507
vt 0.981034 0.385505
vt 0.956502 0.385507
vt 0.945528 0.385506
vt 0.458853 0.386294
vt 0.469836 0.386299
vt 0.445291 0.386288
vt 0.890862 0.613617
vt 0.879892 0.613615
vt 0.904424 0.613617
vt 0.915399 0.613615
vt 0.000266 0.613537
vt 0.049838 0.721411
vt 0.036279 0.721430
vt 0.970824 0.277625
vt 0.981793 0.277616
vt 0.957262 0.277624
vt 0.946287 0.277613
vt 0.483830 0.278393
vt 0.494810 0.278412
vt 0.470272 0.278373
vt 0.891604 0.721545
vt 0.880634 0.721535
vt 0.905166 0.721543
vt 0.916140 0.721533
vt 0.025300 0.721449
vt 0.101548 0.819023
vt 0.088000 0.819062
vt 0.973870 0.180012
vt 0.984840 0.179992
vt 0.960308 0.180009
vt 0.949335 0.179985
vt 0.535504 0.180756
vt 0.546473 0.180795
vt 0.521957 0.180718
vt 0.894636 0.819222
vt 0.883666 0.819202
vt 0.908198 0.819219
vt 0.919171 0.819195
vt 0.077031 0.819100
vt 0.181848 0.901243
vt 0.168334 0.901313
vt 0.112500 0.819000
vt 0.192781 0.901202
vt 0.965983 0.097787
vt 0.979544 0.097792
vt 0.955011 0.097741
vt 0.615807 0.098495
vt 0.626740 0.098568
vt 0.602293 0.098425
vt 0.511004 0.180695
vt 0.591360 0.098384
vt 0.913866 0.901545
vt 0.900304 0.901550
vt 0.924838 0.901498
vt 0.157402 0.901385
vt 0.292554 0.962925
vt 0.279195 0.963068
vt 0.303399 0.962843
vt 0.974614 0.036115
vt 0.988174 0.036127
vt 0.963651 0.036017
vt 0.726680 0.036720
vt 0.737450 0.036869
vt 0.713321 0.036577
vt 0.702475 0.036495
vt 0.922527 0.963453
vt 0.908966 0.963465
vt 0.933490 0.963355
vt 0.268425 0.963217
vt 0.434787 0.998865
vt 0.422407 0.999203
vt 0.445082 0.998673
vt 0.986446 0.000236
vt 1.000000 0.000264
vt 0.975542 0.000000
vt 0.870154 0.000529
vt 0.879892 0.000884
vt 0.857773 0.000192
vt 0.847479 0.000000
vt 0.934621 0.999964
vt 0.921068 0.999993
vt 0.945526 0.999728
vt 0.412669 0.999557
vn -0.0221 0.5727 0.8195
vn 0.0063 0.5810 0.8139
vn -0.0456 -0.0089 0.9989
vn -0.0475 -0.0261 0.9985
vn 0.0123 0.9489 0.3154
vn 0.0560 0.9478 0.3138
vn 0.0418 0.9483 -0.3146
vn 0.0840 0.9476 -0.3081
vn 0.0547 0.5715 -0.8188
vn 0.0794 0.5807 -0.8102
vn 0.0461 -0.0266 -0.9986
vn 0.0443 -0.0090 -0.9990
vn 0.0202 -0.6060 -0.7952
vn -0.0074 -0.5924 -0.8056
vn -0.0126 -0.9532 -0.3019
vn -0.0560 -0.9493 -0.3092
vn -0.0407 -0.9538 0.2975
vn -0.0836 -0.9496 0.3022
vn -0.0542 -0.6067 0.7930
vn -0.0797 -0.5926 0.8015
vn 0.0456 0.5798 0.8135
vn -0.0428 -0.0038 0.9991
vn 0.1167 0.9418 0.3153
vn 0.1430 0.9418 -0.3041
vn 0.1143 0.5801 -0.8065
vn 0.0419 -0.0033 -0.9991
vn -0.0463 -0.5843 -0.8102
vn -0.1168 -0.9423 -0.3136
vn -0.1430 -0.9426 0.3017
vn -0.1148 -0.5849 0.8029
vn 0.0634 0.5781 0.8135
vn -0.0415 -0.0025 0.9991
vn 0.1441 0.9377 0.3161
vn 0.1696 0.9379 -0.3026
vn 0.1300 0.5786 -0.8051
vn 0.0408 -0.0015 -0.9991
vn -0.0639 -0.5806 -0.8117
vn -0.1442 -0.9380 -0.3151
vn -0.1696 -0.9384 0.3011
vn -0.1304 -0.5814 0.8030
vn 0.0747 0.5764 0.8137
vn -0.0405 -0.0021 0.9991
vn 0.1615 0.9347 0.3167
vn 0.1864 0.9350 -0.3017
vn 0.1399 0.5773 -0.8044
vn 0.0399 -0.0008 -0.9992
vn -0.0752 -0.5783 -0.8124
vn -0.1616 -0.9349 -0.3159
vn -0.1864 -0.9353 0.3007
vn -0.1402 -0.5793 0.8029
vn 0.0837 0.5748 0.8140
vn -0.0397 -0.0020 0.9992
vn 0.1751 0.9320 0.3172
vn 0.1996 0.9325 -0.3011
vn 0.1476 0.5759 -0.8040
vn 0.0392 -0.0005 -0.9992
vn -0.0840 -0.5764 -0.8128
vn -0.1752 -0.9322 -0.3165
vn -0.1996 -0.9327 0.3002
vn -0.1478 -0.5777 0.8027
vn 0.0920 0.5731 0.8143
vn -0.0389 -0.0022 0.9992
vn 0.1878 0.9294 0.3177
vn 0.2117 0.9299 -0.3006
vn 0.1545 0.5745 -0.8038
vn 0.0384 -0.0003 -0.9992
vn -0.0923 -0.5747 -0.8131
vn -0.1878 -0.9296 -0.3171
vn -0.2117 -0.9302 0.2997
vn -0.1549 -0.5763 0.8024
vn 0.1008 0.5710 0.8147
vn -0.0380 -0.0026 0.9993
vn 0.2012 0.9264 0.3182
vn 0.2246 0.9271 -0.3001
vn 0.1619 0.5728 -0.8036
vn 0.0374 -0.0003 -0.9993
vn -0.1013 -0.5728 -0.8134
vn -0.2013 -0.9266 -0.3176
vn -0.2246 -0.9274 0.2991
vn -0.1623 -0.5748 0.8020
vn 0.1116 0.5682 0.8153
vn -0.0369 -0.0033 0.9993
vn 0.2177 0.9225 0.3189
vn 0.2402 0.9232 -0.2998
vn 0.1707 0.5703 -0.8035
vn 0.0360 -0.0004 -0.9993
vn -0.1123 -0.5705 -0.8136
vn -0.2177 -0.9227 -0.3181
vn -0.2403 -0.9237 0.2983
vn -0.1713 -0.5730 0.8014
vn 0.1268 0.5635 0.8163
vn -0.0354 -0.0046 0.9994
vn 0.2407 0.9163 0.3199
vn 0.2622 0.9174 -0.2994
vn 0.1830 0.5664 -0.8035
vn 0.0339 -0.0008 -0.9994
vn -0.1279 -0.5670 -0.8137
vn -0.2409 -0.9167 -0.3186
vn -0.2622 -0.9181 0.2972
vn -0.1839 -0.5703 0.8006
vn 0.1523 0.5545 0.8181
vn -0.0331 -0.0078 0.9994
vn 0.2794 0.9047 0.3216
vn 0.2989 0.9062 -0.2990
vn 0.2033 0.5588 -0.8039
vn 0.0298 -0.0022 -0.9995
vn -0.1545 -0.5608 -0.8134
vn -0.2798 -0.9054 -0.3193
vn -0.2992 -0.9074 0.2950
vn -0.2053 -0.5657 0.7986
vn 0.2090 0.5290 0.8225
vn -0.0295 -0.0178 0.9994
vn 0.3666 0.8717 0.3252
vn 0.3815 0.8747 -0.2989
vn 0.2480 0.5369 -0.8063
vn 0.0186 -0.0072 -0.9998
vn -0.2161 -0.5443 -0.8105
vn -0.3680 -0.8733 -0.3193
vn -0.3830 -0.8774 0.2889
vn -0.2553 -0.5541 0.7923
vn 0.2432 0.4986 0.8320
vn -0.0367 -0.0422 0.9984
vn 0.4266 0.8420 0.3302
vn 0.4382 0.8457 -0.3045
vn 0.2731 0.5084 -0.8166
vn 0.0006 -0.0278 -0.9996
vn -0.2662 -0.5412 -0.7976
vn -0.4303 -0.8465 -0.3133
vn -0.4426 -0.8532 0.2760
vn -0.2975 -0.5561 0.7760
usemtl None
s 1
f 1/1/1 11/2/2 20/3/3 10/4/4
f 2/5/5 12/6/6 11/2/2 1/1/1
f 3/7/7 13/8/8 12/9/6 2/10/5
f 4/11/9 14/12/10 13/8/8 3/7/7
f 5/13/11 15/14/12 14/15/10 4/16/9
f 6/17/13 16/18/14 15/14/12 5/13/11
f 7/19/15 17/20/16 16/18/14 6/17/13
f 8/21/17 18/22/18 17/23/16 7/24/15
f 9/25/19 19/26/20 18/22/18 8/21/17
f 10/4/4 20/3/3 19/27/20 9/28/19
f 11/2/2 21/29/21 30/30/22 20/3/3
f 12/6/6 22/31/23 21/29/21 11/2/2
f 13/8/8 23/32/24 22/33/23 12/9/6
f 14/12/10 24/34/25 23/32/24 13/8/8
f 15/14/12 25/35/26 24/36/25 14/15/10
f 16/18/14 26/37/27 25/35/26 15/14/12
f 17/20/16 27/38/28 26/37/27 16/18/14
f 18/22/18 28/39/29 27/40/28 17/23/16
f 19/26/20 29/41/30 28/39/29 18/22/18
f 20/3/3 30/30/22 29/42/30 19/27/20
f 21/29/21 31/43/31 40/44/32 30/30/22
f 22/31/23 32/45/33 31/43/31 21/29/21
f 23/32/24 33/46/34 32/47/33 22/33/23
f 24/34/25 34/48/35 33/46/34 23/32/24
f 25/35/26 35/49/36 34/50/35 24/36/25
f 26/37/27 36/51/37 35/49/36 25/35/26
f 27/38/28 37/52/38 36/51/37 26/37/27
f 28/39/29 38/53/39 37/54/38 27/40/28
f 29/41/30 39/55/40 38/53/39 28/39/29
f 30/30/22 40/44/32 39/56/40 29/42/30
f 31/43/31 41/57/41 50/58/42 40/44/32
f 32/47/33 42/59/43 41/60/41 31/61/31
f 33/46/34 43/62/44 42/59/43 32/47/33
f 34/48/35 44/63/45 43/62/44 33/46/34
f 35/49/36 45/64/46 44/65/45 34/50/35
f 36/51/37 46/66/47 45/64/46 35/49/36
f 37/54/38 47/67/48 46/68/47 36/69/37
f 38/53/39 48/70/49 47/67/48 37/54/38
f 39/55/40 49/71/50 48/70/49 38/53/39
f 40/44/32 50/58/42 49/72/50 39/56/40
f 41/57/41 51/73/51 60/74/52 50/58/42
f 42/59/43 52/75/53 51/76/51 41/60/41
f 43/62/44 53/77/54 52/75/53 42/59/43
f 44/63/45 54/78/55 53/77/54 43/62/44
f 45/64/46 55/79/56 54/80/55 44/65/45
f 46/66/47 56/81/57 55/79/56 45/64/46
f 47/67/48 57/82/58 56/83/57 46/68/47
f 48/70/49 58/84/59 57/82/58 47/67/48
f 49/71/50 59/85/60 58/84/59 48/70/49
f 50/58/42 60/74/52 59/86/60 49/72/50
f 51/73/51 61/87/61 70/88/62 60/74/52
f 52/75/53 62/89/63 61/90/61 51/76/51
f 53/77/54 63/91/64 62/89/63 52/75/53
f 54/78/55 64/92/65 63/91/64 53/77/54
f 55/79/56 65/93/66 64/94/65 54/80/55
f 56/81/57 66/95/67 65/93/66 55/79/56
f 57/82/58 67/96/68 66/97/67 56/83/57
f 58/84/59 68/98/69 67/96/68 57/82/58
f 59/85/60 69/99/70 68/98/69 58/84/59
f 60/74/52 70/88/62 69/100/70 59/86/60
f 61/87/61 71/101/71 80/102/72 70/88/62
f 62/89/63 72/103/73 71/104/71 61/90/61
f 63/91/64 73/105/74 72/103/73 62/89/63
f 64/92/65 74/106/75 73/105/74 63/91/64
f 65/93/66 75/107/76 74/108/75 64/94/65
f 66/95/67 76/109/77 75/107/76 65/93/66
f 67/96/68 77/110/78 76/111/77 66/97/67
f 68/98/69 78/112/79 77/110/78 67/96/68
f 69/99/70 79/113/80 78/112/79 68/98/69
f 70/88/62 80/102/72 79/114/80 69/100/70
f 71/101/71 81/115/81 90/116/82 80/102/72
f 72/103/73 82/117/83 81/118/81 71/104/71
f 73/105/74 83/119/84 82/117/83 72/103/73
f 74/106/75 84/120/85 83/119/84 73/105/74
f 75/107/76 85/121/86 84/122/85 74/108/75
f 76/109/77 86/123/87 85/121/86 75/107/76
f 77/110/78 87/124/88 86/125/87 76/111/77
f 78/112/79 88/126/89 87/124/88 77/110/78
f 79/113/80 89/127/90 88/126/89 78/112/79
f 80/102/72 90/116/82 89/128/90 79/114/80
f 81/115/81 91/129/91 100/130/92 90/116/82
f 82/117/83 92/131/93 91/132/91 81/118/81
f 83/119/84 93/133/94 92/131/93 82/117/83
f 84/120/85 94/134/95 93/133/94 83/119/84
f 85/121/86 95/135/96 94/136/95 84/122/85
f 86/123/87 96/137/97 95/135/96 85/121/86
f 87/124/88 97/138/98 96/139/97 86/125/87
f 88/126/89 98/140/99 97/138/98 87/124/88
f 89/127/90 99/141/100 98/140/99 88/126/89
f 90/116/82 100/130/92 99/142/100 89/128/90
f 91/129/91 101/143/101 110/144/102 100/130/92
f 92/145/93 102/146/103 101/143/101 91/129/91
f 93/133/94 103/147/104 102/148/103 92/131/93
f 94/134/95 104/149/105 103/147/104 93/133/94
f 95/135/96 105/150/106 104/151/105 94/136/95
f 96/137/97 106/152/107 105/150/106 95/135/96
f 97/153/98 107/154/108 106/152/107 96/137/97
f 98/140/99 108/155/109 107/156/108 97/138/98
f 99/141/100 109/157/110 108/155/109 98/140/99
f 100/130/92 110/144/102 109/158/110 99/142/100
f 101/143/101 111/159/111 120/160/112 110/144/102
f 102/146/103 112/161/113 111/159/111 101/143/101
f 103/147/104 113/162/114 112/163/113 102/148/103
f 104/149/105 114/164/115 113/162/114 103/147/104
f 105/150/106 115/165/116 114/166/115 104/151/105
f 106/152/107 116/167/117 115/165/116 105/150/106
f 107/154/108 117/168/118 116/167/117 106/152/107
f 108/155/109 118/169/119 117/170/118 107/156/108
f 109/157/110 119/171/120 118/169/119 108/155/109
f 110/144/102 120/160/112 119/172/120 109/158/110
f 111/159/111 121/173/121 130/174/122 120/160/112
f 112/161/113 122/175/123 121/173/121 111/159/111
f 113/162/114 123/176/124 122/177/123 112/163/113
f 114/164/115 124/178/125 123/176/124 113/162/114
f 115/165/116 125/179/126 124/180/125 114/166/115
f 116/167/117 126/181/127 125/179/126 115/165/116
f 117/168/118 127/182/128 126/181/127 116/167/117
f 118/169/119 128/183/129 127/184/128 117/170/118
f 119/171/120 129/185/130 128/183/129 118/169/119
f 120/160/112 130/174/122 129/186/130 119/172/120
