# Blender v2.80 (sub 60) OBJ File: 'pylons.blend'
# www.blender.org
mtllib MainWireW_3.mtl
o BezierCurve.012_CUBezierCurve.012
v -226.950333 20.349323 -29.055311
v -226.923676 20.374222 -29.032040
v -226.895676 20.374241 -28.999062
v -226.877014 20.349373 -28.968985
v -226.874817 20.309120 -28.953289
v -226.889923 20.268852 -28.957973
v -226.916565 20.243954 -28.981247
v -226.944580 20.243935 -29.014223
v -226.963242 20.268803 -29.044300
v -226.965439 20.309055 -29.059998
v -225.533081 20.296980 -30.268372
v -225.510956 20.322393 -30.241234
v -225.482788 20.322393 -30.208403
v -225.459320 20.296980 -30.182423
v -225.449524 20.255859 -30.173216
v -225.457138 20.214741 -30.184296
v -225.479248 20.189327 -30.211433
v -225.507431 20.189327 -30.244265
v -225.530899 20.214741 -30.270245
v -225.540695 20.255859 -30.279451
v -223.194214 20.601400 -32.281204
v -223.173767 20.626640 -32.252640
v -223.145523 20.626648 -32.219864
v -223.120300 20.601418 -32.195393
v -223.107727 20.560589 -32.188576
v -223.112595 20.519756 -32.202011
v -223.133057 20.494516 -32.230576
v -223.161301 20.494511 -32.263351
v -223.186523 20.519739 -32.287819
v -223.199097 20.560568 -32.294640
v -220.124146 21.210487 -34.928936
v -220.104416 21.235586 -34.899734
v -220.076157 21.235598 -34.866978
v -220.050156 21.210518 -34.843185
v -220.036331 21.169926 -34.837433
v -220.039978 21.129330 -34.851929
v -220.059708 21.104231 -34.881130
v -220.087967 21.104219 -34.913887
v -220.113983 21.129299 -34.937683
v -220.127792 21.169891 -34.943428
v -216.510986 22.070911 -38.048595
v -216.491714 22.095901 -38.018997
v -216.463440 22.095915 -37.986252
v -216.436951 22.070950 -37.962875
v -216.422363 22.030540 -37.957794
v -216.425247 21.990120 -37.972946
v -216.444504 21.965130 -38.002544
v -216.472778 21.965117 -38.035286
v -216.499283 21.990082 -38.058666
v -216.513870 22.030491 -38.063751
v -212.542068 23.129303 -41.477905
v -212.523163 23.154200 -41.447998
v -212.494873 23.154217 -41.415264
v -212.468018 23.129349 -41.392204
v -212.452835 23.089094 -41.387627
v -212.455139 23.048828 -41.403282
v -212.474060 23.023933 -41.433186
v -212.502335 23.023916 -41.465919
v -212.529205 23.048784 -41.488983
v -212.544373 23.089039 -41.493557
v -208.404572 24.332310 -45.054714
v -208.385971 24.357115 -45.024536
v -208.357681 24.357134 -44.991806
v -208.330490 24.332361 -44.969032
v -208.314804 24.292259 -44.964905
v -208.316589 24.252144 -44.981007
v -208.335175 24.227341 -45.011185
v -208.363480 24.227322 -45.043915
v -208.390656 24.252094 -45.066689
v -208.406357 24.292196 -45.070816
v -204.285614 25.626575 -48.616924
v -204.267349 25.651276 -48.586464
v -204.239044 25.651299 -48.553741
v -204.211517 25.626631 -48.531254
v -204.195282 25.586697 -48.527596
v -204.196533 25.546751 -48.544159
v -204.214813 25.522051 -48.574619
v -204.243103 25.522030 -48.607342
v -204.270630 25.546696 -48.629829
v -204.286865 25.586630 -48.633492
v -200.372314 26.958735 -52.002426
v -200.354446 26.983303 -51.971630
v -200.326141 26.983324 -51.938911
v -200.298218 26.958794 -51.916767
v -200.281342 26.919079 -51.913658
v -200.281967 26.879349 -51.930775
v -200.299835 26.854782 -51.961571
v -200.328140 26.854759 -51.994293
v -200.356064 26.879292 -52.016434
v -200.372940 26.919006 -52.019543
v -196.851868 28.275389 -55.049068
v -196.834534 28.299753 -55.017807
v -196.806229 28.299778 -54.985092
v -196.777756 28.275452 -54.963421
v -196.760010 28.236069 -54.961071
v -196.759750 28.196669 -54.978939
v -196.777100 28.172304 -55.010201
v -196.805405 28.172279 -55.042919
v -196.833862 28.196606 -55.064590
v -196.851608 28.235989 -55.066940
v -193.911636 29.523020 -57.594532
v -193.895187 29.546999 -57.562500
v -193.866867 29.547028 -57.529793
v -193.837509 29.523090 -57.508896
v -193.818329 29.484333 -57.507793
v -193.816635 29.445559 -57.526905
v -193.833084 29.421579 -57.558937
v -193.861404 29.421551 -57.591648
v -193.890762 29.445488 -57.612545
v -193.909943 29.484245 -57.613644
v -191.739838 30.647453 -59.475761
v -191.725342 30.670351 -59.442043
v -191.697021 30.670383 -59.409340
v -191.665695 30.647539 -59.390148
v -191.643326 30.610542 -59.391796
v -191.638458 30.573526 -59.413654
v -191.652969 30.550629 -59.447376
v -191.681290 30.550596 -59.480076
v -191.712616 30.573441 -59.499268
v -191.734985 30.610437 -59.497620
v -190.526260 31.591272 -60.528339
v -190.516479 31.609884 -60.490532
v -190.488129 31.609936 -60.457848
v -190.452057 31.591408 -60.442772
v -190.422043 31.561377 -60.451061
v -190.409546 31.531313 -60.479549
v -190.419342 31.512701 -60.517357
v -190.447678 31.512650 -60.550041
v -190.483749 31.531178 -60.565117
v -190.513763 31.561209 -60.556828
vt 0.460972 0.000704
vt 0.337751 0.037136
vt 0.326095 0.036976
vt 0.450110 0.000354
vt 0.469948 0.000915
vt 0.347209 0.037232
vt 0.984222 0.997772
vt 0.981744 0.961476
vt 0.993600 0.961473
vt 0.996078 0.997765
vt 0.974641 0.997997
vt 0.972153 0.961580
vt 0.922498 0.999440
vt 0.798415 0.962804
vt 0.807819 0.962642
vt 0.931095 0.999085
vt 0.911638 0.999789
vt 0.786758 0.962964
vt 0.902661 1.000000
vt 0.777301 0.963060
vt 0.958088 0.000007
vt 0.955692 0.036917
vt 0.943836 0.036914
vt 0.946231 0.000000
vt 0.967669 0.000232
vt 0.965283 0.037020
vt 0.316690 0.036814
vt 0.441514 0.000000
vt 0.232556 0.099195
vt 0.220759 0.099108
vt 0.242099 0.099248
vt 0.979870 0.899481
vt 0.991727 0.899479
vt 0.970277 0.899538
vt 0.693055 0.900667
vt 0.702601 0.900579
vt 0.681257 0.900754
vt 0.671715 0.900807
vt 0.954039 0.099146
vt 0.942182 0.099145
vt 0.963632 0.099203
vt 0.211213 0.099019
vt 0.147117 0.181692
vt 0.135283 0.181637
vt 0.156682 0.181724
vt 0.978551 0.817021
vt 0.990408 0.817021
vt 0.968958 0.817057
vt 0.607557 0.818136
vt 0.617140 0.818081
vt 0.595723 0.818190
vt 0.586159 0.818223
vt 0.953022 0.181712
vt 0.941166 0.181711
vt 0.962615 0.181747
vt 0.125700 0.181582
vt 0.082675 0.279487
vt 0.070827 0.279453
vt 0.989578 0.719251
vt 0.999170 0.719273
vt 1.000000 0.817055
vt 0.977722 0.719252
vt 0.968129 0.719274
vt 0.543077 0.720318
vt 0.552675 0.720284
vt 0.531229 0.720352
vt 0.940696 0.279548
vt 0.931104 0.279570
vt 0.931573 0.181746
vt 0.952553 0.279548
vt 0.962146 0.279570
vt 0.061230 0.279419
vt 0.040403 0.387464
vt 0.028549 0.387446
vt 0.989171 0.611293
vt 0.998763 0.611306
vt 0.977314 0.611293
vt 0.967722 0.611306
vt 0.500773 0.612325
vt 0.510378 0.612307
vt 0.488919 0.612343
vt 0.940687 0.387557
vt 0.931095 0.387570
vt 0.952543 0.387557
vt 0.962136 0.387569
vt 0.018945 0.387427
vt 0.021463 0.500508
vt 0.009606 0.500504
vt 0.989119 0.498261
vt 0.998711 0.498265
vt 0.977262 0.498261
vt 0.967669 0.498265
vt 0.481805 0.499266
vt 0.491411 0.499262
vt 0.469948 0.499270
vt 0.941050 0.500635
vt 0.931458 0.500639
vt 0.952907 0.500635
vt 0.962500 0.500638
vt 0.000000 0.500500
vt 0.027013 0.613509
vt 0.015157 0.613520
vt 0.989353 0.385269
vt 0.998945 0.385264
vt 0.977496 0.385269
vt 0.967903 0.385263
vt 0.487329 0.386250
vt 0.496935 0.386261
vt 0.475473 0.386239
vt 0.941701 0.613675
vt 0.932109 0.613670
vt 0.953558 0.613675
vt 0.963151 0.613669
vt 0.005551 0.613531
vt 0.058210 0.721353
vt 0.046359 0.721382
vt 0.989805 0.277429
vt 0.999397 0.277413
vt 0.977948 0.277429
vt 0.968355 0.277413
vt 0.518506 0.278388
vt 0.528106 0.278416
vt 0.506655 0.278359
vt 0.942551 0.721572
vt 0.932959 0.721556
vt 0.954408 0.721571
vt 0.964001 0.721555
vt 0.036759 0.721410
vt 0.116205 0.818928
vt 0.104370 0.818980
vt 0.990408 0.179858
vt 1.000000 0.179828
vt 0.978551 0.179858
vt 0.968958 0.179826
vt 0.576494 0.180788
vt 0.586079 0.180841
vt 0.564659 0.180736
vt 0.943514 0.819222
vt 0.933922 0.819191
vt 0.955371 0.819221
vt 0.964963 0.819189
vt 0.094784 0.819033
vt 0.202136 0.901112
vt 0.190346 0.901205
vt 0.125770 0.818895
vt 0.211673 0.901055
vt 0.979236 0.097680
vt 0.991093 0.097681
vt 0.969644 0.097624
vt 0.662453 0.098563
vt 0.671992 0.098656
vt 0.650663 0.098470
vt 0.555094 0.180703
vt 0.641126 0.098413
vt 0.956360 0.901529
vt 0.944503 0.901530
vt 0.965953 0.901472
vt 0.180807 0.901298
vt 0.317038 0.962764
vt 0.305446 0.962947
vt 0.326453 0.962651
vt 0.979935 0.036061
vt 0.991792 0.036062
vt 0.970343 0.035948
vt 0.777540 0.036820
vt 0.786882 0.037003
vt 0.765948 0.036636
vt 0.756533 0.036524
vt 0.957291 0.963441
vt 0.945434 0.963443
vt 0.966882 0.963328
vt 0.296104 0.963131
vt 0.461249 0.998681
vt 0.450821 0.999095
vt 0.469947 0.998426
vt 0.980575 0.000256
vt 0.992432 0.000258
vt 0.970986 0.000000
vt 0.922918 0.000669
vt 0.931094 0.001084
vt 0.912490 0.000255
vt 0.903793 0.000000
vt 0.958081 0.999995
vt 0.946224 0.999996
vt 0.967669 0.999738
vt 0.442646 0.999510
vn -0.5230 0.5679 -0.6355
vn -0.5456 0.5803 -0.6045
vn -0.6509 -0.0124 -0.7590
vn -0.6506 -0.0354 -0.7585
vn -0.1855 0.9483 -0.2574
vn -0.2284 0.9496 -0.2148
vn 0.2266 0.9479 0.2240
vn 0.1780 0.9494 0.2587
vn 0.5476 0.5670 0.6153
vn 0.5150 0.5799 0.6312
vn 0.6490 -0.0354 0.7599
vn 0.6515 -0.0124 0.7585
vn 0.5002 -0.6130 0.6115
vn 0.5383 -0.5962 0.5955
vn 0.1724 -0.9544 0.2437
vn 0.2237 -0.9518 0.2099
vn -0.2131 -0.9549 -0.2067
vn -0.1732 -0.9519 -0.2526
vn -0.5266 -0.6138 -0.5881
vn -0.5069 -0.5965 -0.6223
vn -0.5842 0.5800 -0.5676
vn -0.6522 -0.0050 -0.7580
vn -0.2915 0.9433 -0.1587
vn 0.1137 0.9433 0.3118
vn 0.4748 0.5802 0.6617
vn 0.6531 -0.0048 0.7572
vn 0.5817 -0.5865 0.5635
vn 0.2898 -0.9442 0.1565
vn -0.1116 -0.9443 -0.3094
vn -0.4711 -0.5867 -0.6586
vn -0.6018 0.5778 -0.5513
vn -0.6529 -0.0030 -0.7574
vn -0.3199 0.9380 -0.1335
vn 0.0850 0.9381 0.3357
vn 0.4570 0.5783 0.6758
vn 0.6536 -0.0025 0.7568
vn 0.6005 -0.5816 0.5488
vn 0.3189 -0.9385 0.1322
vn -0.0837 -0.9387 -0.3343
vn -0.4547 -0.5820 -0.6741
vn -0.6128 0.5758 -0.5412
vn -0.6533 -0.0023 -0.7570
vn -0.3375 0.9339 -0.1179
vn 0.0672 0.9340 0.3507
vn 0.4460 0.5763 0.6847
vn 0.6539 -0.0016 0.7566
vn 0.6119 -0.5784 0.5394
vn 0.3368 -0.9343 0.1170
vn -0.0662 -0.9345 -0.3497
vn -0.4443 -0.5790 -0.6836
vn -0.6212 0.5738 -0.5337
vn -0.6536 -0.0020 -0.7569
vn -0.3510 0.9303 -0.1061
vn 0.0537 0.9305 0.3622
vn 0.4377 0.5744 0.6917
vn 0.6541 -0.0012 0.7564
vn 0.6205 -0.5759 0.5322
vn 0.3504 -0.9306 0.1054
vn -0.0529 -0.9309 -0.3614
vn -0.4363 -0.5766 -0.6908
vn -0.6287 0.5716 -0.5272
vn -0.6537 -0.0021 -0.7567
vn -0.3631 0.9268 -0.0957
vn 0.0417 0.9271 0.3725
vn 0.4304 0.5723 0.6980
vn 0.6543 -0.0010 0.7562
vn 0.6281 -0.5736 0.5257
vn 0.3625 -0.9271 0.0950
vn -0.0410 -0.9274 -0.3718
vn -0.4290 -0.5744 -0.6971
vn -0.6366 0.5690 -0.5206
vn -0.6538 -0.0023 -0.7567
vn -0.3756 0.9228 -0.0850
vn 0.0294 0.9232 0.3833
vn 0.4229 0.5698 0.7045
vn 0.6544 -0.0013 0.7561
vn 0.6358 -0.5714 0.5188
vn 0.3750 -0.9232 0.0841
vn -0.0285 -0.9235 -0.3824
vn -0.4213 -0.5722 -0.7036
vn -0.6458 0.5655 -0.5129
vn -0.6537 -0.0028 -0.7567
vn -0.3905 0.9178 -0.0724
vn 0.0147 0.9181 0.3960
vn 0.4142 0.5664 0.7125
vn 0.6547 -0.0018 0.7559
vn 0.6449 -0.5686 0.5107
vn 0.3896 -0.9182 0.0713
vn -0.0138 -0.9185 -0.3950
vn -0.4121 -0.5694 -0.7113
vn -0.6586 0.5600 -0.5026
vn -0.6536 -0.0039 -0.7568
vn -0.4109 0.9100 -0.0551
vn -0.0052 0.9104 0.4137
vn 0.4023 0.5610 0.7234
vn 0.6551 -0.0027 0.7555
vn 0.6574 -0.5644 0.4993
vn 0.4096 -0.9106 0.0535
vn 0.0066 -0.9110 -0.4123
vn -0.3992 -0.5653 -0.7218
vn -0.6796 0.5495 -0.4860
vn -0.6529 -0.0064 -0.7574
vn -0.4446 0.8953 -0.0269
vn -0.0378 0.8957 0.4429
vn 0.3832 0.5506 0.7416
vn 0.6560 -0.0052 0.7547
vn 0.6777 -0.5571 0.4798
vn 0.4425 -0.8964 0.0239
vn 0.0406 -0.8968 -0.4405
vn -0.3772 -0.5582 -0.7390
vn -0.7254 0.5200 -0.4510
vn -0.6494 -0.0148 -0.7603
vn -0.5187 0.8542 0.0348
vn -0.1093 0.8547 0.5074
vn 0.3424 0.5212 0.7817
vn 0.6598 -0.0133 0.7513
vn 0.7226 -0.5382 0.4338
vn 0.5142 -0.8566 -0.0430
vn 0.1169 -0.8571 -0.5018
vn -0.3256 -0.5394 -0.7765
vn -0.7569 0.4856 -0.4373
vn -0.6373 -0.0387 -0.7696
vn -0.5714 0.8173 0.0735
vn -0.1550 0.8178 0.5542
vn 0.3246 0.4869 0.8109
vn 0.6711 -0.0370 0.7404
vn 0.7517 -0.5343 0.3867
vn 0.5590 -0.8236 -0.0959
vn 0.1756 -0.8241 -0.5385
vn -0.2751 -0.5355 -0.7984
usemtl None
s 1
f 1/1/1 11/2/2 20/3/3 10/4/4
f 2/5/5 12/6/6 11/2/2 1/1/1
f 3/7/7 13/8/8 12/9/6 2/10/5
f 4/11/9 14/12/10 13/8/8 3/7/7
f 5/13/11 15/14/12 14/15/10 4/16/9
f 6/17/13 16/18/14 15/14/12 5/13/11
f 7/19/15 17/20/16 16/18/14 6/17/13
f 8/21/17 18/22/18 17/23/16 7/24/15
f 9/25/19 19/26/20 18/22/18 8/21/17
f 10/4/4 20/3/3 19/27/20 9/28/19
f 11/2/2 21/29/21 30/30/22 20/3/3
f 12/6/6 22/31/23 21/29/21 11/2/2
f 13/8/8 23/32/24 22/33/23 12/9/6
f 14/12/10 24/34/25 23/32/24 13/8/8
f 15/14/12 25/35/26 24/36/25 14/15/10
f 16/18/14 26/37/27 25/35/26 15/14/12
f 17/20/16 27/38/28 26/37/27 16/18/14
f 18/22/18 28/39/29 27/40/28 17/23/16
f 19/26/20 29/41/30 28/39/29 18/22/18
f 20/3/3 30/30/22 29/42/30 19/27/20
f 21/29/21 31/43/31 40/44/32 30/30/22
f 22/31/23 32/45/33 31/43/31 21/29/21
f 23/32/24 33/46/34 32/47/33 22/33/23
f 24/34/25 34/48/35 33/46/34 23/32/24
f 25/35/26 35/49/36 34/50/35 24/36/25
f 26/37/27 36/51/37 35/49/36 25/35/26
f 27/38/28 37/52/38 36/51/37 26/37/27
f 28/39/29 38/53/39 37/54/38 27/40/28
f 29/41/30 39/55/40 38/53/39 28/39/29
f 30/30/22 40/44/32 39/56/40 29/42/30
f 31/43/31 41/57/41 50/58/42 40/44/32
f 32/47/33 42/59/43 41/60/41 31/61/31
f 33/46/34 43/62/44 42/59/43 32/47/33
f 34/48/35 44/63/45 43/62/44 33/46/34
f 35/49/36 45/64/46 44/65/45 34/50/35
f 36/51/37 46/66/47 45/64/46 35/49/36
f 37/54/38 47/67/48 46/68/47 36/69/37
f 38/53/39 48/70/49 47/67/48 37/54/38
f 39/55/40 49/71/50 48/70/49 38/53/39
f 40/44/32 50/58/42 49/72/50 39/56/40
f 41/57/41 51/73/51 60/74/52 50/58/42
f 42/59/43 52/75/53 51/76/51 41/60/41
f 43/62/44 53/77/54 52/75/53 42/59/43
f 44/63/45 54/78/55 53/77/54 43/62/44
f 45/64/46 55/79/56 54/80/55 44/65/45
f 46/66/47 56/81/57 55/79/56 45/64/46
f 47/67/48 57/82/58 56/83/57 46/68/47
f 48/70/49 58/84/59 57/82/58 47/67/48
f 49/71/50 59/85/60 58/84/59 48/70/49
f 50/58/42 60/74/52 59/86/60 49/72/50
f 51/73/51 61/87/61 70/88/62 60/74/52
f 52/75/53 62/89/63 61/90/61 51/76/51
f 53/77/54 63/91/64 62/89/63 52/75/53
f 54/78/55 64/92/65 63/91/64 53/77/54
f 55/79/56 65/93/66 64/94/65 54/80/55
f 56/81/57 66/95/67 65/93/66 55/79/56
f 57/82/58 67/96/68 66/97/67 56/83/57
f 58/84/59 68/98/69 67/96/68 57/82/58
f 59/85/60 69/99/70 68/98/69 58/84/59
f 60/74/52 70/88/62 69/100/70 59/86/60
f 61/87/61 71/101/71 80/102/72 70/88/62
f 62/89/63 72/103/73 71/104/71 61/90/61
f 63/91/64 73/105/74 72/103/73 62/89/63
f 64/92/65 74/106/75 73/105/74 63/91/64
f 65/93/66 75/107/76 74/108/75 64/94/65
f 66/95/67 76/109/77 75/107/76 65/93/66
f 67/96/68 77/110/78 76/111/77 66/97/67
f 68/98/69 78/112/79 77/110/78 67/96/68
f 69/99/70 79/113/80 78/112/79 68/98/69
f 70/88/62 80/102/72 79/114/80 69/100/70
f 71/101/71 81/115/81 90/116/82 80/102/72
f 72/103/73 82/117/83 81/118/81 71/104/71
f 73/105/74 83/119/84 82/117/83 72/103/73
f 74/106/75 84/120/85 83/119/84 73/105/74
f 75/107/76 85/121/86 84/122/85 74/108/75
f 76/109/77 86/123/87 85/121/86 75/107/76
f 77/110/78 87/124/88 86/125/87 76/111/77
f 78/112/79 88/126/89 87/124/88 77/110/78
f 79/113/80 89/127/90 88/126/89 78/112/79
f 80/102/72 90/116/82 89/128/90 79/114/80
f 81/115/81 91/129/91 100/130/92 90/116/82
f 82/117/83 92/131/93 91/132/91 81/118/81
f 83/119/84 93/133/94 92/131/93 82/117/83
f 84/120/85 94/134/95 93/133/94 83/119/84
f 85/121/86 95/135/96 94/136/95 84/122/85
f 86/123/87 96/137/97 95/135/96 85/121/86
f 87/124/88 97/138/98 96/139/97 86/125/87
f 88/126/89 98/140/99 97/138/98 87/124/88
f 89/127/90 99/141/100 98/140/99 88/126/89
f 90/116/82 100/130/92 99/142/100 89/128/90
f 91/129/91 101/143/101 110/144/102 100/130/92
f 92/145/93 102/146/103 101/143/101 91/129/91
f 93/133/94 103/147/104 102/148/103 92/131/93
f 94/134/95 104/149/105 103/147/104 93/133/94
f 95/135/96 105/150/106 104/151/105 94/136/95
f 96/137/97 106/152/107 105/150/106 95/135/96
f 97/153/98 107/154/108 106/152/107 96/137/97
f 98/140/99 108/155/109 107/156/108 97/138/98
f 99/141/100 109/157/110 108/155/109 98/140/99
f 100/130/92 110/144/102 109/158/110 99/142/100
f 101/143/101 111/159/111 120/160/112 110/144/102
f 102/146/103 112/161/113 111/159/111 101/143/101
f 103/147/104 113/162/114 112/163/113 102/148/103
f 104/149/105 114/164/115 113/162/114 103/147/104
f 105/150/106 115/165/116 114/166/115 104/151/105
f 106/152/107 116/167/117 115/165/116 105/150/106
f 107/154/108 117/168/118 116/167/117 106/152/107
f 108/155/109 118/169/119 117/170/118 107/156/108
f 109/157/110 119/171/120 118/169/119 108/155/109
f 110/144/102 120/160/112 119/172/120 109/158/110
f 111/159/111 121/173/121 130/174/122 120/160/112
f 112/161/113 122/175/123 121/173/121 111/159/111
f 113/162/114 123/176/124 122/177/123 112/163/113
f 114/164/115 124/178/125 123/176/124 113/162/114
f 115/165/116 125/179/126 124/180/125 114/166/115
f 116/167/117 126/181/127 125/179/126 115/165/116
f 117/168/118 127/182/128 126/181/127 116/167/117
f 118/169/119 128/183/129 127/184/128 117/170/118
f 119/171/120 129/185/130 128/183/129 118/169/119
f 120/160/112 130/174/122 129/186/130 119/172/120
