# Blender v2.80 (sub 60) OBJ File: 'pylons.blend'
# www.blender.org
mtllib MainWireN_1.mtl
o BezierCurve.014_CUBezierCurve.014
v -3.439442 20.312836 -162.782608
v -3.437775 20.338127 -162.747543
v -3.439007 20.338129 -162.704300
v -3.442677 20.312843 -162.669388
v -3.447369 20.271927 -162.656143
v -3.451309 20.231007 -162.669632
v -3.452976 20.205715 -162.704681
v -3.451740 20.205713 -162.747925
v -3.448071 20.230999 -162.782837
v -3.443378 20.271915 -162.796082
v -1.550800 20.367914 -162.736542
v -1.553543 20.393269 -162.701599
v -1.554527 20.393269 -162.658340
v -1.553387 20.367914 -162.623306
v -1.550560 20.326889 -162.609879
v -1.547115 20.285864 -162.623169
v -1.544373 20.260509 -162.658112
v -1.543385 20.260509 -162.701370
v -1.544521 20.285864 -162.736404
v -1.547356 20.326889 -162.749832
v 1.550587 20.754004 -162.670395
v 1.546238 20.779181 -162.635483
v 1.545345 20.779190 -162.592224
v 1.548248 20.754032 -162.557144
v 1.553841 20.713310 -162.543655
v 1.559982 20.672583 -162.556885
v 1.564335 20.647406 -162.591797
v 1.565228 20.647396 -162.635056
v 1.562325 20.672554 -162.670120
v 1.556732 20.713276 -162.683624
v 5.615982 21.420523 -162.589310
v 5.610901 21.445583 -162.554413
v 5.610058 21.445602 -162.511169
v 5.613770 21.420570 -162.476074
v 5.620617 21.380051 -162.462555
v 5.627998 21.339520 -162.475769
v 5.633076 21.314459 -162.510666
v 5.633919 21.314442 -162.553909
v 5.630207 21.339472 -162.589005
v 5.623356 21.379992 -162.602524
v 10.398933 22.316307 -162.498428
v 10.393394 22.341282 -162.463547
v 10.392582 22.341305 -162.420288
v 10.396812 22.316372 -162.385193
v 10.404469 22.276001 -162.371658
v 10.412621 22.235615 -162.384857
v 10.418156 22.210640 -162.419739
v 10.418968 22.210613 -162.462997
v 10.414738 22.235550 -162.498093
v 10.407082 22.275921 -162.511627
v 15.653782 23.390209 -162.402832
v 15.647888 23.415113 -162.367950
v 15.647114 23.415146 -162.324692
v 15.651751 23.390293 -162.289597
v 15.660028 23.350050 -162.276047
v 15.668789 23.309788 -162.289230
v 15.674681 23.284883 -162.324112
v 15.675455 23.284851 -162.367371
v 15.670818 23.309704 -162.402466
v 15.662540 23.349947 -162.416016
v 21.135033 24.591101 -162.307602
v 21.128820 24.615934 -162.272720
v 21.128080 24.615974 -162.229477
v 21.133095 24.591206 -162.194351
v 21.141949 24.551086 -162.180801
v 21.151258 24.510946 -162.193970
v 21.157471 24.486113 -162.228851
v 21.158211 24.486073 -162.272110
v 21.153198 24.510841 -162.307220
v 21.144344 24.550961 -162.320770
v 26.597229 25.867849 -162.217819
v 26.590683 25.892605 -162.182953
v 26.589985 25.892654 -162.139694
v 26.595402 25.867979 -162.104568
v 26.604864 25.828003 -162.091003
v 26.614754 25.787998 -162.104172
v 26.621300 25.763243 -162.139038
v 26.621998 25.763193 -162.182297
v 26.616581 25.787868 -162.217407
v 26.607121 25.827843 -162.230988
v 31.794899 27.169312 -162.138565
v 31.787956 27.193966 -162.103699
v 31.787315 27.194031 -162.060440
v 31.793221 27.169479 -162.025314
v 31.803417 27.129688 -162.011734
v 31.814009 27.089859 -162.024887
v 31.820953 27.065205 -162.059753
v 31.821590 27.065140 -162.103012
v 31.815685 27.089691 -162.138138
v 31.805489 27.129482 -162.151718
v 36.482502 28.444319 -162.074936
v 36.475014 28.468824 -162.040070
v 36.474457 28.468912 -161.996811
v 36.481049 28.444548 -161.961685
v 36.492264 28.405039 -161.948090
v 36.503830 28.365475 -161.961227
v 36.511318 28.340969 -161.996078
v 36.511871 28.340883 -162.039337
v 36.505283 28.365246 -162.074478
v 36.494064 28.404757 -162.088074
v 40.414249 29.641596 -162.031998
v 40.405861 29.665819 -161.997147
v 40.405453 29.665953 -161.953888
v 40.413181 29.641943 -161.918747
v 40.426098 29.602962 -161.905136
v 40.439262 29.563898 -161.918259
v 40.447655 29.539673 -161.953110
v 40.448063 29.539539 -161.996368
v 40.440334 29.563549 -162.031509
v 40.427418 29.602531 -162.045120
v 43.343285 30.709291 -162.014847
v 43.332912 30.732748 -161.979996
v 43.332836 30.733009 -161.936737
v 43.343082 30.709976 -161.901581
v 43.359741 30.672445 -161.887955
v 43.376442 30.634752 -161.901062
v 43.386814 30.611296 -161.935913
v 43.386890 30.611034 -161.979172
v 43.376640 30.634068 -162.014328
v 43.359985 30.671598 -162.027954
v 45.020470 31.592793 -162.028381
v 45.005230 31.613298 -161.993469
v 45.005978 31.614059 -161.950211
v 45.022430 31.594790 -161.915146
v 45.048302 31.562845 -161.901657
v 45.073708 31.530430 -161.914902
v 45.088947 31.509924 -161.949814
v 45.088200 31.509163 -161.993073
v 45.071747 31.528433 -162.028137
v 45.045876 31.560377 -162.041626
vt 0.434451 0.000542
vt 0.324347 0.037700
vt 0.310931 0.037577
vt 0.421557 0.000275
vt 0.445009 0.000699
vt 0.335218 0.037771
vt 0.986442 0.998216
vt 0.981347 0.961161
vt 0.994900 0.961155
vt 0.999995 0.998205
vt 0.975495 0.998394
vt 0.970385 0.961245
vt 0.869445 0.999576
vt 0.758745 0.962259
vt 0.769582 0.962131
vt 0.879748 0.999301
vt 0.856552 0.999843
vt 0.745330 0.962382
vt 0.845993 1.000000
vt 0.734459 0.962453
vt 0.934502 0.000011
vt 0.929326 0.037530
vt 0.915772 0.037524
vt 0.920950 0.000000
vt 0.945449 0.000189
vt 0.940288 0.037614
vt 0.300095 0.037448
vt 0.411254 0.000000
vt 0.228517 0.100063
vt 0.215007 0.099994
vt 0.239444 0.100102
vt 0.975846 0.898847
vt 0.989399 0.898843
vt 0.964880 0.898896
vt 0.662782 0.899835
vt 0.673715 0.899762
vt 0.649271 0.899904
vt 0.638345 0.899944
vt 0.923796 0.100019
vt 0.910243 0.100014
vt 0.934761 0.100068
vt 0.204073 0.099921
vt 0.148961 0.182541
vt 0.135425 0.182497
vt 0.159903 0.182565
vt 0.970354 0.816400
vt 0.983908 0.816396
vt 0.959388 0.816432
vt 0.583159 0.817330
vt 0.594118 0.817282
vt 0.569623 0.817374
vt 0.558680 0.817398
vt 0.918284 0.182546
vt 0.904731 0.182543
vt 0.929251 0.182579
vt 0.124466 0.182449
vt 0.087358 0.280084
vt 0.073812 0.280055
vt 0.978825 0.718876
vt 0.989788 0.718893
vt 0.994872 0.816424
vt 0.965272 0.718878
vt 0.954305 0.718900
vt 0.521499 0.719769
vt 0.532469 0.719738
vt 0.507953 0.719797
vt 0.899628 0.280117
vt 0.888664 0.280135
vt 0.893767 0.182570
vt 0.913181 0.280119
vt 0.924148 0.280141
vt 0.062841 0.280024
vt 0.045339 0.387658
vt 0.031788 0.387642
vt 0.974545 0.611317
vt 0.985508 0.611328
vt 0.960992 0.611319
vt 0.950025 0.611332
vt 0.479426 0.612180
vt 0.490401 0.612161
vt 0.465874 0.612196
vt 0.895327 0.387717
vt 0.884364 0.387727
vt 0.908881 0.387719
vt 0.919848 0.387732
vt 0.020813 0.387624
vt 0.024531 0.500234
vt 0.010977 0.500230
vt 0.971463 0.498752
vt 0.982426 0.498756
vt 0.957909 0.498753
vt 0.946942 0.498759
vt 0.458563 0.499590
vt 0.469541 0.499584
vt 0.445010 0.499594
vt 0.892223 0.500320
vt 0.881260 0.500324
vt 0.905777 0.500321
vt 0.916744 0.500327
vt 0.000000 0.500224
vt 0.026555 0.612783
vt 0.013002 0.612790
vt 0.969972 0.386211
vt 0.980934 0.386208
vt 0.956418 0.386211
vt 0.945450 0.386208
vt 0.460536 0.387027
vt 0.471513 0.387033
vt 0.446983 0.387019
vt 0.890711 0.612902
vt 0.879748 0.612899
vt 0.904265 0.612902
vt 0.915232 0.612900
vt 0.002025 0.612796
vt 0.053033 0.720273
vt 0.039484 0.720295
vt 0.970465 0.278723
vt 0.981428 0.278712
vt 0.956911 0.278722
vt 0.945944 0.278710
vt 0.486970 0.279518
vt 0.497943 0.279539
vt 0.473421 0.279496
vt 0.891186 0.720438
vt 0.880223 0.720427
vt 0.904739 0.720437
vt 0.915707 0.720425
vt 0.028510 0.720316
vt 0.105581 0.817675
vt 0.092044 0.817717
vt 0.973336 0.181323
vt 0.984299 0.181301
vt 0.959783 0.181320
vt 0.948816 0.181294
vt 0.539489 0.182090
vt 0.550450 0.182133
vt 0.525951 0.182048
vt 0.894042 0.817907
vt 0.883079 0.817885
vt 0.907595 0.817905
vt 0.918562 0.817878
vt 0.081083 0.817760
vt 0.185804 0.899951
vt 0.172302 0.900027
vt 0.116525 0.817650
vt 0.196727 0.899907
vt 0.965424 0.099044
vt 0.978977 0.099050
vt 0.954459 0.098994
vt 0.619720 0.099770
vt 0.630643 0.099849
vt 0.606218 0.099695
vt 0.515008 0.182023
vt 0.595295 0.099651
vt 0.913230 0.900290
vt 0.899677 0.900296
vt 0.924196 0.900239
vt 0.161379 0.900105
vt 0.295212 0.962041
vt 0.281866 0.962192
vt 0.306049 0.961955
vt 0.974215 0.036968
vt 0.987767 0.036981
vt 0.963259 0.036863
vt 0.729303 0.037581
vt 0.740062 0.037739
vt 0.715956 0.037431
vt 0.705119 0.037344
vt 0.922052 0.962611
vt 0.908500 0.962624
vt 0.933008 0.962506
vt 0.271107 0.962350
vt 0.434687 0.998829
vt 0.422260 0.999174
vt 0.445010 0.998634
vt 0.986456 0.000243
vt 1.000000 0.000274
vt 0.975558 0.000000
vt 0.869962 0.000540
vt 0.879748 0.000903
vt 0.857535 0.000195
vt 0.847212 0.000000
vt 0.934553 0.999965
vt 0.921009 0.999996
vt 0.945450 0.999722
vt 0.412474 0.999537
vn 0.0033 0.5724 -0.8199
vn -0.0258 0.5806 -0.8138
vn 0.0235 -0.0093 -0.9997
vn 0.0251 -0.0262 -0.9993
vn -0.0201 0.9488 -0.3153
vn -0.0655 0.9476 -0.3127
vn -0.0354 0.9483 0.3153
vn -0.0797 0.9474 0.3099
vn -0.0367 0.5714 0.8198
vn -0.0630 0.5802 0.8120
vn -0.0236 -0.0267 0.9994
vn -0.0222 -0.0094 0.9997
vn -0.0020 -0.6062 0.7953
vn 0.0268 -0.5925 0.8051
vn 0.0200 -0.9533 0.3013
vn 0.0655 -0.9492 0.3078
vn 0.0347 -0.9538 -0.2984
vn 0.0795 -0.9494 -0.3039
vn 0.0368 -0.6067 -0.7940
vn 0.0637 -0.5927 -0.8029
vn -0.0667 0.5792 -0.8124
vn 0.0212 -0.0040 -0.9998
vn -0.1292 0.9409 -0.3129
vn -0.1420 0.9410 0.3070
vn -0.1002 0.5795 0.8088
vn -0.0201 -0.0036 0.9998
vn 0.0675 -0.5840 0.8089
vn 0.1293 -0.9416 0.3109
vn 0.1420 -0.9418 -0.3047
vn 0.1009 -0.5845 -0.8050
vn -0.0855 0.5772 -0.8121
vn 0.0199 -0.0026 -0.9998
vn -0.1583 0.9364 -0.3131
vn -0.1704 0.9366 0.3060
vn -0.1171 0.5778 0.8077
vn -0.0191 -0.0018 0.9998
vn 0.0861 -0.5800 0.8101
vn 0.1584 -0.9368 0.3120
vn 0.1704 -0.9371 -0.3046
vn 0.1176 -0.5807 -0.8055
vn -0.0976 0.5754 -0.8120
vn 0.0190 -0.0021 -0.9998
vn -0.1769 0.9330 -0.3133
vn -0.1884 0.9333 0.3056
vn -0.1278 0.5762 0.8072
vn -0.0184 -0.0010 0.9998
vn 0.0980 -0.5774 0.8106
vn 0.1769 -0.9333 0.3125
vn 0.1885 -0.9337 -0.3045
vn 0.1282 -0.5783 -0.8057
vn -0.1070 0.5736 -0.8121
vn 0.0182 -0.0020 -0.9998
vn -0.1913 0.9301 -0.3135
vn -0.2024 0.9305 0.3052
vn -0.1360 0.5747 0.8070
vn -0.0177 -0.0006 0.9998
vn 0.1074 -0.5753 0.8108
vn 0.1914 -0.9303 0.3128
vn 0.2025 -0.9308 -0.3043
vn 0.1364 -0.5765 -0.8057
vn -0.1157 0.5717 -0.8123
vn 0.0174 -0.0022 -0.9998
vn -0.2046 0.9272 -0.3137
vn -0.2152 0.9277 0.3049
vn -0.1434 0.5730 0.8068
vn -0.0168 -0.0004 0.9998
vn 0.1161 -0.5734 0.8110
vn 0.2046 -0.9274 0.3131
vn 0.2152 -0.9280 -0.3041
vn 0.1438 -0.5748 -0.8055
vn -0.1249 0.5694 -0.8125
vn 0.0165 -0.0027 -0.9998
vn -0.2187 0.9239 -0.3140
vn -0.2286 0.9245 0.3048
vn -0.1510 0.5712 0.8068
vn -0.0157 -0.0004 0.9998
vn 0.1255 -0.5713 0.8111
vn 0.2187 -0.9241 0.3133
vn 0.2287 -0.9249 -0.3038
vn 0.1515 -0.5732 -0.8052
vn -0.1362 0.5663 -0.8128
vn 0.0153 -0.0034 -0.9998
vn -0.2356 0.9196 -0.3143
vn -0.2448 0.9204 0.3048
vn -0.1601 0.5686 0.8069
vn -0.0143 -0.0004 0.9999
vn 0.1368 -0.5687 0.8111
vn 0.2357 -0.9199 0.3134
vn 0.2448 -0.9209 -0.3034
vn 0.1608 -0.5712 -0.8049
vn -0.1518 0.5614 -0.8134
vn 0.0136 -0.0049 -0.9999
vn -0.2593 0.9131 -0.3148
vn -0.2672 0.9142 0.3048
vn -0.1726 0.5644 0.8072
vn -0.0121 -0.0008 0.9999
vn 0.1529 -0.5649 0.8108
vn 0.2594 -0.9134 0.3135
vn 0.2673 -0.9148 -0.3027
vn 0.1737 -0.5684 -0.8042
vn -0.1776 0.5520 -0.8147
vn 0.0111 -0.0081 -0.9999
vn -0.2984 0.9007 -0.3157
vn -0.3042 0.9023 0.3053
vn -0.1928 0.5565 0.8081
vn -0.0077 -0.0019 0.9999
vn 0.1798 -0.5582 0.8100
vn 0.2987 -0.9014 0.3134
vn 0.3046 -0.9036 -0.3013
vn 0.1951 -0.5635 -0.8027
vn -0.2339 0.5258 -0.8178
vn 0.0070 -0.0181 -0.9998
vn -0.3844 0.8669 -0.3172
vn -0.3853 0.8701 0.3072
vn -0.2363 0.5345 0.8114
vn 0.0038 -0.0063 1.0000
vn 0.2408 -0.5407 0.8060
vn 0.3856 -0.8684 0.3115
vn 0.3870 -0.8728 -0.2972
vn 0.2439 -0.5513 -0.7978
vn -0.2680 0.4962 -0.8258
vn 0.0133 -0.0408 -0.9991
vn -0.4431 0.8372 -0.3205
vn -0.4404 0.8412 0.3137
vn -0.2605 0.5071 0.8216
vn 0.0214 -0.0249 0.9995
vn 0.2895 -0.5360 0.7930
vn 0.4464 -0.8412 0.3048
vn 0.4453 -0.8483 -0.2864
vn 0.2849 -0.5520 -0.7836
usemtl None
s 1
f 1/1/1 11/2/2 20/3/3 10/4/4
f 2/5/5 12/6/6 11/2/2 1/1/1
f 3/7/7 13/8/8 12/9/6 2/10/5
f 4/11/9 14/12/10 13/8/8 3/7/7
f 5/13/11 15/14/12 14/15/10 4/16/9
f 6/17/13 16/18/14 15/14/12 5/13/11
f 7/19/15 17/20/16 16/18/14 6/17/13
f 8/21/17 18/22/18 17/23/16 7/24/15
f 9/25/19 19/26/20 18/22/18 8/21/17
f 10/4/4 20/3/3 19/27/20 9/28/19
f 11/2/2 21/29/21 30/30/22 20/3/3
f 12/6/6 22/31/23 21/29/21 11/2/2
f 13/8/8 23/32/24 22/33/23 12/9/6
f 14/12/10 24/34/25 23/32/24 13/8/8
f 15/14/12 25/35/26 24/36/25 14/15/10
f 16/18/14 26/37/27 25/35/26 15/14/12
f 17/20/16 27/38/28 26/37/27 16/18/14
f 18/22/18 28/39/29 27/40/28 17/23/16
f 19/26/20 29/41/30 28/39/29 18/22/18
f 20/3/3 30/30/22 29/42/30 19/27/20
f 21/29/21 31/43/31 40/44/32 30/30/22
f 22/31/23 32/45/33 31/43/31 21/29/21
f 23/32/24 33/46/34 32/47/33 22/33/23
f 24/34/25 34/48/35 33/46/34 23/32/24
f 25/35/26 35/49/36 34/50/35 24/36/25
f 26/37/27 36/51/37 35/49/36 25/35/26
f 27/38/28 37/52/38 36/51/37 26/37/27
f 28/39/29 38/53/39 37/54/38 27/40/28
f 29/41/30 39/55/40 38/53/39 28/39/29
f 30/30/22 40/44/32 39/56/40 29/42/30
f 31/43/31 41/57/41 50/58/42 40/44/32
f 32/47/33 42/59/43 41/60/41 31/61/31
f 33/46/34 43/62/44 42/59/43 32/47/33
f 34/48/35 44/63/45 43/62/44 33/46/34
f 35/49/36 45/64/46 44/65/45 34/50/35
f 36/51/37 46/66/47 45/64/46 35/49/36
f 37/54/38 47/67/48 46/68/47 36/69/37
f 38/53/39 48/70/49 47/67/48 37/54/38
f 39/55/40 49/71/50 48/70/49 38/53/39
f 40/44/32 50/58/42 49/72/50 39/56/40
f 41/57/41 51/73/51 60/74/52 50/58/42
f 42/59/43 52/75/53 51/76/51 41/60/41
f 43/62/44 53/77/54 52/75/53 42/59/43
f 44/63/45 54/78/55 53/77/54 43/62/44
f 45/64/46 55/79/56 54/80/55 44/65/45
f 46/66/47 56/81/57 55/79/56 45/64/46
f 47/67/48 57/82/58 56/83/57 46/68/47
f 48/70/49 58/84/59 57/82/58 47/67/48
f 49/71/50 59/85/60 58/84/59 48/70/49
f 50/58/42 60/74/52 59/86/60 49/72/50
f 51/73/51 61/87/61 70/88/62 60/74/52
f 52/75/53 62/89/63 61/90/61 51/76/51
f 53/77/54 63/91/64 62/89/63 52/75/53
f 54/78/55 64/92/65 63/91/64 53/77/54
f 55/79/56 65/93/66 64/94/65 54/80/55
f 56/81/57 66/95/67 65/93/66 55/79/56
f 57/82/58 67/96/68 66/97/67 56/83/57
f 58/84/59 68/98/69 67/96/68 57/82/58
f 59/85/60 69/99/70 68/98/69 58/84/59
f 60/74/52 70/88/62 69/100/70 59/86/60
f 61/87/61 71/101/71 80/102/72 70/88/62
f 62/89/63 72/103/73 71/104/71 61/90/61
f 63/91/64 73/105/74 72/103/73 62/89/63
f 64/92/65 74/106/75 73/105/74 63/91/64
f 65/93/66 75/107/76 74/108/75 64/94/65
f 66/95/67 76/109/77 75/107/76 65/93/66
f 67/96/68 77/110/78 76/111/77 66/97/67
f 68/98/69 78/112/79 77/110/78 67/96/68
f 69/99/70 79/113/80 78/112/79 68/98/69
f 70/88/62 80/102/72 79/114/80 69/100/70
f 71/101/71 81/115/81 90/116/82 80/102/72
f 72/103/73 82/117/83 81/118/81 71/104/71
f 73/105/74 83/119/84 82/117/83 72/103/73
f 74/106/75 84/120/85 83/119/84 73/105/74
f 75/107/76 85/121/86 84/122/85 74/108/75
f 76/109/77 86/123/87 85/121/86 75/107/76
f 77/110/78 87/124/88 86/125/87 76/111/77
f 78/112/79 88/126/89 87/124/88 77/110/78
f 79/113/80 89/127/90 88/126/89 78/112/79
f 80/102/72 90/116/82 89/128/90 79/114/80
f 81/115/81 91/129/91 100/130/92 90/116/82
f 82/117/83 92/131/93 91/132/91 81/118/81
f 83/119/84 93/133/94 92/131/93 82/117/83
f 84/120/85 94/134/95 93/133/94 83/119/84
f 85/121/86 95/135/96 94/136/95 84/122/85
f 86/123/87 96/137/97 95/135/96 85/121/86
f 87/124/88 97/138/98 96/139/97 86/125/87
f 88/126/89 98/140/99 97/138/98 87/124/88
f 89/127/90 99/141/100 98/140/99 88/126/89
f 90/116/82 100/130/92 99/142/100 89/128/90
f 91/129/91 101/143/101 110/144/102 100/130/92
f 92/145/93 102/146/103 101/143/101 91/129/91
f 93/133/94 103/147/104 102/148/103 92/131/93
f 94/134/95 104/149/105 103/147/104 93/133/94
f 95/135/96 105/150/106 104/151/105 94/136/95
f 96/137/97 106/152/107 105/150/106 95/135/96
f 97/153/98 107/154/108 106/152/107 96/137/97
f 98/140/99 108/155/109 107/156/108 97/138/98
f 99/141/100 109/157/110 108/155/109 98/140/99
f 100/130/92 110/144/102 109/158/110 99/142/100
f 101/143/101 111/159/111 120/160/112 110/144/102
f 102/146/103 112/161/113 111/159/111 101/143/101
f 103/147/104 113/162/114 112/163/113 102/148/103
f 104/149/105 114/164/115 113/162/114 103/147/104
f 105/150/106 115/165/116 114/166/115 104/151/105
f 106/152/107 116/167/117 115/165/116 105/150/106
f 107/154/108 117/168/118 116/167/117 106/152/107
f 108/155/109 118/169/119 117/170/118 107/156/108
f 109/157/110 119/171/120 118/169/119 108/155/109
f 110/144/102 120/160/112 119/172/120 109/158/110
f 111/159/111 121/173/121 130/174/122 120/160/112
f 112/161/113 122/175/123 121/173/121 111/159/111
f 113/162/114 123/176/124 122/177/123 112/163/113
f 114/164/115 124/178/125 123/176/124 113/162/114
f 115/165/116 125/179/126 124/180/125 114/166/115
f 116/167/117 126/181/127 125/179/126 115/165/116
f 117/168/118 127/182/128 126/181/127 116/167/117
f 118/169/119 128/183/129 127/184/128 117/170/118
f 119/171/120 129/185/130 128/183/129 118/169/119
f 120/160/112 130/174/122 129/186/130 119/172/120
