# Blender v2.80 (sub 60) OBJ File: 'pylons.blend'
# www.blender.org
mtllib MainWireE_2.mtl
o BezierCurve.005_CUBezierCurve.006
v 173.071609 20.327751 87.936653
v 173.075928 20.352966 87.901764
v 173.085419 20.352993 87.859558
v 173.096481 20.327824 87.826157
v 173.104874 20.287067 87.814316
v 173.107391 20.246296 87.828568
v 173.103088 20.221081 87.863449
v 173.093582 20.221054 87.905655
v 173.082520 20.246223 87.939056
v 173.074127 20.286980 87.950897
v 171.386108 20.361450 87.588463
v 171.395081 20.386784 87.554558
v 171.403503 20.386784 87.512131
v 171.408173 20.361450 87.477371
v 171.407318 20.320456 87.463577
v 171.401260 20.279461 87.475998
v 171.392303 20.254128 87.509903
v 171.383881 20.254128 87.552338
v 171.379196 20.279461 87.587090
v 171.380051 20.320456 87.600891
v 168.835785 20.760281 87.102631
v 168.846741 20.785343 87.069107
v 168.854691 20.785408 87.026588
v 168.856613 20.760448 86.991302
v 168.851776 20.720001 86.976730
v 168.842010 20.679516 86.988449
v 168.831070 20.654453 87.021965
v 168.823120 20.654388 87.064491
v 168.821198 20.679344 87.099777
v 168.826035 20.719791 87.114349
v 165.601059 21.464899 86.510887
v 165.612946 21.489763 86.477539
v 165.620651 21.489880 86.434967
v 165.621246 21.465202 86.399437
v 165.614502 21.425158 86.384521
v 165.602982 21.385042 86.395912
v 165.591095 21.360178 86.429260
v 165.583389 21.360062 86.471832
v 165.582794 21.384739 86.507355
v 165.589539 21.424784 86.522278
v 161.860260 22.414892 85.844398
v 161.872711 22.439613 85.811157
v 161.880264 22.439770 85.768555
v 161.880035 22.415298 85.732880
v 161.872116 22.375549 85.717751
v 161.859528 22.335703 85.728951
v 161.847076 22.310982 85.762199
v 161.839523 22.310825 85.804794
v 161.839752 22.335297 85.840477
v 161.847672 22.375046 85.855598
v 157.790710 23.549824 85.134140
v 157.803543 23.574438 85.100960
v 157.810974 23.574629 85.058334
v 157.810135 23.550323 85.022560
v 157.801376 23.510809 85.007278
v 157.788025 23.471174 85.018349
v 157.775192 23.446560 85.051529
v 157.767761 23.446369 85.094147
v 157.768585 23.470673 85.129929
v 157.777344 23.510189 85.145203
v 153.569458 24.809280 84.410995
v 153.582596 24.833803 84.377869
v 153.589905 24.834030 84.335228
v 153.588577 24.809875 84.299362
v 153.579132 24.770565 84.283966
v 153.565155 24.731113 84.294930
v 153.552017 24.706591 84.328056
v 153.544708 24.706364 84.370697
v 153.546036 24.730518 84.406563
v 153.555481 24.769829 84.421959
v 149.373489 26.132854 83.705864
v 149.386902 26.157293 83.672783
v 149.394073 26.157560 83.630119
v 149.392273 26.133554 83.594177
v 149.382187 26.094444 83.578674
v 149.367661 26.055170 83.589539
v 149.354248 26.030731 83.622627
v 149.347061 26.030464 83.665283
v 149.348862 26.054470 83.701233
v 149.358963 26.093578 83.716736
v 145.379761 27.460133 83.049629
v 145.393433 27.484484 83.016594
v 145.400452 27.484802 82.973907
v 145.398132 27.460968 82.937874
v 145.387375 27.422085 82.922264
v 145.372269 27.383003 82.933037
v 145.358582 27.358650 82.966072
v 145.351562 27.358332 83.008766
v 145.353882 27.382166 83.044792
v 145.364655 27.421051 83.060402
v 141.765289 28.730677 82.473183
v 141.779266 28.754923 82.440193
v 141.786072 28.755318 82.397469
v 141.783096 28.731712 82.361336
v 141.771500 28.693123 82.345596
v 141.755692 28.654289 82.356255
v 141.741714 28.630045 82.389244
v 141.734909 28.629648 82.431969
v 141.737869 28.653254 82.468102
v 141.749481 28.691843 82.483849
v 138.707260 29.883965 82.007439
v 138.721649 29.908051 81.974510
v 138.728104 29.908579 81.931732
v 138.724152 29.885353 81.895447
v 138.711288 29.847240 81.879517
v 138.694458 29.808800 81.890022
v 138.680054 29.784714 81.922951
v 138.673599 29.784185 81.965729
v 138.677551 29.807411 82.002007
v 138.690414 29.845524 82.017944
v 136.383636 30.859053 81.683380
v 136.398834 30.882788 81.650558
v 136.404541 30.883642 81.607681
v 136.398575 30.861290 81.571129
v 136.383194 30.824268 81.554855
v 136.364304 30.786718 81.565079
v 136.349091 30.762983 81.597900
v 136.343399 30.762129 81.640778
v 136.349365 30.784481 81.677330
v 136.364746 30.821503 81.693604
v 134.974106 31.593414 81.531960
v 134.991165 31.616100 81.499313
v 134.995071 31.617971 81.456268
v 134.984299 31.598316 81.419266
v 134.962982 31.564642 81.402435
v 134.939255 31.529808 81.412209
v 134.922195 31.507122 81.444855
v 134.918289 31.505251 81.487900
v 134.929062 31.524906 81.524902
v 134.950378 31.558580 81.541733
vt 0.387376 0.000832
vt 0.256050 0.042008
vt 0.242385 0.041816
vt 0.374492 0.000433
vt 0.398051 0.001043
vt 0.267147 0.042107
vt 0.986131 0.997927
vt 0.966364 0.956801
vt 0.980247 0.956771
vt 1.000000 0.997870
vt 0.975004 0.998227
vt 0.955151 0.956948
vt 0.775499 0.999390
vt 0.643085 0.957923
vt 0.654099 0.957713
vt 0.785671 0.998957
vt 0.762614 0.999788
vt 0.629419 0.958114
vt 0.751939 1.000000
vt 0.618322 0.958214
vt 0.887515 0.000057
vt 0.867378 0.041853
vt 0.853495 0.041823
vt 0.873646 0.000000
vt 0.898643 0.000357
vt 0.878590 0.042000
vt 0.231370 0.041606
vt 0.364319 0.000000
vt 0.156237 0.106564
vt 0.142407 0.106465
vt 0.167423 0.106613
vt 0.948845 0.892256
vt 0.962732 0.892237
vt 0.937612 0.892333
vt 0.543054 0.893235
vt 0.554245 0.893125
vt 0.529224 0.893333
vt 0.518037 0.893383
vt 0.849771 0.106700
vt 0.835884 0.106682
vt 0.861004 0.106777
vt 0.131216 0.106356
vt 0.086064 0.189728
vt 0.072193 0.189675
vt 0.947943 0.809078
vt 0.959174 0.809101
vt 0.973967 0.892285
vt 0.934055 0.809090
vt 0.922815 0.809134
vt 0.472840 0.810006
vt 0.484077 0.809945
vt 0.458968 0.810059
vt 0.821068 0.190000
vt 0.809837 0.190023
vt 0.824648 0.106729
vt 0.834956 0.190012
vt 0.846196 0.190055
vt 0.060956 0.189614
vt 0.043181 0.286771
vt 0.029296 0.286745
vt 0.936277 0.712038
vt 0.947506 0.712047
vt 0.922388 0.712047
vt 0.911146 0.712068
vt 0.429960 0.712922
vt 0.441211 0.712891
vt 0.416074 0.712947
vt 0.809394 0.287138
vt 0.798165 0.287146
vt 0.823283 0.287146
vt 0.834525 0.287168
vt 0.018045 0.286715
vt 0.025143 0.392988
vt 0.011254 0.392982
vt 0.928111 0.605827
vt 0.939340 0.605825
vt 0.914223 0.605831
vt 0.902979 0.605838
vt 0.411941 0.606674
vt 0.423196 0.606666
vt 0.398052 0.606679
vt 0.801228 0.393421
vt 0.789999 0.393419
vt 0.815117 0.393426
vt 0.826360 0.393432
vt 0.000000 0.392974
vt 0.029492 0.503681
vt 0.015604 0.503692
vt 0.923820 0.495142
vt 0.935048 0.495133
vt 0.909932 0.495144
vt 0.898687 0.495137
vt 0.416317 0.495954
vt 0.427572 0.495964
vt 0.402429 0.495943
vt 0.796939 0.504163
vt 0.785711 0.504154
vt 0.810828 0.504165
vt 0.822072 0.504158
vt 0.004350 0.503702
vt 0.053765 0.614155
vt 0.039880 0.614181
vt 0.923776 0.384682
vt 0.935004 0.384666
vt 0.909887 0.384680
vt 0.898643 0.384661
vt 0.440621 0.385454
vt 0.451871 0.385481
vt 0.426736 0.385429
vt 0.796899 0.614678
vt 0.785671 0.614661
vt 0.810788 0.614676
vt 0.822032 0.614657
vt 0.028629 0.614207
vt 0.095495 0.719715
vt 0.081616 0.719755
vt 0.928349 0.279142
vt 0.939577 0.279118
vt 0.914460 0.279136
vt 0.903217 0.279103
vt 0.482387 0.279866
vt 0.493631 0.279911
vt 0.468509 0.279826
vt 0.801480 0.720276
vt 0.790252 0.720252
vt 0.815369 0.720270
vt 0.826612 0.720237
vt 0.070373 0.719800
vt 0.152213 0.815662
vt 0.138346 0.815721
vt 0.106707 0.719693
vt 0.163421 0.815632
vt 0.924023 0.183207
vt 0.937911 0.183219
vt 0.912781 0.183157
vt 0.539151 0.183882
vt 0.550381 0.183948
vt 0.525284 0.183822
vt 0.457296 0.279804
vt 0.514076 0.183793
vt 0.824942 0.816259
vt 0.811054 0.816271
vt 0.836184 0.816209
vt 0.127116 0.815788
vt 0.221442 0.897296
vt 0.207599 0.897383
vt 0.232639 0.897255
vt 0.938943 0.101595
vt 0.952829 0.101616
vt 0.927706 0.101518
vt 0.608450 0.102190
vt 0.619651 0.102290
vt 0.594608 0.102103
vt 0.583410 0.102062
vt 0.839884 0.897960
vt 0.825998 0.897981
vt 0.851120 0.897883
vt 0.196398 0.897483
vt 0.300651 0.959892
vt 0.286885 0.960035
vt 0.311818 0.959830
vt 0.959572 0.039023
vt 0.973451 0.039064
vt 0.948356 0.038892
vt 0.687843 0.039473
vt 0.698949 0.039641
vt 0.674078 0.039330
vt 0.662911 0.039268
vt 0.860585 0.960712
vt 0.846706 0.960753
vt 0.871801 0.960580
vt 0.275780 0.960203
vt 0.387020 0.998678
vt 0.373605 0.998954
vt 0.398052 0.998563
vt 0.986161 0.000264
vt 0.999998 0.000356
vt 0.975056 0.000000
vt 0.774997 0.000391
vt 0.785671 0.000724
vt 0.761581 0.000114
vt 0.750549 0.000000
vt 0.887537 0.999903
vt 0.873700 0.999995
vt 0.898642 0.999639
vt 0.362930 0.999287
vn -0.1549 0.5723 0.8053
vn -0.1097 0.5784 0.8083
vn -0.1958 -0.0129 0.9805
vn -0.2027 -0.0296 0.9788
vn -0.0450 0.9495 0.3104
vn 0.0195 0.9468 0.3211
vn 0.0828 0.9475 -0.3086
vn 0.1411 0.9460 -0.2918
vn 0.1774 0.5678 -0.8038
vn 0.2075 0.5768 -0.7900
vn 0.2017 -0.0319 -0.9789
vn 0.1937 -0.0132 -0.9810
vn 0.1492 -0.6089 -0.7791
vn 0.1064 -0.5940 -0.7974
vn 0.0433 -0.9532 -0.2990
vn -0.0202 -0.9484 -0.3163
vn -0.0774 -0.9554 0.2851
vn -0.1390 -0.9494 0.2816
vn -0.1715 -0.6112 0.7726
vn -0.2063 -0.5954 0.7765
vn -0.0455 0.5736 0.8179
vn -0.1849 -0.0072 0.9827
vn 0.1117 0.9346 0.3377
vn 0.2258 0.9351 -0.2730
vn 0.2528 0.5754 -0.7778
vn 0.1828 -0.0042 -0.9831
vn 0.0433 -0.5803 -0.8132
vn -0.1121 -0.9353 -0.3357
vn -0.2252 -0.9366 0.2683
vn -0.2532 -0.5835 0.7717
vn -0.0145 0.5685 0.8226
vn -0.1791 -0.0060 0.9838
vn 0.1559 0.9254 0.3454
vn 0.2664 0.9268 -0.2647
vn 0.2745 0.5724 -0.7726
vn 0.1775 -0.0005 -0.9841
vn 0.0130 -0.5723 -0.8199
vn -0.1561 -0.9258 -0.3442
vn -0.2661 -0.9277 0.2619
vn -0.2749 -0.5770 0.7690
vn 0.0047 0.5643 0.8255
vn -0.1752 -0.0058 0.9845
vn 0.1830 0.9187 0.3500
vn 0.2911 0.9207 -0.2598
vn 0.2875 0.5699 -0.7698
vn 0.1740 0.0014 -0.9847
vn -0.0057 -0.5669 -0.8237
vn -0.1832 -0.9189 -0.3493
vn -0.2909 -0.9213 0.2579
vn -0.2879 -0.5730 0.7672
vn 0.0187 0.5608 0.8277
vn -0.1721 -0.0061 0.9850
vn 0.2025 0.9133 0.3533
vn 0.3087 0.9159 -0.2566
vn 0.2966 0.5677 -0.7679
vn 0.1711 0.0027 -0.9852
vn -0.0195 -0.5628 -0.8263
vn -0.2026 -0.9135 -0.3528
vn -0.3085 -0.9164 0.2550
vn -0.2970 -0.5702 0.7659
vn 0.0303 0.5575 0.8296
vn -0.1693 -0.0067 0.9855
vn 0.2184 0.9086 0.3560
vn 0.3229 0.9117 -0.2541
vn 0.3037 0.5658 -0.7666
vn 0.1684 0.0038 -0.9857
vn -0.0310 -0.5592 -0.8285
vn -0.2185 -0.9087 -0.3556
vn -0.3228 -0.9121 0.2526
vn -0.3041 -0.5679 0.7648
vn 0.0413 0.5541 0.8314
vn -0.1663 -0.0076 0.9860
vn 0.2332 0.9040 0.3584
vn 0.3358 0.9076 -0.2520
vn 0.3098 0.5638 -0.7656
vn 0.1654 0.0048 -0.9862
vn -0.0420 -0.5557 -0.8303
vn -0.2333 -0.9040 -0.3581
vn -0.3357 -0.9080 0.2504
vn -0.3102 -0.5660 0.7638
vn 0.0531 0.5501 0.8334
vn -0.1628 -0.0089 0.9866
vn 0.2488 0.8987 0.3609
vn 0.3492 0.9031 -0.2499
vn 0.3158 0.5616 -0.7647
vn 0.1617 0.0058 -0.9868
vn -0.0539 -0.5517 -0.8322
vn -0.2489 -0.8988 -0.3607
vn -0.3491 -0.9036 0.2481
vn -0.3164 -0.5641 0.7627
vn 0.0680 0.5445 0.8360
vn -0.1580 -0.0112 0.9874
vn 0.2682 0.8919 0.3640
vn 0.3655 0.8972 -0.2477
vn 0.3226 0.5588 -0.7640
vn 0.1565 0.0070 -0.9876
vn -0.0690 -0.5467 -0.8344
vn -0.2682 -0.8920 -0.3638
vn -0.3653 -0.8980 0.2452
vn -0.3234 -0.5621 0.7612
vn 0.0906 0.5352 0.8398
vn -0.1505 -0.0156 0.9885
vn 0.2971 0.8809 0.3683
vn 0.3893 0.8880 -0.2448
vn 0.3320 0.5540 -0.7634
vn 0.1478 0.0088 -0.9890
vn -0.0923 -0.5387 -0.8374
vn -0.2971 -0.8810 -0.3682
vn -0.3892 -0.8891 0.2406
vn -0.3335 -0.5594 0.7588
vn 0.1361 0.5131 0.8474
vn -0.1352 -0.0271 0.9904
vn 0.3551 0.8558 0.3761
vn 0.4367 0.8668 -0.2408
vn 0.3493 0.5428 -0.7637
vn 0.1282 0.0120 -0.9917
vn -0.1404 -0.5208 -0.8420
vn -0.3554 -0.8557 -0.3760
vn -0.4368 -0.8693 0.2311
vn -0.3536 -0.5547 0.7531
vn 0.1648 0.4925 0.8545
vn -0.1291 -0.0438 0.9906
vn 0.3947 0.8362 0.3807
vn 0.4686 0.8491 -0.2436
vn 0.3579 0.5280 -0.7701
vn 0.1097 0.0058 -0.9939
vn -0.1765 -0.5116 -0.8408
vn -0.3951 -0.8361 -0.3806
vn -0.4695 -0.8555 0.2185
vn -0.3706 -0.5579 0.7425
usemtl None
s 1
f 1/1/1 11/2/2 20/3/3 10/4/4
f 2/5/5 12/6/6 11/2/2 1/1/1
f 3/7/7 13/8/8 12/9/6 2/10/5
f 4/11/9 14/12/10 13/8/8 3/7/7
f 5/13/11 15/14/12 14/15/10 4/16/9
f 6/17/13 16/18/14 15/14/12 5/13/11
f 7/19/15 17/20/16 16/18/14 6/17/13
f 8/21/17 18/22/18 17/23/16 7/24/15
f 9/25/19 19/26/20 18/22/18 8/21/17
f 10/4/4 20/3/3 19/27/20 9/28/19
f 11/2/2 21/29/21 30/30/22 20/3/3
f 12/6/6 22/31/23 21/29/21 11/2/2
f 13/8/8 23/32/24 22/33/23 12/9/6
f 14/12/10 24/34/25 23/32/24 13/8/8
f 15/14/12 25/35/26 24/36/25 14/15/10
f 16/18/14 26/37/27 25/35/26 15/14/12
f 17/20/16 27/38/28 26/37/27 16/18/14
f 18/22/18 28/39/29 27/40/28 17/23/16
f 19/26/20 29/41/30 28/39/29 18/22/18
f 20/3/3 30/30/22 29/42/30 19/27/20
f 21/29/21 31/43/31 40/44/32 30/30/22
f 22/33/23 32/45/33 31/46/31 21/47/21
f 23/32/24 33/48/34 32/45/33 22/33/23
f 24/34/25 34/49/35 33/48/34 23/32/24
f 25/35/26 35/50/36 34/51/35 24/36/25
f 26/37/27 36/52/37 35/50/36 25/35/26
f 27/40/28 37/53/38 36/54/37 26/55/27
f 28/39/29 38/56/39 37/53/38 27/40/28
f 29/41/30 39/57/40 38/56/39 28/39/29
f 30/30/22 40/44/32 39/58/40 29/42/30
f 31/43/31 41/59/41 50/60/42 40/44/32
f 32/45/33 42/61/43 41/62/41 31/46/31
f 33/48/34 43/63/44 42/61/43 32/45/33
f 34/49/35 44/64/45 43/63/44 33/48/34
f 35/50/36 45/65/46 44/66/45 34/51/35
f 36/52/37 46/67/47 45/65/46 35/50/36
f 37/53/38 47/68/48 46/69/47 36/54/37
f 38/56/39 48/70/49 47/68/48 37/53/38
f 39/57/40 49/71/50 48/70/49 38/56/39
f 40/44/32 50/60/42 49/72/50 39/58/40
f 41/59/41 51/73/51 60/74/52 50/60/42
f 42/61/43 52/75/53 51/76/51 41/62/41
f 43/63/44 53/77/54 52/75/53 42/61/43
f 44/64/45 54/78/55 53/77/54 43/63/44
f 45/65/46 55/79/56 54/80/55 44/66/45
f 46/67/47 56/81/57 55/79/56 45/65/46
f 47/68/48 57/82/58 56/83/57 46/69/47
f 48/70/49 58/84/59 57/82/58 47/68/48
f 49/71/50 59/85/60 58/84/59 48/70/49
f 50/60/42 60/74/52 59/86/60 49/72/50
f 51/73/51 61/87/61 70/88/62 60/74/52
f 52/75/53 62/89/63 61/90/61 51/76/51
f 53/77/54 63/91/64 62/89/63 52/75/53
f 54/78/55 64/92/65 63/91/64 53/77/54
f 55/79/56 65/93/66 64/94/65 54/80/55
f 56/81/57 66/95/67 65/93/66 55/79/56
f 57/82/58 67/96/68 66/97/67 56/83/57
f 58/84/59 68/98/69 67/96/68 57/82/58
f 59/85/60 69/99/70 68/98/69 58/84/59
f 60/74/52 70/88/62 69/100/70 59/86/60
f 61/87/61 71/101/71 80/102/72 70/88/62
f 62/89/63 72/103/73 71/104/71 61/90/61
f 63/91/64 73/105/74 72/103/73 62/89/63
f 64/92/65 74/106/75 73/105/74 63/91/64
f 65/93/66 75/107/76 74/108/75 64/94/65
f 66/95/67 76/109/77 75/107/76 65/93/66
f 67/96/68 77/110/78 76/111/77 66/97/67
f 68/98/69 78/112/79 77/110/78 67/96/68
f 69/99/70 79/113/80 78/112/79 68/98/69
f 70/88/62 80/102/72 79/114/80 69/100/70
f 71/101/71 81/115/81 90/116/82 80/102/72
f 72/103/73 82/117/83 81/118/81 71/104/71
f 73/105/74 83/119/84 82/117/83 72/103/73
f 74/106/75 84/120/85 83/119/84 73/105/74
f 75/107/76 85/121/86 84/122/85 74/108/75
f 76/109/77 86/123/87 85/121/86 75/107/76
f 77/110/78 87/124/88 86/125/87 76/111/77
f 78/112/79 88/126/89 87/124/88 77/110/78
f 79/113/80 89/127/90 88/126/89 78/112/79
f 80/102/72 90/116/82 89/128/90 79/114/80
f 81/115/81 91/129/91 100/130/92 90/116/82
f 82/131/83 92/132/93 91/129/91 81/115/81
f 83/119/84 93/133/94 92/134/93 82/117/83
f 84/120/85 94/135/95 93/133/94 83/119/84
f 85/121/86 95/136/96 94/137/95 84/122/85
f 86/123/87 96/138/97 95/136/96 85/121/86
f 87/139/88 97/140/98 96/138/97 86/123/87
f 88/126/89 98/141/99 97/142/98 87/124/88
f 89/127/90 99/143/100 98/141/99 88/126/89
f 90/116/82 100/130/92 99/144/100 89/128/90
f 91/129/91 101/145/101 110/146/102 100/130/92
f 92/132/93 102/147/103 101/145/101 91/129/91
f 93/133/94 103/148/104 102/149/103 92/134/93
f 94/135/95 104/150/105 103/148/104 93/133/94
f 95/136/96 105/151/106 104/152/105 94/137/95
f 96/138/97 106/153/107 105/151/106 95/136/96
f 97/140/98 107/154/108 106/153/107 96/138/97
f 98/141/99 108/155/109 107/156/108 97/142/98
f 99/143/100 109/157/110 108/155/109 98/141/99
f 100/130/92 110/146/102 109/158/110 99/144/100
f 101/145/101 111/159/111 120/160/112 110/146/102
f 102/147/103 112/161/113 111/159/111 101/145/101
f 103/148/104 113/162/114 112/163/113 102/149/103
f 104/150/105 114/164/115 113/162/114 103/148/104
f 105/151/106 115/165/116 114/166/115 104/152/105
f 106/153/107 116/167/117 115/165/116 105/151/106
f 107/154/108 117/168/118 116/167/117 106/153/107
f 108/155/109 118/169/119 117/170/118 107/156/108
f 109/157/110 119/171/120 118/169/119 108/155/109
f 110/146/102 120/160/112 119/172/120 109/158/110
f 111/159/111 121/173/121 130/174/122 120/160/112
f 112/161/113 122/175/123 121/173/121 111/159/111
f 113/162/114 123/176/124 122/177/123 112/163/113
f 114/164/115 124/178/125 123/176/124 113/162/114
f 115/165/116 125/179/126 124/180/125 114/166/115
f 116/167/117 126/181/127 125/179/126 115/165/116
f 117/168/118 127/182/128 126/181/127 116/167/117
f 118/169/119 128/183/129 127/184/128 117/170/118
f 119/171/120 129/185/130 128/183/129 118/169/119
f 120/160/112 130/174/122 129/186/130 119/172/120
