# Blender v2.80 (sub 60) OBJ File: 'rockyboi.blend'
# www.blender.org
mtllib Moon-vines.mtl
o Cube.002_Cube.005
v 44.121498 49.716797 0.368772
v 43.621498 49.716797 0.368772
v 43.621498 49.716797 -0.131228
v 44.121498 49.716797 -0.131228
v 46.998589 41.097336 -0.538488
v 46.498589 41.097336 -0.538488
v 46.498589 41.097336 -1.038488
v 46.998589 41.097336 -1.038488
v 48.219284 57.635731 -1.622734
v 48.300285 57.635731 -1.468456
v 48.401394 58.021782 -1.521544
v 48.320389 58.021782 -1.675822
v 48.192696 45.577202 -1.608775
v 48.273701 45.577202 -1.454497
v 48.427979 45.577202 -1.535502
v 48.346973 45.577202 -1.689780
v 47.264767 57.383057 0.814847
v 47.060825 57.383057 0.870876
v 47.097458 57.741783 1.004225
v 47.301403 57.741783 0.948196
v 47.255070 49.649715 0.779550
v 47.051125 49.649715 0.835579
v 47.107155 49.649715 1.039522
v 47.311100 49.649715 0.983493
v 30.791033 37.488045 -1.017884
v 30.291033 37.488045 -1.017884
v 30.291033 37.488045 -1.517884
v 30.791033 37.488045 -1.517884
v 29.216013 49.361958 -0.575433
v 29.136831 49.361958 -0.754673
v 28.984898 49.647369 -0.687555
v 29.064079 49.647369 -0.508315
v 29.229666 43.308907 -0.581464
v 29.150484 43.308907 -0.760705
v 28.971245 43.308907 -0.681523
v 29.050426 43.308907 -0.502283
v 44.121498 57.067509 0.368772
v 43.579578 57.081852 0.352083
v 43.605446 57.081852 -0.146575
v 44.121498 57.067509 -0.131228
v 44.350918 57.295399 0.229727
v 44.200546 57.295399 -0.247126
v 44.214104 57.795197 -0.251401
v 44.364475 57.795197 0.225452
v 46.405983 57.234108 -0.418316
v 46.255611 57.234108 -0.895168
v 46.885475 57.589500 0.363737
v 46.998589 56.975555 -0.538488
v 46.498589 56.975555 -0.538488
v 46.498589 56.975555 -1.038488
v 46.998589 56.975555 -1.038488
v 47.043610 57.285378 -1.225758
v 47.276047 57.285378 -0.783069
v 47.213631 57.780380 -0.750296
v 47.803673 57.407639 -1.624835
v 48.036110 57.407639 -1.182147
v 48.192696 57.318275 -1.608775
v 48.273701 57.318275 -1.454497
v 47.138836 57.144016 0.356471
v 46.934895 57.144016 0.412501
v 47.130714 57.613125 0.326910
v 47.237709 57.266582 0.716358
v 47.033764 57.266582 0.772388
v 47.255070 57.096966 0.779550
v 47.051125 57.096966 0.835579
v 43.345303 57.531826 -0.187313
v 43.293571 57.531826 0.310004
v 31.067226 50.033363 -0.961800
v 31.118958 50.033363 -1.459116
v 30.874870 50.468998 -1.484507
v 30.823139 50.468998 -0.987190
v 30.791033 49.526112 -1.017884
v 30.336439 49.558796 -0.971069
v 30.235416 49.558796 -1.449749
v 30.791033 49.526112 -1.517884
v 29.979933 50.041210 -1.293320
v 30.181978 50.041210 -0.835959
v 48.187786 58.011314 -1.622800
v 48.280647 57.988228 -1.458145
vn 0.5712 -0.5185 0.6362
vn 0.0966 0.7334 0.6728
vn 0.5521 -0.0978 0.8280
vn -0.5244 -0.7372 0.4260
vn -0.7339 -0.4932 0.4670
vn 0.6758 -0.6538 0.3401
vn -0.3991 0.6391 0.6575
vn -0.8589 0.0458 -0.5101
vn -0.4031 -0.5762 0.7110
vn -0.3024 0.6869 0.6608
vn -0.3375 0.6891 0.6412
vn 0.4470 -0.4338 0.7823
vn 0.8213 -0.5334 0.2024
vn 0.6324 -0.3834 -0.6731
vn -0.0537 -0.3947 -0.9172
vn -0.3942 0.4577 0.7969
vn -0.7620 -0.5767 -0.2944
vn -0.2955 -0.5767 0.7616
vn 0.6779 -0.7240 0.1273
vn -0.6323 -0.1705 -0.7557
vn 0.2435 -0.5767 -0.7798
vn 0.7127 0.6496 0.2648
vn 0.7802 -0.5767 0.2423
vn 0.7620 -0.5767 0.2944
vn -0.1318 -0.3416 -0.9305
vn 0.0757 -0.4981 -0.8638
vn 0.6301 -0.3700 -0.6827
vn -0.5776 0.5751 -0.5793
vn 0.5773 0.5773 0.5773
vn 0.5773 0.5773 -0.5773
vn -0.0678 -0.3485 -0.9348
vn -0.8545 0.4577 -0.2452
vn 0.4038 -0.5773 -0.7096
vn 0.7098 -0.5762 0.4052
vn -0.1140 0.5289 0.8410
vn -0.0867 -0.4312 0.8980
vn 0.6621 -0.2479 0.7072
vn -0.7796 -0.5773 -0.2428
vn -0.2148 0.7627 -0.6100
vn -0.2793 0.6590 -0.6984
vn -0.5773 -0.5773 0.5773
vn 0.5773 -0.5773 -0.5773
vn 0.5773 -0.5773 0.5773
vn -0.5777 0.5744 -0.5798
vn 0.5408 -0.4464 -0.7129
vn 0.5539 -0.1572 -0.8176
vn 0.6576 0.7506 -0.0643
vn 0.4420 0.7608 0.4752
vn -0.5299 -0.5248 -0.6662
vn -0.5011 -0.7660 0.4027
vn -0.5084 -0.1910 -0.8397
vn -0.5776 0.5750 0.5793
vn 0.6114 -0.6239 0.4868
vn -0.0983 -0.5636 -0.8201
vn -0.2618 0.7751 -0.5749
vn -0.5773 -0.5773 -0.5773
vn -0.5463 0.6153 -0.5683
vn -0.4940 -0.6464 0.5814
vn 0.7397 -0.6323 0.2302
vn -0.3660 -0.2927 -0.8834
vn -0.3106 0.0338 0.9499
vn -0.9583 0.0338 -0.2836
vn -0.9616 -0.1599 0.2229
vn 0.9346 -0.1451 -0.3246
vn -0.6312 0.6657 0.3980
vn 0.4777 0.0458 -0.8773
vn -0.7096 -0.5773 -0.4038
vn 0.6855 0.6376 0.3514
vn 0.6504 -0.3458 0.6762
vn 0.2956 -0.5767 -0.7616
vn -0.1877 -0.1827 0.9651
vn -0.2428 -0.5773 0.7795
vn 0.2517 0.6301 -0.7345
vn 0.2887 0.6916 0.6620
vn -0.5777 0.5745 0.5798
vn -0.2911 0.5954 -0.7488
vn 0.4625 -0.2575 0.8484
usemtl Material.003
s 1
f 41//1 44//2 37//3
f 60//4 49//5 48//6
f 19//7 65//8 23//9
f 67//10 71//11 68//12
f 53//13 51//14 52//15
f 32//16 35//17 36//18
f 60//4 48//6 59//19
f 51//14 50//20 52//15
f 16//21 11//22 15//23
f 35//17 33//24 36//18
f 39//25 42//26 40//27
f 27//28 25//29 28//30
f 30//31 35//17 31//32
f 23//9 21//33 24//34
f 77//35 73//36 72//37
f 15//23 13//38 16//21
f 43//39 67//10 44//2
f 66//40 42//26 39//25
f 6//41 8//42 5//43
f 3//44 1//29 4//30
f 69//45 72//37 75//46
f 61//47 53//13 54//48
f 48//6 53//13 59//19
f 49//5 46//49 50//20
f 40//27 41//1 37//3
f 60//4 45//50 49//5
f 4//30 37//3 1//29
f 5//43 51//14 48//6
f 46//49 41//1 42//26
f 74//51 26//52 73//36
f 56//53 52//15 55//54
f 78//55 52//15 46//49
f 25//29 75//46 72//37
f 7//56 49//5 50//20
f 8//42 50//20 51//14
f 77//35 71//11 76//57
f 6//41 48//6 49//5
f 63//58 59//19 62//59
f 9//60 56//53 55//54
f 58//61 9//60 57//62
f 24//34 19//7 23//9
f 11//22 58//61 15//23
f 3//44 40//27 4//30
f 18//63 62//59 17//64
f 61//47 54//48 47//65
f 65//8 17//64 64//66
f 22//67 64//66 21//33
f 20//68 24//34 64//66
f 29//69 34//70 30//31
f 29//69 77//35 32//16
f 73//36 30//31 74//51
f 68//12 39//25 38//71
f 45//50 44//2 41//1
f 26//52 72//37 73//36
f 3//44 38//71 39//25
f 57//62 14//72 58//61
f 57//62 9//60 12//73
f 79//74 12//73 78//55
f 54//48 53//13 56//53
f 19//7 47//65 18//63
f 47//65 60//4 63//58
f 18//63 47//65 63//58
f 18//63 65//8 19//7
f 65//8 22//67 23//9
f 38//71 2//75 37//3
f 2//75 1//29 37//3
f 37//3 44//2 38//71
f 44//2 67//10 38//71
f 77//35 72//37 68//12
f 77//35 68//12 71//11
f 68//12 38//71 67//10
f 32//16 31//32 35//17
f 16//21 12//73 11//22
f 35//17 34//70 33//24
f 27//28 26//52 25//29
f 30//31 34//70 35//17
f 31//32 76//57 30//31
f 76//57 74//51 30//31
f 23//9 22//67 21//33
f 15//23 14//72 13//38
f 43//39 66//40 67//10
f 75//46 28//30 27//28
f 74//51 76//57 70//76
f 75//46 27//28 74//51
f 69//45 75//46 70//76
f 75//46 74//51 70//76
f 70//76 66//40 69//45
f 66//40 43//39 42//26
f 39//25 69//45 66//40
f 6//41 7//56 8//42
f 3//44 2//75 1//29
f 69//45 68//12 72//37
f 61//47 59//19 53//13
f 48//6 51//14 53//13
f 49//5 45//50 46//49
f 40//27 42//26 41//1
f 60//4 47//65 45//50
f 4//30 40//27 37//3
f 5//43 8//42 51//14
f 46//49 45//50 41//1
f 74//51 27//28 26//52
f 56//53 53//13 52//15
f 42//26 43//39 46//49
f 43//39 78//55 46//49
f 78//55 9//60 55//54
f 52//15 50//20 46//49
f 78//55 55//54 52//15
f 25//29 28//30 75//46
f 7//56 6//41 49//5
f 8//42 7//56 50//20
f 71//11 67//10 70//76
f 67//10 66//40 70//76
f 70//76 76//57 71//11
f 76//57 31//32 77//35
f 31//32 32//16 77//35
f 6//41 5//43 48//6
f 63//58 60//4 59//19
f 9//60 10//77 56//53
f 58//61 10//77 9//60
f 24//34 20//68 19//7
f 11//22 79//74 10//77
f 10//77 58//61 11//22
f 58//61 14//72 15//23
f 3//44 39//25 40//27
f 18//63 63//58 62//59
f 54//48 79//74 78//55
f 78//55 43//39 54//48
f 43//39 44//2 47//65
f 54//48 43//39 47//65
f 47//65 19//7 61//47
f 19//7 20//68 61//47
f 65//8 18//63 17//64
f 22//67 65//8 64//66
f 21//33 64//66 24//34
f 64//66 17//64 20//68
f 17//64 62//59 61//47
f 62//59 59//19 61//47
f 61//47 20//68 17//64
f 29//69 33//24 34//70
f 29//69 73//36 77//35
f 32//16 36//18 29//69
f 36//18 33//24 29//69
f 73//36 29//69 30//31
f 68//12 69//45 39//25
f 45//50 47//65 44//2
f 26//52 25//29 72//37
f 3//44 2//75 38//71
f 57//62 13//38 14//72
f 9//60 78//55 12//73
f 12//73 16//21 57//62
f 16//21 13//38 57//62
f 79//74 11//22 12//73
f 56//53 10//77 79//74
f 79//74 54//48 56//53
