# Blender v2.80 (sub 60) OBJ File: ''
# www.blender.org
mtllib pearl2.mtl
o Cube.002_Cube.004
v -1.812286 -0.438870 -0.939085
v -1.812286 1.113117 -0.939085
v -1.812286 -0.438870 -2.491072
v -1.812286 1.113117 -2.491072
v -0.260298 -0.438870 -0.939085
v -0.260298 1.113117 -0.939085
v -0.260298 -0.438870 -2.491072
v -0.260298 1.113117 -2.491072
v -1.986686 -0.613271 -1.715079
v -1.986686 0.337123 -0.764685
v -1.986686 1.287517 -1.715079
v -1.986686 0.337123 -2.665473
v -1.036292 -0.613271 -2.665473
v -1.036292 1.287517 -2.665473
v -0.085898 0.337123 -2.665473
v -0.085898 -0.613271 -1.715079
v -0.085898 1.287517 -1.715079
v -0.085898 0.337123 -0.764685
v -1.036292 -0.613271 -0.764685
v -1.036292 1.287517 -0.764685
v -1.036292 1.681184 -1.715079
v -1.036292 -1.006937 -1.715079
v -1.036292 0.337123 -0.371019
v 0.307768 0.337123 -1.715079
v -1.036292 0.337123 -3.059139
v -2.380352 0.337123 -1.715079
v -1.000000 -0.557984 1.000000
v -1.000000 1.442016 1.000000
v -1.000000 -0.557984 -1.000000
v -1.000000 1.442016 -1.000000
v 1.000000 -0.557984 1.000000
v 1.000000 1.442016 1.000000
v 1.000000 -0.557984 -1.000000
v 1.000000 1.442016 -1.000000
v -1.224745 -0.782729 -0.000000
v -1.224745 0.442016 1.224745
v -1.224745 1.666761 -0.000000
v -1.224745 0.442016 -1.224745
v -0.000000 -0.782729 -1.224745
v -0.000000 1.666761 -1.224745
v 1.224745 0.442016 -1.224745
v 1.224745 -0.782729 -0.000000
v 1.224745 1.666761 -0.000000
v 1.224745 0.442016 1.224745
v -0.000000 -0.782729 1.224745
v -0.000000 1.666761 1.224745
v -0.000000 2.174066 -0.000000
v -0.000000 -1.290035 -0.000000
v -0.000000 0.442016 1.732050
v 1.732051 0.442016 -0.000000
v -0.000000 0.442016 -1.732051
v -1.732051 0.442016 -0.000000
v -1.732051 0.442016 -0.000000
v -1.986686 0.337123 -0.764685
v -2.668052 -0.503177 0.586479
v -2.668052 0.669782 0.586479
v -2.668052 -0.503177 -0.586479
v -2.668052 0.669782 -0.586479
v -1.495093 -0.503177 0.586479
v -1.495093 0.669782 0.586479
v -1.495093 -0.503177 -0.586479
v -1.495093 0.669782 -0.586479
v -2.799860 -0.634985 -0.000000
v -2.799860 0.083302 0.718287
v -2.799860 0.801590 -0.000000
v -2.799860 0.083302 -0.718288
v -2.081573 -0.634985 -0.718288
v -2.081573 0.801590 -0.718288
v -1.363285 -0.634985 -0.000000
v -1.363285 0.083302 0.718287
v -2.081573 -0.634985 0.718287
v -2.081573 0.801590 0.718287
v -2.081573 1.099114 -0.000000
v -2.081573 -0.932510 -0.000000
v -2.081573 0.083302 1.015812
v -2.081573 0.083302 -1.015812
v -3.097384 0.083302 -0.000000
v -2.041940 0.337123 -0.898079
v -1.995217 0.083302 -0.980042
v -1.883517 -0.121927 -0.867854
v -1.407008 -0.111242 -0.674565
v -1.950041 0.500178 -0.801331
v -1.466699 0.543440 -0.614874
v -1.464403 0.442016 0.646159
v -1.414914 0.313026 0.666658
v -1.341899 0.083302 0.666658
v -1.341899 0.004647 -0.606304
v -1.487197 0.442016 -0.591128
v -1.470528 0.337123 -0.550885
v -1.324614 -0.541624 -0.000000
v -1.464061 0.700814 -0.448402
v -1.455912 0.523560 -0.604087
v -1.464061 0.700814 0.448402
v -1.455912 0.495445 0.625660
v -1.550918 0.879310 -0.000000
vt 0.385216 0.808343
vt 0.374592 0.706347
vt 0.461713 0.707791
vt 0.492135 0.783763
vt 0.084326 0.813462
vt 0.073703 0.711478
vt 0.160811 0.712902
vt 0.191253 0.788881
vt 0.667934 0.389295
vt 0.749653 0.457862
vt 0.684332 0.511525
vt 0.606760 0.474478
vt 0.835289 0.741351
vt 0.750775 0.736480
vt 0.755481 0.656892
vt 0.824665 0.639354
vt 0.638636 0.640200
vt 0.554122 0.645071
vt 0.594471 0.582146
vt 0.671665 0.567655
vt 0.392597 0.634648
vt 0.305408 0.723885
vt 0.305921 0.680652
vt 0.787465 0.521067
vt 0.691281 0.567655
vt 0.091905 0.639967
vt 0.196613 0.666202
vt 0.497354 0.660941
vt 0.745555 0.664781
vt 0.750775 0.598239
vt 0.715133 0.740752
vt 0.628013 0.742197
vt 0.558829 0.724659
vt 0.942208 0.716770
vt 0.911786 0.640798
vt 0.947428 0.783311
vt 0.868318 0.813896
vt 0.585384 0.544565
vt 0.590179 0.355531
vt 0.554122 0.427972
vt 0.657256 0.317286
vt 0.733072 0.338915
vt 0.787465 0.400839
vt 0.117551 0.886179
vt 0.196613 0.855545
vt 0.750775 0.787602
vt 0.646018 0.813896
vt 0.000000 0.808775
vt 0.004654 0.729145
vt 0.418244 0.880889
vt 0.497354 0.850304
vt 0.842671 0.567655
vt 0.947428 0.593948
vt 0.300702 0.803473
vt 0.108910 0.546480
vt 0.095220 0.415040
vt 0.207490 0.416901
vt 0.246694 0.514803
vt 0.662790 0.223578
vt 0.649101 0.092154
vt 0.761355 0.093990
vt 0.800585 0.191902
vt 0.146666 0.092796
vt 0.251974 0.181156
vt 0.167797 0.250311
vt 0.067832 0.202569
vt 0.409612 0.541161
vt 0.300702 0.534884
vt 0.306767 0.432321
vt 0.395922 0.409721
vt 0.409612 0.093487
vt 0.300702 0.099764
vt 0.352697 0.018675
vt 0.452176 0.000000
vt 0.118423 0.322643
vt 0.006065 0.437640
vt 0.006726 0.381927
vt 0.300702 0.262607
vt 0.176752 0.322643
vt 0.672558 0.000000
vt 0.807492 0.033808
vt 0.253420 0.356527
vt 0.547396 0.125163
vt 0.554122 0.039414
vt 0.508192 0.223066
vt 0.395922 0.224927
vt 0.306767 0.202327
vt 0.547396 0.509484
vt 0.508192 0.411582
vt 0.554122 0.595234
vt 0.452176 0.634648
vt 0.040286 0.292888
vt 0.046465 0.049285
vt 0.000000 0.142638
vt 0.132905 0.000000
vt 0.230607 0.027873
vt 0.300702 0.107673
vt 0.705606 0.317286
vt 0.807492 0.277809
vt 0.554122 0.283440
vt 0.419125 0.317324
vt 0.554122 0.217538
vt 0.560119 0.114921
vt 0.151474 0.639967
vt 0.253420 0.600553
vt 0.419125 0.317324
vt 0.554122 0.351208
vt 0.000000 0.540203
vt 0.906931 0.420473
vt 0.944981 0.367491
vt 0.952526 0.369574
vt 0.957092 0.390580
vt 0.942708 0.436009
vt 0.267529 0.335542
vt 0.255641 0.335634
vt 0.258285 0.322643
vt 0.766622 0.945172
vt 0.758593 0.868085
vt 0.824437 0.869176
vt 0.847429 0.926594
vt 0.894438 0.053608
vt 0.906953 0.130166
vt 0.841152 0.132417
vt 0.835481 0.120315
vt 0.887459 0.101696
vt 0.894569 0.081763
vt 0.884867 0.056329
vt 0.915248 0.945172
vt 0.851374 0.941491
vt 0.854931 0.881339
vt 0.907219 0.868085
vt 0.617996 0.868724
vt 0.554122 0.872405
vt 0.584617 0.824848
vt 0.642959 0.813896
vt 0.772201 0.813896
vt 0.706305 0.881339
vt 0.706693 0.848665
vt 0.896370 0.184828
vt 0.837138 0.173155
vt 0.835276 0.141036
vt 0.851374 0.833768
vt 0.698803 0.887302
vt 0.702748 0.837011
vt 0.675811 0.944720
vt 0.609967 0.945811
vt 0.557679 0.932557
vt 0.996055 0.926594
vt 0.973063 0.869176
vt 1.000000 0.976885
vt 0.940210 1.000000
vt 0.827247 0.436088
vt 0.850212 0.447056
vt 0.862645 0.454726
vt 0.868447 0.455765
vt 0.885875 0.464088
vt 0.891127 0.506509
vt 0.811092 0.489058
vt 0.814716 0.346190
vt 0.822354 0.349507
vt 0.830571 0.431461
vt 0.787465 0.400940
vt 0.865411 0.317286
vt 0.903704 0.328210
vt 0.908563 0.336439
vt 0.866158 0.000000
vt 0.864913 0.043795
vt 0.812511 0.059620
vt 0.807843 0.026137
vt 0.702748 0.980128
vt 0.623575 1.000000
vt 0.958283 0.053926
vt 0.958283 0.114197
vt 0.791584 1.000000
vt 0.851374 0.976885
vt 0.920827 0.813896
vt 1.000000 0.833768
vt 0.702748 0.941491
vt 0.267529 0.382852
vt 0.253420 0.361810
vt 0.885517 0.087766
vt 0.828309 0.104030
vt 0.807492 0.073765
vt 0.954965 0.370352
vt 0.963821 0.380434
vt 0.897498 0.454539
vt 0.833554 0.119098
vt 0.834019 0.111723
vt 0.933422 0.363977
vt 0.963821 0.471299
vn -1.0000 0.0000 0.0000
vn -0.7071 0.7071 0.0000
vn -0.5773 0.5773 -0.5773
vn -0.7071 0.0000 -0.7071
vn 0.0000 0.0000 -1.0000
vn 0.0000 0.7071 -0.7071
vn 0.5773 0.5773 -0.5773
vn 0.7071 0.0000 -0.7071
vn 1.0000 0.0000 0.0000
vn 0.7071 0.7071 0.0000
vn 0.5773 0.5773 0.5773
vn 0.7071 0.0000 0.7071
vn 0.0000 0.0000 1.0000
vn 0.0000 0.7071 0.7071
vn -0.5773 0.5773 0.5773
vn -0.7071 0.0000 0.7071
vn 0.0000 -1.0000 0.0000
vn 0.7071 -0.7071 0.0000
vn 0.5773 -0.5773 0.5773
vn 0.0000 -0.7071 0.7071
vn 0.0000 1.0000 0.0000
vn -0.7071 -0.7071 0.0000
vn -0.5773 -0.5773 0.5773
vn -0.5773 -0.5773 -0.5773
vn 0.0000 -0.7071 -0.7071
vn 0.5773 -0.5773 -0.5773
vn 0.9999 0.0089 -0.0026
vn 0.9243 -0.2208 -0.3114
vn 0.8990 -0.2322 -0.3711
vn 0.9098 0.4126 -0.0439
vn 0.8145 0.5801 -0.0001
vn 0.7065 0.0019 -0.7076
vn 0.6803 0.2385 -0.6930
vn 0.4571 0.0177 -0.8892
vn -0.0125 0.0025 -0.9999
vn -0.0099 0.7096 -0.7045
vn 0.5842 0.5773 -0.5704
vn 0.6592 0.1197 -0.7424
vn 0.6077 0.0860 -0.7895
vn -0.0014 0.7064 0.7078
vn 0.7223 -0.6915 -0.0005
vn 0.5919 -0.5699 0.5699
vn -0.0027 1.0000 0.0000
vn -0.0044 -0.7092 -0.7049
vn 0.5843 -0.5777 -0.5699
vn 0.7091 -0.0025 0.7051
vn 0.8153 0.4411 0.3750
vn 0.9109 0.2655 0.3159
vn 0.9171 0.0331 0.3971
vn 0.5991 0.5652 0.5670
vn 0.9921 -0.1254 -0.0002
vn 0.9920 0.0948 0.0827
vn 0.6531 -0.1079 -0.7495
vn 0.8947 0.2156 -0.3912
vn 0.4630 -0.0112 -0.8863
vn 0.8398 0.2572 -0.4781
vn 0.9101 0.4122 0.0431
usemtl None
s 1
f 26/1/1 11/2/2 4/3/3 12/4/4
f 25/5/5 14/6/6 8/7/7 15/8/8
f 24/9/9 17/10/10 6/11/11 18/12/12
f 23/13/13 20/14/14 2/15/15 10/16/16
f 22/17/17 16/18/18 5/19/19 19/20/20
f 21/21/21 11/2/2 2/22/15 20/23/14
f 17/10/10 21/24/21 20/25/14 6/11/11
f 8/7/7 14/6/6 21/26/21 17/27/10
f 14/28/6 4/3/3 11/2/2 21/21/21
f 9/29/22 22/17/17 19/20/20 1/30/23
f 3/31/24 13/32/25 22/17/17 9/29/22
f 13/32/25 7/33/26 16/18/18 22/17/17
f 19/34/20 23/13/13 10/16/16 1/35/23
f 5/36/19 18/37/12 23/13/13 19/34/20
f 18/12/12 6/11/11 20/25/14 23/38/13
f 16/39/18 24/9/9 18/12/12 5/40/19
f 7/41/26 15/42/8 24/9/9 16/39/18
f 15/42/8 8/43/7 17/10/10 24/9/9
f 13/44/25 25/5/5 15/8/8 7/45/26
f 3/31/24 12/46/4 25/47/5 13/32/25
f 12/48/4 4/49/3 14/6/6 25/5/5
f 9/50/22 26/1/1 12/4/4 3/51/24
f 1/35/23 10/16/16 26/52/1 9/53/22
f 10/54/16 2/22/15 11/2/2 26/1/1
f 52/55/1 37/56/2 30/57/3 38/58/4
f 51/59/5 40/60/6 34/61/7 41/62/8
f 50/63/9 43/64/10 32/65/11 44/66/12
f 49/67/13 46/68/14 28/69/15 36/70/16
f 48/71/17 42/72/18 31/73/19 45/74/20
f 47/75/21 37/56/2 28/76/15 46/77/14
f 43/64/10 47/78/21 46/79/14 32/65/11
f 34/61/7 40/60/6 47/80/21 43/81/10
f 40/82/6 30/57/3 37/56/2 47/75/21
f 35/83/22 48/71/17 45/74/20 27/84/23
f 29/85/24 39/86/25 48/71/17 35/83/22
f 39/86/25 33/87/26 42/72/18 48/71/17
f 45/88/20 49/67/13 36/70/16 27/89/23
f 31/90/19 44/91/12 49/67/13 45/88/20
f 44/66/12 32/65/11 46/79/14 49/92/13
f 42/93/18 50/63/9 44/66/12 31/94/19
f 33/95/26 41/96/8 50/63/9 42/93/18
f 41/96/8 34/97/7 43/64/10 50/63/9
f 39/98/25 51/59/5 41/62/8 33/99/26
f 29/85/24 38/100/4 51/101/5 39/86/25
f 38/102/4 30/103/3 40/60/6 51/59/5
f 35/104/22 52/55/1 38/58/4 29/105/24
f 27/89/23 36/70/16 52/106/1 35/107/22
f 36/108/16 28/76/15 37/56/2 52/55/1
f 53/109/27 88/110/28 92/111/29 91/112/30 95/113/31
f 54/114/32 78/115/33 82/116/34
f 77/117/1 65/118/2 58/119/3 66/120/4
f 76/121/35 68/122/36 62/123/37 83/124/38 82/125/34 78/126/33 79/127/39
f 75/128/13 72/129/40 56/130/15 64/131/16
f 74/132/17 69/133/41 59/134/42 71/135/20
f 73/136/43 65/118/2 56/137/15 72/138/40
f 62/123/37 68/122/36 73/139/43 95/140/31 91/141/30
f 68/142/36 58/119/3 65/118/2 73/136/43
f 63/143/22 74/132/17 71/135/20 55/144/23
f 57/145/24 67/146/44 74/132/17 63/143/22
f 67/146/44 61/147/45 69/133/41 74/132/17
f 71/148/20 75/128/13 64/131/16 55/149/23
f 59/150/42 70/151/46 75/128/13 71/148/20
f 70/152/46 85/153/47 84/154/48 94/155/49 60/156/50 72/157/40 75/158/13
f 69/159/41 90/160/51 86/161/52 70/152/46 59/162/42
f 61/163/45 81/164/53 87/165/54 90/160/51 69/159/41
f 67/166/44 76/121/35 79/127/39 80/167/55 81/168/53 61/169/45
f 57/145/24 66/170/4 76/171/35 67/146/44
f 66/172/4 58/173/3 68/122/36 76/121/35
f 63/174/22 77/117/1 66/120/4 57/175/24
f 55/149/23 64/131/16 77/176/1 63/177/22
f 64/178/16 56/137/15 65/118/2 77/117/1
f 78/115/33 54/114/32 80/179/55 79/180/39
f 80/167/55 54/181/32 89/182/56 87/183/54 81/168/53
f 91/112/30 92/111/29 83/184/38 62/185/37
f 86/161/52 85/153/47 70/152/46
f 94/155/49 93/186/57 60/156/50
f 92/187/29 88/188/28 89/182/56 54/181/32 82/125/34 83/124/38
f 90/160/51 53/109/27 84/154/48 85/153/47 86/161/52
f 88/110/28 53/109/27 90/160/51 87/165/54 89/189/56
f 93/186/57 95/113/31 73/190/43 72/157/40 60/156/50
f 84/154/48 53/109/27 95/113/31 93/186/57 94/155/49
