# Blender v2.80 (sub 60) OBJ File: ''
# www.blender.org
mtllib pearl1.mtl
o Cube
v 1.000000 1.435075 -1.000000
v 1.000000 -0.564925 -1.000000
v 1.000000 1.435075 1.000000
v 1.000000 -0.564925 1.000000
v -1.000000 1.435075 -1.000000
v -1.000000 -0.564925 -1.000000
v -1.000000 1.435075 1.000000
v -1.000000 -0.564925 1.000000
v -1.224745 -0.789669 0.000000
v 0.000000 -0.789669 -1.224745
v 1.224745 0.435075 -1.224745
v -1.224745 0.435075 1.224745
v 1.224745 0.435075 1.224745
v -1.224745 0.435075 -1.224745
v 0.000000 1.659820 1.224745
v 1.224745 1.659820 0.000000
v 0.000000 -0.789669 1.224745
v -1.224745 1.659820 0.000000
v 0.000000 1.659820 -1.224745
v 1.224745 -0.789669 0.000000
v 0.000000 0.435075 -1.732051
v 1.732051 0.435075 0.000000
v 0.000000 -1.296975 0.000000
v -1.732051 0.435075 0.000000
v 0.000000 0.435075 1.732051
v 0.000000 2.167126 0.000000
v 1.224745 -0.789669 0.000000
v 1.732051 0.435075 0.000000
v 2.371163 0.524165 -0.618442
v 2.371163 -0.712719 -0.618442
v 2.371163 0.524165 0.618442
v 2.371163 -0.712719 0.618442
v 1.134279 -0.712719 -0.618442
v 1.134279 -0.712719 0.618442
v 1.752721 -0.851710 -0.757434
v 2.510155 -0.094277 -0.757434
v 2.510155 -0.094277 0.757434
v 1.752721 0.663157 0.757434
v 2.510155 0.663157 0.000000
v 1.752721 -0.851710 0.757434
v 1.752721 0.663157 -0.757434
v 2.510155 -0.851710 0.000000
v 1.752721 -0.094277 -1.071173
v 2.823894 -0.094277 0.000000
v 1.752721 -1.165450 0.000000
v 1.752721 -0.094277 1.071173
v 1.752721 0.976896 0.000000
v 1.097167 -0.662092 -0.567655
v 1.035126 -0.811872 -0.177260
v 1.035126 -0.868212 0.000000
v 1.097167 -0.662092 0.567655
v 1.035126 -0.811872 0.177260
v 1.422635 0.435075 -0.746994
v 1.212752 -0.094277 -0.847510
v 1.422635 0.435075 0.746994
v 1.212752 -0.094277 0.847510
v 1.104886 -0.581933 -0.647835
v 1.104886 -0.581933 0.647835
v 1.403306 0.584627 -0.678904
v 1.403306 0.584627 0.678904
v 1.543515 0.890240 0.000000
vt 0.763147 0.112393
vt 0.921998 0.150399
vt 0.876699 0.267733
vt 0.747372 0.269886
vt 0.775262 0.380220
vt 0.930565 0.339781
vt 0.168807 0.277757
vt 0.266000 0.352895
vt 0.153614 0.385039
vt 0.053733 0.327439
vt 0.472159 0.112039
vt 0.456380 0.269562
vt 0.353620 0.242477
vt 0.346630 0.119561
vt 0.472159 0.492334
vt 0.630966 0.530296
vt 0.585780 0.647627
vt 0.456380 0.649857
vt 0.125529 0.653294
vt 0.109750 0.495771
vt 0.239150 0.498002
vt 0.284337 0.615332
vt 0.174587 0.765333
vt 0.292089 0.718098
vt 0.059929 0.742953
vt 0.000000 0.645772
vt 0.006990 0.522856
vt 0.346630 0.499856
vt 0.353620 0.622772
vt 0.585780 0.267332
vt 0.638719 0.339687
vt 0.483123 0.380295
vt 0.521217 0.380295
vt 0.638719 0.427530
vt 0.077862 0.146124
vt 0.046440 0.035105
vt 0.203602 0.000000
vt 0.193016 0.088953
vt 0.638719 0.047235
vt 0.630966 0.150001
vt 0.521217 0.000000
vt 0.000000 0.216210
vt 0.290129 0.171581
vt 0.346630 0.257781
vt 0.346630 0.071106
vt 0.483123 0.760590
vt 0.354383 0.689541
vt 0.638719 0.719982
vt 0.638719 0.119487
vt 0.645402 0.242494
vt 0.136493 0.385039
vt 0.292089 0.425647
vt 0.813345 0.000000
vt 0.930565 0.047372
vt 0.700764 0.517600
vt 0.715493 0.590578
vt 0.696252 0.591043
vt 0.643892 0.538456
vt 0.798304 0.442883
vt 0.802328 0.507127
vt 0.797948 0.519992
vt 0.762423 0.569040
vt 0.077024 0.834256
vt 0.104025 0.841248
vt 0.110544 0.931540
vt 0.065349 0.931459
vt 0.081249 1.000000
vt 0.111275 0.945462
vt 0.150058 0.983438
vt 0.896992 0.668133
vt 0.887234 0.765552
vt 0.823683 0.748801
vt 0.819360 0.672785
vt 0.716352 0.671777
vt 0.814565 0.695255
vt 0.786620 0.767817
vt 0.706593 0.769196
vt 0.401973 0.926490
vt 0.392215 0.829071
vt 0.472242 0.830451
vt 0.500187 0.903013
vt 0.432313 0.995780
vt 0.504981 0.966568
vt 0.361404 0.981939
vt 0.353566 0.969229
vt 0.346630 0.923174
vt 0.638719 0.676429
vt 0.643042 0.752446
vt 0.967260 0.764172
vt 1.000000 0.808920
vt 0.903773 0.834033
vt 0.746691 0.602488
vt 0.819360 0.631700
vt 1.000000 0.628055
vt 0.995205 0.691610
vt 0.925736 0.602488
vt 0.948160 0.607216
vt 0.811689 0.510450
vt 0.797715 0.456885
vt 0.865621 0.528997
vt 0.801433 0.602488
vt 0.723132 0.837678
vt 0.643514 0.793738
vt 0.819360 0.812564
vt 0.000000 0.837222
vt 0.002632 0.913357
vt 0.408754 0.760590
vt 0.504981 0.785703
vt 0.109434 0.765333
vt 0.150058 0.782639
vt 0.300661 0.385039
vt 0.317257 0.441472
vt 0.292089 0.444285
vt 0.292195 0.426072
vt 0.754223 0.387591
vt 0.652190 0.433278
vt 0.690602 0.390573
vt 0.743048 0.383572
vt 0.795968 0.435212
vt 0.865621 0.432490
vt 0.317257 0.512571
vt 0.297377 0.465896
vt 0.638719 0.448081
vt 0.782694 0.419558
vt 0.759280 0.380220
vt 0.360278 0.857805
vt 0.356309 0.838535
vn 0.0000 1.0000 0.0000
vn -0.7071 0.7071 0.0000
vn -0.5773 0.5773 0.5773
vn 0.0000 0.7071 0.7071
vn 0.0000 0.0000 1.0000
vn -0.7071 0.0000 0.7071
vn -1.0000 0.0000 0.0000
vn -0.5773 0.5773 -0.5773
vn -0.7071 0.0000 -0.7071
vn 0.0000 -1.0000 0.0000
vn 0.7071 -0.7071 0.0000
vn 0.5773 -0.5773 0.5773
vn 0.0000 -0.7071 0.7071
vn 1.0000 0.0000 0.0000
vn 0.7071 0.7071 0.0000
vn 0.5773 0.5773 0.5773
vn 0.7071 0.0000 0.7071
vn 0.0000 0.0000 -1.0000
vn 0.0000 0.7071 -0.7071
vn 0.5773 0.5773 -0.5773
vn 0.7071 0.0000 -0.7071
vn 0.0000 -0.7071 -0.7071
vn 0.5773 -0.5773 -0.5773
vn -0.5773 -0.5773 -0.5773
vn -0.7071 -0.7071 0.0000
vn -0.5773 -0.5773 0.5773
vn -1.0000 -0.0011 0.0000
vn -0.9046 0.2786 0.3226
vn -0.8948 0.3112 0.3201
vn -0.8045 0.5939 0.0000
vn -0.7154 0.6987 0.0000
vn -0.9985 0.0520 -0.0181
vn -0.9118 -0.0447 0.4080
vn -0.8395 0.1726 0.5152
vn 0.0082 0.9999 0.0000
vn 0.0050 0.7056 0.7086
vn 0.0024 0.0027 1.0000
vn 0.0002 -1.0000 0.0000
vn 0.0017 -0.7078 0.7064
vn 0.0024 0.0027 -1.0000
vn 0.0050 0.7056 -0.7086
vn 0.0017 -0.7078 -0.7064
vn -0.5750 -0.5881 -0.5687
vn -0.9118 -0.0447 -0.4080
vn -0.8395 0.1726 -0.5152
vn -0.9819 -0.1894 0.0000
vn -0.9975 0.0026 -0.0704
vn -0.5750 -0.5881 0.5687
vn -0.9975 0.0026 0.0704
vn -0.8948 0.3112 -0.3201
vn -0.9985 0.0520 0.0181
vn -0.9046 0.2786 -0.3226
usemtl Material
s 1
f 26/1/1 18/2/2 7/3/3 15/4/4
f 25/5/5 15/4/4 7/3/3 12/6/6
f 24/7/7 18/8/2 5/9/8 14/10/9
f 23/11/10 20/12/11 4/13/12 17/14/13
f 22/15/14 16/16/15 3/17/16 13/18/17
f 21/19/18 19/20/19 1/21/20 11/22/21
f 10/23/22 21/19/18 11/22/21 2/24/23
f 6/25/24 14/26/9 21/19/18 10/23/22
f 14/26/9 5/27/8 19/20/19 21/19/18
f 20/28/11 22/15/14 13/18/17 4/29/12
f 2/30/23 11/31/21 22/32/14 20/12/11
f 11/33/21 1/34/20 16/16/15 22/15/14
f 9/35/25 23/36/10 17/37/13 8/38/26
f 6/39/24 10/40/22 23/11/10 9/41/25
f 10/40/22 2/30/23 20/12/11 23/11/10
f 9/35/25 24/7/7 14/10/9 6/42/24
f 8/38/26 12/43/6 24/7/7 9/35/25
f 12/43/6 7/44/3 18/8/2 24/7/7
f 17/37/13 25/45/5 12/43/6 8/38/26
f 4/29/12 13/18/17 25/46/5 17/47/13
f 13/18/17 3/17/16 15/48/4 25/46/5
f 16/49/15 26/1/1 15/4/4 3/50/16
f 1/21/20 19/20/19 26/51/1 16/52/15
f 19/53/19 5/54/8 18/2/2 26/1/1
f 28/55/27 55/56/28 60/57/29 61/58/30
f 27/59/31 51/60/32 58/61/33 56/62/34 55/56/28 28/55/27
f 47/63/35 61/64/30 60/65/29 38/66/36
f 46/67/37 38/66/36 60/65/29 55/68/28 56/69/34
f 45/70/38 42/71/11 32/72/12 40/73/39
f 44/74/14 39/75/15 31/76/16 37/77/17
f 43/78/40 41/79/41 29/80/20 36/81/21
f 35/82/42 43/78/40 36/81/21 30/83/23
f 33/84/43 57/85/44 54/86/45 43/78/40 35/82/42
f 42/87/11 44/74/14 37/77/17 32/88/12
f 30/89/23 36/90/21 44/91/14 42/71/11
f 36/92/21 29/93/20 39/75/15 44/74/14
f 33/94/43 35/95/42 45/70/38 50/96/46 49/97/47
f 35/95/42 30/89/23 42/71/11 45/70/38
f 34/98/48 58/61/33 51/60/32 52/99/49
f 40/100/39 46/101/37 56/62/34 58/61/33 34/98/48
f 32/88/12 37/77/17 46/102/37 40/103/39
f 37/77/17 31/76/16 38/104/36 46/102/37
f 39/105/15 47/63/35 38/66/36 31/106/16
f 29/80/20 41/79/41 47/107/35 39/108/15
f 41/109/41 59/110/50 61/64/30 47/63/35
f 51/111/32 27/112/31 50/113/46 52/114/49
f 48/115/51 27/59/31 28/55/27 53/116/52 54/117/45 57/118/44
f 52/99/49 50/119/46 45/120/38 40/100/39 34/98/48
f 50/113/46 27/112/31 48/121/51 49/122/47
f 53/116/52 28/55/27 61/58/30 59/123/50
f 49/124/47 48/115/51 57/118/44 33/125/43
f 54/86/45 53/126/52 59/127/50 41/79/41 43/78/40
