# Blender v2.80 (sub 60) OBJ File: ''
# www.blender.org
mtllib pearl0.mtl
o Cube.001_Cube.002
v -1.000000 -0.557984 1.000000
v -1.000000 1.442016 1.000000
v -1.000000 -0.557984 -1.000000
v -1.000000 1.442016 -1.000000
v 1.000000 -0.557984 1.000000
v 1.000000 1.442016 1.000000
v 1.000000 -0.557984 -1.000000
v 1.000000 1.442016 -1.000000
v -1.224745 -0.782729 0.000000
v -1.224745 0.442016 1.224745
v -1.224745 1.666760 0.000000
v -1.224745 0.442016 -1.224745
v 0.000000 -0.782729 -1.224745
v 0.000000 1.666760 -1.224745
v 1.224745 0.442016 -1.224745
v 1.224745 -0.782729 0.000000
v 1.224745 1.666760 0.000000
v 1.224745 0.442016 1.224745
v 0.000000 -0.782729 1.224745
v 0.000000 1.666760 1.224745
v 0.000000 2.174066 0.000000
v 0.000000 -1.290035 0.000000
v 0.000000 0.442016 1.732051
v 1.732051 0.442016 0.000000
v 0.000000 0.442016 -1.732051
v -1.732051 0.442016 0.000000
vt 0.809921 0.629086
vt 0.991152 0.681576
vt 0.939586 0.843807
vt 0.791914 0.846891
vt 0.770534 0.074426
vt 0.719979 0.220064
vt 0.597928 0.122572
vt 0.597927 0.000000
vt 0.199309 0.385643
vt 0.077258 0.474171
vt 0.000000 0.330050
vt 0.077258 0.220064
vt 0.476587 0.845085
vt 0.458580 0.627280
vt 0.606252 0.630364
vt 0.657819 0.792595
vt 0.371916 0.074426
vt 0.321361 0.220064
vt 0.199309 0.122572
vt 0.199309 0.000000
vt 0.489100 0.474171
vt 0.666667 0.530319
vt 0.475876 0.220064
vt 0.597928 0.385643
vt 0.475876 0.474171
vt 0.398618 0.330050
vt 0.797237 0.330050
vt 0.719979 0.474171
vt 0.324486 0.681576
vt 0.143254 0.629086
vt 0.199239 0.474171
vt 0.333333 0.539483
vt 0.272919 0.843808
vt 0.125247 0.846892
vt 0.007977 0.809442
vt 0.000000 0.639487
vt 0.532572 1.000000
vt 0.666667 0.934689
vt 0.026702 0.074426
vt 0.333333 0.834684
vt 0.341311 0.664729
vt 0.398618 0.330050
vt 0.321361 0.474171
vt 0.425321 0.074426
vt 0.155766 1.000000
vt 0.008847 0.901762
vt 0.333333 0.943852
vt 1.000000 0.943852
vt 0.822433 1.000000
vt 0.666667 0.639487
vt 0.674644 0.809442
vt 0.735058 0.505117
vt 0.865906 0.474171
vt 1.000000 0.539483
vn -1.0000 0.0000 0.0000
vn -0.7071 0.7071 0.0000
vn -0.5773 0.5773 -0.5773
vn -0.7071 0.0000 -0.7071
vn 0.0000 0.0000 -1.0000
vn 0.0000 0.7071 -0.7071
vn 0.5773 0.5773 -0.5773
vn 0.7071 0.0000 -0.7071
vn 1.0000 0.0000 0.0000
vn 0.7071 0.7071 0.0000
vn 0.5773 0.5773 0.5773
vn 0.7071 0.0000 0.7071
vn 0.0000 0.0000 1.0000
vn 0.0000 0.7071 0.7071
vn -0.5773 0.5773 0.5773
vn -0.7071 0.0000 0.7071
vn 0.0000 -1.0000 0.0000
vn 0.7071 -0.7071 0.0000
vn 0.5773 -0.5773 0.5773
vn 0.0000 -0.7071 0.7071
vn 0.0000 1.0000 0.0000
vn -0.7071 -0.7071 0.0000
vn -0.5773 -0.5773 0.5773
vn -0.5773 -0.5773 -0.5773
vn 0.0000 -0.7071 -0.7071
vn 0.5773 -0.5773 -0.5773
usemtl None
s 1
f 26/1/1 11/2/2 4/3/3 12/4/4
f 25/5/5 14/6/6 8/7/7 15/8/8
f 24/9/9 17/10/10 6/11/11 18/12/12
f 23/13/13 20/14/14 2/15/15 10/16/16
f 22/17/17 16/18/18 5/19/19 19/20/20
f 21/21/21 11/22/2 2/15/15 20/14/14
f 17/23/10 21/24/21 20/25/14 6/26/11
f 8/7/7 14/6/6 21/24/21 17/23/10
f 14/6/6 4/27/3 11/28/2 21/24/21
f 9/29/22 22/30/17 19/31/20 1/32/23
f 3/33/24 13/34/25 22/30/17 9/29/22
f 13/34/25 7/35/26 16/36/18 22/30/17
f 19/37/20 23/13/13 10/16/16 1/38/23
f 5/19/19 18/12/12 23/39/13 19/20/20
f 18/40/12 6/41/11 20/14/14 23/13/13
f 16/18/18 24/9/9 18/12/12 5/19/19
f 7/42/26 15/43/8 24/9/9 16/18/18
f 15/8/8 8/7/7 17/23/10 24/44/9
f 13/34/25 25/45/5 15/46/8 7/35/26
f 3/33/24 12/47/4 25/45/5 13/34/25
f 12/4/4 4/3/3 14/48/6 25/49/5
f 9/50/22 26/1/1 12/4/4 3/51/24
f 1/52/23 10/53/16 26/1/1 9/50/22
f 10/53/16 2/54/15 11/2/2 26/1/1
