# Blender v2.80 (sub 60) OBJ File: 'tree2.blend'
# www.blender.org
mtllib KohmTreeDragon-Leaves.mtl
o Plane.011_Circle.002
v 4.813076 24.080246 -25.669209
v -18.093082 16.767445 -16.369549
v 9.520823 26.465437 -16.909092
v -19.124880 22.605509 -24.227266
v -4.647132 15.727123 -22.977787
v 6.479411 30.003956 -5.626500
v -22.166288 26.144028 -12.944679
v -11.135414 22.493759 -0.342766
v -6.503344 31.768528 -12.529469
v -2.812571 17.511597 -28.339844
v -7.076893 31.070374 0.921228
v -4.305598 29.358610 -20.688911
v -22.570372 19.286051 -14.047314
v 6.075327 23.145983 -6.729146
v -9.757857 22.052229 -29.543900
v 3.570817 19.621983 -10.987223
v -13.948344 30.038883 -0.954132
v 4.802040 24.082808 -25.675356
v -18.104116 16.770008 -16.375698
v 9.522924 26.457197 -16.918131
v -19.122778 22.597269 -24.236305
v -4.651450 15.725693 -22.964394
v 6.475093 30.002525 -5.613105
v -22.170607 26.142595 -12.931284
v -11.145620 22.486357 -0.352144
v -6.519884 31.766300 -12.533695
v -2.829108 17.509369 -28.344067
v -7.087925 31.072933 0.915081
v -4.309633 29.364960 -20.674231
v -22.574408 19.292400 -14.032632
v 6.071294 23.152334 -6.714461
v -9.771463 22.046299 -29.544146
v 3.557215 19.616053 -10.987466
v -13.961950 30.032951 -0.954374
v 20.708481 29.010988 -23.652567
v -21.538168 16.292301 -9.626841
v 29.711359 27.817566 -7.690291
v -22.277689 30.417334 -20.227604
v 2.146906 15.189598 -22.476027
v 25.161505 28.849962 13.732222
v -26.827536 31.449732 1.194902
v -7.739124 16.766315 20.364416
v 2.276663 37.839470 3.598631
v 5.717574 20.564859 -30.972603
v 1.284174 30.049015 26.497595
v 5.594635 37.348770 -11.820139
v -28.975760 20.322262 -4.065546
v 23.013288 17.722506 8.471758
v -5.751576 30.298496 -30.324320
v 17.764328 14.291288 -0.439695
v -11.210123 30.551428 23.231203
v 20.689243 29.020592 -23.661140
v -21.557402 16.301905 -9.635419
v 29.713293 27.807537 -7.710100
v -22.275753 30.407305 -20.247412
v 2.139082 15.181307 -22.453327
v 25.153683 28.841671 13.754923
v -26.835360 31.441441 1.217604
v -7.758979 16.760286 20.345289
v 2.246644 37.840973 3.591391
v 5.687559 20.566360 -30.979841
v 1.264943 30.058617 26.489012
v 5.588936 37.353123 -11.791398
v -28.981457 20.326614 -4.036801
v 23.007593 17.726858 8.500505
v -5.777071 30.291096 -30.326725
v 17.738838 14.283889 -0.442101
v -11.235620 30.544027 23.228800
v -0.481846 30.181787 -10.758344
v 10.359913 18.184189 9.320667
v 6.632439 28.353443 -17.874224
v 6.813654 26.993639 11.910824
v 0.534628 21.087631 -1.660155
v 18.592760 25.949160 -18.362381
v 18.773972 24.589359 11.422665
v 24.483067 15.952743 -2.238521
v 17.321154 30.123531 -4.210552
v -3.635190 25.295000 -2.120887
v 28.410906 23.091816 -7.261795
v 8.741968 31.993179 -3.869596
v 14.751568 19.067854 12.743347
v 14.570351 20.427666 -17.041697
v -0.547329 29.505648 4.439577
v 10.065241 19.228098 -13.157453
v 28.304567 22.729830 -0.074623
v -0.482663 30.186403 -10.746335
v 10.359093 18.188803 9.332674
v 6.620418 28.350603 -17.873013
v 6.801633 26.990799 11.912033
v 0.546387 21.079796 -1.659537
v 18.604519 25.941322 -18.361763
v 18.785730 24.581520 11.423283
v 24.474640 15.950181 -2.225506
v 17.321259 30.122747 -4.193356
v -3.635086 25.294216 -2.103691
v 28.410082 23.096432 -7.249790
v 8.758369 31.991579 -3.870317
v 14.767975 19.066257 12.742624
v 14.586758 20.426065 -17.042421
v -0.546461 29.499866 4.453220
v 10.066105 19.222319 -13.143812
v 28.305437 22.724049 -0.060978
v -12.103720 24.645658 -5.754395
v -16.573195 17.332859 18.560202
v -2.186203 27.030849 -5.015914
v -23.753986 23.170923 15.206909
v -14.918802 16.292538 3.669754
v 5.693423 30.569366 3.613022
v -15.874365 26.709438 23.835840
v 0.681415 23.059174 21.307081
v -7.105677 32.333942 10.850834
v -18.454447 18.077009 -0.759295
v 3.928692 31.635784 18.564005
v -12.805082 29.924023 4.611979
v -17.021376 19.851463 23.583948
v 4.546402 23.711395 3.361122
v -23.202766 22.617641 4.450335
v -0.390457 20.187397 3.184473
v -1.346035 30.604294 23.350554
v -12.114836 24.648222 -5.748395
v -16.584314 17.335421 18.566202
v -2.192697 27.022610 -5.022545
v -23.760479 23.162682 15.200277
v -14.909828 16.291107 3.680593
v 5.702397 30.567938 3.623865
v -15.865389 26.708008 23.846678
v 0.668018 23.051769 21.310648
v -7.118131 32.331715 10.862513
v -18.466898 18.074780 -0.747620
v 3.917577 31.638348 18.570005
v -12.794870 29.930372 4.623270
v -17.011164 19.857815 23.595243
v 4.556615 23.717747 3.372417
v -23.210285 22.611712 4.461674
v -0.397974 20.181467 3.195814
v -1.353554 30.598366 23.361898
v -2.445548 31.520729 -1.006228
v 2.780960 17.624014 20.070242
v 6.095846 29.776047 -6.353409
v -0.943843 26.425608 22.425894
v -3.996335 21.797695 7.334726
v 17.721323 26.744892 -4.178898
v 10.681633 23.394455 24.600405
v 19.173370 15.382215 12.050213
v 13.244455 30.031063 9.549736
v -7.768554 26.252899 6.228790
v 24.464655 22.609552 8.674500
v 4.913226 32.350430 7.992367
v 6.251100 18.030676 24.494608
v 13.290785 21.381123 -4.284693
v -6.190088 29.837622 13.642447
v 7.941173 20.178972 -1.684913
v 22.619122 21.775738 15.580770
v -2.449052 31.524572 -0.994435
v 2.777453 17.627857 20.082037
v 6.083786 29.773811 -6.355308
v -0.955901 26.423370 22.423990
v -3.985378 21.789188 7.337502
v 17.732281 26.736385 -4.176124
v 10.692589 23.385948 24.603174
v 19.161966 15.379265 12.060619
v 13.240393 30.029129 9.566353
v -7.772618 26.250965 6.245405
v 24.461149 22.613396 8.686291
v 4.929246 32.347969 7.995432
v 6.267122 18.028217 24.497675
v 13.306808 21.378662 -4.281630
v -6.192748 29.830906 13.655415
v 7.938513 20.172256 -1.671948
v 22.616465 21.769024 15.593740
vt 0.000093 0.500000
vt 0.865957 0.000093
vt 0.865957 0.999907
vt 0.000093 0.500000
vt 0.865957 0.000093
vt 0.865957 0.999907
vt 0.000093 0.500000
vt 0.865957 0.999907
vt 0.865957 0.000093
vt 0.000093 0.500000
vt 0.865957 0.000093
vt 0.000093 0.500000
vt 0.865957 0.999907
vt 0.865957 0.000093
vt 0.000093 0.500000
vt 0.865957 0.999907
vt 0.865957 0.000093
vt 0.000093 0.500000
vt 0.865957 0.999907
vt 0.865957 0.000093
vt 0.000093 0.500000
vt 0.865957 0.999907
vt 0.865957 0.000093
vt 0.000093 0.500000
vt 0.865957 0.000093
vt 0.865957 0.999907
vt 0.000093 0.500000
vt 0.865957 0.000093
vt 0.000093 0.500000
vt 0.865957 0.000093
vt 0.865957 0.999907
vt 0.000093 0.500000
vt 0.865957 0.000093
vt 0.865957 0.999907
vt 0.000093 0.500000
vt 0.865957 0.000093
vt 0.865957 0.999907
vt 0.000093 0.500000
vt 0.865957 0.000093
vt 0.865957 0.999907
vt 0.000093 0.500000
vt 0.865957 0.999907
vt 0.865957 0.000093
vt 0.000093 0.500000
vt 0.865957 0.000093
vt 0.000093 0.500000
vt 0.865957 0.999907
vt 0.865957 0.000093
vt 0.000093 0.500000
vt 0.865957 0.999907
vt 0.865957 0.000093
vt 0.000093 0.500000
vt 0.865957 0.999907
vt 0.865957 0.000093
vt 0.000093 0.500000
vt 0.865957 0.999907
vt 0.865957 0.000093
vt 0.000093 0.500000
vt 0.865957 0.000093
vt 0.865957 0.999907
vt 0.000093 0.500000
vt 0.865957 0.000093
vt 0.000093 0.500000
vt 0.865957 0.000093
vt 0.865957 0.999907
vt 0.000093 0.500000
vt 0.865957 0.000093
vt 0.865957 0.999907
vt 0.000093 0.500000
vt 0.865957 0.000093
vt 0.865957 0.999907
vt 0.000093 0.500000
vt 0.865957 0.000093
vt 0.865957 0.999907
vt 0.000093 0.500000
vt 0.865957 0.999907
vt 0.865957 0.000093
vt 0.000093 0.500000
vt 0.865957 0.000093
vt 0.000093 0.500000
vt 0.865957 0.999907
vt 0.865957 0.000093
vt 0.000093 0.500000
vt 0.865957 0.999907
vt 0.865957 0.000093
vt 0.000093 0.500000
vt 0.865957 0.999907
vt 0.865957 0.000093
vt 0.000093 0.500000
vt 0.865957 0.999907
vt 0.865957 0.000093
vt 0.000093 0.500000
vt 0.865957 0.000093
vt 0.865957 0.999907
vt 0.000093 0.500000
vt 0.865957 0.000093
vt 0.000093 0.500000
vt 0.865957 0.000093
vt 0.865957 0.999907
vt 0.000093 0.500000
vt 0.865957 0.000093
vt 0.865957 0.999907
vt 0.000093 0.500000
vt 0.865957 0.000093
vt 0.865957 0.999907
vt 0.000093 0.500000
vt 0.865957 0.000093
vt 0.865957 0.999907
vt 0.000093 0.500000
vt 0.865957 0.999907
vt 0.865957 0.000093
vt 0.000093 0.500000
vt 0.865957 0.000093
vt 0.000093 0.500000
vt 0.865957 0.999907
vt 0.865957 0.000093
vt 0.000093 0.500000
vt 0.865957 0.999907
vt 0.865957 0.000093
vt 0.000093 0.500000
vt 0.865957 0.999907
vt 0.865957 0.000093
vt 0.000093 0.500000
vt 0.865957 0.999907
vt 0.865957 0.000093
vt 0.000093 0.500000
vt 0.865957 0.000093
vt 0.865957 0.999907
vt 0.000093 0.500000
vt 0.865957 0.000093
vt 0.000093 0.500000
vt 0.865957 0.000093
vt 0.865957 0.999907
vt 0.000093 0.500000
vt 0.865957 0.000093
vt 0.865957 0.999907
vt 0.000093 0.500000
vt 0.865957 0.000093
vt 0.865957 0.999907
vt 0.000093 0.500000
vt 0.865957 0.000093
vt 0.865957 0.999907
vt 0.000093 0.500000
vt 0.865957 0.999907
vt 0.865957 0.000093
vt 0.000093 0.500000
vt 0.865957 0.000093
vt 0.000093 0.500000
vt 0.865957 0.999907
vt 0.865957 0.000093
vt 0.000093 0.500000
vt 0.865957 0.999907
vt 0.865957 0.000093
vt 0.000093 0.500000
vt 0.865957 0.999907
vt 0.865957 0.000093
vt 0.000093 0.500000
vt 0.865957 0.999907
vt 0.865957 0.000093
vt 0.000093 0.500000
vt 0.865957 0.000093
vt 0.865957 0.999907
vt 0.000093 0.500000
vt 0.865957 0.000093
vt 0.000093 0.500000
vt 0.865957 0.000093
vt 0.865957 0.999907
vt 0.000093 0.500000
vt 0.865957 0.000093
vt 0.865957 0.999907
vn -0.1468 0.9877 0.0537
vn 0.4226 -0.8120 0.4025
vn 0.0676 0.7487 -0.6594
vn 0.9510 -0.0839 0.2976
vn 0.2466 -0.8040 -0.5412
vn 0.4211 0.8877 -0.1862
vn 0.1468 -0.9877 -0.0536
vn -0.4226 0.8120 -0.4025
vn -0.0676 -0.7487 0.6594
vn -0.9511 0.0836 -0.2974
vn -0.2466 0.8040 0.5412
vn -0.4211 -0.8877 0.1862
vn 0.0751 -0.8654 -0.4953
vn 0.0690 0.7451 -0.6633
vn 0.6869 -0.7121 0.1454
vn -0.1478 0.9873 0.0579
vn -0.6027 -0.7492 -0.2745
vn -0.4852 0.7747 0.4055
vn 0.2217 -0.9466 0.2343
vn -0.5512 0.7000 -0.4541
vn 0.0207 -0.9156 0.4016
vn 0.6457 0.7494 -0.1466
vn 0.3753 -0.8453 -0.3804
vn 0.1973 -0.4874 0.8506
vn -0.3766 0.8764 -0.3000
vn 0.4898 -0.7589 0.4292
vn -0.9418 0.1168 0.3153
vn 0.2879 0.9500 -0.1211
vn -0.5100 -0.4745 0.7175
vn -0.0321 0.9438 0.3289
vn 0.3296 -0.9326 0.1470
vn 0.1483 0.8905 -0.4302
vn 0.9372 -0.2656 0.2260
vn 0.1488 -0.6439 -0.7505
vn 0.5189 0.8535 0.0489
vn 0.0321 -0.9439 -0.3288
vn -0.3296 0.9326 -0.1470
vn -0.1483 -0.8905 0.4302
vn -0.9373 0.2654 -0.2259
vn -0.1488 0.6439 0.7505
vn -0.5189 -0.8535 -0.0489
vn -0.0282 -0.6968 -0.7167
vn 0.1493 0.8879 -0.4351
vn 0.6018 -0.7944 -0.0827
vn -0.0331 0.9424 0.3328
vn -0.6867 -0.5739 -0.4462
vn -0.3902 0.6794 0.6214
vn 0.1133 -0.9926 -0.0438
vn -0.4705 0.8539 -0.2226
vn -0.0816 -0.9877 0.1334
vn 0.7264 0.6861 0.0401
vn 0.2731 -0.7420 -0.6123
vn 0.1461 -0.7229 0.6754
vn -0.2758 0.9607 -0.0326
vn 0.4026 -0.8966 0.1845
vn -0.9199 0.1258 0.3715
vn 0.3942 0.9092 0.1338
vn -0.5561 -0.5968 0.5785
vn 0.5495 0.8348 0.0348
vn -0.1636 -0.8833 -0.4394
vn -0.2199 0.9744 0.0458
vn -0.0596 -0.1671 -0.9841
vn -0.8994 -0.4368 -0.0145
vn 0.1409 0.8896 -0.4346
vn -0.5494 -0.8349 -0.0348
vn 0.1636 0.8833 0.4394
vn 0.2199 -0.9744 -0.0458
vn 0.0597 0.1668 0.9842
vn 0.8994 0.4368 0.0145
vn -0.1409 -0.8896 0.4346
vn -0.8414 -0.5211 0.1430
vn -0.2253 0.9732 0.0458
vn -0.4067 -0.6600 -0.6317
vn 0.5530 0.8324 0.0346
vn -0.4101 -0.5584 0.7211
vn 0.8398 0.4635 0.2826
vn -0.2200 0.9744 0.0460
vn -0.3104 -0.9317 -0.1888
vn 0.1041 0.8029 0.5870
vn -0.0988 -0.9941 -0.0448
vn 0.0457 0.7606 -0.6476
vn -0.8208 -0.5429 -0.1778
vn 0.4273 -0.8223 -0.3758
vn 0.2664 0.8935 0.3616
vn -0.1355 -0.8458 -0.5160
vn 0.5852 -0.0949 0.8053
vn 0.2624 0.9065 -0.3306
vn 0.5225 -0.7833 0.3368
vn -0.0336 0.9877 0.1527
vn 0.5665 -0.8120 -0.1401
vn -0.5197 0.7487 -0.4114
vn 0.7621 -0.0839 -0.6420
vn -0.3238 -0.8040 -0.4988
vn 0.0693 0.8877 -0.4552
vn 0.0337 -0.9877 -0.1526
vn -0.5665 0.8120 0.1401
vn 0.5197 -0.7487 0.4114
vn -0.7620 0.0836 0.6421
vn 0.3238 0.8040 0.4988
vn -0.0693 -0.8877 0.4552
vn -0.3773 -0.8654 -0.3296
vn -0.5222 0.7452 -0.4147
vn 0.4919 -0.7121 -0.5010
vn -0.0307 0.9873 0.1557
vn -0.5551 -0.7495 0.3608
vn 0.0813 0.7747 0.6271
vn 0.3167 -0.9465 -0.0612
vn -0.6793 0.6999 0.2207
vn 0.3499 -0.9155 0.1984
vn 0.2234 0.7494 -0.6233
vn -0.1190 -0.8453 -0.5209
vn 0.8233 -0.4875 0.2908
vn -0.4554 0.8764 0.1564
vn 0.6251 -0.7590 -0.1825
vn -0.2403 0.1167 0.9637
vn 0.0529 0.9499 -0.3080
vn 0.3309 -0.4745 0.8157
vn 0.5566 0.7986 0.2291
vn -0.0868 -0.8415 -0.5333
vn -0.1870 0.9800 0.0683
vn 0.1724 -0.0975 -0.9802
vn -0.8856 -0.3839 -0.2613
vn 0.2753 0.9073 -0.3179
vn -0.5565 -0.7987 -0.2291
vn 0.0868 0.8415 0.5333
vn 0.1870 -0.9800 -0.0683
vn -0.1724 0.0972 0.9802
vn 0.8856 0.3839 0.2613
vn -0.2753 -0.9073 0.3179
vn -0.8704 -0.4817 -0.1018
vn -0.1921 0.9791 0.0670
vn -0.2677 -0.5926 -0.7597
vn 0.5600 0.7960 0.2296
vn -0.5926 -0.5815 0.5574
vn 0.7643 0.3959 0.5090
vn -0.1870 0.9800 0.0681
vn -0.2914 -0.8982 -0.3292
vn -0.0096 0.7549 0.6558
vn -0.1231 -0.9818 -0.1444
vn 0.2291 0.7984 -0.5569
vn -0.7740 -0.4832 -0.4091
vn 0.4732 -0.8182 -0.3265
vn 0.2057 0.8512 0.4828
vn -0.0398 -0.8007 -0.5977
vn 0.3703 -0.1810 0.9111
vn 0.3688 0.9104 -0.1875
vn 0.3956 -0.8321 0.3888
usemtl Material.001
s off
f 3/1/1 4/2/1 8/3/1
f 11/4/2 2/5/2 1/6/2
f 6/7/3 5/8/3 7/9/3
f 9/10/4 8/3/4 10/11/4
f 13/12/5 12/13/5 14/14/5
f 16/15/6 15/16/6 17/17/6
f 20/18/7 25/19/7 21/20/7
f 28/21/8 18/22/8 19/23/8
f 23/24/9 24/25/9 22/26/9
f 26/27/10 27/28/10 25/19/10
f 30/29/11 31/30/11 29/31/11
f 33/32/12 34/33/12 32/34/12
f 1/6/13 2/5/13 19/23/13 18/22/13
f 4/2/14 3/1/14 20/18/14 21/20/14
f 5/8/15 6/7/15 23/24/15 22/26/15
f 6/7/16 7/9/16 24/25/16 23/24/16
f 7/9/17 5/8/17 22/26/17 24/25/17
f 8/3/18 9/10/18 26/27/18 25/19/18
f 9/10/3 10/11/3 27/28/3 26/27/3
f 10/11/19 8/3/19 25/19/19 27/28/19
f 12/13/20 13/12/20 30/29/20 29/31/20
f 13/12/21 14/14/21 31/30/21 30/29/21
f 14/14/22 12/13/22 29/31/22 31/30/22
f 15/16/23 16/15/23 33/32/23 32/34/23
f 16/15/24 17/17/24 34/33/24 33/32/24
f 17/17/25 15/16/25 32/34/25 34/33/25
f 3/1/26 8/3/26 25/19/26 20/18/26
f 8/3/27 4/2/27 21/20/27 25/19/27
f 11/4/28 1/6/28 18/22/28 28/21/28
f 2/5/29 11/4/29 28/21/29 19/23/29
f 37/35/30 38/36/30 42/37/30
f 45/38/31 36/39/31 35/40/31
f 40/41/32 39/42/32 41/43/32
f 43/44/33 42/37/33 44/45/33
f 47/46/34 46/47/34 48/48/34
f 50/49/35 49/50/35 51/51/35
f 54/52/36 59/53/36 55/54/36
f 62/55/37 52/56/37 53/57/37
f 57/58/38 58/59/38 56/60/38
f 60/61/39 61/62/39 59/53/39
f 64/63/40 65/64/40 63/65/40
f 67/66/41 68/67/41 66/68/41
f 35/40/42 36/39/42 53/57/42 52/56/42
f 38/36/43 37/35/43 54/52/43 55/54/43
f 39/42/44 40/41/44 57/58/44 56/60/44
f 40/41/45 41/43/45 58/59/45 57/58/45
f 41/43/46 39/42/46 56/60/46 58/59/46
f 42/37/47 43/44/47 60/61/47 59/53/47
f 43/44/32 44/45/32 61/62/32 60/61/32
f 44/45/48 42/37/48 59/53/48 61/62/48
f 46/47/49 47/46/49 64/63/49 63/65/49
f 47/46/50 48/48/50 65/64/50 64/63/50
f 48/48/51 46/47/51 63/65/51 65/64/51
f 49/50/52 50/49/52 67/66/52 66/68/52
f 50/49/53 51/51/53 68/67/53 67/66/53
f 51/51/54 49/50/54 66/68/54 68/67/54
f 37/35/55 42/37/55 59/53/55 54/52/55
f 42/37/56 38/36/56 55/54/56 59/53/56
f 45/38/57 35/40/57 52/56/57 62/55/57
f 36/39/58 45/38/58 62/55/58 53/57/58
f 71/69/59 72/70/59 76/71/59
f 79/72/60 70/73/60 69/74/60
f 74/75/61 73/76/61 75/77/61
f 77/78/62 76/71/62 78/79/62
f 81/80/63 80/81/63 82/82/63
f 84/83/64 83/84/64 85/85/64
f 88/86/65 93/87/65 89/88/65
f 96/89/66 86/90/66 87/91/66
f 91/92/67 92/93/67 90/94/67
f 94/95/68 95/96/68 93/87/68
f 98/97/69 99/98/69 97/99/69
f 101/100/70 102/101/70 100/102/70
f 69/74/71 70/73/71 87/91/71 86/90/71
f 72/70/72 71/69/72 88/86/72 89/88/72
f 73/76/73 74/75/73 91/92/73 90/94/73
f 74/75/74 75/77/74 92/93/74 91/92/74
f 75/77/75 73/76/75 90/94/75 92/93/75
f 76/71/76 77/78/76 94/95/76 93/87/76
f 77/78/77 78/79/77 95/96/77 94/95/77
f 78/79/78 76/71/78 93/87/78 95/96/78
f 80/81/79 81/80/79 98/97/79 97/99/79
f 81/80/80 82/82/80 99/98/80 98/97/80
f 82/82/81 80/81/81 97/99/81 99/98/81
f 83/84/82 84/83/82 101/100/82 100/102/82
f 84/83/83 85/85/83 102/101/83 101/100/83
f 85/85/84 83/84/84 100/102/84 102/101/84
f 71/69/85 76/71/85 93/87/85 88/86/85
f 76/71/86 72/70/86 89/88/86 93/87/86
f 79/72/87 69/74/87 86/90/87 96/89/87
f 70/73/88 79/72/88 96/89/88 87/91/88
f 105/103/89 106/104/89 110/105/89
f 113/106/90 104/107/90 103/108/90
f 108/109/91 107/110/91 109/111/91
f 111/112/92 110/105/92 112/113/92
f 115/114/93 114/115/93 116/116/93
f 118/117/94 117/118/94 119/119/94
f 122/120/95 127/121/95 123/122/95
f 130/123/96 120/124/96 121/125/96
f 125/126/97 126/127/97 124/128/97
f 128/129/98 129/130/98 127/121/98
f 132/131/99 133/132/99 131/133/99
f 135/134/100 136/135/100 134/136/100
f 103/108/101 104/107/101 121/125/101 120/124/101
f 106/104/102 105/103/102 122/120/102 123/122/102
f 107/110/103 108/109/103 125/126/103 124/128/103
f 108/109/104 109/111/104 126/127/104 125/126/104
f 109/111/105 107/110/105 124/128/105 126/127/105
f 110/105/106 111/112/106 128/129/106 127/121/106
f 111/112/91 112/113/91 129/130/91 128/129/91
f 112/113/107 110/105/107 127/121/107 129/130/107
f 114/115/108 115/114/108 132/131/108 131/133/108
f 115/114/109 116/116/109 133/132/109 132/131/109
f 116/116/110 114/115/110 131/133/110 133/132/110
f 117/118/111 118/117/111 135/134/111 134/136/111
f 118/117/112 119/119/112 136/135/112 135/134/112
f 119/119/113 117/118/113 134/136/113 136/135/113
f 105/103/114 110/105/114 127/121/114 122/120/114
f 110/105/115 106/104/115 123/122/115 127/121/115
f 113/106/116 103/108/116 120/124/116 130/123/116
f 104/107/117 113/106/117 130/123/117 121/125/117
f 139/137/118 140/138/118 144/139/118
f 147/140/119 138/141/119 137/142/119
f 142/143/120 141/144/120 143/145/120
f 145/146/121 144/139/121 146/147/121
f 149/148/122 148/149/122 150/150/122
f 152/151/123 151/152/123 153/153/123
f 156/154/124 161/155/124 157/156/124
f 164/157/125 154/158/125 155/159/125
f 159/160/126 160/161/126 158/162/126
f 162/163/127 163/164/127 161/155/127
f 166/165/128 167/166/128 165/167/128
f 169/168/129 170/169/129 168/170/129
f 137/142/130 138/141/130 155/159/130 154/158/130
f 140/138/131 139/137/131 156/154/131 157/156/131
f 141/144/132 142/143/132 159/160/132 158/162/132
f 142/143/133 143/145/133 160/161/133 159/160/133
f 143/145/134 141/144/134 158/162/134 160/161/134
f 144/139/135 145/146/135 162/163/135 161/155/135
f 145/146/136 146/147/136 163/164/136 162/163/136
f 146/147/137 144/139/137 161/155/137 163/164/137
f 148/149/138 149/148/138 166/165/138 165/167/138
f 149/148/139 150/150/139 167/166/139 166/165/139
f 150/150/140 148/149/140 165/167/140 167/166/140
f 151/152/141 152/151/141 169/168/141 168/170/141
f 152/151/142 153/153/142 170/169/142 169/168/142
f 153/153/143 151/152/143 168/170/143 170/169/143
f 139/137/144 144/139/144 161/155/144 156/154/144
f 144/139/145 140/138/145 157/156/145 161/155/145
f 147/140/146 137/142/146 154/158/146 164/157/146
f 138/141/147 147/140/147 164/157/147 155/159/147
