# Blender v2.80 (sub 60) OBJ File: 'tree2.blend'
# www.blender.org
mtllib RhodeTree4-Trunk.mtl
o Cube_Cube.001
v -0.259013 0.003135 -0.151359
v 0.240987 0.003135 -0.151359
v 0.240987 0.090028 0.341033
v -0.259013 0.090028 0.341033
v 0.241135 31.152006 1.460798
v -0.258855 31.155161 1.461167
v -0.259161 31.165087 0.961266
v 0.240828 31.161932 0.960897
v -0.079750 27.962683 -3.431163
v 0.061724 27.962683 -3.431163
v 0.061724 28.014627 -3.299571
v -0.079750 28.014627 -3.299571
v 3.712401 27.213923 -2.154552
v 3.756673 27.213923 -2.020184
v 3.646079 27.294271 -1.983744
v 3.601806 27.294271 -2.118113
v -0.994520 24.253872 0.670094
v -1.110235 24.253872 0.588700
v -1.042240 24.331635 0.492034
v -0.926525 24.331635 0.573427
v -2.700441 17.347776 3.986158
v -2.901260 17.347776 3.841465
v -2.782096 17.488173 3.676078
v -2.581277 17.488173 3.820771
v -1.473652 14.171059 -2.795187
v -1.249520 14.171059 -2.900204
v -1.169690 14.331879 -2.729826
v -1.393822 14.331879 -2.624809
v 4.573294 16.061092 1.502913
v 4.491930 16.061092 1.736673
v 4.314322 16.222019 1.674855
v 4.395685 16.222019 1.441094
v 1.425267 6.358629 -3.039471
v 1.603365 6.358629 -2.924076
v 1.529409 6.521530 -2.809933
v 1.351310 6.521530 -2.925328
v 0.226364 38.756275 0.019727
v -0.052918 38.759808 0.019797
v -0.053597 38.711559 -0.255308
v 0.225686 38.708027 -0.255378
v -0.220024 3.731125 -0.795305
v 0.226227 3.695218 -0.775690
v 0.213375 3.786675 -0.332744
v -0.231402 3.786675 -0.332744
v 0.230471 4.543904 -0.376440
v -0.227568 4.550191 -0.362384
v -0.183795 4.562244 -0.858247
v 0.283056 4.608512 -0.722461
v -0.259013 5.057019 -0.286343
v -0.259013 5.108469 -0.783689
v 0.240987 5.108469 -0.783689
v 0.221331 10.184784 0.223500
v -0.239670 10.211823 0.234615
v -0.241799 10.227420 -0.232760
v 0.222119 10.249300 -0.237085
v -0.282945 11.119717 -0.052435
v 0.209055 11.096898 -0.197547
v 0.085239 11.136726 0.269156
v 0.185102 11.474130 -0.294517
v 0.240987 11.608110 0.210559
v -0.259013 11.608110 0.210559
v 0.240987 12.045656 -0.326625
v -0.231402 21.177864 -1.047894
v 0.216983 21.175030 -1.047251
v 0.229231 21.205965 -0.604587
v -0.238192 21.228737 -0.580182
v 0.178572 22.111874 -0.640788
v -0.236503 22.036821 -0.517899
v -0.212762 22.145897 -0.922990
v 0.219494 22.151159 -0.882111
v 0.240987 22.526636 -0.403100
v -0.259013 22.526636 -0.403100
v -0.259013 22.632494 -0.891765
v 0.240987 22.632494 -0.891765
v -0.235790 21.944798 -1.169461
v 0.259961 21.901264 -1.203390
v 0.240987 22.627039 -0.980167
v -0.259013 22.627039 -0.980167
v 0.418234 21.875996 -0.757466
v 0.026192 22.151125 -1.078852
v 0.635079 22.288326 -1.329367
v 0.791547 22.288326 -0.854479
v 0.400681 22.572296 -0.725696
v 0.244214 22.572296 -1.200583
v -0.044946 21.814117 -0.426733
v -0.419839 21.834335 -0.663671
v -0.213077 22.250761 -0.129279
v -0.381730 22.525595 -0.758583
v 0.027232 22.525595 -0.470920
v -0.075879 10.839970 0.504978
v -0.653649 11.288391 0.506058
v -0.007261 11.572002 0.464253
v -0.814370 11.687576 0.729122
v -0.573650 11.971188 0.395028
v -0.167982 11.971188 0.687317
v -0.413192 10.819606 -0.277176
v 0.004065 10.813395 -0.474604
v -0.578558 11.193322 -0.587295
v -0.125794 11.193322 -0.799438
v -0.262667 11.567355 -0.294324
v -0.709824 11.555285 -0.867449
v -0.095797 11.880153 -0.735417
v -0.548561 11.880153 -0.523274
v 0.503856 10.818058 -0.026167
v 0.348288 10.836586 0.409260
v 0.681908 11.203914 0.544221
v 0.323125 11.529000 0.419343
v 0.487485 11.529000 -0.052871
v 0.046521 4.239980 -1.133947
v 0.425624 4.257404 -0.889182
v 0.659508 4.536536 -1.202718
v 0.485260 4.920349 -0.933785
v 0.065641 4.920349 -1.205667
v -0.227202 21.995308 -1.246706
v 0.271484 21.953022 -1.235177
v 0.203206 22.151522 -0.931308
v -0.221849 22.145861 -0.947431
v 0.009761 22.155100 -1.094504
v 0.191813 22.118515 -0.674332
v 0.496644 21.902493 -0.786626
v 0.300580 21.947689 -1.219588
v 0.119180 22.116188 -0.642104
v -0.237879 22.128111 -0.915268
v -0.442583 21.885567 -0.623107
v -0.088207 21.894024 -0.375679
v -0.240833 11.096811 0.260018
v -0.421286 10.826500 0.214705
vt 0.052755 0.056228
vt 0.103645 0.058165
vt 0.047411 0.104460
vt 0.236270 0.439176
vt 0.208676 0.499444
vt 0.167910 0.505040
vt 0.170342 0.438175
vt 0.191213 -0.818180
vt 0.252404 -0.815553
vt -0.014551 0.064516
vt 0.014949 0.105590
vt -0.018828 0.164585
vt 0.447079 -0.818180
vt 0.479278 -0.815826
vt 0.436370 -0.003510
vt 0.370869 -0.001632
vt -0.543190 0.595780
vt -0.557951 -0.725071
vt -0.483120 -0.726014
vt -0.466533 0.593295
vt -0.409174 1.815757
vt -0.453010 1.818180
vt 0.554064 0.333037
vt 0.590470 0.333037
vt 0.590470 0.369444
vt 0.554064 0.369443
vt -0.136002 0.165354
vt -0.142102 0.068572
vt -0.080730 0.063637
vt -0.078096 0.164240
vt 0.619155 0.366323
vt 0.619155 0.393984
vt 0.591493 0.393984
vt 0.591493 0.366323
vt 0.657042 0.365300
vt 0.624779 0.365300
vt 0.624779 0.333037
vt 0.657042 0.333037
vt 0.656408 0.030546
vt 0.656408 0.062809
vt 0.624145 0.062809
vt 0.624146 0.030546
vt 0.591493 0.333037
vt 0.623756 0.333037
vt 0.623756 0.365300
vt 0.591493 0.365300
vt 0.620178 0.366323
vt 0.638619 0.366323
vt 0.638619 0.384764
vt 0.620178 0.384764
vt 0.554064 0.370467
vt 0.572505 0.370466
vt 0.572505 0.388907
vt 0.554064 0.388907
vt -0.397673 -0.794662
vt -0.381226 -0.797134
vt -0.380206 -0.773119
vt -0.397151 -0.767851
vt 0.504020 0.358269
vt 0.553041 0.333037
vt 0.553041 0.386723
vt -0.187297 -0.767908
vt -0.195253 -0.818180
vt -0.161267 -0.803547
vt -0.383383 -0.818180
vt -0.377747 -0.790705
vt -0.395631 -0.788529
vt -0.399293 -0.815153
vt -0.396461 -0.776170
vt -0.389682 -0.761600
vt -0.413540 -0.776504
vt -0.370047 -0.763941
vt -0.373256 -0.766700
vt -0.379026 -0.770936
vt -0.387259 -0.763927
vt -0.019989 0.664888
vt -0.084880 0.664037
vt -0.378254 -0.767001
vt -0.422643 -0.784892
vt -0.411158 -0.789853
vt -0.396768 -0.787355
vt -0.409927 -0.789353
vt -0.410439 -0.779666
vt -0.397994 -0.776099
vt 0.687608 -0.672186
vt 0.661622 -0.755495
vt 0.742877 -0.742245
vt 0.815249 -0.250246
vt 0.784504 -0.244534
vt -0.392968 -0.754800
vt -0.690725 -0.734515
vt -0.695812 -0.675110
vt -0.393462 -0.741972
vt -0.394427 -0.787934
vt -0.388790 -0.778114
vt -0.390029 -0.763250
vt 0.502997 0.398210
vt 0.437824 0.398210
vt 0.437824 0.333037
vt 0.502997 0.333037
vt -0.064328 -0.700836
vt -0.131360 -0.695885
vt -0.131657 -0.778120
vt -0.076663 -0.783953
vt 0.041663 0.168554
vt 0.103922 0.165938
vt -0.190007 -0.676033
vt -0.233864 -0.745366
vt -0.415098 -0.814926
vt -0.364825 -0.807552
vt -0.340693 -0.788533
vt -0.364368 -0.778933
vt 0.050796 -0.778059
vt 0.104246 -0.763628
vt 0.065042 -0.691042
vt 0.003269 -0.703444
vt -0.025274 -0.783200
vt 0.015411 -0.813405
vt 0.639641 0.366323
vt 0.658082 0.366323
vt 0.658082 0.384764
vt 0.639641 0.384764
vt -0.105871 -0.817678
vt -0.141185 -0.813754
vt -0.343920 -0.772486
vt 0.736032 -0.807538
vt 0.796135 -0.815619
vt 0.806561 -0.749876
vt 0.813330 -0.689196
vt 0.847874 -0.254076
vt 1.026052 -0.235399
vt 1.048678 -0.168637
vt 0.972568 -0.157727
vt 0.631054 -0.090612
vt 0.624145 -0.117832
vt 0.042065 0.665150
vt 0.985209 0.766339
vt 1.049386 0.769803
vt 1.130681 0.776283
vt 1.122331 0.838961
vt 0.105269 0.742460
vt 0.107941 0.710222
vt -0.083789 -0.003946
vt -0.022902 -0.006886
vt 0.038660 -0.009538
vt 1.179952 -0.699493
vt 1.238693 -0.699954
vt 1.238972 -0.641498
vt 1.177408 -0.638431
vt 0.885565 -0.679731
vt 0.886969 -0.698862
vt 0.066338 -0.726371
vt 0.066545 -0.709475
vt 0.302264 0.375472
vt 0.296761 0.450972
vt 0.311419 -0.814584
vt 0.366755 0.440187
vt 0.369846 0.507482
vt 0.304713 0.502955
vt 1.170898 -0.813422
vt 1.229461 -0.818180
vt 1.240090 -0.762972
vt 0.885457 -0.717986
vt 0.882095 -0.736115
vt 0.562912 0.072629
vt 0.502472 0.072264
vt 0.500143 0.001257
vt 0.512789 -0.814692
vt 0.545146 -0.814842
vt -0.352768 -0.728058
vt -0.277982 -0.730498
vt -0.234887 0.589396
vt -0.311744 0.589673
vt 1.129985 0.140151
vt 1.196035 0.149691
vt 1.196800 0.203959
vt 1.131186 0.203676
vt 0.373772 0.216076
vt 0.372889 0.197278
vt 0.623122 0.002143
vt 0.623122 0.069164
vt 0.577383 -0.815995
vt 1.131590 0.266655
vt 1.197495 0.268952
vt 1.201118 0.322489
vt 1.134351 0.332014
vt 0.372222 0.253596
vt 0.373551 0.235165
vt -0.322875 -0.746166
vt -0.622019 -0.842466
vt -0.389035 -0.788668
vt -0.234887 -0.762827
vt 0.068533 -0.761240
vt -0.408289 -0.726998
vt -0.435463 -0.750969
vt -0.451806 -0.777537
vt -0.276979 1.815794
vt -0.321255 1.814909
vt -0.388050 0.591222
vt -0.365258 1.814653
vt -0.626851 -0.784617
vt 0.066907 -0.743846
vt 0.975336 -0.095032
vt 0.635362 -0.061869
vt 1.130560 0.073652
vt 1.201118 0.080968
vt 0.166762 0.504987
vt 0.124383 0.499159
vt 0.105269 0.436959
vt 0.130234 -0.816630
vt -0.149683 0.662577
vt 0.370869 0.178288
vt 1.130681 0.572912
vt 1.120430 0.627997
vt 1.055218 0.638795
vt 0.990558 0.638852
vt 0.109756 0.644948
vt 0.108922 0.612634
vt 0.635439 -0.004832
vt 0.636872 -0.033355
vt 0.980270 -0.034014
vt 1.044610 -0.037355
vt 1.048678 0.029523
vt 1.172739 -0.571774
vt 1.240091 -0.574830
vt 0.369846 -0.813586
vt 0.881459 -0.661389
vt 0.987896 0.702611
vt 0.109424 0.677907
vt 1.054993 0.688843
vt 1.111212 0.734670
vt 0.165863 0.571889
vt 0.120105 0.562261
vt 0.104246 0.665287
vt 0.679006 -0.802658
vt 0.385961 0.398360
vt 0.370869 0.340685
vt 0.436801 0.333037
vt 0.436801 0.399965
vt 0.880436 -0.758894
vt 0.848453 -0.818180
vt 0.624997 -0.650945
vt 0.624145 -0.711790
vt 0.878368 -0.694997
vt 0.754302 -0.236422
vt 0.880436 -0.255462
vt 0.436762 0.060164
vt 0.379465 0.068179
vt 1.033842 -0.098030
vn 0.9375 0.2875 0.1962
vn -1.0000 0.0031 -0.0011
vn -0.7754 -0.0140 -0.6314
vn -0.3163 0.0153 0.9485
vn 1.0000 0.0007 -0.0007
vn 0.0124 0.9849 -0.1728
vn 0.0159 0.0479 0.9987
vn 0.4174 0.6409 -0.6442
vn 0.6140 0.7598 0.2137
vn -0.2757 0.7602 -0.5884
vn -0.3316 0.8236 0.4602
vn -0.3162 0.8354 0.4496
vn 0.5394 0.8231 -0.1777
vn -0.9666 -0.1608 -0.1993
vn 0.1885 0.5462 0.8162
vn 0.6217 -0.2933 -0.7262
vn -0.0436 -0.1816 -0.9824
vn -0.0134 0.9998 0.0130
vn 0.6373 -0.4182 -0.6473
vn -0.9040 0.2942 -0.3103
vn -0.9997 0.0093 -0.0208
vn -0.5533 0.8265 0.1038
vn 0.7371 0.6359 0.2285
vn 0.4367 -0.8655 -0.2454
vn -0.6900 -0.7031 0.1718
vn 0.1059 -0.9867 -0.1229
vn 0.8831 0.0122 -0.4691
vn -0.0777 -0.7200 -0.6896
vn -0.1895 -0.7421 0.6430
vn 0.0132 -0.9998 -0.0151
vn 0.0000 -0.9848 0.1738
vn -0.9596 -0.2811 -0.0085
vn 0.9577 -0.1264 0.2584
vn 0.1001 -0.3541 0.9298
vn 0.9624 -0.2005 -0.1834
vn 0.3584 -0.1095 0.9271
vn 0.9236 -0.3557 0.1429
vn 0.6669 0.0450 -0.7438
vn -0.2081 -0.2973 -0.9318
vn 0.2598 -0.4693 -0.8439
vn -0.5356 -0.0638 0.8420
vn -0.6427 -0.0228 0.7658
vn 0.0000 0.9302 -0.3672
vn -0.8863 0.4607 0.0467
vn 0.0522 -0.9026 -0.4273
vn 0.3941 0.3227 0.8605
vn -0.5714 -0.2246 -0.7894
vn -0.3131 -0.6330 -0.7080
vn -0.7946 -0.0237 -0.6067
vn 0.0140 -0.1685 -0.9856
vn -0.4419 -0.5577 0.7026
vn -0.9944 -0.0936 -0.0498
vn 0.1377 0.0281 -0.9901
vn 0.8005 0.0366 0.5983
vn -0.0058 -0.3435 -0.9391
vn 0.0055 -0.0778 -0.9970
vn 0.9863 -0.1361 0.0933
vn -1.0000 0.0033 0.0024
vn -0.8702 -0.0031 -0.4926
vn 0.3737 -0.0130 -0.9275
vn -0.0003 -0.2112 0.9774
vn -0.3019 0.0223 -0.9531
vn 0.7372 -0.6393 0.2186
vn 0.3262 0.0180 0.9451
vn 0.1532 -0.3647 0.9184
vn 0.9993 0.0340 0.0181
vn 0.0437 0.0234 -0.9988
vn 0.9941 -0.1021 0.0354
vn 0.0022 0.1862 0.9825
vn -0.0019 -0.1591 -0.9873
vn -0.0069 0.1064 -0.9943
vn -0.0179 0.0850 0.9962
vn -0.9975 -0.0041 -0.0710
vn -0.3255 0.8010 0.5024
vn 0.0000 0.3954 0.9185
vn 0.6839 -0.6656 -0.2987
vn 0.0253 0.0844 0.9961
vn -0.8165 0.4749 0.3282
vn 0.0000 0.1793 0.9838
vn 0.7979 -0.5425 -0.2629
vn 0.7760 -0.0263 0.6301
vn 0.3146 -0.7446 -0.5887
vn 0.5328 0.4475 -0.7182
vn 0.9999 -0.0024 -0.0144
vn 0.4544 0.6135 -0.6459
vn -0.8174 0.0153 -0.5759
vn -0.5594 -0.5055 0.6570
vn -0.4770 0.0944 -0.8738
vn 0.4059 0.1852 -0.8950
vn 0.9998 0.0045 0.0190
vn -0.6849 -0.0381 -0.7276
vn 0.5157 0.6313 -0.5792
vn 0.4752 0.5824 -0.6595
vn 0.9999 0.0079 0.0122
vn 0.8624 -0.1011 -0.4960
vn 0.1866 0.3740 0.9084
vn -0.8497 0.1824 0.4947
vn -1.0000 0.0087 -0.0011
vn 0.2238 0.7531 0.6187
vn -0.7880 -0.0229 0.6153
vn 0.3119 0.6780 0.6656
vn -0.9153 0.0288 0.4017
vn -0.4159 -0.0283 0.9090
vn -0.7731 0.5778 -0.2618
vn -0.7649 0.5928 0.2520
vn -0.7051 0.6653 -0.2454
vn 0.0463 -0.1051 0.9934
vn 0.7846 -0.0289 0.6193
vn -0.3188 0.7246 0.6110
vn 0.8605 0.0345 0.5083
vn 0.0003 0.2122 -0.9772
usemtl Material.003
s off
f 48/1/1 45/2/1 110/3/1
f 100/4/2 56/5/2 126/6/2 61/7/2 66/8/2 63/9/2
f 47/10/3 109/11/3 41/12/3
f 30/13/4 31/14/4 107/15/4 106/16/4
f 5/17/5 71/18/5 74/19/5 8/20/5 40/21/5 37/22/5
f 40/23/6 39/24/6 38/25/6 37/26/6
f 43/27/7 45/28/7 46/29/7 44/30/7
f 36/31/8 35/32/8 34/33/8 33/34/8
f 32/35/9 31/36/9 30/37/9 29/38/9
f 28/39/10 27/40/10 26/41/10 25/42/10
f 24/43/11 23/44/11 22/45/11 21/46/11
f 20/47/12 19/48/12 18/49/12 17/50/12
f 16/51/13 15/52/13 14/53/13 13/54/13
f 63/55/14 66/56/14 86/57/14 75/58/14
f 105/59/15 58/60/15 90/61/15
f 90/62/16 127/63/16 126/64/16
f 63/65/17 75/66/17 76/67/17 64/68/17
f 80/69/18 69/70/18 70/71/18
f 68/72/19 125/73/19 124/74/19 86/57/19
f 86/57/20 124/74/20 123/75/20 75/58/20
f 41/12/21 1/76/21 4/77/21 44/30/21 46/29/21 47/10/21
f 75/58/22 123/75/22 122/78/22 69/70/22
f 70/71/23 67/79/23 79/80/23
f 76/67/24 121/81/24 120/82/24 79/80/24
f 79/80/25 120/82/25 119/83/25 70/71/25
f 70/71/26 119/83/26 118/84/26 80/69/26
f 102/85/27 59/86/27 99/87/27 26/88/27 27/89/27
f 75/90/28 114/91/28 115/92/28 76/93/28
f 76/67/29 115/94/29 116/95/29 80/69/29
f 80/69/30 116/95/30 117/96/30 69/70/30
f 1/97/31 2/98/31 3/99/31 4/100/31
f 54/101/32 53/102/32 127/103/32 96/104/32
f 42/105/33 110/3/33 45/2/33 43/106/33
f 53/102/34 52/107/34 105/108/34 90/62/34
f 64/68/35 76/67/35 79/80/35 65/109/35
f 66/56/36 65/110/36 79/111/36 85/112/36
f 104/113/37 105/114/37 52/115/37 55/116/37
f 104/113/38 55/116/38 97/117/38 57/118/38
f 97/117/39 55/116/39 54/101/39 96/104/39
f 109/11/40 110/3/40 42/105/40 41/12/40
f 86/57/41 66/56/41 85/112/41 68/72/41
f 53/102/42 90/62/42 126/64/42 127/103/42
f 12/119/43 11/120/43 10/121/43 9/122/43
f 56/123/44 96/104/44 127/103/44 126/124/44
f 69/70/45 122/78/45 125/73/45 68/72/45
f 67/125/46 68/72/46 85/112/46 79/111/46
f 80/69/47 118/84/47 121/81/47 76/67/47
f 99/87/48 97/126/48 96/127/48 98/128/48 101/129/48 25/130/48 26/88/48
f 109/131/49 47/132/49 113/133/49 36/134/49 33/135/49
f 2/136/50 1/76/50 41/12/50 42/105/50
f 93/137/51 91/138/51 127/139/51 90/140/51 21/141/51 22/142/51
f 49/143/52 50/144/52 47/10/52 46/29/52
f 50/144/53 51/145/53 48/1/53 47/10/53
f 87/146/54 125/147/54 122/148/54 89/149/54 20/150/54 17/151/54
f 115/92/55 114/91/55 9/152/55 10/153/55
f 62/154/56 59/155/56 100/4/56 63/9/56 64/156/56
f 59/155/57 60/157/57 58/158/57 57/159/57
f 50/144/58 49/143/58 53/102/58 54/101/58
f 88/160/59 123/161/59 124/162/59 18/163/59 19/164/59
f 104/165/60 57/166/60 108/167/60 32/168/60 29/169/60
f 72/170/61 71/171/61 5/172/61 6/173/61
f 81/174/62 121/175/62 118/176/62 84/177/62 16/178/62 13/179/62
f 106/180/63 105/181/63 104/165/63 29/169/63 30/182/63
f 83/183/64 119/184/64 120/185/64 82/186/64 14/187/64 15/188/64
f 71/189/65 72/170/65 68/72/65 67/125/65
f 77/190/66 116/95/66 115/191/66 10/192/66 11/193/66
f 73/194/67 74/195/67 70/71/67 69/70/67
f 74/195/68 71/196/68 67/79/68 70/71/68
f 6/173/69 5/172/69 37/197/69 38/198/69
f 8/20/70 7/199/70 39/200/70 40/21/70
f 51/145/71 50/144/71 54/101/71 55/116/71
f 77/190/72 78/201/72 117/96/72 116/95/72
f 114/91/73 75/90/73 69/70/73 117/96/73 78/201/73 12/202/73 9/152/73
f 113/133/74 112/203/74 35/204/74 36/134/74
f 78/201/75 77/190/75 11/193/75 12/202/75
f 81/174/76 82/205/76 120/206/76 121/175/76
f 61/7/77 126/207/77 58/208/77 60/209/77 65/210/77 66/8/77
f 83/183/78 84/177/78 118/176/78 119/184/78
f 4/77/79 3/211/79 43/27/79 44/30/79
f 82/205/80 81/174/80 13/179/80 14/212/80
f 90/213/81 58/214/81 92/215/81 95/216/81 24/217/81 21/218/81
f 33/219/82 34/220/82 111/221/82 110/222/82 109/223/82
f 88/224/83 89/149/83 122/148/83 123/225/83
f 60/157/84 59/155/84 62/154/84 64/156/84 65/226/84
f 19/227/85 20/150/85 89/149/85 88/224/85
f 94/228/86 93/137/86 22/142/86 23/229/86
f 17/151/87 18/163/87 124/162/87 125/147/87 87/146/87
f 91/138/88 61/230/88 126/231/88 127/139/88
f 61/232/89 92/233/89 58/208/89 126/207/89
f 45/2/90 48/1/90 51/145/90 55/116/90 52/115/90
f 93/137/91 94/228/91 61/230/91 91/138/91
f 94/228/92 95/216/92 92/215/92 61/230/92
f 95/216/93 94/228/93 23/229/93 24/217/93
f 3/234/94 2/136/94 42/105/94 43/106/94
f 99/87/95 59/86/95 57/235/95 97/126/95
f 59/236/96 100/237/96 56/238/96 57/239/96
f 100/240/97 98/128/97 96/127/97 56/241/97
f 7/199/98 73/194/98 69/70/98 68/72/98 72/170/98 6/173/98 38/198/98 39/200/98
f 102/85/99 103/242/99 100/243/99 59/86/99
f 103/244/100 101/129/100 98/128/100 100/240/100
f 103/242/101 102/85/101 27/89/101 28/245/101
f 101/129/102 103/244/102 28/246/102 25/130/102
f 106/16/103 107/15/103 58/247/103 105/248/103
f 107/15/104 108/167/104 57/166/104 58/247/104
f 84/177/105 83/183/105 15/188/105 16/178/105
f 108/167/106 107/15/106 31/14/106 32/168/106
f 49/143/107 46/29/107 45/28/107 52/107/107 53/102/107
f 111/221/108 112/203/108 48/249/108 110/222/108
f 112/203/109 113/133/109 47/132/109 48/249/109
f 112/203/110 111/221/110 34/220/110 35/204/110
f 74/19/111 73/194/111 7/199/111 8/20/111
