# Blender v2.80 (sub 60) OBJ File: 'ForestSetup.blend'
# www.blender.org
mtllib RhodeTreeSmall.mtl
o SmallTree.002_Cube.022
v 0.040712 -0.516044 0.031103
v 1.501081 -0.393725 0.047035
v 1.517066 -0.393725 -1.418436
v 0.803194 6.800469 -0.718974
v 1.279860 7.410510 -0.953547
v 1.352379 6.724740 -0.718485
v 1.343639 6.691679 -0.164713
v 1.664629 7.403643 -0.635544
v 1.573301 7.923839 -0.130625
v 0.056698 -0.516044 -1.434367
v 2.862957 14.817728 -3.628934
v 3.004493 14.795256 -3.644404
v 2.922883 14.784899 -3.704574
v -2.326741 16.400101 -1.765938
v -2.398635 16.390417 -2.012264
v -2.484100 16.374493 -1.852869
v 0.564196 7.510392 -0.462171
v 1.180010 7.927215 0.098738
v 0.959929 8.066690 -0.275283
v 1.352786 8.069241 -0.502149
v 1.090447 7.796898 -0.684587
v 1.435428 7.765124 -0.340284
v 0.887302 7.833765 -0.269638
v 0.798987 7.521390 -0.884882
v 0.796001 6.780072 -0.165500
v 1.711798 11.530369 0.723863
v 1.938692 11.479910 0.777492
v 1.857352 11.530369 0.638615
v 0.053007 2.943260 -0.263776
v 0.935639 2.942261 -1.129771
v 0.061828 2.971996 -1.137614
v 0.926818 2.913525 -0.255933
v 1.793138 11.479910 0.862740
v 0.625397 8.220764 -0.418150
v 0.881792 8.220764 -0.856141
v -1.744146 11.012242 -1.852815
v -1.202017 11.195677 -2.028495
v -1.539480 11.029781 -2.222956
v -1.406710 11.178139 -1.658355
v -2.241276 16.416025 -1.925361
v 1.235567 8.146255 -0.936368
v 2.173103 8.966056 -2.077375
v 2.308669 9.277124 -1.358997
v 2.616414 8.992931 -1.733344
v 1.865359 9.250250 -1.703028
v 2.944595 14.828084 -3.568764
v 5.400824 9.054320 -4.587641
v -1.867037 20.759232 3.228783
v 6.378990 23.864590 -9.990441
v -1.235264 17.839664 -11.702456
v 6.479490 25.613991 -0.258073
v 4.319036 9.961937 0.868249
v 3.060457 11.259243 -10.096264
v 10.695853 19.047638 1.391327
v -4.207377 22.964148 -2.279813
v -4.772603 13.708578 -5.151047
v 8.240086 15.944016 3.600877
v 2.856144 26.560436 -1.097388
v -3.252634 11.945989 -0.943668
v 10.123979 14.855522 -8.913813
v 11.945856 16.713894 -6.172799
v 0.592069 15.867736 4.840784
v -2.957401 20.630405 -9.843939
v 5.408342 9.055654 -4.582647
v 6.381351 23.870310 -9.983710
v -1.859492 20.760563 3.233777
v -1.243162 17.841072 -11.698087
v 4.311139 9.963343 0.872619
v 6.471592 25.615398 -0.253703
v 3.063551 11.265268 -10.102397
v -4.204283 22.970173 -2.285974
v 10.698947 19.053663 1.385193
v -4.776809 13.715336 -5.146514
v 8.235878 15.950772 3.605382
v 2.851259 26.562397 -1.104879
v 10.119093 14.857483 -8.921304
v -3.257519 11.947951 -0.951131
v 11.947539 16.722553 -6.170383
v -2.955719 20.639065 -9.841551
v 0.593752 15.876402 4.843173
v -5.230351 8.680458 6.092007
v -0.601428 28.920366 1.971372
v -2.488172 14.927782 -13.881855
v -13.733533 16.346951 -7.165729
v 6.492870 22.547199 -7.889914
v -1.308896 13.931992 9.801064
v -11.119021 8.751617 -0.069586
v 9.074081 15.062690 -0.754526
v -6.490098 28.991520 -4.190221
v -13.384020 20.908014 3.252233
v 7.260454 16.509892 4.840377
v 2.750894 25.964739 -8.676387
v -9.174307 21.039728 8.104385
v -1.878029 5.724841 -4.555752
v 2.940198 7.230706 -4.719191
v 0.993719 24.217579 7.759486
v -12.623981 21.159548 -8.154885
v -5.218437 8.677906 6.092849
v -2.477831 14.934238 -13.882940
v -0.589514 28.917812 1.972213
v -13.736791 16.358044 -7.161767
v -1.312153 13.943083 9.805026
v 6.489614 22.558289 -7.885952
v -11.118642 8.749097 -0.081555
v -6.489718 28.989002 -4.202163
v 9.074461 15.060167 -0.766468
v -13.381360 20.919697 3.249871
v 7.263114 16.521576 4.837989
v 2.740852 25.965637 -8.683281
v -1.888071 5.725737 -4.562618
v -9.184348 21.040627 8.097491
v 2.947499 7.237031 -4.726654
v -12.616681 21.165874 -8.162350
v 1.001020 24.223911 7.752023
v -0.783024 15.792858 8.432185
v 1.293376 15.539153 -5.461016
v 9.211085 7.579381 3.053780
v 0.750840 5.401786 3.446501
v 9.798267 14.416315 -2.408921
v -1.226362 19.241890 4.841463
v -0.620074 10.139652 8.573369
v 8.382790 19.154161 2.650178
v 1.456326 9.885948 -5.319860
v -4.408325 10.328767 0.968099
v 4.788484 20.884296 2.149846
v 8.107749 12.204844 -4.368129
v -4.751921 14.574984 0.770762
v 6.031349 12.458548 9.525101
v 8.179508 14.609468 8.111794
v -0.218641 19.114141 -2.211800
v 1.253045 5.341262 0.141755
v -0.777678 15.798914 8.432864
v 9.215699 7.583560 3.048569
v 1.298722 15.545210 -5.460338
v 0.746389 5.401834 3.439716
v -1.230813 19.241938 4.834678
v 9.793843 14.416365 -2.415706
v -0.614049 10.134300 8.574346
v 1.462324 9.880597 -5.318856
v 8.388815 19.148811 2.651155
v -4.407130 10.328620 0.960065
v 4.789705 20.884151 2.141812
v 8.106256 12.196873 -4.368211
v 6.029856 12.450578 9.525019
v -4.753441 14.567013 0.770680
v 8.185750 14.609253 8.106609
v 1.259287 5.341045 0.136572
v -0.212398 19.113922 -2.216956
vt 0.109495 0.469911
vt 0.084746 0.482249
vt 0.093931 0.459099
vt 0.146979 0.468923
vt 0.170653 0.489206
vt 0.157539 0.510465
vt 0.071448 0.471553
vt 0.302968 0.505271
vt 0.350948 0.492645
vt 0.370535 0.608180
vt 0.381993 0.738510
vt 0.363463 0.741382
vt 0.342205 0.613482
vt 0.114340 0.496544
vt 0.142071 0.512193
vt 0.127251 0.517008
vt 0.072129 0.506585
vt 0.070616 0.492313
vt 0.046319 0.494033
vt 0.060089 0.505272
vt 0.059272 0.515390
vt 0.120279 0.512426
vt 0.098287 0.492581
vt 0.128295 0.472168
vt 0.015647 0.377174
vt 0.031165 0.376557
vt 0.030910 0.502435
vt 0.025136 0.502659
vt 0.244113 0.365061
vt 0.244206 0.230162
vt 0.262379 0.232314
vt 0.261187 0.364869
vt 0.400437 0.488495
vt 0.399096 0.606245
vt 0.208721 0.415253
vt 0.208721 0.421020
vt 0.202955 0.421020
vt 0.202955 0.415253
vt 0.430473 0.608062
vt 0.449817 0.492780
vt 0.497647 0.505110
vt 0.461537 0.613940
vt 0.300079 0.217298
vt 0.316902 0.218990
vt 0.313348 0.289698
vt 0.294763 0.290887
vt 0.289476 0.366142
vt 0.275895 0.365485
vt 0.279656 0.216446
vt 0.296108 0.216147
vt 0.000105 0.378453
vt 0.019398 0.503347
vt 0.206439 0.421173
vt 0.206439 0.424658
vt 0.202955 0.424658
vt 0.202955 0.421173
vt 0.419480 0.738809
vt 0.400725 0.738123
vt 0.333541 0.237016
vt 0.333913 0.221895
vt 0.350269 0.219252
vt 0.354781 0.288585
vt 0.333491 0.288772
vt 0.340400 0.494091
vt 0.336963 0.494332
vt 0.266943 0.545278
vt 0.260906 0.545169
vt 0.254871 0.545332
vt 0.343846 0.494112
vt 0.202801 0.458993
vt 0.152701 0.458993
vt 0.152701 0.408892
vt 0.202801 0.408892
vt 0.264371 0.215875
vt 0.247390 0.215765
vt 0.239831 0.212659
vt 0.165313 0.464064
vt 0.083612 0.517008
vt 0.374794 0.289023
vt 0.347281 0.494395
vt 0.046746 0.377167
vt 0.062242 0.378681
vt 0.042420 0.503383
vt 0.036684 0.502677
vt 0.333553 0.494833
vt 0.438067 0.741382
vt 0.367659 0.217298
vt 0.202955 0.415100
vt 0.202955 0.408892
vt 0.209162 0.408892
vt 0.209162 0.415100
vt 0.222535 0.215180
vt 0.248849 0.545766
vt 0.227874 0.365935
vt 0.272969 0.545659
vt 0.502570 0.500000
vt 0.935502 0.000093
vt 0.935502 0.999907
vt 0.502570 0.500000
vt 0.935502 0.000093
vt 0.935502 0.999907
vt 0.502570 0.500000
vt 0.935502 0.999907
vt 0.935502 0.000093
vt 0.502570 0.500000
vt 0.935502 0.000093
vt 0.502570 0.500000
vt 0.935502 0.999907
vt 0.935502 0.000093
vt 0.502570 0.500000
vt 0.935502 0.999907
vt 0.935502 0.000093
vt 0.502570 0.500000
vt 0.935502 0.999907
vt 0.935502 0.000093
vt 0.502570 0.500000
vt 0.935502 0.999907
vt 0.935502 0.000093
vt 0.502570 0.500000
vt 0.935502 0.000093
vt 0.935502 0.999907
vt 0.502570 0.500000
vt 0.935502 0.000093
vt 0.502570 0.500000
vt 0.935502 0.000093
vt 0.935502 0.999907
vt 0.502570 0.500000
vt 0.935502 0.000093
vt 0.935502 0.999907
vt 0.502570 0.500000
vt 0.935502 0.000093
vt 0.935502 0.999907
vt 0.502570 0.500000
vt 0.935502 0.000093
vt 0.935502 0.999907
vt 0.502570 0.500000
vt 0.935502 0.999907
vt 0.935502 0.000093
vt 0.502570 0.500000
vt 0.935502 0.000093
vt 0.502570 0.500000
vt 0.935502 0.999907
vt 0.935502 0.000093
vt 0.502570 0.500000
vt 0.935502 0.999907
vt 0.935502 0.000093
vt 0.502570 0.500000
vt 0.935502 0.999907
vt 0.935502 0.000093
vt 0.502570 0.500000
vt 0.935502 0.999907
vt 0.935502 0.000093
vt 0.502570 0.500000
vt 0.935502 0.000093
vt 0.935502 0.999907
vt 0.502570 0.500000
vt 0.935502 0.000093
vt 0.502570 0.500000
vt 0.935502 0.000093
vt 0.935502 0.999907
vt 0.502570 0.500000
vt 0.935502 0.000093
vt 0.935502 0.999907
vt 0.502570 0.500000
vt 0.935502 0.000093
vt 0.935502 0.999907
vt 0.502570 0.500000
vt 0.935502 0.000093
vt 0.935502 0.999907
vt 0.502570 0.500000
vt 0.935502 0.999907
vt 0.935502 0.000093
vt 0.502570 0.500000
vt 0.935502 0.000093
vt 0.502570 0.500000
vt 0.935502 0.999907
vt 0.935502 0.000093
vt 0.502570 0.500000
vt 0.935502 0.999907
vt 0.935502 0.000093
vt 0.502570 0.500000
vt 0.935502 0.999907
vt 0.935502 0.000093
vt 0.502570 0.500000
vt 0.935502 0.999907
vt 0.935502 0.000093
vt 0.502570 0.500000
vt 0.935502 0.000093
vt 0.935502 0.999907
vt 0.502570 0.500000
vt 0.935502 0.000093
vt 0.502570 0.500000
vt 0.935502 0.000093
vt 0.935502 0.999907
vt 0.502570 0.500000
vt 0.935502 0.000093
vt 0.935502 0.999907
vn -0.6967 -0.0987 -0.7106
vn 0.0331 -0.2500 -0.9677
vn 0.6839 -0.2503 -0.6853
vn 0.6640 -0.2195 0.7148
vn 0.9435 -0.3204 -0.0842
vn 0.9664 -0.0574 0.2506
vn 0.6520 -0.4751 -0.5909
vn -0.5452 -0.5781 -0.6071
vn -0.7128 0.1320 -0.6888
vn 0.7389 0.0909 -0.6676
vn -0.9386 -0.2150 0.2698
vn -0.2155 -0.0561 0.9749
vn -0.6640 0.7418 0.0944
vn 0.3806 0.2636 -0.8864
vn 0.1401 0.9885 0.0570
vn 0.7756 0.5637 -0.2841
vn 0.6189 -0.5750 0.5351
vn -0.3351 -0.0771 -0.9390
vn -0.6815 -0.0702 0.7284
vn -0.6711 0.7409 -0.0256
vn 0.3064 0.7392 -0.5997
vn 0.2877 0.2976 0.9103
vn 0.0787 0.4659 0.8813
vn 0.8588 0.4033 -0.3159
vn 0.8661 0.2963 -0.4026
vn -0.5572 -0.5806 0.5937
vn -0.7410 0.0915 0.6653
vn -0.1259 0.3996 0.9080
vn 0.8525 0.4016 0.3346
vn 0.6771 0.0497 0.7342
vn 0.6360 -0.4785 0.6054
vn -0.0980 -0.4068 -0.9082
vn 0.9417 -0.3257 -0.0839
vn -0.9293 -0.3081 0.2037
vn -0.2852 -0.2509 -0.9251
vn -0.7127 0.6927 -0.1105
vn 0.1925 0.8038 0.5629
vn 0.8580 0.4325 -0.2770
vn -0.0443 0.3287 -0.9434
vn -0.9000 0.4350 -0.0267
vn 0.2605 0.3771 0.8888
vn -0.9284 0.3594 0.0948
vn -0.3257 0.5472 -0.7710
vn 0.6642 0.7133 -0.2236
vn 0.1138 0.6273 0.7704
vn 0.2579 0.9656 -0.0326
vn -0.8585 0.4629 0.2207
vn -0.8237 -0.1455 -0.5480
vn 0.8646 -0.1538 -0.4784
vn -0.3386 -0.6588 0.6718
vn 0.4588 -0.7389 -0.4934
vn 0.5340 -0.2146 0.8178
vn -0.1842 -0.9471 -0.2627
vn 0.8238 0.1456 0.5479
vn -0.8646 0.1538 0.4784
vn 0.3386 0.6588 -0.6718
vn -0.4587 0.7390 0.4933
vn -0.5340 0.2146 -0.8178
vn 0.1842 0.9471 0.2627
vn 0.4836 -0.0038 0.8753
vn -0.3320 -0.6577 0.6761
vn 0.8082 -0.5689 -0.1518
vn 0.8082 -0.5690 -0.1518
vn -0.8216 -0.1414 -0.5522
vn 0.0135 0.7106 0.7034
vn -0.6647 0.4439 -0.6009
vn -0.3382 -0.6595 0.6713
vn 0.9840 0.1750 -0.0326
vn -0.7523 0.3205 0.5756
vn 0.7103 0.6387 -0.2961
vn 0.0422 -0.9594 -0.2788
vn 0.6727 -0.3162 0.6690
vn 0.2845 0.2045 -0.9366
vn -0.9570 0.1121 0.2676
vn 0.8092 -0.2476 -0.5328
vn -0.4923 0.8642 -0.1038
vn -0.3601 -0.8538 -0.3759
vn -0.1234 0.8575 -0.4994
vn -0.9755 0.2091 -0.0685
vn 0.2666 -0.9076 -0.3244
vn -0.0313 0.2063 0.9780
vn -0.2187 -0.9562 0.1947
vn 0.8230 -0.0735 0.5633
vn -0.5983 -0.5178 0.6115
vn 0.9755 -0.2092 0.0683
vn -0.2666 0.9076 0.3244
vn 0.0313 -0.2063 -0.9780
vn 0.2187 0.9561 -0.1949
vn -0.8230 0.0735 -0.5633
vn 0.5983 0.5178 -0.6115
vn 0.8905 0.1032 0.4430
vn -0.0251 0.2050 0.9784
vn 0.2980 -0.9321 0.2057
vn -0.9753 0.2078 -0.0748
vn 0.6770 0.7242 -0.1312
vn -0.7065 0.3947 -0.5874
vn -0.0314 0.2059 0.9781
vn 0.7352 -0.5906 -0.3327
vn -0.0730 0.9698 0.2328
vn 0.5247 -0.2834 -0.8027
vn -0.4516 -0.6862 0.5703
vn 0.7962 -0.2963 0.5275
vn -0.3182 -0.5466 -0.7746
vn -0.4781 0.8428 0.2471
vn 0.1633 -0.9477 -0.2742
vn -0.1387 0.7508 -0.6459
vn -0.7645 -0.4039 0.5024
vn -0.1260 0.3007 -0.9453
vn -0.6595 -0.7469 -0.0849
vn 0.5476 -0.0061 0.8367
vn -0.7414 0.6597 -0.1229
vn -0.1478 0.0181 0.9889
vn 0.1850 0.9827 0.0097
vn -0.7697 0.0267 0.6378
vn 0.6597 0.7467 0.0850
vn -0.5476 0.0061 -0.8367
vn 0.7414 -0.6597 0.1229
vn 0.1479 -0.0182 -0.9888
vn -0.1850 -0.9827 -0.0097
vn 0.7697 -0.0267 -0.6378
vn 0.2905 0.9392 -0.1831
vn -0.7372 0.6645 -0.1223
vn 0.2008 0.3897 0.8988
vn -0.6548 -0.7511 -0.0841
vn 0.4549 0.3603 -0.8144
vn -0.1351 -0.9298 -0.3423
vn -0.7413 0.6597 -0.1232
vn 0.8324 0.3082 0.4606
vn -0.3576 0.0771 -0.9307
vn 0.9717 -0.1835 0.1486
vn -0.6138 0.1084 0.7820
vn 0.2241 0.9468 0.2308
vn 0.4062 -0.7511 0.5204
vn -0.6296 -0.1958 -0.7519
vn 0.4478 -0.0403 0.8932
vn 0.2465 -0.5828 -0.7743
vn -0.8242 -0.1721 0.5395
vn 0.5344 -0.7670 -0.3552
usemtl Material.006
s 1
f 4/1/1 5/2/2 6/3/3
f 7/4/4 8/5/5 9/6/6
f 6/3/3 5/2/2 8/7/5
f 3/8/7 10/9/8 31/10/9 4/11/1 6/12/3 30/13/10
f 17/14/11 18/15/12 19/16/13
f 20/17/14 21/18/15 5/2/2
f 18/15/12 7/4/4 9/6/6
f 8/19/5 22/20/16 9/21/6
f 22/20/16 20/17/14 9/21/6
f 19/16/13 23/22/17 17/14/11
f 24/23/18 20/17/14 5/2/2
f 17/14/11 4/1/1 25/24/19
f 20/25/14 19/26/13 26/27/20 28/28/21
f 39/29/22 34/30/23 35/31/24 37/32/25
f 10/9/8 1/33/26 29/34/27 31/10/9
f 26/35/20 33/36/28 27/37/29 28/38/21
f 32/39/30 2/40/31 3/41/7 30/42/10
f 8/43/5 5/44/2 42/45/32 44/46/33
f 36/47/34 38/48/35 24/49/18 17/50/11
f 9/51/6 20/25/14 28/28/21 27/52/29
f 11/53/36 46/54/37 12/55/38 13/56/39
f 29/34/27 32/39/30 7/57/4 25/58/19
f 35/31/24 24/49/18 38/48/35 37/32/25
f 41/59/40 21/60/15 22/61/16 43/62/41 45/63/42
f 5/44/2 21/60/15 41/59/40 45/63/42 11/64/36 13/65/39 42/45/32
f 37/32/25 38/48/35 15/66/43 40/67/44
f 39/29/22 37/32/25 40/67/44 14/68/45
f 4/11/1 31/10/9 29/34/27 25/58/19
f 45/63/42 43/62/41 46/69/37 11/64/36
f 10/70/8 3/71/7 2/72/31 1/73/26
f 21/74/46 24/49/18 35/31/24
f 21/74/46 35/31/24 34/30/23
f 21/74/46 34/30/23 19/75/13
f 19/75/13 34/30/23 23/76/17
f 4/1/1 24/23/18 5/2/2
f 7/4/4 6/77/3 8/5/5
f 17/14/11 25/24/19 18/15/12
f 18/15/12 25/24/19 7/4/4
f 22/20/16 21/18/15 20/17/14
f 24/23/18 19/78/13 20/17/14
f 17/14/11 24/23/18 4/1/1
f 43/62/41 44/79/33 12/80/38 46/69/37
f 18/81/12 9/82/6 27/83/29 33/84/28
f 13/65/39 12/85/38 44/46/33 42/45/32
f 7/57/4 32/39/30 30/42/10 6/86/3
f 22/61/16 8/87/5 44/79/33 43/62/41
f 14/88/45 40/89/44 15/90/43 16/91/47
f 19/26/13 18/81/12 33/84/28 26/27/20
f 17/92/11 23/76/17 34/30/23 39/29/22 14/68/45 16/93/47 36/94/34
f 29/34/27 1/33/26 2/40/31 32/39/30
f 38/48/35 36/47/34 16/95/47 15/66/43
usemtl Material.002
f 47/96/48 48/97/48 49/98/48
f 50/99/49 51/100/49 52/101/49
f 53/102/50 54/103/50 55/104/50
f 56/105/51 49/98/51 57/106/51
f 58/107/52 59/108/52 60/109/52
f 61/110/53 62/111/53 63/112/53
f 64/113/54 65/114/54 66/115/54
f 67/116/55 68/117/55 69/118/55
f 70/119/56 71/120/56 72/121/56
f 73/122/57 74/123/57 65/114/57
f 75/124/58 76/125/58 77/126/58
f 78/127/59 79/128/59 80/129/59
f 52/101/60 51/100/60 69/118/60 68/117/60
f 48/97/61 47/96/61 64/113/61 66/115/61
f 54/103/62 53/102/62 70/119/62 72/121/63
f 53/102/64 55/104/64 71/120/64 70/119/64
f 55/104/65 54/103/65 72/121/65 71/120/65
f 49/98/66 56/105/66 73/122/66 65/114/66
f 56/105/67 57/106/67 74/123/67 73/122/67
f 57/106/68 49/98/68 65/114/68 74/123/68
f 59/108/69 58/107/69 75/124/69 77/126/69
f 58/107/70 60/109/70 76/125/70 75/124/70
f 60/109/71 59/108/71 77/126/71 76/125/71
f 62/111/72 61/110/72 78/127/72 80/129/72
f 61/110/73 63/112/73 79/128/73 78/127/73
f 63/112/74 62/111/74 80/129/74 79/128/74
f 47/96/75 49/98/75 65/114/75 64/113/75
f 49/98/76 48/97/76 66/115/76 65/114/76
f 50/99/77 52/101/77 68/117/77 67/116/77
f 51/100/78 50/99/78 67/116/78 69/118/78
f 81/130/79 82/131/79 83/132/79
f 84/133/80 85/134/80 86/135/80
f 87/136/81 88/137/81 89/138/81
f 90/139/82 83/132/82 91/140/82
f 92/141/83 93/142/83 94/143/83
f 95/144/84 96/145/84 97/146/84
f 98/147/85 99/148/85 100/149/85
f 101/150/86 102/151/86 103/152/86
f 104/153/87 105/154/87 106/155/87
f 107/156/88 108/157/88 99/148/88
f 109/158/89 110/159/89 111/160/89
f 112/161/90 113/162/90 114/163/90
f 86/135/91 85/134/91 103/152/91 102/151/91
f 82/131/92 81/130/92 98/147/92 100/149/92
f 88/137/93 87/136/93 104/153/93 106/155/93
f 87/136/94 89/138/94 105/154/94 104/153/94
f 89/138/95 88/137/95 106/155/95 105/154/95
f 83/132/96 90/139/96 107/156/96 99/148/96
f 90/139/97 91/140/97 108/157/97 107/156/97
f 91/140/98 83/132/98 99/148/98 108/157/98
f 93/142/99 92/141/99 109/158/99 111/160/99
f 92/141/100 94/143/100 110/159/100 109/158/100
f 94/143/101 93/142/101 111/160/101 110/159/101
f 96/145/102 95/144/102 112/161/102 114/163/102
f 95/144/103 97/146/103 113/162/103 112/161/103
f 97/146/104 96/145/104 114/163/104 113/162/104
f 81/130/105 83/132/105 99/148/105 98/147/105
f 83/132/106 82/131/106 100/149/106 99/148/106
f 84/133/107 86/135/107 102/151/107 101/150/107
f 85/134/108 84/133/108 101/150/108 103/152/108
f 115/164/109 116/165/109 117/166/109
f 118/167/110 119/168/110 120/169/110
f 121/170/111 122/171/111 123/172/111
f 124/173/112 117/166/112 125/174/112
f 126/175/113 127/176/113 128/177/113
f 129/178/114 130/179/114 131/180/114
f 132/181/115 133/182/115 134/183/115
f 135/184/116 136/185/116 137/186/116
f 138/187/117 139/188/117 140/189/117
f 141/190/118 142/191/118 133/182/118
f 143/192/119 144/193/119 145/194/119
f 146/195/120 147/196/120 148/197/120
f 120/169/121 119/168/121 137/186/121 136/185/121
f 116/165/122 115/164/122 132/181/122 134/183/122
f 122/171/123 121/170/123 138/187/123 140/189/123
f 121/170/124 123/172/124 139/188/124 138/187/124
f 123/172/125 122/171/125 140/189/125 139/188/125
f 117/166/126 124/173/126 141/190/126 133/182/126
f 124/173/127 125/174/127 142/191/127 141/190/127
f 125/174/128 117/166/128 133/182/128 142/191/128
f 127/176/129 126/175/129 143/192/129 145/194/129
f 126/175/130 128/177/130 144/193/130 143/192/130
f 128/177/131 127/176/131 145/194/131 144/193/131
f 130/179/132 129/178/132 146/195/132 148/197/132
f 129/178/133 131/180/133 147/196/133 146/195/133
f 131/180/134 130/179/134 148/197/134 147/196/134
f 115/164/135 117/166/135 133/182/135 132/181/135
f 117/166/136 116/165/136 134/183/136 133/182/136
f 118/167/137 120/169/137 136/185/137 135/184/137
f 119/168/138 118/167/138 135/184/138 137/186/138
